M48
INCH,TZ
T1C0.016
T2C0.028
T3C0.030
T4C0.031
T5C0.039
%
G90
G05
T1
X40356Y-28356
X40356Y-29356
X40356Y-30356
X40356Y-31356
X40356Y-32356
X40356Y-33356
X40356Y-34356
X40356Y-35356
X40356Y-36356
X41106Y-40106
X41856Y-26356
X42356Y-26356
X42856Y-26356
X43106Y-41856
X43356Y-26356
X43856Y-25356
X43856Y-28356
X43856Y-31356
X43856Y-31856
X43856Y-41606
X44356Y-31356
X44356Y-31856
X44606Y-27356
X44606Y-34856
X44856Y-34356
X44856Y-35356
X46356Y-31356
X46356Y-32356
X46356Y-33356
X46356Y-36356
X47856Y-28356
X47856Y-30856
X49856Y-38606
X50106Y-24856
X50106Y-25356
X50106Y-34356
X50606Y-24856
X50606Y-25356
X50856Y-38606
X51356Y-33856
X51856Y-38606
X52606Y-33356
X52856Y-27606
X52856Y-29106
X52856Y-38606
X53856Y-32856
X53856Y-38606
X54856Y-38606
X55106Y-32356
X55856Y-38606
X56856Y-38606
X57856Y-37106
X58856Y-37106
X59856Y-37106
X60106Y-36356
X60856Y-41606
X61106Y-41856
X62106Y-37106
X62356Y-26106
X62356Y-30106
X63106Y-37106
X63356Y-29606
X63356Y-30106
X63856Y-29606
X63856Y-30106
X64106Y-37106
T2
X48856Y-37856
X48856Y-40856
X49856Y-37856
X49856Y-40856
X50856Y-37856
X50856Y-40856
X51856Y-37856
X51856Y-40856
X52856Y-37856
X52856Y-40856
X53856Y-37856
X53856Y-40856
X54856Y-37856
X54856Y-40856
X55856Y-37856
X55856Y-40856
X56856Y-37856
X56856Y-40856
X57856Y-37856
X57856Y-40856
X58856Y-37856
X58856Y-40856
X59856Y-37856
X59856Y-40856
X62106Y-37856
X62106Y-40856
X63106Y-37856
X63106Y-40856
X64106Y-37856
X64106Y-40856
T3
X39606Y-25356
X39606Y-26356
X39606Y-27356
X39606Y-28356
X39606Y-29356
X39606Y-30356
X39606Y-31356
X39606Y-32356
X39606Y-33356
X39606Y-34356
X39606Y-35356
X39606Y-36356
X39606Y-37356
X39606Y-38356
X39606Y-39356
X42356Y-40606
X42356Y-42606
X45356Y-40606
X45356Y-42606
X45606Y-25356
X45606Y-26356
X45606Y-27356
X45606Y-28356
X45606Y-29356
X45606Y-30356
X45606Y-31356
X45606Y-32356
X45606Y-33356
X45606Y-34356
X45606Y-35356
X45606Y-36356
X45606Y-37356
X45606Y-38356
X45606Y-39356
T4
X50356Y-26106
X50356Y-30106
X51606Y-26606
X51606Y-27606
X51606Y-28606
X51606Y-29606
X51856Y-25106
X54606Y-26606
X54606Y-27606
X54606Y-28606
X54606Y-29606
X55856Y-25106
X56106Y-26606
X56106Y-27606
X56106Y-28606
X56106Y-29606
X56106Y-30606
X56106Y-31606
X56106Y-32606
X56106Y-33606
X56106Y-34606
X59106Y-26606
X59106Y-27606
X59106Y-28606
X59106Y-29606
X59106Y-30606
X59106Y-31606
X59106Y-32606
X59106Y-33606
X59106Y-34606
X59356Y-22606
X59356Y-23591
X60856Y-27138
X60856Y-29106
T5
X41358Y-22988
X41358Y-23988
X42358Y-22988
X42358Y-23988
X43358Y-22988
X43358Y-23988
X44358Y-22988
X44358Y-23988
X45358Y-22988
X45358Y-23988
X46358Y-22988
X46358Y-23988
X47356Y-26356
X47356Y-27356
X47356Y-34356
X47356Y-35356
X47358Y-22988
X47358Y-23988
X48358Y-22988
X48358Y-23988
X49358Y-22988
X49358Y-23988
X50358Y-22988
X50358Y-23988
X51358Y-22988
X51358Y-23988
X52358Y-22988
X52358Y-23988
X53358Y-22988
X53358Y-23988
X54358Y-22988
X54358Y-23988
X55358Y-22988
X55358Y-23988
X56358Y-22988
X56358Y-23988
X63356Y-27856
X63356Y-33856
X64356Y-27856
X64356Y-33856
T0
M30
