G04 #@! TF.FileFunction,Soldermask,Bot*
%FSLAX46Y46*%
G04 Gerber Fmt 4.6, Leading zero omitted, Abs format (unit mm)*
G04 Created by KiCad (PCBNEW 4.0.6) date 12/04/17 18:38:42*
%MOMM*%
%LPD*%
G01*
G04 APERTURE LIST*
%ADD10C,0.050000*%
%ADD11C,2.100000*%
%ADD12C,2.000000*%
%ADD13O,2.000000X2.000000*%
%ADD14O,2.900000X1.600000*%
%ADD15R,2.000000X2.000000*%
%ADD16C,2.900000*%
%ADD17O,2.400000X3.400000*%
%ADD18C,1.900000*%
%ADD19O,2.400000X4.400000*%
%ADD20O,4.400000X2.400000*%
G04 APERTURE END LIST*
D10*
D11*
X105050000Y-58390000D03*
X105050000Y-60930000D03*
X107590000Y-58390000D03*
X107590000Y-60930000D03*
X110130000Y-58390000D03*
X110130000Y-60930000D03*
X112670000Y-58390000D03*
X112670000Y-60930000D03*
X115210000Y-58390000D03*
X115210000Y-60930000D03*
X117750000Y-58390000D03*
X117750000Y-60930000D03*
X120290000Y-58390000D03*
X120290000Y-60930000D03*
X122830000Y-58390000D03*
X122830000Y-60930000D03*
X125370000Y-58390000D03*
X125370000Y-60930000D03*
X127910000Y-58390000D03*
X127910000Y-60930000D03*
X130450000Y-58390000D03*
X130450000Y-60930000D03*
X132990000Y-58390000D03*
X132990000Y-60930000D03*
X135530000Y-58390000D03*
X135530000Y-60930000D03*
X138070000Y-58390000D03*
X138070000Y-60930000D03*
X140610000Y-58390000D03*
X140610000Y-60930000D03*
X143150000Y-58390000D03*
X143150000Y-60930000D03*
D12*
X127905000Y-76470000D03*
D13*
X127905000Y-66310000D03*
D12*
X131715000Y-63770000D03*
D13*
X141875000Y-63770000D03*
D14*
X100600000Y-64405000D03*
X100600000Y-66945000D03*
X100600000Y-69485000D03*
X100600000Y-72025000D03*
X100600000Y-74565000D03*
X100600000Y-77105000D03*
X100600000Y-79645000D03*
X100600000Y-82185000D03*
X100600000Y-84725000D03*
X100600000Y-87265000D03*
X100600000Y-89805000D03*
X100600000Y-92345000D03*
X100600000Y-94885000D03*
X100600000Y-97425000D03*
X100600000Y-99965000D03*
X115840000Y-99965000D03*
X115840000Y-97425000D03*
X115840000Y-94885000D03*
X115840000Y-92345000D03*
X115840000Y-89805000D03*
X115840000Y-87265000D03*
X115840000Y-84725000D03*
X115840000Y-82185000D03*
X115840000Y-79645000D03*
X115840000Y-77105000D03*
X115840000Y-74565000D03*
X115840000Y-72025000D03*
X115840000Y-69485000D03*
X115840000Y-66945000D03*
X115840000Y-64405000D03*
D15*
X150130000Y-87900000D03*
D13*
X142510000Y-67580000D03*
X150130000Y-85360000D03*
X142510000Y-70120000D03*
X150130000Y-82820000D03*
X142510000Y-72660000D03*
X150130000Y-80280000D03*
X142510000Y-75200000D03*
X150130000Y-77740000D03*
X142510000Y-77740000D03*
X150130000Y-75200000D03*
X142510000Y-80280000D03*
X150130000Y-72660000D03*
X142510000Y-82820000D03*
X150130000Y-70120000D03*
X142510000Y-85360000D03*
X150130000Y-67580000D03*
X142510000Y-87900000D03*
D15*
X138700000Y-75200000D03*
D13*
X131080000Y-67580000D03*
X138700000Y-72660000D03*
X131080000Y-70120000D03*
X138700000Y-70120000D03*
X131080000Y-72660000D03*
X138700000Y-67580000D03*
X131080000Y-75200000D03*
D16*
X107585000Y-108220000D03*
X115205000Y-108220000D03*
X115205000Y-103140000D03*
X107585000Y-103140000D03*
D17*
X124095000Y-103775000D03*
X126635000Y-103775000D03*
X129175000Y-103775000D03*
X131715000Y-103775000D03*
X134255000Y-103775000D03*
X136795000Y-103775000D03*
X139335000Y-103775000D03*
X141875000Y-103775000D03*
X144415000Y-103775000D03*
X146955000Y-103775000D03*
X149495000Y-103775000D03*
X152035000Y-103775000D03*
X152035000Y-96155000D03*
X149495000Y-96155000D03*
X146955000Y-96155000D03*
X144415000Y-96155000D03*
X141875000Y-96155000D03*
X139335000Y-96155000D03*
X136795000Y-96155000D03*
X134255000Y-96155000D03*
X131715000Y-96155000D03*
X129175000Y-96155000D03*
X126635000Y-96155000D03*
X124095000Y-96155000D03*
X157750000Y-103775000D03*
X160290000Y-103775000D03*
X162830000Y-103775000D03*
X162830000Y-96155000D03*
X160290000Y-96155000D03*
X157750000Y-96155000D03*
D18*
X154575000Y-73930000D03*
X154575000Y-68930000D03*
D19*
X163465000Y-70755000D03*
X160925000Y-70755000D03*
X163465000Y-85995000D03*
X160925000Y-85995000D03*
D20*
X120285000Y-69485000D03*
X120285000Y-66945000D03*
X120285000Y-87265000D03*
X120285000Y-89805000D03*
D15*
X150765000Y-57420000D03*
D12*
X150765000Y-59920000D03*
M02*
