G04 #@! TF.FileFunction,Copper,L2,Bot,Signal*
%FSLAX46Y46*%
G04 Gerber Fmt 4.6, Leading zero omitted, Abs format (unit mm)*
G04 Created by KiCad (PCBNEW 4.0.6) date 12/04/17 18:38:42*
%MOMM*%
%LPD*%
G01*
G04 APERTURE LIST*
%ADD10C,0.050000*%
%ADD11C,1.700000*%
%ADD12C,1.600000*%
%ADD13O,1.600000X1.600000*%
%ADD14O,2.500000X1.200000*%
%ADD15R,1.600000X1.600000*%
%ADD16C,2.500000*%
%ADD17O,2.000000X3.000000*%
%ADD18C,1.500000*%
%ADD19O,2.000000X4.000000*%
%ADD20O,4.000000X2.000000*%
%ADD21C,0.600000*%
%ADD22C,0.250000*%
%ADD23C,2.000000*%
%ADD24C,0.254000*%
G04 APERTURE END LIST*
D10*
D11*
X105050000Y-58390000D03*
X105050000Y-60930000D03*
X107590000Y-58390000D03*
X107590000Y-60930000D03*
X110130000Y-58390000D03*
X110130000Y-60930000D03*
X112670000Y-58390000D03*
X112670000Y-60930000D03*
X115210000Y-58390000D03*
X115210000Y-60930000D03*
X117750000Y-58390000D03*
X117750000Y-60930000D03*
X120290000Y-58390000D03*
X120290000Y-60930000D03*
X122830000Y-58390000D03*
X122830000Y-60930000D03*
X125370000Y-58390000D03*
X125370000Y-60930000D03*
X127910000Y-58390000D03*
X127910000Y-60930000D03*
X130450000Y-58390000D03*
X130450000Y-60930000D03*
X132990000Y-58390000D03*
X132990000Y-60930000D03*
X135530000Y-58390000D03*
X135530000Y-60930000D03*
X138070000Y-58390000D03*
X138070000Y-60930000D03*
X140610000Y-58390000D03*
X140610000Y-60930000D03*
X143150000Y-58390000D03*
X143150000Y-60930000D03*
D12*
X127905000Y-76470000D03*
D13*
X127905000Y-66310000D03*
D12*
X131715000Y-63770000D03*
D13*
X141875000Y-63770000D03*
D14*
X100600000Y-64405000D03*
X100600000Y-66945000D03*
X100600000Y-69485000D03*
X100600000Y-72025000D03*
X100600000Y-74565000D03*
X100600000Y-77105000D03*
X100600000Y-79645000D03*
X100600000Y-82185000D03*
X100600000Y-84725000D03*
X100600000Y-87265000D03*
X100600000Y-89805000D03*
X100600000Y-92345000D03*
X100600000Y-94885000D03*
X100600000Y-97425000D03*
X100600000Y-99965000D03*
X115840000Y-99965000D03*
X115840000Y-97425000D03*
X115840000Y-94885000D03*
X115840000Y-92345000D03*
X115840000Y-89805000D03*
X115840000Y-87265000D03*
X115840000Y-84725000D03*
X115840000Y-82185000D03*
X115840000Y-79645000D03*
X115840000Y-77105000D03*
X115840000Y-74565000D03*
X115840000Y-72025000D03*
X115840000Y-69485000D03*
X115840000Y-66945000D03*
X115840000Y-64405000D03*
D15*
X150130000Y-87900000D03*
D13*
X142510000Y-67580000D03*
X150130000Y-85360000D03*
X142510000Y-70120000D03*
X150130000Y-82820000D03*
X142510000Y-72660000D03*
X150130000Y-80280000D03*
X142510000Y-75200000D03*
X150130000Y-77740000D03*
X142510000Y-77740000D03*
X150130000Y-75200000D03*
X142510000Y-80280000D03*
X150130000Y-72660000D03*
X142510000Y-82820000D03*
X150130000Y-70120000D03*
X142510000Y-85360000D03*
X150130000Y-67580000D03*
X142510000Y-87900000D03*
D15*
X138700000Y-75200000D03*
D13*
X131080000Y-67580000D03*
X138700000Y-72660000D03*
X131080000Y-70120000D03*
X138700000Y-70120000D03*
X131080000Y-72660000D03*
X138700000Y-67580000D03*
X131080000Y-75200000D03*
D16*
X107585000Y-108220000D03*
X115205000Y-108220000D03*
X115205000Y-103140000D03*
X107585000Y-103140000D03*
D17*
X124095000Y-103775000D03*
X126635000Y-103775000D03*
X129175000Y-103775000D03*
X131715000Y-103775000D03*
X134255000Y-103775000D03*
X136795000Y-103775000D03*
X139335000Y-103775000D03*
X141875000Y-103775000D03*
X144415000Y-103775000D03*
X146955000Y-103775000D03*
X149495000Y-103775000D03*
X152035000Y-103775000D03*
X152035000Y-96155000D03*
X149495000Y-96155000D03*
X146955000Y-96155000D03*
X144415000Y-96155000D03*
X141875000Y-96155000D03*
X139335000Y-96155000D03*
X136795000Y-96155000D03*
X134255000Y-96155000D03*
X131715000Y-96155000D03*
X129175000Y-96155000D03*
X126635000Y-96155000D03*
X124095000Y-96155000D03*
X157750000Y-103775000D03*
X160290000Y-103775000D03*
X162830000Y-103775000D03*
X162830000Y-96155000D03*
X160290000Y-96155000D03*
X157750000Y-96155000D03*
D18*
X154575000Y-73930000D03*
X154575000Y-68930000D03*
D19*
X163465000Y-70755000D03*
X160925000Y-70755000D03*
X163465000Y-85995000D03*
X160925000Y-85995000D03*
D20*
X120285000Y-69485000D03*
X120285000Y-66945000D03*
X120285000Y-87265000D03*
X120285000Y-89805000D03*
D15*
X150765000Y-57420000D03*
D12*
X150765000Y-59920000D03*
D21*
X158385000Y-76470000D03*
X111395000Y-80915000D03*
X112665000Y-80915000D03*
X112665000Y-79645000D03*
X111395000Y-79645000D03*
X104410000Y-101870000D03*
X109490000Y-106315000D03*
X128540000Y-63135000D03*
X128540000Y-64405000D03*
X127270000Y-64405000D03*
X127270000Y-63135000D03*
X102505000Y-72025000D03*
X108855000Y-66945000D03*
X107585000Y-66945000D03*
X106315000Y-66945000D03*
X110125000Y-66945000D03*
X162195000Y-76470000D03*
X162195000Y-75200000D03*
X160925000Y-76470000D03*
X160925000Y-75200000D03*
X158385000Y-66310000D03*
X134255000Y-73930000D03*
X111395000Y-64405000D03*
X111395000Y-72025000D03*
X134255000Y-70120000D03*
X139970000Y-82185000D03*
X136795000Y-83455000D03*
X133620000Y-84725000D03*
X130445000Y-85995000D03*
X127270000Y-87265000D03*
X162830000Y-94250000D03*
X117745000Y-79645000D03*
X117745000Y-82185000D03*
X160290000Y-94250000D03*
X117745000Y-84725000D03*
X157750000Y-94250000D03*
X113935000Y-87265000D03*
X152035000Y-94250000D03*
X113935000Y-89805000D03*
X149495000Y-94250000D03*
X117745000Y-92345000D03*
X146955000Y-94250000D03*
X121555000Y-72025000D03*
X121555000Y-78375000D03*
X126635000Y-98060000D03*
X102505000Y-74565000D03*
X129175000Y-98060000D03*
X102505000Y-77105000D03*
X131715000Y-98060000D03*
X102505000Y-79645000D03*
X134255000Y-98060000D03*
X102505000Y-82185000D03*
X136795000Y-98060000D03*
X102505000Y-84725000D03*
X139335000Y-98060000D03*
X102505000Y-87265000D03*
X141875000Y-98060000D03*
X102505000Y-89805000D03*
X111395000Y-105680000D03*
X144415000Y-98060000D03*
X102505000Y-92345000D03*
X154575000Y-105680000D03*
X113300000Y-69485000D03*
X113300000Y-88535000D03*
X155210000Y-106315000D03*
X152670000Y-92345000D03*
D22*
X154575000Y-73930000D02*
X151400000Y-73930000D01*
X151400000Y-73930000D02*
X150130000Y-72660000D01*
X155845000Y-73930000D02*
X154575000Y-73930000D01*
X158385000Y-76470000D02*
X155845000Y-73930000D01*
X107585000Y-103140000D02*
X107585000Y-104410000D01*
X112665000Y-79645000D02*
X112665000Y-80915000D01*
X111395000Y-94885000D02*
X111395000Y-79645000D01*
X104410000Y-101870000D02*
X111395000Y-94885000D01*
X107585000Y-104410000D02*
X109490000Y-106315000D01*
X127910000Y-63135000D02*
X127270000Y-63135000D01*
X127270000Y-64405000D02*
X128540000Y-64405000D01*
X127910000Y-60930000D02*
X127910000Y-63135000D01*
X127910000Y-63135000D02*
X127910000Y-66305000D01*
X127910000Y-66305000D02*
X127905000Y-66310000D01*
X100600000Y-72025000D02*
X102505000Y-72025000D01*
X108855000Y-66945000D02*
X107585000Y-66945000D01*
X110125000Y-66945000D02*
X115840000Y-66945000D01*
X115205000Y-103140000D02*
X107585000Y-103140000D01*
X162830000Y-103775000D02*
X164735000Y-101870000D01*
X163465000Y-89805000D02*
X163465000Y-85995000D01*
X164735000Y-91075000D02*
X163465000Y-89805000D01*
X164735000Y-92345000D02*
X164735000Y-91075000D01*
X164735000Y-101870000D02*
X164735000Y-92345000D01*
X160925000Y-85995000D02*
X160925000Y-76470000D01*
X162195000Y-76470000D02*
X160925000Y-76470000D01*
X162195000Y-75200000D02*
X160925000Y-75200000D01*
X150130000Y-67580000D02*
X152670000Y-65040000D01*
X158385000Y-72660000D02*
X160925000Y-75200000D01*
X159655000Y-65040000D02*
X152670000Y-65040000D01*
X160290000Y-65675000D02*
X159655000Y-65040000D01*
X160290000Y-66945000D02*
X160290000Y-65675000D01*
X158385000Y-68850000D02*
X160290000Y-66945000D01*
X158385000Y-72660000D02*
X158385000Y-68850000D01*
X150130000Y-67580000D02*
X150130000Y-60555000D01*
X150130000Y-60555000D02*
X150765000Y-59920000D01*
X150130000Y-67580000D02*
X146955000Y-67580000D01*
X134255000Y-72660000D02*
X138700000Y-72660000D01*
X132985000Y-71390000D02*
X134255000Y-72660000D01*
X132985000Y-70120000D02*
X132985000Y-71390000D01*
X137430000Y-65675000D02*
X132985000Y-70120000D01*
X145050000Y-65675000D02*
X137430000Y-65675000D01*
X146955000Y-67580000D02*
X145050000Y-65675000D01*
X134255000Y-56785000D02*
X129175000Y-56785000D01*
X129175000Y-56785000D02*
X128540000Y-56785000D01*
X128540000Y-56785000D02*
X127910000Y-57415000D01*
X127910000Y-57415000D02*
X127910000Y-58390000D01*
X150765000Y-59920000D02*
X147550000Y-59920000D01*
X144415000Y-56785000D02*
X134255000Y-56785000D01*
X147550000Y-59920000D02*
X144415000Y-56785000D01*
D23*
X160925000Y-85995000D02*
X163465000Y-85995000D01*
X127910000Y-58390000D02*
X127910000Y-60930000D01*
D22*
X160290000Y-103775000D02*
X162830000Y-103775000D01*
X157750000Y-103775000D02*
X160290000Y-103775000D01*
X152035000Y-103775000D02*
X157750000Y-103775000D01*
X149495000Y-103775000D02*
X152035000Y-103775000D01*
X146955000Y-103775000D02*
X149495000Y-103775000D01*
X144415000Y-103775000D02*
X146955000Y-103775000D01*
X141875000Y-103775000D02*
X144415000Y-103775000D01*
X139335000Y-103775000D02*
X141875000Y-103775000D01*
X136795000Y-103775000D02*
X139335000Y-103775000D01*
X134255000Y-103775000D02*
X136795000Y-103775000D01*
X131715000Y-103775000D02*
X134255000Y-103775000D01*
X129175000Y-103775000D02*
X131715000Y-103775000D01*
X126635000Y-103775000D02*
X129175000Y-103775000D01*
X154575000Y-68930000D02*
X151320000Y-68930000D01*
X151320000Y-68930000D02*
X150130000Y-70120000D01*
X155765000Y-68930000D02*
X154575000Y-68930000D01*
X158385000Y-66310000D02*
X155765000Y-68930000D01*
D23*
X105050000Y-58390000D02*
X105050000Y-60930000D01*
X107590000Y-58390000D02*
X107590000Y-60930000D01*
X110130000Y-58390000D02*
X110130000Y-60930000D01*
X112670000Y-58390000D02*
X112670000Y-60930000D01*
X115210000Y-58390000D02*
X115210000Y-60930000D01*
X117750000Y-58390000D02*
X117750000Y-60930000D01*
X120290000Y-58390000D02*
X120290000Y-60930000D01*
X122830000Y-58390000D02*
X122830000Y-60930000D01*
D22*
X124095000Y-63135000D02*
X125365000Y-64405000D01*
X127270000Y-73930000D02*
X134255000Y-73930000D01*
X125365000Y-72025000D02*
X127270000Y-73930000D01*
X125365000Y-64405000D02*
X125365000Y-72025000D01*
X125370000Y-61860000D02*
X124095000Y-63135000D01*
X124095000Y-63135000D02*
X112665000Y-63135000D01*
X112665000Y-63135000D02*
X111395000Y-64405000D01*
X125370000Y-60930000D02*
X125370000Y-61860000D01*
X111395000Y-72025000D02*
X115840000Y-72025000D01*
X130445000Y-56150000D02*
X126000000Y-56150000D01*
X147590000Y-57420000D02*
X146320000Y-56150000D01*
X146320000Y-56150000D02*
X130445000Y-56150000D01*
X150765000Y-57420000D02*
X147590000Y-57420000D01*
X125370000Y-56780000D02*
X125370000Y-58390000D01*
X126000000Y-56150000D02*
X125370000Y-56780000D01*
X134255000Y-70120000D02*
X138700000Y-70120000D01*
X139970000Y-82185000D02*
X139970000Y-85360000D01*
X139970000Y-85360000D02*
X142510000Y-87900000D01*
X136795000Y-83455000D02*
X139970000Y-82185000D01*
X133620000Y-84725000D02*
X136795000Y-83455000D01*
X130445000Y-85995000D02*
X133620000Y-84725000D01*
X127270000Y-87265000D02*
X130445000Y-85995000D01*
D23*
X125370000Y-58390000D02*
X125370000Y-60930000D01*
X130450000Y-58390000D02*
X130450000Y-60930000D01*
X132990000Y-58390000D02*
X132990000Y-60930000D01*
D22*
X131080000Y-72660000D02*
X129175000Y-70755000D01*
X129175000Y-66945000D02*
X131715000Y-64405000D01*
X129175000Y-70755000D02*
X129175000Y-66945000D01*
X131715000Y-64405000D02*
X131715000Y-63770000D01*
X135530000Y-60930000D02*
X132690000Y-63770000D01*
X132690000Y-63770000D02*
X131715000Y-63770000D01*
D23*
X135530000Y-58390000D02*
X135530000Y-60930000D01*
D22*
X131080000Y-70120000D02*
X136160000Y-65040000D01*
X139640000Y-65040000D02*
X140910000Y-63770000D01*
X136160000Y-65040000D02*
X139640000Y-65040000D01*
X138070000Y-60930000D02*
X140910000Y-63770000D01*
X140910000Y-63770000D02*
X141875000Y-63770000D01*
D23*
X138070000Y-58390000D02*
X138070000Y-60930000D01*
X140610000Y-58390000D02*
X140610000Y-60930000D01*
X143150000Y-58390000D02*
X143150000Y-60930000D01*
D22*
X162830000Y-94250000D02*
X162830000Y-96155000D01*
X115840000Y-79645000D02*
X117745000Y-79645000D01*
X117745000Y-82185000D02*
X115840000Y-82185000D01*
X160290000Y-96155000D02*
X160290000Y-94250000D01*
X115840000Y-84725000D02*
X117745000Y-84725000D01*
X116475000Y-84725000D02*
X115840000Y-84725000D01*
X157750000Y-96155000D02*
X157750000Y-94250000D01*
X113935000Y-87265000D02*
X115840000Y-87265000D01*
X152035000Y-96155000D02*
X152035000Y-94250000D01*
X113935000Y-89805000D02*
X115840000Y-89805000D01*
X149495000Y-96155000D02*
X149495000Y-94250000D01*
X117745000Y-92345000D02*
X115840000Y-92345000D01*
X146955000Y-94250000D02*
X146955000Y-96155000D01*
X131080000Y-75200000D02*
X129175000Y-75200000D01*
X129175000Y-75200000D02*
X127905000Y-76470000D01*
X100600000Y-64405000D02*
X103775000Y-64405000D01*
X120285000Y-79645000D02*
X120285000Y-87265000D01*
X120285000Y-79645000D02*
X121555000Y-78375000D01*
X123460000Y-70120000D02*
X121555000Y-72025000D01*
X123460000Y-65675000D02*
X123460000Y-70120000D01*
X122825000Y-65040000D02*
X123460000Y-65675000D01*
X117745000Y-65040000D02*
X122825000Y-65040000D01*
X117110000Y-65675000D02*
X117745000Y-65040000D01*
X105045000Y-65675000D02*
X117110000Y-65675000D01*
X103775000Y-64405000D02*
X105045000Y-65675000D01*
D23*
X120285000Y-89805000D02*
X120285000Y-87265000D01*
D22*
X120285000Y-68215000D02*
X105045000Y-68215000D01*
X103775000Y-66945000D02*
X100600000Y-66945000D01*
X105045000Y-68215000D02*
X103775000Y-66945000D01*
D23*
X120285000Y-66945000D02*
X120285000Y-68215000D01*
X120285000Y-68215000D02*
X120285000Y-69485000D01*
D22*
X126635000Y-96155000D02*
X126635000Y-98060000D01*
X102505000Y-74565000D02*
X100600000Y-74565000D01*
X129175000Y-96155000D02*
X129175000Y-98060000D01*
X102505000Y-77105000D02*
X100600000Y-77105000D01*
X129175000Y-96155000D02*
X129175000Y-96790000D01*
X131715000Y-96155000D02*
X131715000Y-98060000D01*
X102505000Y-79645000D02*
X100600000Y-79645000D01*
X134255000Y-96155000D02*
X134255000Y-98060000D01*
X102505000Y-82185000D02*
X100600000Y-82185000D01*
X136795000Y-96155000D02*
X136795000Y-98060000D01*
X102505000Y-84725000D02*
X100600000Y-84725000D01*
X139335000Y-96155000D02*
X139335000Y-98060000D01*
X102505000Y-87265000D02*
X100600000Y-87265000D01*
X141875000Y-96155000D02*
X141875000Y-98060000D01*
X102505000Y-89805000D02*
X100600000Y-89805000D01*
X111395000Y-105680000D02*
X119015000Y-105680000D01*
X151400000Y-106950000D02*
X153305000Y-106950000D01*
X144415000Y-96155000D02*
X144415000Y-98060000D01*
X137430000Y-106950000D02*
X120285000Y-106950000D01*
X120285000Y-106950000D02*
X119015000Y-105680000D01*
X102505000Y-92345000D02*
X100600000Y-92345000D01*
X151400000Y-106950000D02*
X137430000Y-106950000D01*
X153305000Y-106950000D02*
X154575000Y-105680000D01*
X100600000Y-94885000D02*
X103775000Y-94885000D01*
X122825000Y-73295000D02*
X124730000Y-75200000D01*
X134255000Y-78375000D02*
X127905000Y-78375000D01*
X106950000Y-84725000D02*
X106950000Y-77740000D01*
X106950000Y-77740000D02*
X111395000Y-73295000D01*
X111395000Y-73295000D02*
X117110000Y-73295000D01*
X138700000Y-78375000D02*
X140605000Y-76470000D01*
X140605000Y-76470000D02*
X140605000Y-74565000D01*
X140605000Y-74565000D02*
X141240000Y-73930000D01*
X141240000Y-73930000D02*
X144415000Y-73930000D01*
X144415000Y-73930000D02*
X145685000Y-75200000D01*
X145685000Y-75200000D02*
X145685000Y-81550000D01*
X145685000Y-81550000D02*
X144415000Y-82820000D01*
X144415000Y-82820000D02*
X142510000Y-82820000D01*
X134255000Y-78375000D02*
X138700000Y-78375000D01*
X127905000Y-78375000D02*
X124730000Y-75200000D01*
X117110000Y-73295000D02*
X122825000Y-73295000D01*
X106950000Y-91710000D02*
X106950000Y-84725000D01*
X103775000Y-94885000D02*
X106950000Y-91710000D01*
X111395000Y-75835000D02*
X117110000Y-75835000D01*
X108220000Y-85995000D02*
X108220000Y-79010000D01*
X108220000Y-92980000D02*
X108220000Y-85995000D01*
X100600000Y-97425000D02*
X103775000Y-97425000D01*
X103775000Y-97425000D02*
X106950000Y-94250000D01*
X106950000Y-94250000D02*
X108220000Y-92980000D01*
X108220000Y-79010000D02*
X111395000Y-75835000D01*
X141240000Y-79010000D02*
X142510000Y-77740000D01*
X141240000Y-79010000D02*
X134255000Y-79010000D01*
X131715000Y-79010000D02*
X134255000Y-79010000D01*
X127270000Y-79010000D02*
X131715000Y-79010000D01*
X122825000Y-74565000D02*
X127270000Y-79010000D01*
X120920000Y-74565000D02*
X122825000Y-74565000D01*
X118380000Y-74565000D02*
X120920000Y-74565000D01*
X117110000Y-75835000D02*
X118380000Y-74565000D01*
X109490000Y-93615000D02*
X109490000Y-94250000D01*
X126635000Y-79645000D02*
X122825000Y-75835000D01*
X122825000Y-75835000D02*
X119650000Y-75835000D01*
X119650000Y-75835000D02*
X119015000Y-76470000D01*
X129175000Y-79645000D02*
X141875000Y-79645000D01*
X142510000Y-80280000D02*
X141875000Y-79645000D01*
X111395000Y-78375000D02*
X117110000Y-78375000D01*
X109490000Y-80280000D02*
X111395000Y-78375000D01*
X109490000Y-93615000D02*
X109490000Y-87265000D01*
X109490000Y-87265000D02*
X109490000Y-80280000D01*
X117110000Y-78375000D02*
X119015000Y-76470000D01*
X129175000Y-79645000D02*
X126635000Y-79645000D01*
X103775000Y-99965000D02*
X106315000Y-97425000D01*
X103140000Y-99965000D02*
X100600000Y-99965000D01*
X103140000Y-99965000D02*
X103775000Y-99965000D01*
X109490000Y-94250000D02*
X106315000Y-97425000D01*
X140605000Y-80915000D02*
X139970000Y-80280000D01*
X143780000Y-81550000D02*
X144415000Y-80915000D01*
X144415000Y-80915000D02*
X144415000Y-75835000D01*
X144415000Y-75835000D02*
X143780000Y-75200000D01*
X142510000Y-75200000D02*
X143780000Y-75200000D01*
X124095000Y-90440000D02*
X124095000Y-86630000D01*
X113935000Y-99965000D02*
X115840000Y-99965000D01*
X118380000Y-96155000D02*
X121555000Y-92980000D01*
X113935000Y-96155000D02*
X118380000Y-96155000D01*
X113300000Y-96790000D02*
X113935000Y-96155000D01*
X113300000Y-99330000D02*
X113300000Y-96790000D01*
X113935000Y-99965000D02*
X113300000Y-99330000D01*
X121555000Y-92980000D02*
X124095000Y-90440000D01*
X141240000Y-81550000D02*
X143145000Y-81550000D01*
X140605000Y-80915000D02*
X141240000Y-81550000D01*
X124095000Y-86630000D02*
X129810000Y-80915000D01*
X143145000Y-81550000D02*
X143780000Y-81550000D01*
X130445000Y-80280000D02*
X129810000Y-80915000D01*
X139970000Y-80280000D02*
X130445000Y-80280000D01*
X150130000Y-106315000D02*
X128540000Y-106315000D01*
X117110000Y-97425000D02*
X120920000Y-101235000D01*
X120920000Y-101235000D02*
X120920000Y-105045000D01*
X120920000Y-105045000D02*
X122190000Y-106315000D01*
X122190000Y-106315000D02*
X128540000Y-106315000D01*
X115840000Y-97425000D02*
X117110000Y-97425000D01*
X157750000Y-106315000D02*
X155845000Y-104410000D01*
X155845000Y-104410000D02*
X153940000Y-104410000D01*
X153940000Y-104410000D02*
X152035000Y-106315000D01*
X152035000Y-106315000D02*
X150130000Y-106315000D01*
X166005000Y-94885000D02*
X166005000Y-71390000D01*
X164735000Y-106315000D02*
X166005000Y-105045000D01*
X166005000Y-105045000D02*
X166005000Y-94885000D01*
X165370000Y-70755000D02*
X163465000Y-70755000D01*
X166005000Y-71390000D02*
X165370000Y-70755000D01*
X164735000Y-106315000D02*
X157750000Y-106315000D01*
D23*
X160925000Y-70755000D02*
X163465000Y-70755000D01*
D22*
X105045000Y-103140000D02*
X106950000Y-101235000D01*
X105045000Y-103140000D02*
X105045000Y-106950000D01*
X113300000Y-91710000D02*
X113300000Y-92980000D01*
X113300000Y-88535000D02*
X113300000Y-91710000D01*
X115840000Y-69485000D02*
X113300000Y-69485000D01*
X106315000Y-108220000D02*
X107585000Y-108220000D01*
X105045000Y-106950000D02*
X106315000Y-108220000D01*
X113300000Y-92980000D02*
X113300000Y-94885000D01*
X113300000Y-95520000D02*
X113300000Y-94885000D01*
X107585000Y-101235000D02*
X113300000Y-95520000D01*
X106950000Y-101235000D02*
X107585000Y-101235000D01*
X118380000Y-107585000D02*
X117110000Y-107585000D01*
X145685000Y-85995000D02*
X145050000Y-85360000D01*
X145050000Y-85360000D02*
X144415000Y-85360000D01*
X153940000Y-107585000D02*
X155210000Y-106315000D01*
X118380000Y-107585000D02*
X125365000Y-107585000D01*
X125365000Y-107585000D02*
X153940000Y-107585000D01*
X142510000Y-85360000D02*
X144415000Y-85360000D01*
X145685000Y-87265000D02*
X145685000Y-86630000D01*
X148860000Y-90440000D02*
X145685000Y-87265000D01*
X150765000Y-90440000D02*
X148860000Y-90440000D01*
X152670000Y-92345000D02*
X150765000Y-90440000D01*
X145685000Y-86630000D02*
X145685000Y-85995000D01*
X116475000Y-108220000D02*
X115205000Y-108220000D01*
X117110000Y-107585000D02*
X116475000Y-108220000D01*
X107585000Y-108220000D02*
X115205000Y-108220000D01*
X146955000Y-74565000D02*
X146955000Y-73295000D01*
X145050000Y-71390000D02*
X143780000Y-71390000D01*
X146955000Y-73295000D02*
X145050000Y-71390000D01*
X146955000Y-75835000D02*
X146955000Y-74565000D01*
X138700000Y-75200000D02*
X140605000Y-73295000D01*
X140605000Y-73295000D02*
X140605000Y-72660000D01*
X140605000Y-72660000D02*
X140605000Y-72025000D01*
X140605000Y-72025000D02*
X141240000Y-71390000D01*
X141240000Y-71390000D02*
X143780000Y-71390000D01*
X146955000Y-85995000D02*
X148860000Y-87900000D01*
X148860000Y-87900000D02*
X150130000Y-87900000D01*
X146955000Y-75835000D02*
X146955000Y-85995000D01*
X138700000Y-67580000D02*
X139970000Y-67580000D01*
X148860000Y-85360000D02*
X150130000Y-85360000D01*
X148225000Y-84725000D02*
X148860000Y-85360000D01*
X148225000Y-71390000D02*
X148225000Y-84725000D01*
X145685000Y-68850000D02*
X148225000Y-71390000D01*
X141240000Y-68850000D02*
X145685000Y-68850000D01*
X139970000Y-67580000D02*
X141240000Y-68850000D01*
D24*
G36*
X165355845Y-55751554D02*
X166454410Y-56485592D01*
X167188446Y-57584155D01*
X167458000Y-58939294D01*
X167458000Y-105820706D01*
X167188446Y-107175845D01*
X166454410Y-108274408D01*
X165355845Y-109008446D01*
X164000707Y-109278000D01*
X116660404Y-109278000D01*
X116710588Y-109227904D01*
X116938829Y-108678239D01*
X117380067Y-108237000D01*
X153939995Y-108237000D01*
X153940000Y-108237001D01*
X154148113Y-108195604D01*
X154189510Y-108187369D01*
X154401034Y-108046034D01*
X154401035Y-108046033D01*
X155304984Y-107142083D01*
X155373779Y-107142143D01*
X155677846Y-107016505D01*
X155910688Y-106784070D01*
X156036856Y-106480222D01*
X156037143Y-106151221D01*
X155911505Y-105847154D01*
X155679070Y-105614312D01*
X155393715Y-105495823D01*
X155276505Y-105212154D01*
X155126613Y-105062000D01*
X155574932Y-105062000D01*
X157288966Y-106776034D01*
X157500491Y-106917370D01*
X157750000Y-106967001D01*
X157750005Y-106967000D01*
X164734995Y-106967000D01*
X164735000Y-106967001D01*
X164943113Y-106925604D01*
X164984510Y-106917369D01*
X165196034Y-106776034D01*
X165196035Y-106776033D01*
X166466031Y-105506036D01*
X166466034Y-105506034D01*
X166607369Y-105294510D01*
X166657000Y-105045000D01*
X166657000Y-71390005D01*
X166657001Y-71390000D01*
X166607370Y-71140491D01*
X166521331Y-71011724D01*
X166466034Y-70928966D01*
X166466031Y-70928964D01*
X165831034Y-70293966D01*
X165670206Y-70186505D01*
X165619510Y-70152631D01*
X165578113Y-70144396D01*
X165370000Y-70102999D01*
X165369995Y-70103000D01*
X164992000Y-70103000D01*
X164992000Y-69705493D01*
X164875764Y-69121135D01*
X164544752Y-68625741D01*
X164049358Y-68294729D01*
X163465000Y-68178493D01*
X162880642Y-68294729D01*
X162385248Y-68625741D01*
X162195000Y-68910467D01*
X162004752Y-68625741D01*
X161509358Y-68294729D01*
X160925000Y-68178493D01*
X160340642Y-68294729D01*
X159845248Y-68625741D01*
X159514236Y-69121135D01*
X159398000Y-69705493D01*
X159398000Y-71804507D01*
X159514236Y-72388865D01*
X159845248Y-72884259D01*
X160340642Y-73215271D01*
X160925000Y-73331507D01*
X161509358Y-73215271D01*
X162004752Y-72884259D01*
X162195000Y-72599533D01*
X162385248Y-72884259D01*
X162880642Y-73215271D01*
X163465000Y-73331507D01*
X164049358Y-73215271D01*
X164544752Y-72884259D01*
X164875764Y-72388865D01*
X164992000Y-71804507D01*
X164992000Y-71407000D01*
X165099932Y-71407000D01*
X165353000Y-71660067D01*
X165353000Y-104774933D01*
X164464932Y-105663000D01*
X163431250Y-105663000D01*
X163858133Y-105406371D01*
X164212828Y-104926801D01*
X164357000Y-104348000D01*
X164357000Y-103848000D01*
X162903000Y-103848000D01*
X162903000Y-103868000D01*
X162757000Y-103868000D01*
X162757000Y-103848000D01*
X160363000Y-103848000D01*
X160363000Y-103868000D01*
X160217000Y-103868000D01*
X160217000Y-103848000D01*
X157823000Y-103848000D01*
X157823000Y-103868000D01*
X157677000Y-103868000D01*
X157677000Y-103848000D01*
X156223000Y-103848000D01*
X156223000Y-103893485D01*
X156094510Y-103807631D01*
X156053113Y-103799396D01*
X155845000Y-103757999D01*
X155844995Y-103758000D01*
X153940005Y-103758000D01*
X153940000Y-103757999D01*
X153690491Y-103807630D01*
X153562000Y-103893485D01*
X153562000Y-103848000D01*
X152108000Y-103848000D01*
X152108000Y-103868000D01*
X151962000Y-103868000D01*
X151962000Y-103848000D01*
X149568000Y-103848000D01*
X149568000Y-103868000D01*
X149422000Y-103868000D01*
X149422000Y-103848000D01*
X147028000Y-103848000D01*
X147028000Y-103868000D01*
X146882000Y-103868000D01*
X146882000Y-103848000D01*
X144488000Y-103848000D01*
X144488000Y-103868000D01*
X144342000Y-103868000D01*
X144342000Y-103848000D01*
X141948000Y-103848000D01*
X141948000Y-103868000D01*
X141802000Y-103868000D01*
X141802000Y-103848000D01*
X139408000Y-103848000D01*
X139408000Y-103868000D01*
X139262000Y-103868000D01*
X139262000Y-103848000D01*
X136868000Y-103848000D01*
X136868000Y-103868000D01*
X136722000Y-103868000D01*
X136722000Y-103848000D01*
X134328000Y-103848000D01*
X134328000Y-103868000D01*
X134182000Y-103868000D01*
X134182000Y-103848000D01*
X131788000Y-103848000D01*
X131788000Y-103868000D01*
X131642000Y-103868000D01*
X131642000Y-103848000D01*
X129248000Y-103848000D01*
X129248000Y-103868000D01*
X129102000Y-103868000D01*
X129102000Y-103848000D01*
X126708000Y-103848000D01*
X126708000Y-103868000D01*
X126562000Y-103868000D01*
X126562000Y-103848000D01*
X126542000Y-103848000D01*
X126542000Y-103702000D01*
X126562000Y-103702000D01*
X126562000Y-101881661D01*
X126708000Y-101881661D01*
X126708000Y-103702000D01*
X129102000Y-103702000D01*
X129102000Y-101881661D01*
X129248000Y-101881661D01*
X129248000Y-103702000D01*
X131642000Y-103702000D01*
X131642000Y-101881661D01*
X131788000Y-101881661D01*
X131788000Y-103702000D01*
X134182000Y-103702000D01*
X134182000Y-101881661D01*
X134328000Y-101881661D01*
X134328000Y-103702000D01*
X136722000Y-103702000D01*
X136722000Y-101881661D01*
X136868000Y-101881661D01*
X136868000Y-103702000D01*
X139262000Y-103702000D01*
X139262000Y-101881661D01*
X139408000Y-101881661D01*
X139408000Y-103702000D01*
X141802000Y-103702000D01*
X141802000Y-101881661D01*
X141948000Y-101881661D01*
X141948000Y-103702000D01*
X144342000Y-103702000D01*
X144342000Y-101881661D01*
X144488000Y-101881661D01*
X144488000Y-103702000D01*
X146882000Y-103702000D01*
X146882000Y-101881661D01*
X147028000Y-101881661D01*
X147028000Y-103702000D01*
X149422000Y-103702000D01*
X149422000Y-101881661D01*
X149568000Y-101881661D01*
X149568000Y-103702000D01*
X151962000Y-103702000D01*
X151962000Y-101881661D01*
X152108000Y-101881661D01*
X152108000Y-103702000D01*
X153562000Y-103702000D01*
X153562000Y-103202000D01*
X156223000Y-103202000D01*
X156223000Y-103702000D01*
X157677000Y-103702000D01*
X157677000Y-101881661D01*
X157823000Y-101881661D01*
X157823000Y-103702000D01*
X160217000Y-103702000D01*
X160217000Y-101881661D01*
X160363000Y-101881661D01*
X160363000Y-103702000D01*
X162757000Y-103702000D01*
X162757000Y-101881661D01*
X162903000Y-101881661D01*
X162903000Y-103702000D01*
X164357000Y-103702000D01*
X164357000Y-103202000D01*
X164212828Y-102623199D01*
X163858133Y-102143629D01*
X163346914Y-101836300D01*
X163140704Y-101779944D01*
X162903000Y-101881661D01*
X162757000Y-101881661D01*
X162519296Y-101779944D01*
X162313086Y-101836300D01*
X161801867Y-102143629D01*
X161560000Y-102470648D01*
X161318133Y-102143629D01*
X160806914Y-101836300D01*
X160600704Y-101779944D01*
X160363000Y-101881661D01*
X160217000Y-101881661D01*
X159979296Y-101779944D01*
X159773086Y-101836300D01*
X159261867Y-102143629D01*
X159020000Y-102470648D01*
X158778133Y-102143629D01*
X158266914Y-101836300D01*
X158060704Y-101779944D01*
X157823000Y-101881661D01*
X157677000Y-101881661D01*
X157439296Y-101779944D01*
X157233086Y-101836300D01*
X156721867Y-102143629D01*
X156367172Y-102623199D01*
X156223000Y-103202000D01*
X153562000Y-103202000D01*
X153417828Y-102623199D01*
X153063133Y-102143629D01*
X152551914Y-101836300D01*
X152345704Y-101779944D01*
X152108000Y-101881661D01*
X151962000Y-101881661D01*
X151724296Y-101779944D01*
X151518086Y-101836300D01*
X151006867Y-102143629D01*
X150765000Y-102470648D01*
X150523133Y-102143629D01*
X150011914Y-101836300D01*
X149805704Y-101779944D01*
X149568000Y-101881661D01*
X149422000Y-101881661D01*
X149184296Y-101779944D01*
X148978086Y-101836300D01*
X148466867Y-102143629D01*
X148225000Y-102470648D01*
X147983133Y-102143629D01*
X147471914Y-101836300D01*
X147265704Y-101779944D01*
X147028000Y-101881661D01*
X146882000Y-101881661D01*
X146644296Y-101779944D01*
X146438086Y-101836300D01*
X145926867Y-102143629D01*
X145685000Y-102470648D01*
X145443133Y-102143629D01*
X144931914Y-101836300D01*
X144725704Y-101779944D01*
X144488000Y-101881661D01*
X144342000Y-101881661D01*
X144104296Y-101779944D01*
X143898086Y-101836300D01*
X143386867Y-102143629D01*
X143145000Y-102470648D01*
X142903133Y-102143629D01*
X142391914Y-101836300D01*
X142185704Y-101779944D01*
X141948000Y-101881661D01*
X141802000Y-101881661D01*
X141564296Y-101779944D01*
X141358086Y-101836300D01*
X140846867Y-102143629D01*
X140605000Y-102470648D01*
X140363133Y-102143629D01*
X139851914Y-101836300D01*
X139645704Y-101779944D01*
X139408000Y-101881661D01*
X139262000Y-101881661D01*
X139024296Y-101779944D01*
X138818086Y-101836300D01*
X138306867Y-102143629D01*
X138065000Y-102470648D01*
X137823133Y-102143629D01*
X137311914Y-101836300D01*
X137105704Y-101779944D01*
X136868000Y-101881661D01*
X136722000Y-101881661D01*
X136484296Y-101779944D01*
X136278086Y-101836300D01*
X135766867Y-102143629D01*
X135525000Y-102470648D01*
X135283133Y-102143629D01*
X134771914Y-101836300D01*
X134565704Y-101779944D01*
X134328000Y-101881661D01*
X134182000Y-101881661D01*
X133944296Y-101779944D01*
X133738086Y-101836300D01*
X133226867Y-102143629D01*
X132985000Y-102470648D01*
X132743133Y-102143629D01*
X132231914Y-101836300D01*
X132025704Y-101779944D01*
X131788000Y-101881661D01*
X131642000Y-101881661D01*
X131404296Y-101779944D01*
X131198086Y-101836300D01*
X130686867Y-102143629D01*
X130445000Y-102470648D01*
X130203133Y-102143629D01*
X129691914Y-101836300D01*
X129485704Y-101779944D01*
X129248000Y-101881661D01*
X129102000Y-101881661D01*
X128864296Y-101779944D01*
X128658086Y-101836300D01*
X128146867Y-102143629D01*
X127905000Y-102470648D01*
X127663133Y-102143629D01*
X127151914Y-101836300D01*
X126945704Y-101779944D01*
X126708000Y-101881661D01*
X126562000Y-101881661D01*
X126324296Y-101779944D01*
X126118086Y-101836300D01*
X125606867Y-102143629D01*
X125375667Y-102456227D01*
X125174752Y-102155537D01*
X124679358Y-101824525D01*
X124095000Y-101708289D01*
X123510642Y-101824525D01*
X123015248Y-102155537D01*
X122684236Y-102650931D01*
X122568000Y-103235289D01*
X122568000Y-104314711D01*
X122684236Y-104899069D01*
X123015248Y-105394463D01*
X123417142Y-105663000D01*
X122460067Y-105663000D01*
X121572000Y-104774932D01*
X121572000Y-101235005D01*
X121572001Y-101235000D01*
X121522370Y-100985491D01*
X121475471Y-100915302D01*
X121381034Y-100773966D01*
X121381031Y-100773964D01*
X117571034Y-96963966D01*
X117526074Y-96933925D01*
X117441265Y-96807000D01*
X118379995Y-96807000D01*
X118380000Y-96807001D01*
X118588113Y-96765604D01*
X118629510Y-96757369D01*
X118841034Y-96616034D01*
X119841779Y-95615289D01*
X122568000Y-95615289D01*
X122568000Y-96694711D01*
X122684236Y-97279069D01*
X123015248Y-97774463D01*
X123510642Y-98105475D01*
X124095000Y-98221711D01*
X124679358Y-98105475D01*
X125174752Y-97774463D01*
X125365000Y-97489737D01*
X125555248Y-97774463D01*
X125808102Y-97943415D01*
X125807857Y-98223779D01*
X125933495Y-98527846D01*
X126165930Y-98760688D01*
X126469778Y-98886856D01*
X126798779Y-98887143D01*
X127102846Y-98761505D01*
X127335688Y-98529070D01*
X127461856Y-98225222D01*
X127462102Y-97943279D01*
X127714752Y-97774463D01*
X127905000Y-97489737D01*
X128095248Y-97774463D01*
X128348102Y-97943415D01*
X128347857Y-98223779D01*
X128473495Y-98527846D01*
X128705930Y-98760688D01*
X129009778Y-98886856D01*
X129338779Y-98887143D01*
X129642846Y-98761505D01*
X129875688Y-98529070D01*
X130001856Y-98225222D01*
X130002102Y-97943279D01*
X130254752Y-97774463D01*
X130445000Y-97489737D01*
X130635248Y-97774463D01*
X130888102Y-97943415D01*
X130887857Y-98223779D01*
X131013495Y-98527846D01*
X131245930Y-98760688D01*
X131549778Y-98886856D01*
X131878779Y-98887143D01*
X132182846Y-98761505D01*
X132415688Y-98529070D01*
X132541856Y-98225222D01*
X132542102Y-97943279D01*
X132794752Y-97774463D01*
X132985000Y-97489737D01*
X133175248Y-97774463D01*
X133428102Y-97943415D01*
X133427857Y-98223779D01*
X133553495Y-98527846D01*
X133785930Y-98760688D01*
X134089778Y-98886856D01*
X134418779Y-98887143D01*
X134722846Y-98761505D01*
X134955688Y-98529070D01*
X135081856Y-98225222D01*
X135082102Y-97943279D01*
X135334752Y-97774463D01*
X135525000Y-97489737D01*
X135715248Y-97774463D01*
X135968102Y-97943415D01*
X135967857Y-98223779D01*
X136093495Y-98527846D01*
X136325930Y-98760688D01*
X136629778Y-98886856D01*
X136958779Y-98887143D01*
X137262846Y-98761505D01*
X137495688Y-98529070D01*
X137621856Y-98225222D01*
X137622102Y-97943279D01*
X137874752Y-97774463D01*
X138065000Y-97489737D01*
X138255248Y-97774463D01*
X138508102Y-97943415D01*
X138507857Y-98223779D01*
X138633495Y-98527846D01*
X138865930Y-98760688D01*
X139169778Y-98886856D01*
X139498779Y-98887143D01*
X139802846Y-98761505D01*
X140035688Y-98529070D01*
X140161856Y-98225222D01*
X140162102Y-97943279D01*
X140414752Y-97774463D01*
X140605000Y-97489737D01*
X140795248Y-97774463D01*
X141048102Y-97943415D01*
X141047857Y-98223779D01*
X141173495Y-98527846D01*
X141405930Y-98760688D01*
X141709778Y-98886856D01*
X142038779Y-98887143D01*
X142342846Y-98761505D01*
X142575688Y-98529070D01*
X142701856Y-98225222D01*
X142702102Y-97943279D01*
X142954752Y-97774463D01*
X143145000Y-97489737D01*
X143335248Y-97774463D01*
X143588102Y-97943415D01*
X143587857Y-98223779D01*
X143713495Y-98527846D01*
X143945930Y-98760688D01*
X144249778Y-98886856D01*
X144578779Y-98887143D01*
X144882846Y-98761505D01*
X145115688Y-98529070D01*
X145241856Y-98225222D01*
X145242102Y-97943279D01*
X145494752Y-97774463D01*
X145685000Y-97489737D01*
X145875248Y-97774463D01*
X146370642Y-98105475D01*
X146955000Y-98221711D01*
X147539358Y-98105475D01*
X148034752Y-97774463D01*
X148225000Y-97489737D01*
X148415248Y-97774463D01*
X148910642Y-98105475D01*
X149495000Y-98221711D01*
X150079358Y-98105475D01*
X150574752Y-97774463D01*
X150765000Y-97489737D01*
X150955248Y-97774463D01*
X151450642Y-98105475D01*
X152035000Y-98221711D01*
X152619358Y-98105475D01*
X153114752Y-97774463D01*
X153445764Y-97279069D01*
X153562000Y-96694711D01*
X153562000Y-95615289D01*
X156223000Y-95615289D01*
X156223000Y-96694711D01*
X156339236Y-97279069D01*
X156670248Y-97774463D01*
X157165642Y-98105475D01*
X157750000Y-98221711D01*
X158334358Y-98105475D01*
X158829752Y-97774463D01*
X159020000Y-97489737D01*
X159210248Y-97774463D01*
X159705642Y-98105475D01*
X160290000Y-98221711D01*
X160874358Y-98105475D01*
X161369752Y-97774463D01*
X161560000Y-97489737D01*
X161750248Y-97774463D01*
X162245642Y-98105475D01*
X162830000Y-98221711D01*
X163414358Y-98105475D01*
X163909752Y-97774463D01*
X164240764Y-97279069D01*
X164357000Y-96694711D01*
X164357000Y-95615289D01*
X164240764Y-95030931D01*
X163909752Y-94535537D01*
X163656898Y-94366585D01*
X163657143Y-94086221D01*
X163531505Y-93782154D01*
X163299070Y-93549312D01*
X162995222Y-93423144D01*
X162666221Y-93422857D01*
X162362154Y-93548495D01*
X162129312Y-93780930D01*
X162003144Y-94084778D01*
X162002898Y-94366721D01*
X161750248Y-94535537D01*
X161560000Y-94820263D01*
X161369752Y-94535537D01*
X161116898Y-94366585D01*
X161117143Y-94086221D01*
X160991505Y-93782154D01*
X160759070Y-93549312D01*
X160455222Y-93423144D01*
X160126221Y-93422857D01*
X159822154Y-93548495D01*
X159589312Y-93780930D01*
X159463144Y-94084778D01*
X159462898Y-94366721D01*
X159210248Y-94535537D01*
X159020000Y-94820263D01*
X158829752Y-94535537D01*
X158576898Y-94366585D01*
X158577143Y-94086221D01*
X158451505Y-93782154D01*
X158219070Y-93549312D01*
X157915222Y-93423144D01*
X157586221Y-93422857D01*
X157282154Y-93548495D01*
X157049312Y-93780930D01*
X156923144Y-94084778D01*
X156922898Y-94366721D01*
X156670248Y-94535537D01*
X156339236Y-95030931D01*
X156223000Y-95615289D01*
X153562000Y-95615289D01*
X153445764Y-95030931D01*
X153114752Y-94535537D01*
X152861898Y-94366585D01*
X152862143Y-94086221D01*
X152736505Y-93782154D01*
X152504070Y-93549312D01*
X152200222Y-93423144D01*
X151871221Y-93422857D01*
X151567154Y-93548495D01*
X151334312Y-93780930D01*
X151208144Y-94084778D01*
X151207898Y-94366721D01*
X150955248Y-94535537D01*
X150765000Y-94820263D01*
X150574752Y-94535537D01*
X150321898Y-94366585D01*
X150322143Y-94086221D01*
X150196505Y-93782154D01*
X149964070Y-93549312D01*
X149660222Y-93423144D01*
X149331221Y-93422857D01*
X149027154Y-93548495D01*
X148794312Y-93780930D01*
X148668144Y-94084778D01*
X148667898Y-94366721D01*
X148415248Y-94535537D01*
X148225000Y-94820263D01*
X148034752Y-94535537D01*
X147781898Y-94366585D01*
X147782143Y-94086221D01*
X147656505Y-93782154D01*
X147424070Y-93549312D01*
X147120222Y-93423144D01*
X146791221Y-93422857D01*
X146487154Y-93548495D01*
X146254312Y-93780930D01*
X146128144Y-94084778D01*
X146127898Y-94366721D01*
X145875248Y-94535537D01*
X145685000Y-94820263D01*
X145494752Y-94535537D01*
X144999358Y-94204525D01*
X144415000Y-94088289D01*
X143830642Y-94204525D01*
X143335248Y-94535537D01*
X143145000Y-94820263D01*
X142954752Y-94535537D01*
X142459358Y-94204525D01*
X141875000Y-94088289D01*
X141290642Y-94204525D01*
X140795248Y-94535537D01*
X140605000Y-94820263D01*
X140414752Y-94535537D01*
X139919358Y-94204525D01*
X139335000Y-94088289D01*
X138750642Y-94204525D01*
X138255248Y-94535537D01*
X138065000Y-94820263D01*
X137874752Y-94535537D01*
X137379358Y-94204525D01*
X136795000Y-94088289D01*
X136210642Y-94204525D01*
X135715248Y-94535537D01*
X135525000Y-94820263D01*
X135334752Y-94535537D01*
X134839358Y-94204525D01*
X134255000Y-94088289D01*
X133670642Y-94204525D01*
X133175248Y-94535537D01*
X132985000Y-94820263D01*
X132794752Y-94535537D01*
X132299358Y-94204525D01*
X131715000Y-94088289D01*
X131130642Y-94204525D01*
X130635248Y-94535537D01*
X130445000Y-94820263D01*
X130254752Y-94535537D01*
X129759358Y-94204525D01*
X129175000Y-94088289D01*
X128590642Y-94204525D01*
X128095248Y-94535537D01*
X127905000Y-94820263D01*
X127714752Y-94535537D01*
X127219358Y-94204525D01*
X126635000Y-94088289D01*
X126050642Y-94204525D01*
X125555248Y-94535537D01*
X125365000Y-94820263D01*
X125174752Y-94535537D01*
X124679358Y-94204525D01*
X124095000Y-94088289D01*
X123510642Y-94204525D01*
X123015248Y-94535537D01*
X122684236Y-95030931D01*
X122568000Y-95615289D01*
X119841779Y-95615289D01*
X122016034Y-93441034D01*
X124556031Y-90901036D01*
X124556034Y-90901034D01*
X124697369Y-90689510D01*
X124747000Y-90440000D01*
X124747000Y-86900068D01*
X130271031Y-81376036D01*
X130271034Y-81376034D01*
X130715067Y-80932000D01*
X139699932Y-80932000D01*
X140126069Y-81358136D01*
X139806221Y-81357857D01*
X139502154Y-81483495D01*
X139269312Y-81715930D01*
X139245849Y-81772435D01*
X137032031Y-82657962D01*
X136960222Y-82628144D01*
X136631221Y-82627857D01*
X136327154Y-82753495D01*
X136094312Y-82985930D01*
X136070849Y-83042435D01*
X133857031Y-83927962D01*
X133785222Y-83898144D01*
X133456221Y-83897857D01*
X133152154Y-84023495D01*
X132919312Y-84255930D01*
X132895849Y-84312435D01*
X130682031Y-85197962D01*
X130610222Y-85168144D01*
X130281221Y-85167857D01*
X129977154Y-85293495D01*
X129744312Y-85525930D01*
X129720849Y-85582435D01*
X127507031Y-86467962D01*
X127435222Y-86438144D01*
X127106221Y-86437857D01*
X126802154Y-86563495D01*
X126569312Y-86795930D01*
X126443144Y-87099778D01*
X126442857Y-87428779D01*
X126568495Y-87732846D01*
X126800930Y-87965688D01*
X127104778Y-88091856D01*
X127433779Y-88092143D01*
X127737846Y-87966505D01*
X127970688Y-87734070D01*
X127994151Y-87677566D01*
X130207969Y-86792038D01*
X130279778Y-86821856D01*
X130608779Y-86822143D01*
X130912846Y-86696505D01*
X131145688Y-86464070D01*
X131169151Y-86407566D01*
X133382969Y-85522038D01*
X133454778Y-85551856D01*
X133783779Y-85552143D01*
X134087846Y-85426505D01*
X134320688Y-85194070D01*
X134344151Y-85137566D01*
X136557969Y-84252038D01*
X136629778Y-84281856D01*
X136958779Y-84282143D01*
X137262846Y-84156505D01*
X137495688Y-83924070D01*
X137519151Y-83867566D01*
X139318000Y-83148026D01*
X139318000Y-85359995D01*
X139317999Y-85360000D01*
X139350206Y-85521909D01*
X139367631Y-85609510D01*
X139458490Y-85745491D01*
X139508966Y-85821034D01*
X141228499Y-87540566D01*
X141157003Y-87900000D01*
X141258015Y-88407821D01*
X141545672Y-88838331D01*
X141976182Y-89125988D01*
X142484003Y-89227000D01*
X142535997Y-89227000D01*
X143043818Y-89125988D01*
X143474328Y-88838331D01*
X143761985Y-88407821D01*
X143862997Y-87900000D01*
X143761985Y-87392179D01*
X143474328Y-86961669D01*
X143043818Y-86674012D01*
X142822555Y-86630000D01*
X143043818Y-86585988D01*
X143474328Y-86298331D01*
X143665648Y-86012000D01*
X144779932Y-86012000D01*
X145033000Y-86265067D01*
X145033000Y-87264995D01*
X145032999Y-87265000D01*
X145065578Y-87428779D01*
X145082631Y-87514510D01*
X145173490Y-87650491D01*
X145223966Y-87726034D01*
X148398966Y-90901034D01*
X148610490Y-91042369D01*
X148860000Y-91092000D01*
X150494932Y-91092000D01*
X151842917Y-92439985D01*
X151842857Y-92508779D01*
X151968495Y-92812846D01*
X152200930Y-93045688D01*
X152504778Y-93171856D01*
X152833779Y-93172143D01*
X153137846Y-93046505D01*
X153370688Y-92814070D01*
X153496856Y-92510222D01*
X153497143Y-92181221D01*
X153371505Y-91877154D01*
X153139070Y-91644312D01*
X152835222Y-91518144D01*
X152765151Y-91518083D01*
X151226034Y-89978966D01*
X151210788Y-89968779D01*
X151014510Y-89837631D01*
X150973113Y-89829396D01*
X150765000Y-89787999D01*
X150764995Y-89788000D01*
X149130068Y-89788000D01*
X146337000Y-86994932D01*
X146337000Y-86165928D01*
X146352631Y-86244510D01*
X146443490Y-86380491D01*
X146493966Y-86456034D01*
X148398966Y-88361034D01*
X148610491Y-88502370D01*
X148792676Y-88538609D01*
X148792676Y-88700000D01*
X148829423Y-88895294D01*
X148944842Y-89074660D01*
X149120951Y-89194990D01*
X149330000Y-89237324D01*
X150930000Y-89237324D01*
X151125294Y-89200577D01*
X151304660Y-89085158D01*
X151424990Y-88909049D01*
X151467324Y-88700000D01*
X151467324Y-87100000D01*
X151430577Y-86904706D01*
X151315158Y-86725340D01*
X151139049Y-86605010D01*
X150930000Y-86562676D01*
X150698707Y-86562676D01*
X151094328Y-86298331D01*
X151248229Y-86068000D01*
X159398000Y-86068000D01*
X159398000Y-87068000D01*
X159542172Y-87646801D01*
X159896867Y-88126371D01*
X160408086Y-88433700D01*
X160614296Y-88490056D01*
X160852000Y-88388339D01*
X160852000Y-86068000D01*
X160998000Y-86068000D01*
X160998000Y-88388339D01*
X161235704Y-88490056D01*
X161441914Y-88433700D01*
X161953133Y-88126371D01*
X162195000Y-87799352D01*
X162436867Y-88126371D01*
X162948086Y-88433700D01*
X163154296Y-88490056D01*
X163392000Y-88388339D01*
X163392000Y-86068000D01*
X163538000Y-86068000D01*
X163538000Y-88388339D01*
X163775704Y-88490056D01*
X163981914Y-88433700D01*
X164493133Y-88126371D01*
X164847828Y-87646801D01*
X164992000Y-87068000D01*
X164992000Y-86068000D01*
X163538000Y-86068000D01*
X163392000Y-86068000D01*
X160998000Y-86068000D01*
X160852000Y-86068000D01*
X159398000Y-86068000D01*
X151248229Y-86068000D01*
X151381985Y-85867821D01*
X151482997Y-85360000D01*
X151395874Y-84922000D01*
X159398000Y-84922000D01*
X159398000Y-85922000D01*
X160852000Y-85922000D01*
X160852000Y-83601661D01*
X160998000Y-83601661D01*
X160998000Y-85922000D01*
X163392000Y-85922000D01*
X163392000Y-83601661D01*
X163538000Y-83601661D01*
X163538000Y-85922000D01*
X164992000Y-85922000D01*
X164992000Y-84922000D01*
X164847828Y-84343199D01*
X164493133Y-83863629D01*
X163981914Y-83556300D01*
X163775704Y-83499944D01*
X163538000Y-83601661D01*
X163392000Y-83601661D01*
X163154296Y-83499944D01*
X162948086Y-83556300D01*
X162436867Y-83863629D01*
X162195000Y-84190648D01*
X161953133Y-83863629D01*
X161441914Y-83556300D01*
X161235704Y-83499944D01*
X160998000Y-83601661D01*
X160852000Y-83601661D01*
X160614296Y-83499944D01*
X160408086Y-83556300D01*
X159896867Y-83863629D01*
X159542172Y-84343199D01*
X159398000Y-84922000D01*
X151395874Y-84922000D01*
X151381985Y-84852179D01*
X151094328Y-84421669D01*
X150663818Y-84134012D01*
X150442555Y-84090000D01*
X150663818Y-84045988D01*
X151094328Y-83758331D01*
X151381985Y-83327821D01*
X151482997Y-82820000D01*
X151381985Y-82312179D01*
X151094328Y-81881669D01*
X150663818Y-81594012D01*
X150442555Y-81550000D01*
X150663818Y-81505988D01*
X151094328Y-81218331D01*
X151381985Y-80787821D01*
X151482997Y-80280000D01*
X151381985Y-79772179D01*
X151094328Y-79341669D01*
X150663818Y-79054012D01*
X150442555Y-79010000D01*
X150663818Y-78965988D01*
X151094328Y-78678331D01*
X151381985Y-78247821D01*
X151482997Y-77740000D01*
X151381985Y-77232179D01*
X151094328Y-76801669D01*
X150663818Y-76514012D01*
X150442555Y-76470000D01*
X150663818Y-76425988D01*
X151094328Y-76138331D01*
X151381985Y-75707821D01*
X151482997Y-75200000D01*
X151381985Y-74692179D01*
X151294320Y-74560979D01*
X151400000Y-74582000D01*
X153462685Y-74582000D01*
X153491781Y-74652417D01*
X153850693Y-75011957D01*
X154319875Y-75206778D01*
X154827897Y-75207221D01*
X155297417Y-75013219D01*
X155652094Y-74659162D01*
X157557917Y-76564984D01*
X157557857Y-76633779D01*
X157683495Y-76937846D01*
X157915930Y-77170688D01*
X158219778Y-77296856D01*
X158548779Y-77297143D01*
X158852846Y-77171505D01*
X159085688Y-76939070D01*
X159211856Y-76635222D01*
X159212143Y-76306221D01*
X159086505Y-76002154D01*
X158854070Y-75769312D01*
X158550222Y-75643144D01*
X158480150Y-75643083D01*
X156306034Y-73468966D01*
X156259690Y-73438000D01*
X156094510Y-73327631D01*
X156053113Y-73319396D01*
X155845000Y-73277999D01*
X155844995Y-73278000D01*
X155687315Y-73278000D01*
X155658219Y-73207583D01*
X155299307Y-72848043D01*
X154830125Y-72653222D01*
X154322103Y-72652779D01*
X153852583Y-72846781D01*
X153493043Y-73205693D01*
X153463019Y-73278000D01*
X151670067Y-73278000D01*
X151411501Y-73019434D01*
X151482997Y-72660000D01*
X151381985Y-72152179D01*
X151094328Y-71721669D01*
X150663818Y-71434012D01*
X150442555Y-71390000D01*
X150663818Y-71345988D01*
X151094328Y-71058331D01*
X151381985Y-70627821D01*
X151482997Y-70120000D01*
X151411501Y-69760567D01*
X151590068Y-69582000D01*
X153462685Y-69582000D01*
X153491781Y-69652417D01*
X153850693Y-70011957D01*
X154319875Y-70206778D01*
X154827897Y-70207221D01*
X155297417Y-70013219D01*
X155656957Y-69654307D01*
X155686981Y-69582000D01*
X155764995Y-69582000D01*
X155765000Y-69582001D01*
X155973113Y-69540604D01*
X156014510Y-69532369D01*
X156226034Y-69391034D01*
X158479984Y-67137083D01*
X158548779Y-67137143D01*
X158852846Y-67011505D01*
X159085688Y-66779070D01*
X159211856Y-66475222D01*
X159212143Y-66146221D01*
X159086505Y-65842154D01*
X158854070Y-65609312D01*
X158550222Y-65483144D01*
X158221221Y-65482857D01*
X157917154Y-65608495D01*
X157684312Y-65840930D01*
X157558144Y-66144778D01*
X157558083Y-66214850D01*
X155611825Y-68161107D01*
X155299307Y-67848043D01*
X154830125Y-67653222D01*
X154322103Y-67652779D01*
X153852583Y-67846781D01*
X153493043Y-68205693D01*
X153463019Y-68278000D01*
X151320000Y-68278000D01*
X151247926Y-68292336D01*
X151427258Y-67859376D01*
X151323019Y-67653000D01*
X150203000Y-67653000D01*
X150203000Y-67673000D01*
X150057000Y-67673000D01*
X150057000Y-67653000D01*
X148936981Y-67653000D01*
X148832742Y-67859376D01*
X149015147Y-68299756D01*
X149375449Y-68671603D01*
X149797019Y-68854063D01*
X149596182Y-68894012D01*
X149165672Y-69181669D01*
X148878015Y-69612179D01*
X148777003Y-70120000D01*
X148878015Y-70627821D01*
X149165672Y-71058331D01*
X149596182Y-71345988D01*
X149817445Y-71390000D01*
X149596182Y-71434012D01*
X149165672Y-71721669D01*
X148878015Y-72152179D01*
X148877000Y-72157282D01*
X148877000Y-71390000D01*
X148827369Y-71140490D01*
X148686034Y-70928966D01*
X148686031Y-70928964D01*
X146146034Y-68388966D01*
X146054239Y-68327631D01*
X145934510Y-68247631D01*
X145893113Y-68239396D01*
X145685000Y-68197999D01*
X145684995Y-68198000D01*
X143688366Y-68198000D01*
X143761985Y-68087821D01*
X143862997Y-67580000D01*
X143807426Y-67300624D01*
X148832742Y-67300624D01*
X148936981Y-67507000D01*
X150057000Y-67507000D01*
X150057000Y-66386753D01*
X150203000Y-66386753D01*
X150203000Y-67507000D01*
X151323019Y-67507000D01*
X151427258Y-67300624D01*
X151244853Y-66860244D01*
X150884551Y-66488397D01*
X150409376Y-66282736D01*
X150203000Y-66386753D01*
X150057000Y-66386753D01*
X149850624Y-66282736D01*
X149375449Y-66488397D01*
X149015147Y-66860244D01*
X148832742Y-67300624D01*
X143807426Y-67300624D01*
X143761985Y-67072179D01*
X143474328Y-66641669D01*
X143043818Y-66354012D01*
X142535997Y-66253000D01*
X142484003Y-66253000D01*
X141976182Y-66354012D01*
X141545672Y-66641669D01*
X141258015Y-67072179D01*
X141157003Y-67580000D01*
X141222787Y-67910720D01*
X140431034Y-67118966D01*
X140361012Y-67072179D01*
X140219510Y-66977631D01*
X140178113Y-66969396D01*
X139970000Y-66927999D01*
X139969995Y-66928000D01*
X139855648Y-66928000D01*
X139664328Y-66641669D01*
X139233818Y-66354012D01*
X138725997Y-66253000D01*
X138674003Y-66253000D01*
X138166182Y-66354012D01*
X137735672Y-66641669D01*
X137448015Y-67072179D01*
X137347003Y-67580000D01*
X137448015Y-68087821D01*
X137735672Y-68518331D01*
X138166182Y-68805988D01*
X138387445Y-68850000D01*
X138166182Y-68894012D01*
X137735672Y-69181669D01*
X137544352Y-69468000D01*
X134772673Y-69468000D01*
X134724070Y-69419312D01*
X134420222Y-69293144D01*
X134091221Y-69292857D01*
X133787154Y-69418495D01*
X133554312Y-69650930D01*
X133428144Y-69954778D01*
X133427857Y-70283779D01*
X133553495Y-70587846D01*
X133785930Y-70820688D01*
X134089778Y-70946856D01*
X134418779Y-70947143D01*
X134722846Y-70821505D01*
X134772438Y-70772000D01*
X137544352Y-70772000D01*
X137735672Y-71058331D01*
X138166182Y-71345988D01*
X138367019Y-71385937D01*
X137945449Y-71568397D01*
X137585147Y-71940244D01*
X137402742Y-72380624D01*
X137506981Y-72587000D01*
X138627000Y-72587000D01*
X138627000Y-72567000D01*
X138773000Y-72567000D01*
X138773000Y-72587000D01*
X138793000Y-72587000D01*
X138793000Y-72733000D01*
X138773000Y-72733000D01*
X138773000Y-72753000D01*
X138627000Y-72753000D01*
X138627000Y-72733000D01*
X137506981Y-72733000D01*
X137402742Y-72939376D01*
X137585147Y-73379756D01*
X137945449Y-73751603D01*
X138202081Y-73862676D01*
X137900000Y-73862676D01*
X137704706Y-73899423D01*
X137525340Y-74014842D01*
X137405010Y-74190951D01*
X137362676Y-74400000D01*
X137362676Y-76000000D01*
X137399423Y-76195294D01*
X137514842Y-76374660D01*
X137690951Y-76494990D01*
X137900000Y-76537324D01*
X139500000Y-76537324D01*
X139642403Y-76510529D01*
X138429932Y-77723000D01*
X128347446Y-77723000D01*
X128655703Y-77595631D01*
X129029319Y-77222666D01*
X129231769Y-76735115D01*
X129232229Y-76207202D01*
X129190604Y-76106463D01*
X129445067Y-75852000D01*
X129924352Y-75852000D01*
X130115672Y-76138331D01*
X130546182Y-76425988D01*
X131054003Y-76527000D01*
X131105997Y-76527000D01*
X131613818Y-76425988D01*
X132044328Y-76138331D01*
X132331985Y-75707821D01*
X132432997Y-75200000D01*
X132331985Y-74692179D01*
X132258366Y-74582000D01*
X133737327Y-74582000D01*
X133785930Y-74630688D01*
X134089778Y-74756856D01*
X134418779Y-74757143D01*
X134722846Y-74631505D01*
X134955688Y-74399070D01*
X135081856Y-74095222D01*
X135082143Y-73766221D01*
X134956505Y-73462154D01*
X134724070Y-73229312D01*
X134420222Y-73103144D01*
X134091221Y-73102857D01*
X133787154Y-73228495D01*
X133737562Y-73278000D01*
X132258366Y-73278000D01*
X132331985Y-73167821D01*
X132432997Y-72660000D01*
X132331985Y-72152179D01*
X132044328Y-71721669D01*
X131613818Y-71434012D01*
X131392555Y-71390000D01*
X131613818Y-71345988D01*
X132044328Y-71058331D01*
X132331985Y-70627821D01*
X132432997Y-70120000D01*
X132361501Y-69760567D01*
X136430068Y-65692000D01*
X139639995Y-65692000D01*
X139640000Y-65692001D01*
X139848113Y-65650604D01*
X139889510Y-65642369D01*
X140101034Y-65501034D01*
X140903889Y-64698179D01*
X140910672Y-64708331D01*
X141341182Y-64995988D01*
X141849003Y-65097000D01*
X141900997Y-65097000D01*
X142408818Y-64995988D01*
X142839328Y-64708331D01*
X143126985Y-64277821D01*
X143227997Y-63770000D01*
X143126985Y-63262179D01*
X142839328Y-62831669D01*
X142408818Y-62544012D01*
X141900997Y-62443000D01*
X141849003Y-62443000D01*
X141341182Y-62544012D01*
X140910672Y-62831669D01*
X140903888Y-62841821D01*
X140496488Y-62434421D01*
X140610000Y-62457000D01*
X141194358Y-62340764D01*
X141689752Y-62009752D01*
X141880000Y-61725026D01*
X142070248Y-62009752D01*
X142565642Y-62340764D01*
X143150000Y-62457000D01*
X143734358Y-62340764D01*
X144229752Y-62009752D01*
X144560764Y-61514358D01*
X144677000Y-60930000D01*
X144677000Y-60833627D01*
X149954611Y-60833627D01*
X150029945Y-61055911D01*
X150520592Y-61250739D01*
X151048449Y-61242973D01*
X151500055Y-61055911D01*
X151575389Y-60833627D01*
X150765000Y-60023238D01*
X149954611Y-60833627D01*
X144677000Y-60833627D01*
X144677000Y-59675592D01*
X149434261Y-59675592D01*
X149442027Y-60203449D01*
X149629089Y-60655055D01*
X149851373Y-60730389D01*
X150661762Y-59920000D01*
X150868238Y-59920000D01*
X151678627Y-60730389D01*
X151900911Y-60655055D01*
X152095739Y-60164408D01*
X152087973Y-59636551D01*
X151900911Y-59184945D01*
X151678627Y-59109611D01*
X150868238Y-59920000D01*
X150661762Y-59920000D01*
X149851373Y-59109611D01*
X149629089Y-59184945D01*
X149434261Y-59675592D01*
X144677000Y-59675592D01*
X144677000Y-58390000D01*
X144560764Y-57805642D01*
X144229752Y-57310248D01*
X143734358Y-56979236D01*
X143150000Y-56863000D01*
X142565642Y-56979236D01*
X142070248Y-57310248D01*
X141880000Y-57594974D01*
X141689752Y-57310248D01*
X141194358Y-56979236D01*
X140610000Y-56863000D01*
X140025642Y-56979236D01*
X139530248Y-57310248D01*
X139340000Y-57594974D01*
X139149752Y-57310248D01*
X138654358Y-56979236D01*
X138070000Y-56863000D01*
X137485642Y-56979236D01*
X136990248Y-57310248D01*
X136800000Y-57594974D01*
X136609752Y-57310248D01*
X136114358Y-56979236D01*
X135530000Y-56863000D01*
X134945642Y-56979236D01*
X134450248Y-57310248D01*
X134260000Y-57594974D01*
X134069752Y-57310248D01*
X133574358Y-56979236D01*
X132990000Y-56863000D01*
X132405642Y-56979236D01*
X131910248Y-57310248D01*
X131720000Y-57594974D01*
X131529752Y-57310248D01*
X131034358Y-56979236D01*
X130450000Y-56863000D01*
X129865642Y-56979236D01*
X129370248Y-57310248D01*
X129115059Y-57692165D01*
X129087213Y-57624938D01*
X128859737Y-57543501D01*
X128013238Y-58390000D01*
X128859737Y-59236499D01*
X128923000Y-59213851D01*
X128923000Y-60106149D01*
X128859737Y-60083501D01*
X128013238Y-60930000D01*
X128859737Y-61776499D01*
X129087213Y-61695062D01*
X129114434Y-61626900D01*
X129370248Y-62009752D01*
X129865642Y-62340764D01*
X130450000Y-62457000D01*
X131034358Y-62340764D01*
X131529752Y-62009752D01*
X131720000Y-61725026D01*
X131910248Y-62009752D01*
X132405642Y-62340764D01*
X132990000Y-62457000D01*
X133103511Y-62434421D01*
X132679773Y-62858159D01*
X132467666Y-62645681D01*
X131980115Y-62443231D01*
X131452202Y-62442771D01*
X130964297Y-62644369D01*
X130590681Y-63017334D01*
X130388231Y-63504885D01*
X130387771Y-64032798D01*
X130589369Y-64520703D01*
X130633261Y-64564672D01*
X129191705Y-66006227D01*
X128996603Y-65555449D01*
X128624756Y-65195147D01*
X128184376Y-65012742D01*
X127978000Y-65116981D01*
X127978000Y-66237000D01*
X127998000Y-66237000D01*
X127998000Y-66383000D01*
X127978000Y-66383000D01*
X127978000Y-67503019D01*
X128184376Y-67607258D01*
X128523000Y-67467000D01*
X128523000Y-70754995D01*
X128522999Y-70755000D01*
X128557604Y-70928966D01*
X128572631Y-71004510D01*
X128663490Y-71140491D01*
X128713966Y-71216034D01*
X129798499Y-72300567D01*
X129727003Y-72660000D01*
X129828015Y-73167821D01*
X129901634Y-73278000D01*
X127540068Y-73278000D01*
X126017000Y-71754932D01*
X126017000Y-66589376D01*
X126607736Y-66589376D01*
X126813397Y-67064551D01*
X127185244Y-67424853D01*
X127625624Y-67607258D01*
X127832000Y-67503019D01*
X127832000Y-66383000D01*
X126711753Y-66383000D01*
X126607736Y-66589376D01*
X126017000Y-66589376D01*
X126017000Y-66030624D01*
X126607736Y-66030624D01*
X126711753Y-66237000D01*
X127832000Y-66237000D01*
X127832000Y-65116981D01*
X127625624Y-65012742D01*
X127185244Y-65195147D01*
X126813397Y-65555449D01*
X126607736Y-66030624D01*
X126017000Y-66030624D01*
X126017000Y-64405000D01*
X125967369Y-64155490D01*
X125826034Y-63943966D01*
X125826031Y-63943964D01*
X125017068Y-63135000D01*
X125775782Y-62376285D01*
X125954358Y-62340764D01*
X126449752Y-62009752D01*
X126536625Y-61879737D01*
X127063501Y-61879737D01*
X127144938Y-62107213D01*
X127653675Y-62310380D01*
X128201435Y-62303397D01*
X128675062Y-62107213D01*
X128756499Y-61879737D01*
X127910000Y-61033238D01*
X127063501Y-61879737D01*
X126536625Y-61879737D01*
X126704941Y-61627835D01*
X126732787Y-61695062D01*
X126960263Y-61776499D01*
X127806762Y-60930000D01*
X126960263Y-60083501D01*
X126897000Y-60106149D01*
X126897000Y-59339737D01*
X127063501Y-59339737D01*
X127144938Y-59567213D01*
X127373036Y-59658305D01*
X127144938Y-59752787D01*
X127063501Y-59980263D01*
X127910000Y-60826762D01*
X128756499Y-59980263D01*
X128675062Y-59752787D01*
X128446964Y-59661695D01*
X128675062Y-59567213D01*
X128756499Y-59339737D01*
X127910000Y-58493238D01*
X127063501Y-59339737D01*
X126897000Y-59339737D01*
X126897000Y-59213851D01*
X126960263Y-59236499D01*
X127806762Y-58390000D01*
X126960263Y-57543501D01*
X126732787Y-57624938D01*
X126705566Y-57693100D01*
X126536626Y-57440263D01*
X127063501Y-57440263D01*
X127910000Y-58286762D01*
X128756499Y-57440263D01*
X128675062Y-57212787D01*
X128166325Y-57009620D01*
X127618565Y-57016603D01*
X127144938Y-57212787D01*
X127063501Y-57440263D01*
X126536626Y-57440263D01*
X126449752Y-57310248D01*
X126037367Y-57034701D01*
X126270067Y-56802000D01*
X146049932Y-56802000D01*
X147128964Y-57881031D01*
X147128966Y-57881034D01*
X147340490Y-58022369D01*
X147590000Y-58072000D01*
X149427676Y-58072000D01*
X149427676Y-58220000D01*
X149464423Y-58415294D01*
X149579842Y-58594660D01*
X149755951Y-58714990D01*
X149965000Y-58757324D01*
X150094561Y-58757324D01*
X150029945Y-58784089D01*
X149954611Y-59006373D01*
X150765000Y-59816762D01*
X151575389Y-59006373D01*
X151500055Y-58784089D01*
X151432651Y-58757324D01*
X151565000Y-58757324D01*
X151760294Y-58720577D01*
X151939660Y-58605158D01*
X152059990Y-58429049D01*
X152102324Y-58220000D01*
X152102324Y-56620000D01*
X152065577Y-56424706D01*
X151950158Y-56245340D01*
X151774049Y-56125010D01*
X151565000Y-56082676D01*
X149965000Y-56082676D01*
X149769706Y-56119423D01*
X149590340Y-56234842D01*
X149470010Y-56410951D01*
X149427676Y-56620000D01*
X149427676Y-56768000D01*
X147860067Y-56768000D01*
X146781034Y-55688966D01*
X146663415Y-55610376D01*
X146569510Y-55547631D01*
X146528113Y-55539396D01*
X146320000Y-55497999D01*
X146319995Y-55498000D01*
X146293356Y-55498000D01*
X146309356Y-55482000D01*
X164000707Y-55482000D01*
X165355845Y-55751554D01*
X165355845Y-55751554D01*
G37*
X165355845Y-55751554D02*
X166454410Y-56485592D01*
X167188446Y-57584155D01*
X167458000Y-58939294D01*
X167458000Y-105820706D01*
X167188446Y-107175845D01*
X166454410Y-108274408D01*
X165355845Y-109008446D01*
X164000707Y-109278000D01*
X116660404Y-109278000D01*
X116710588Y-109227904D01*
X116938829Y-108678239D01*
X117380067Y-108237000D01*
X153939995Y-108237000D01*
X153940000Y-108237001D01*
X154148113Y-108195604D01*
X154189510Y-108187369D01*
X154401034Y-108046034D01*
X154401035Y-108046033D01*
X155304984Y-107142083D01*
X155373779Y-107142143D01*
X155677846Y-107016505D01*
X155910688Y-106784070D01*
X156036856Y-106480222D01*
X156037143Y-106151221D01*
X155911505Y-105847154D01*
X155679070Y-105614312D01*
X155393715Y-105495823D01*
X155276505Y-105212154D01*
X155126613Y-105062000D01*
X155574932Y-105062000D01*
X157288966Y-106776034D01*
X157500491Y-106917370D01*
X157750000Y-106967001D01*
X157750005Y-106967000D01*
X164734995Y-106967000D01*
X164735000Y-106967001D01*
X164943113Y-106925604D01*
X164984510Y-106917369D01*
X165196034Y-106776034D01*
X165196035Y-106776033D01*
X166466031Y-105506036D01*
X166466034Y-105506034D01*
X166607369Y-105294510D01*
X166657000Y-105045000D01*
X166657000Y-71390005D01*
X166657001Y-71390000D01*
X166607370Y-71140491D01*
X166521331Y-71011724D01*
X166466034Y-70928966D01*
X166466031Y-70928964D01*
X165831034Y-70293966D01*
X165670206Y-70186505D01*
X165619510Y-70152631D01*
X165578113Y-70144396D01*
X165370000Y-70102999D01*
X165369995Y-70103000D01*
X164992000Y-70103000D01*
X164992000Y-69705493D01*
X164875764Y-69121135D01*
X164544752Y-68625741D01*
X164049358Y-68294729D01*
X163465000Y-68178493D01*
X162880642Y-68294729D01*
X162385248Y-68625741D01*
X162195000Y-68910467D01*
X162004752Y-68625741D01*
X161509358Y-68294729D01*
X160925000Y-68178493D01*
X160340642Y-68294729D01*
X159845248Y-68625741D01*
X159514236Y-69121135D01*
X159398000Y-69705493D01*
X159398000Y-71804507D01*
X159514236Y-72388865D01*
X159845248Y-72884259D01*
X160340642Y-73215271D01*
X160925000Y-73331507D01*
X161509358Y-73215271D01*
X162004752Y-72884259D01*
X162195000Y-72599533D01*
X162385248Y-72884259D01*
X162880642Y-73215271D01*
X163465000Y-73331507D01*
X164049358Y-73215271D01*
X164544752Y-72884259D01*
X164875764Y-72388865D01*
X164992000Y-71804507D01*
X164992000Y-71407000D01*
X165099932Y-71407000D01*
X165353000Y-71660067D01*
X165353000Y-104774933D01*
X164464932Y-105663000D01*
X163431250Y-105663000D01*
X163858133Y-105406371D01*
X164212828Y-104926801D01*
X164357000Y-104348000D01*
X164357000Y-103848000D01*
X162903000Y-103848000D01*
X162903000Y-103868000D01*
X162757000Y-103868000D01*
X162757000Y-103848000D01*
X160363000Y-103848000D01*
X160363000Y-103868000D01*
X160217000Y-103868000D01*
X160217000Y-103848000D01*
X157823000Y-103848000D01*
X157823000Y-103868000D01*
X157677000Y-103868000D01*
X157677000Y-103848000D01*
X156223000Y-103848000D01*
X156223000Y-103893485D01*
X156094510Y-103807631D01*
X156053113Y-103799396D01*
X155845000Y-103757999D01*
X155844995Y-103758000D01*
X153940005Y-103758000D01*
X153940000Y-103757999D01*
X153690491Y-103807630D01*
X153562000Y-103893485D01*
X153562000Y-103848000D01*
X152108000Y-103848000D01*
X152108000Y-103868000D01*
X151962000Y-103868000D01*
X151962000Y-103848000D01*
X149568000Y-103848000D01*
X149568000Y-103868000D01*
X149422000Y-103868000D01*
X149422000Y-103848000D01*
X147028000Y-103848000D01*
X147028000Y-103868000D01*
X146882000Y-103868000D01*
X146882000Y-103848000D01*
X144488000Y-103848000D01*
X144488000Y-103868000D01*
X144342000Y-103868000D01*
X144342000Y-103848000D01*
X141948000Y-103848000D01*
X141948000Y-103868000D01*
X141802000Y-103868000D01*
X141802000Y-103848000D01*
X139408000Y-103848000D01*
X139408000Y-103868000D01*
X139262000Y-103868000D01*
X139262000Y-103848000D01*
X136868000Y-103848000D01*
X136868000Y-103868000D01*
X136722000Y-103868000D01*
X136722000Y-103848000D01*
X134328000Y-103848000D01*
X134328000Y-103868000D01*
X134182000Y-103868000D01*
X134182000Y-103848000D01*
X131788000Y-103848000D01*
X131788000Y-103868000D01*
X131642000Y-103868000D01*
X131642000Y-103848000D01*
X129248000Y-103848000D01*
X129248000Y-103868000D01*
X129102000Y-103868000D01*
X129102000Y-103848000D01*
X126708000Y-103848000D01*
X126708000Y-103868000D01*
X126562000Y-103868000D01*
X126562000Y-103848000D01*
X126542000Y-103848000D01*
X126542000Y-103702000D01*
X126562000Y-103702000D01*
X126562000Y-101881661D01*
X126708000Y-101881661D01*
X126708000Y-103702000D01*
X129102000Y-103702000D01*
X129102000Y-101881661D01*
X129248000Y-101881661D01*
X129248000Y-103702000D01*
X131642000Y-103702000D01*
X131642000Y-101881661D01*
X131788000Y-101881661D01*
X131788000Y-103702000D01*
X134182000Y-103702000D01*
X134182000Y-101881661D01*
X134328000Y-101881661D01*
X134328000Y-103702000D01*
X136722000Y-103702000D01*
X136722000Y-101881661D01*
X136868000Y-101881661D01*
X136868000Y-103702000D01*
X139262000Y-103702000D01*
X139262000Y-101881661D01*
X139408000Y-101881661D01*
X139408000Y-103702000D01*
X141802000Y-103702000D01*
X141802000Y-101881661D01*
X141948000Y-101881661D01*
X141948000Y-103702000D01*
X144342000Y-103702000D01*
X144342000Y-101881661D01*
X144488000Y-101881661D01*
X144488000Y-103702000D01*
X146882000Y-103702000D01*
X146882000Y-101881661D01*
X147028000Y-101881661D01*
X147028000Y-103702000D01*
X149422000Y-103702000D01*
X149422000Y-101881661D01*
X149568000Y-101881661D01*
X149568000Y-103702000D01*
X151962000Y-103702000D01*
X151962000Y-101881661D01*
X152108000Y-101881661D01*
X152108000Y-103702000D01*
X153562000Y-103702000D01*
X153562000Y-103202000D01*
X156223000Y-103202000D01*
X156223000Y-103702000D01*
X157677000Y-103702000D01*
X157677000Y-101881661D01*
X157823000Y-101881661D01*
X157823000Y-103702000D01*
X160217000Y-103702000D01*
X160217000Y-101881661D01*
X160363000Y-101881661D01*
X160363000Y-103702000D01*
X162757000Y-103702000D01*
X162757000Y-101881661D01*
X162903000Y-101881661D01*
X162903000Y-103702000D01*
X164357000Y-103702000D01*
X164357000Y-103202000D01*
X164212828Y-102623199D01*
X163858133Y-102143629D01*
X163346914Y-101836300D01*
X163140704Y-101779944D01*
X162903000Y-101881661D01*
X162757000Y-101881661D01*
X162519296Y-101779944D01*
X162313086Y-101836300D01*
X161801867Y-102143629D01*
X161560000Y-102470648D01*
X161318133Y-102143629D01*
X160806914Y-101836300D01*
X160600704Y-101779944D01*
X160363000Y-101881661D01*
X160217000Y-101881661D01*
X159979296Y-101779944D01*
X159773086Y-101836300D01*
X159261867Y-102143629D01*
X159020000Y-102470648D01*
X158778133Y-102143629D01*
X158266914Y-101836300D01*
X158060704Y-101779944D01*
X157823000Y-101881661D01*
X157677000Y-101881661D01*
X157439296Y-101779944D01*
X157233086Y-101836300D01*
X156721867Y-102143629D01*
X156367172Y-102623199D01*
X156223000Y-103202000D01*
X153562000Y-103202000D01*
X153417828Y-102623199D01*
X153063133Y-102143629D01*
X152551914Y-101836300D01*
X152345704Y-101779944D01*
X152108000Y-101881661D01*
X151962000Y-101881661D01*
X151724296Y-101779944D01*
X151518086Y-101836300D01*
X151006867Y-102143629D01*
X150765000Y-102470648D01*
X150523133Y-102143629D01*
X150011914Y-101836300D01*
X149805704Y-101779944D01*
X149568000Y-101881661D01*
X149422000Y-101881661D01*
X149184296Y-101779944D01*
X148978086Y-101836300D01*
X148466867Y-102143629D01*
X148225000Y-102470648D01*
X147983133Y-102143629D01*
X147471914Y-101836300D01*
X147265704Y-101779944D01*
X147028000Y-101881661D01*
X146882000Y-101881661D01*
X146644296Y-101779944D01*
X146438086Y-101836300D01*
X145926867Y-102143629D01*
X145685000Y-102470648D01*
X145443133Y-102143629D01*
X144931914Y-101836300D01*
X144725704Y-101779944D01*
X144488000Y-101881661D01*
X144342000Y-101881661D01*
X144104296Y-101779944D01*
X143898086Y-101836300D01*
X143386867Y-102143629D01*
X143145000Y-102470648D01*
X142903133Y-102143629D01*
X142391914Y-101836300D01*
X142185704Y-101779944D01*
X141948000Y-101881661D01*
X141802000Y-101881661D01*
X141564296Y-101779944D01*
X141358086Y-101836300D01*
X140846867Y-102143629D01*
X140605000Y-102470648D01*
X140363133Y-102143629D01*
X139851914Y-101836300D01*
X139645704Y-101779944D01*
X139408000Y-101881661D01*
X139262000Y-101881661D01*
X139024296Y-101779944D01*
X138818086Y-101836300D01*
X138306867Y-102143629D01*
X138065000Y-102470648D01*
X137823133Y-102143629D01*
X137311914Y-101836300D01*
X137105704Y-101779944D01*
X136868000Y-101881661D01*
X136722000Y-101881661D01*
X136484296Y-101779944D01*
X136278086Y-101836300D01*
X135766867Y-102143629D01*
X135525000Y-102470648D01*
X135283133Y-102143629D01*
X134771914Y-101836300D01*
X134565704Y-101779944D01*
X134328000Y-101881661D01*
X134182000Y-101881661D01*
X133944296Y-101779944D01*
X133738086Y-101836300D01*
X133226867Y-102143629D01*
X132985000Y-102470648D01*
X132743133Y-102143629D01*
X132231914Y-101836300D01*
X132025704Y-101779944D01*
X131788000Y-101881661D01*
X131642000Y-101881661D01*
X131404296Y-101779944D01*
X131198086Y-101836300D01*
X130686867Y-102143629D01*
X130445000Y-102470648D01*
X130203133Y-102143629D01*
X129691914Y-101836300D01*
X129485704Y-101779944D01*
X129248000Y-101881661D01*
X129102000Y-101881661D01*
X128864296Y-101779944D01*
X128658086Y-101836300D01*
X128146867Y-102143629D01*
X127905000Y-102470648D01*
X127663133Y-102143629D01*
X127151914Y-101836300D01*
X126945704Y-101779944D01*
X126708000Y-101881661D01*
X126562000Y-101881661D01*
X126324296Y-101779944D01*
X126118086Y-101836300D01*
X125606867Y-102143629D01*
X125375667Y-102456227D01*
X125174752Y-102155537D01*
X124679358Y-101824525D01*
X124095000Y-101708289D01*
X123510642Y-101824525D01*
X123015248Y-102155537D01*
X122684236Y-102650931D01*
X122568000Y-103235289D01*
X122568000Y-104314711D01*
X122684236Y-104899069D01*
X123015248Y-105394463D01*
X123417142Y-105663000D01*
X122460067Y-105663000D01*
X121572000Y-104774932D01*
X121572000Y-101235005D01*
X121572001Y-101235000D01*
X121522370Y-100985491D01*
X121475471Y-100915302D01*
X121381034Y-100773966D01*
X121381031Y-100773964D01*
X117571034Y-96963966D01*
X117526074Y-96933925D01*
X117441265Y-96807000D01*
X118379995Y-96807000D01*
X118380000Y-96807001D01*
X118588113Y-96765604D01*
X118629510Y-96757369D01*
X118841034Y-96616034D01*
X119841779Y-95615289D01*
X122568000Y-95615289D01*
X122568000Y-96694711D01*
X122684236Y-97279069D01*
X123015248Y-97774463D01*
X123510642Y-98105475D01*
X124095000Y-98221711D01*
X124679358Y-98105475D01*
X125174752Y-97774463D01*
X125365000Y-97489737D01*
X125555248Y-97774463D01*
X125808102Y-97943415D01*
X125807857Y-98223779D01*
X125933495Y-98527846D01*
X126165930Y-98760688D01*
X126469778Y-98886856D01*
X126798779Y-98887143D01*
X127102846Y-98761505D01*
X127335688Y-98529070D01*
X127461856Y-98225222D01*
X127462102Y-97943279D01*
X127714752Y-97774463D01*
X127905000Y-97489737D01*
X128095248Y-97774463D01*
X128348102Y-97943415D01*
X128347857Y-98223779D01*
X128473495Y-98527846D01*
X128705930Y-98760688D01*
X129009778Y-98886856D01*
X129338779Y-98887143D01*
X129642846Y-98761505D01*
X129875688Y-98529070D01*
X130001856Y-98225222D01*
X130002102Y-97943279D01*
X130254752Y-97774463D01*
X130445000Y-97489737D01*
X130635248Y-97774463D01*
X130888102Y-97943415D01*
X130887857Y-98223779D01*
X131013495Y-98527846D01*
X131245930Y-98760688D01*
X131549778Y-98886856D01*
X131878779Y-98887143D01*
X132182846Y-98761505D01*
X132415688Y-98529070D01*
X132541856Y-98225222D01*
X132542102Y-97943279D01*
X132794752Y-97774463D01*
X132985000Y-97489737D01*
X133175248Y-97774463D01*
X133428102Y-97943415D01*
X133427857Y-98223779D01*
X133553495Y-98527846D01*
X133785930Y-98760688D01*
X134089778Y-98886856D01*
X134418779Y-98887143D01*
X134722846Y-98761505D01*
X134955688Y-98529070D01*
X135081856Y-98225222D01*
X135082102Y-97943279D01*
X135334752Y-97774463D01*
X135525000Y-97489737D01*
X135715248Y-97774463D01*
X135968102Y-97943415D01*
X135967857Y-98223779D01*
X136093495Y-98527846D01*
X136325930Y-98760688D01*
X136629778Y-98886856D01*
X136958779Y-98887143D01*
X137262846Y-98761505D01*
X137495688Y-98529070D01*
X137621856Y-98225222D01*
X137622102Y-97943279D01*
X137874752Y-97774463D01*
X138065000Y-97489737D01*
X138255248Y-97774463D01*
X138508102Y-97943415D01*
X138507857Y-98223779D01*
X138633495Y-98527846D01*
X138865930Y-98760688D01*
X139169778Y-98886856D01*
X139498779Y-98887143D01*
X139802846Y-98761505D01*
X140035688Y-98529070D01*
X140161856Y-98225222D01*
X140162102Y-97943279D01*
X140414752Y-97774463D01*
X140605000Y-97489737D01*
X140795248Y-97774463D01*
X141048102Y-97943415D01*
X141047857Y-98223779D01*
X141173495Y-98527846D01*
X141405930Y-98760688D01*
X141709778Y-98886856D01*
X142038779Y-98887143D01*
X142342846Y-98761505D01*
X142575688Y-98529070D01*
X142701856Y-98225222D01*
X142702102Y-97943279D01*
X142954752Y-97774463D01*
X143145000Y-97489737D01*
X143335248Y-97774463D01*
X143588102Y-97943415D01*
X143587857Y-98223779D01*
X143713495Y-98527846D01*
X143945930Y-98760688D01*
X144249778Y-98886856D01*
X144578779Y-98887143D01*
X144882846Y-98761505D01*
X145115688Y-98529070D01*
X145241856Y-98225222D01*
X145242102Y-97943279D01*
X145494752Y-97774463D01*
X145685000Y-97489737D01*
X145875248Y-97774463D01*
X146370642Y-98105475D01*
X146955000Y-98221711D01*
X147539358Y-98105475D01*
X148034752Y-97774463D01*
X148225000Y-97489737D01*
X148415248Y-97774463D01*
X148910642Y-98105475D01*
X149495000Y-98221711D01*
X150079358Y-98105475D01*
X150574752Y-97774463D01*
X150765000Y-97489737D01*
X150955248Y-97774463D01*
X151450642Y-98105475D01*
X152035000Y-98221711D01*
X152619358Y-98105475D01*
X153114752Y-97774463D01*
X153445764Y-97279069D01*
X153562000Y-96694711D01*
X153562000Y-95615289D01*
X156223000Y-95615289D01*
X156223000Y-96694711D01*
X156339236Y-97279069D01*
X156670248Y-97774463D01*
X157165642Y-98105475D01*
X157750000Y-98221711D01*
X158334358Y-98105475D01*
X158829752Y-97774463D01*
X159020000Y-97489737D01*
X159210248Y-97774463D01*
X159705642Y-98105475D01*
X160290000Y-98221711D01*
X160874358Y-98105475D01*
X161369752Y-97774463D01*
X161560000Y-97489737D01*
X161750248Y-97774463D01*
X162245642Y-98105475D01*
X162830000Y-98221711D01*
X163414358Y-98105475D01*
X163909752Y-97774463D01*
X164240764Y-97279069D01*
X164357000Y-96694711D01*
X164357000Y-95615289D01*
X164240764Y-95030931D01*
X163909752Y-94535537D01*
X163656898Y-94366585D01*
X163657143Y-94086221D01*
X163531505Y-93782154D01*
X163299070Y-93549312D01*
X162995222Y-93423144D01*
X162666221Y-93422857D01*
X162362154Y-93548495D01*
X162129312Y-93780930D01*
X162003144Y-94084778D01*
X162002898Y-94366721D01*
X161750248Y-94535537D01*
X161560000Y-94820263D01*
X161369752Y-94535537D01*
X161116898Y-94366585D01*
X161117143Y-94086221D01*
X160991505Y-93782154D01*
X160759070Y-93549312D01*
X160455222Y-93423144D01*
X160126221Y-93422857D01*
X159822154Y-93548495D01*
X159589312Y-93780930D01*
X159463144Y-94084778D01*
X159462898Y-94366721D01*
X159210248Y-94535537D01*
X159020000Y-94820263D01*
X158829752Y-94535537D01*
X158576898Y-94366585D01*
X158577143Y-94086221D01*
X158451505Y-93782154D01*
X158219070Y-93549312D01*
X157915222Y-93423144D01*
X157586221Y-93422857D01*
X157282154Y-93548495D01*
X157049312Y-93780930D01*
X156923144Y-94084778D01*
X156922898Y-94366721D01*
X156670248Y-94535537D01*
X156339236Y-95030931D01*
X156223000Y-95615289D01*
X153562000Y-95615289D01*
X153445764Y-95030931D01*
X153114752Y-94535537D01*
X152861898Y-94366585D01*
X152862143Y-94086221D01*
X152736505Y-93782154D01*
X152504070Y-93549312D01*
X152200222Y-93423144D01*
X151871221Y-93422857D01*
X151567154Y-93548495D01*
X151334312Y-93780930D01*
X151208144Y-94084778D01*
X151207898Y-94366721D01*
X150955248Y-94535537D01*
X150765000Y-94820263D01*
X150574752Y-94535537D01*
X150321898Y-94366585D01*
X150322143Y-94086221D01*
X150196505Y-93782154D01*
X149964070Y-93549312D01*
X149660222Y-93423144D01*
X149331221Y-93422857D01*
X149027154Y-93548495D01*
X148794312Y-93780930D01*
X148668144Y-94084778D01*
X148667898Y-94366721D01*
X148415248Y-94535537D01*
X148225000Y-94820263D01*
X148034752Y-94535537D01*
X147781898Y-94366585D01*
X147782143Y-94086221D01*
X147656505Y-93782154D01*
X147424070Y-93549312D01*
X147120222Y-93423144D01*
X146791221Y-93422857D01*
X146487154Y-93548495D01*
X146254312Y-93780930D01*
X146128144Y-94084778D01*
X146127898Y-94366721D01*
X145875248Y-94535537D01*
X145685000Y-94820263D01*
X145494752Y-94535537D01*
X144999358Y-94204525D01*
X144415000Y-94088289D01*
X143830642Y-94204525D01*
X143335248Y-94535537D01*
X143145000Y-94820263D01*
X142954752Y-94535537D01*
X142459358Y-94204525D01*
X141875000Y-94088289D01*
X141290642Y-94204525D01*
X140795248Y-94535537D01*
X140605000Y-94820263D01*
X140414752Y-94535537D01*
X139919358Y-94204525D01*
X139335000Y-94088289D01*
X138750642Y-94204525D01*
X138255248Y-94535537D01*
X138065000Y-94820263D01*
X137874752Y-94535537D01*
X137379358Y-94204525D01*
X136795000Y-94088289D01*
X136210642Y-94204525D01*
X135715248Y-94535537D01*
X135525000Y-94820263D01*
X135334752Y-94535537D01*
X134839358Y-94204525D01*
X134255000Y-94088289D01*
X133670642Y-94204525D01*
X133175248Y-94535537D01*
X132985000Y-94820263D01*
X132794752Y-94535537D01*
X132299358Y-94204525D01*
X131715000Y-94088289D01*
X131130642Y-94204525D01*
X130635248Y-94535537D01*
X130445000Y-94820263D01*
X130254752Y-94535537D01*
X129759358Y-94204525D01*
X129175000Y-94088289D01*
X128590642Y-94204525D01*
X128095248Y-94535537D01*
X127905000Y-94820263D01*
X127714752Y-94535537D01*
X127219358Y-94204525D01*
X126635000Y-94088289D01*
X126050642Y-94204525D01*
X125555248Y-94535537D01*
X125365000Y-94820263D01*
X125174752Y-94535537D01*
X124679358Y-94204525D01*
X124095000Y-94088289D01*
X123510642Y-94204525D01*
X123015248Y-94535537D01*
X122684236Y-95030931D01*
X122568000Y-95615289D01*
X119841779Y-95615289D01*
X122016034Y-93441034D01*
X124556031Y-90901036D01*
X124556034Y-90901034D01*
X124697369Y-90689510D01*
X124747000Y-90440000D01*
X124747000Y-86900068D01*
X130271031Y-81376036D01*
X130271034Y-81376034D01*
X130715067Y-80932000D01*
X139699932Y-80932000D01*
X140126069Y-81358136D01*
X139806221Y-81357857D01*
X139502154Y-81483495D01*
X139269312Y-81715930D01*
X139245849Y-81772435D01*
X137032031Y-82657962D01*
X136960222Y-82628144D01*
X136631221Y-82627857D01*
X136327154Y-82753495D01*
X136094312Y-82985930D01*
X136070849Y-83042435D01*
X133857031Y-83927962D01*
X133785222Y-83898144D01*
X133456221Y-83897857D01*
X133152154Y-84023495D01*
X132919312Y-84255930D01*
X132895849Y-84312435D01*
X130682031Y-85197962D01*
X130610222Y-85168144D01*
X130281221Y-85167857D01*
X129977154Y-85293495D01*
X129744312Y-85525930D01*
X129720849Y-85582435D01*
X127507031Y-86467962D01*
X127435222Y-86438144D01*
X127106221Y-86437857D01*
X126802154Y-86563495D01*
X126569312Y-86795930D01*
X126443144Y-87099778D01*
X126442857Y-87428779D01*
X126568495Y-87732846D01*
X126800930Y-87965688D01*
X127104778Y-88091856D01*
X127433779Y-88092143D01*
X127737846Y-87966505D01*
X127970688Y-87734070D01*
X127994151Y-87677566D01*
X130207969Y-86792038D01*
X130279778Y-86821856D01*
X130608779Y-86822143D01*
X130912846Y-86696505D01*
X131145688Y-86464070D01*
X131169151Y-86407566D01*
X133382969Y-85522038D01*
X133454778Y-85551856D01*
X133783779Y-85552143D01*
X134087846Y-85426505D01*
X134320688Y-85194070D01*
X134344151Y-85137566D01*
X136557969Y-84252038D01*
X136629778Y-84281856D01*
X136958779Y-84282143D01*
X137262846Y-84156505D01*
X137495688Y-83924070D01*
X137519151Y-83867566D01*
X139318000Y-83148026D01*
X139318000Y-85359995D01*
X139317999Y-85360000D01*
X139350206Y-85521909D01*
X139367631Y-85609510D01*
X139458490Y-85745491D01*
X139508966Y-85821034D01*
X141228499Y-87540566D01*
X141157003Y-87900000D01*
X141258015Y-88407821D01*
X141545672Y-88838331D01*
X141976182Y-89125988D01*
X142484003Y-89227000D01*
X142535997Y-89227000D01*
X143043818Y-89125988D01*
X143474328Y-88838331D01*
X143761985Y-88407821D01*
X143862997Y-87900000D01*
X143761985Y-87392179D01*
X143474328Y-86961669D01*
X143043818Y-86674012D01*
X142822555Y-86630000D01*
X143043818Y-86585988D01*
X143474328Y-86298331D01*
X143665648Y-86012000D01*
X144779932Y-86012000D01*
X145033000Y-86265067D01*
X145033000Y-87264995D01*
X145032999Y-87265000D01*
X145065578Y-87428779D01*
X145082631Y-87514510D01*
X145173490Y-87650491D01*
X145223966Y-87726034D01*
X148398966Y-90901034D01*
X148610490Y-91042369D01*
X148860000Y-91092000D01*
X150494932Y-91092000D01*
X151842917Y-92439985D01*
X151842857Y-92508779D01*
X151968495Y-92812846D01*
X152200930Y-93045688D01*
X152504778Y-93171856D01*
X152833779Y-93172143D01*
X153137846Y-93046505D01*
X153370688Y-92814070D01*
X153496856Y-92510222D01*
X153497143Y-92181221D01*
X153371505Y-91877154D01*
X153139070Y-91644312D01*
X152835222Y-91518144D01*
X152765151Y-91518083D01*
X151226034Y-89978966D01*
X151210788Y-89968779D01*
X151014510Y-89837631D01*
X150973113Y-89829396D01*
X150765000Y-89787999D01*
X150764995Y-89788000D01*
X149130068Y-89788000D01*
X146337000Y-86994932D01*
X146337000Y-86165928D01*
X146352631Y-86244510D01*
X146443490Y-86380491D01*
X146493966Y-86456034D01*
X148398966Y-88361034D01*
X148610491Y-88502370D01*
X148792676Y-88538609D01*
X148792676Y-88700000D01*
X148829423Y-88895294D01*
X148944842Y-89074660D01*
X149120951Y-89194990D01*
X149330000Y-89237324D01*
X150930000Y-89237324D01*
X151125294Y-89200577D01*
X151304660Y-89085158D01*
X151424990Y-88909049D01*
X151467324Y-88700000D01*
X151467324Y-87100000D01*
X151430577Y-86904706D01*
X151315158Y-86725340D01*
X151139049Y-86605010D01*
X150930000Y-86562676D01*
X150698707Y-86562676D01*
X151094328Y-86298331D01*
X151248229Y-86068000D01*
X159398000Y-86068000D01*
X159398000Y-87068000D01*
X159542172Y-87646801D01*
X159896867Y-88126371D01*
X160408086Y-88433700D01*
X160614296Y-88490056D01*
X160852000Y-88388339D01*
X160852000Y-86068000D01*
X160998000Y-86068000D01*
X160998000Y-88388339D01*
X161235704Y-88490056D01*
X161441914Y-88433700D01*
X161953133Y-88126371D01*
X162195000Y-87799352D01*
X162436867Y-88126371D01*
X162948086Y-88433700D01*
X163154296Y-88490056D01*
X163392000Y-88388339D01*
X163392000Y-86068000D01*
X163538000Y-86068000D01*
X163538000Y-88388339D01*
X163775704Y-88490056D01*
X163981914Y-88433700D01*
X164493133Y-88126371D01*
X164847828Y-87646801D01*
X164992000Y-87068000D01*
X164992000Y-86068000D01*
X163538000Y-86068000D01*
X163392000Y-86068000D01*
X160998000Y-86068000D01*
X160852000Y-86068000D01*
X159398000Y-86068000D01*
X151248229Y-86068000D01*
X151381985Y-85867821D01*
X151482997Y-85360000D01*
X151395874Y-84922000D01*
X159398000Y-84922000D01*
X159398000Y-85922000D01*
X160852000Y-85922000D01*
X160852000Y-83601661D01*
X160998000Y-83601661D01*
X160998000Y-85922000D01*
X163392000Y-85922000D01*
X163392000Y-83601661D01*
X163538000Y-83601661D01*
X163538000Y-85922000D01*
X164992000Y-85922000D01*
X164992000Y-84922000D01*
X164847828Y-84343199D01*
X164493133Y-83863629D01*
X163981914Y-83556300D01*
X163775704Y-83499944D01*
X163538000Y-83601661D01*
X163392000Y-83601661D01*
X163154296Y-83499944D01*
X162948086Y-83556300D01*
X162436867Y-83863629D01*
X162195000Y-84190648D01*
X161953133Y-83863629D01*
X161441914Y-83556300D01*
X161235704Y-83499944D01*
X160998000Y-83601661D01*
X160852000Y-83601661D01*
X160614296Y-83499944D01*
X160408086Y-83556300D01*
X159896867Y-83863629D01*
X159542172Y-84343199D01*
X159398000Y-84922000D01*
X151395874Y-84922000D01*
X151381985Y-84852179D01*
X151094328Y-84421669D01*
X150663818Y-84134012D01*
X150442555Y-84090000D01*
X150663818Y-84045988D01*
X151094328Y-83758331D01*
X151381985Y-83327821D01*
X151482997Y-82820000D01*
X151381985Y-82312179D01*
X151094328Y-81881669D01*
X150663818Y-81594012D01*
X150442555Y-81550000D01*
X150663818Y-81505988D01*
X151094328Y-81218331D01*
X151381985Y-80787821D01*
X151482997Y-80280000D01*
X151381985Y-79772179D01*
X151094328Y-79341669D01*
X150663818Y-79054012D01*
X150442555Y-79010000D01*
X150663818Y-78965988D01*
X151094328Y-78678331D01*
X151381985Y-78247821D01*
X151482997Y-77740000D01*
X151381985Y-77232179D01*
X151094328Y-76801669D01*
X150663818Y-76514012D01*
X150442555Y-76470000D01*
X150663818Y-76425988D01*
X151094328Y-76138331D01*
X151381985Y-75707821D01*
X151482997Y-75200000D01*
X151381985Y-74692179D01*
X151294320Y-74560979D01*
X151400000Y-74582000D01*
X153462685Y-74582000D01*
X153491781Y-74652417D01*
X153850693Y-75011957D01*
X154319875Y-75206778D01*
X154827897Y-75207221D01*
X155297417Y-75013219D01*
X155652094Y-74659162D01*
X157557917Y-76564984D01*
X157557857Y-76633779D01*
X157683495Y-76937846D01*
X157915930Y-77170688D01*
X158219778Y-77296856D01*
X158548779Y-77297143D01*
X158852846Y-77171505D01*
X159085688Y-76939070D01*
X159211856Y-76635222D01*
X159212143Y-76306221D01*
X159086505Y-76002154D01*
X158854070Y-75769312D01*
X158550222Y-75643144D01*
X158480150Y-75643083D01*
X156306034Y-73468966D01*
X156259690Y-73438000D01*
X156094510Y-73327631D01*
X156053113Y-73319396D01*
X155845000Y-73277999D01*
X155844995Y-73278000D01*
X155687315Y-73278000D01*
X155658219Y-73207583D01*
X155299307Y-72848043D01*
X154830125Y-72653222D01*
X154322103Y-72652779D01*
X153852583Y-72846781D01*
X153493043Y-73205693D01*
X153463019Y-73278000D01*
X151670067Y-73278000D01*
X151411501Y-73019434D01*
X151482997Y-72660000D01*
X151381985Y-72152179D01*
X151094328Y-71721669D01*
X150663818Y-71434012D01*
X150442555Y-71390000D01*
X150663818Y-71345988D01*
X151094328Y-71058331D01*
X151381985Y-70627821D01*
X151482997Y-70120000D01*
X151411501Y-69760567D01*
X151590068Y-69582000D01*
X153462685Y-69582000D01*
X153491781Y-69652417D01*
X153850693Y-70011957D01*
X154319875Y-70206778D01*
X154827897Y-70207221D01*
X155297417Y-70013219D01*
X155656957Y-69654307D01*
X155686981Y-69582000D01*
X155764995Y-69582000D01*
X155765000Y-69582001D01*
X155973113Y-69540604D01*
X156014510Y-69532369D01*
X156226034Y-69391034D01*
X158479984Y-67137083D01*
X158548779Y-67137143D01*
X158852846Y-67011505D01*
X159085688Y-66779070D01*
X159211856Y-66475222D01*
X159212143Y-66146221D01*
X159086505Y-65842154D01*
X158854070Y-65609312D01*
X158550222Y-65483144D01*
X158221221Y-65482857D01*
X157917154Y-65608495D01*
X157684312Y-65840930D01*
X157558144Y-66144778D01*
X157558083Y-66214850D01*
X155611825Y-68161107D01*
X155299307Y-67848043D01*
X154830125Y-67653222D01*
X154322103Y-67652779D01*
X153852583Y-67846781D01*
X153493043Y-68205693D01*
X153463019Y-68278000D01*
X151320000Y-68278000D01*
X151247926Y-68292336D01*
X151427258Y-67859376D01*
X151323019Y-67653000D01*
X150203000Y-67653000D01*
X150203000Y-67673000D01*
X150057000Y-67673000D01*
X150057000Y-67653000D01*
X148936981Y-67653000D01*
X148832742Y-67859376D01*
X149015147Y-68299756D01*
X149375449Y-68671603D01*
X149797019Y-68854063D01*
X149596182Y-68894012D01*
X149165672Y-69181669D01*
X148878015Y-69612179D01*
X148777003Y-70120000D01*
X148878015Y-70627821D01*
X149165672Y-71058331D01*
X149596182Y-71345988D01*
X149817445Y-71390000D01*
X149596182Y-71434012D01*
X149165672Y-71721669D01*
X148878015Y-72152179D01*
X148877000Y-72157282D01*
X148877000Y-71390000D01*
X148827369Y-71140490D01*
X148686034Y-70928966D01*
X148686031Y-70928964D01*
X146146034Y-68388966D01*
X146054239Y-68327631D01*
X145934510Y-68247631D01*
X145893113Y-68239396D01*
X145685000Y-68197999D01*
X145684995Y-68198000D01*
X143688366Y-68198000D01*
X143761985Y-68087821D01*
X143862997Y-67580000D01*
X143807426Y-67300624D01*
X148832742Y-67300624D01*
X148936981Y-67507000D01*
X150057000Y-67507000D01*
X150057000Y-66386753D01*
X150203000Y-66386753D01*
X150203000Y-67507000D01*
X151323019Y-67507000D01*
X151427258Y-67300624D01*
X151244853Y-66860244D01*
X150884551Y-66488397D01*
X150409376Y-66282736D01*
X150203000Y-66386753D01*
X150057000Y-66386753D01*
X149850624Y-66282736D01*
X149375449Y-66488397D01*
X149015147Y-66860244D01*
X148832742Y-67300624D01*
X143807426Y-67300624D01*
X143761985Y-67072179D01*
X143474328Y-66641669D01*
X143043818Y-66354012D01*
X142535997Y-66253000D01*
X142484003Y-66253000D01*
X141976182Y-66354012D01*
X141545672Y-66641669D01*
X141258015Y-67072179D01*
X141157003Y-67580000D01*
X141222787Y-67910720D01*
X140431034Y-67118966D01*
X140361012Y-67072179D01*
X140219510Y-66977631D01*
X140178113Y-66969396D01*
X139970000Y-66927999D01*
X139969995Y-66928000D01*
X139855648Y-66928000D01*
X139664328Y-66641669D01*
X139233818Y-66354012D01*
X138725997Y-66253000D01*
X138674003Y-66253000D01*
X138166182Y-66354012D01*
X137735672Y-66641669D01*
X137448015Y-67072179D01*
X137347003Y-67580000D01*
X137448015Y-68087821D01*
X137735672Y-68518331D01*
X138166182Y-68805988D01*
X138387445Y-68850000D01*
X138166182Y-68894012D01*
X137735672Y-69181669D01*
X137544352Y-69468000D01*
X134772673Y-69468000D01*
X134724070Y-69419312D01*
X134420222Y-69293144D01*
X134091221Y-69292857D01*
X133787154Y-69418495D01*
X133554312Y-69650930D01*
X133428144Y-69954778D01*
X133427857Y-70283779D01*
X133553495Y-70587846D01*
X133785930Y-70820688D01*
X134089778Y-70946856D01*
X134418779Y-70947143D01*
X134722846Y-70821505D01*
X134772438Y-70772000D01*
X137544352Y-70772000D01*
X137735672Y-71058331D01*
X138166182Y-71345988D01*
X138367019Y-71385937D01*
X137945449Y-71568397D01*
X137585147Y-71940244D01*
X137402742Y-72380624D01*
X137506981Y-72587000D01*
X138627000Y-72587000D01*
X138627000Y-72567000D01*
X138773000Y-72567000D01*
X138773000Y-72587000D01*
X138793000Y-72587000D01*
X138793000Y-72733000D01*
X138773000Y-72733000D01*
X138773000Y-72753000D01*
X138627000Y-72753000D01*
X138627000Y-72733000D01*
X137506981Y-72733000D01*
X137402742Y-72939376D01*
X137585147Y-73379756D01*
X137945449Y-73751603D01*
X138202081Y-73862676D01*
X137900000Y-73862676D01*
X137704706Y-73899423D01*
X137525340Y-74014842D01*
X137405010Y-74190951D01*
X137362676Y-74400000D01*
X137362676Y-76000000D01*
X137399423Y-76195294D01*
X137514842Y-76374660D01*
X137690951Y-76494990D01*
X137900000Y-76537324D01*
X139500000Y-76537324D01*
X139642403Y-76510529D01*
X138429932Y-77723000D01*
X128347446Y-77723000D01*
X128655703Y-77595631D01*
X129029319Y-77222666D01*
X129231769Y-76735115D01*
X129232229Y-76207202D01*
X129190604Y-76106463D01*
X129445067Y-75852000D01*
X129924352Y-75852000D01*
X130115672Y-76138331D01*
X130546182Y-76425988D01*
X131054003Y-76527000D01*
X131105997Y-76527000D01*
X131613818Y-76425988D01*
X132044328Y-76138331D01*
X132331985Y-75707821D01*
X132432997Y-75200000D01*
X132331985Y-74692179D01*
X132258366Y-74582000D01*
X133737327Y-74582000D01*
X133785930Y-74630688D01*
X134089778Y-74756856D01*
X134418779Y-74757143D01*
X134722846Y-74631505D01*
X134955688Y-74399070D01*
X135081856Y-74095222D01*
X135082143Y-73766221D01*
X134956505Y-73462154D01*
X134724070Y-73229312D01*
X134420222Y-73103144D01*
X134091221Y-73102857D01*
X133787154Y-73228495D01*
X133737562Y-73278000D01*
X132258366Y-73278000D01*
X132331985Y-73167821D01*
X132432997Y-72660000D01*
X132331985Y-72152179D01*
X132044328Y-71721669D01*
X131613818Y-71434012D01*
X131392555Y-71390000D01*
X131613818Y-71345988D01*
X132044328Y-71058331D01*
X132331985Y-70627821D01*
X132432997Y-70120000D01*
X132361501Y-69760567D01*
X136430068Y-65692000D01*
X139639995Y-65692000D01*
X139640000Y-65692001D01*
X139848113Y-65650604D01*
X139889510Y-65642369D01*
X140101034Y-65501034D01*
X140903889Y-64698179D01*
X140910672Y-64708331D01*
X141341182Y-64995988D01*
X141849003Y-65097000D01*
X141900997Y-65097000D01*
X142408818Y-64995988D01*
X142839328Y-64708331D01*
X143126985Y-64277821D01*
X143227997Y-63770000D01*
X143126985Y-63262179D01*
X142839328Y-62831669D01*
X142408818Y-62544012D01*
X141900997Y-62443000D01*
X141849003Y-62443000D01*
X141341182Y-62544012D01*
X140910672Y-62831669D01*
X140903888Y-62841821D01*
X140496488Y-62434421D01*
X140610000Y-62457000D01*
X141194358Y-62340764D01*
X141689752Y-62009752D01*
X141880000Y-61725026D01*
X142070248Y-62009752D01*
X142565642Y-62340764D01*
X143150000Y-62457000D01*
X143734358Y-62340764D01*
X144229752Y-62009752D01*
X144560764Y-61514358D01*
X144677000Y-60930000D01*
X144677000Y-60833627D01*
X149954611Y-60833627D01*
X150029945Y-61055911D01*
X150520592Y-61250739D01*
X151048449Y-61242973D01*
X151500055Y-61055911D01*
X151575389Y-60833627D01*
X150765000Y-60023238D01*
X149954611Y-60833627D01*
X144677000Y-60833627D01*
X144677000Y-59675592D01*
X149434261Y-59675592D01*
X149442027Y-60203449D01*
X149629089Y-60655055D01*
X149851373Y-60730389D01*
X150661762Y-59920000D01*
X150868238Y-59920000D01*
X151678627Y-60730389D01*
X151900911Y-60655055D01*
X152095739Y-60164408D01*
X152087973Y-59636551D01*
X151900911Y-59184945D01*
X151678627Y-59109611D01*
X150868238Y-59920000D01*
X150661762Y-59920000D01*
X149851373Y-59109611D01*
X149629089Y-59184945D01*
X149434261Y-59675592D01*
X144677000Y-59675592D01*
X144677000Y-58390000D01*
X144560764Y-57805642D01*
X144229752Y-57310248D01*
X143734358Y-56979236D01*
X143150000Y-56863000D01*
X142565642Y-56979236D01*
X142070248Y-57310248D01*
X141880000Y-57594974D01*
X141689752Y-57310248D01*
X141194358Y-56979236D01*
X140610000Y-56863000D01*
X140025642Y-56979236D01*
X139530248Y-57310248D01*
X139340000Y-57594974D01*
X139149752Y-57310248D01*
X138654358Y-56979236D01*
X138070000Y-56863000D01*
X137485642Y-56979236D01*
X136990248Y-57310248D01*
X136800000Y-57594974D01*
X136609752Y-57310248D01*
X136114358Y-56979236D01*
X135530000Y-56863000D01*
X134945642Y-56979236D01*
X134450248Y-57310248D01*
X134260000Y-57594974D01*
X134069752Y-57310248D01*
X133574358Y-56979236D01*
X132990000Y-56863000D01*
X132405642Y-56979236D01*
X131910248Y-57310248D01*
X131720000Y-57594974D01*
X131529752Y-57310248D01*
X131034358Y-56979236D01*
X130450000Y-56863000D01*
X129865642Y-56979236D01*
X129370248Y-57310248D01*
X129115059Y-57692165D01*
X129087213Y-57624938D01*
X128859737Y-57543501D01*
X128013238Y-58390000D01*
X128859737Y-59236499D01*
X128923000Y-59213851D01*
X128923000Y-60106149D01*
X128859737Y-60083501D01*
X128013238Y-60930000D01*
X128859737Y-61776499D01*
X129087213Y-61695062D01*
X129114434Y-61626900D01*
X129370248Y-62009752D01*
X129865642Y-62340764D01*
X130450000Y-62457000D01*
X131034358Y-62340764D01*
X131529752Y-62009752D01*
X131720000Y-61725026D01*
X131910248Y-62009752D01*
X132405642Y-62340764D01*
X132990000Y-62457000D01*
X133103511Y-62434421D01*
X132679773Y-62858159D01*
X132467666Y-62645681D01*
X131980115Y-62443231D01*
X131452202Y-62442771D01*
X130964297Y-62644369D01*
X130590681Y-63017334D01*
X130388231Y-63504885D01*
X130387771Y-64032798D01*
X130589369Y-64520703D01*
X130633261Y-64564672D01*
X129191705Y-66006227D01*
X128996603Y-65555449D01*
X128624756Y-65195147D01*
X128184376Y-65012742D01*
X127978000Y-65116981D01*
X127978000Y-66237000D01*
X127998000Y-66237000D01*
X127998000Y-66383000D01*
X127978000Y-66383000D01*
X127978000Y-67503019D01*
X128184376Y-67607258D01*
X128523000Y-67467000D01*
X128523000Y-70754995D01*
X128522999Y-70755000D01*
X128557604Y-70928966D01*
X128572631Y-71004510D01*
X128663490Y-71140491D01*
X128713966Y-71216034D01*
X129798499Y-72300567D01*
X129727003Y-72660000D01*
X129828015Y-73167821D01*
X129901634Y-73278000D01*
X127540068Y-73278000D01*
X126017000Y-71754932D01*
X126017000Y-66589376D01*
X126607736Y-66589376D01*
X126813397Y-67064551D01*
X127185244Y-67424853D01*
X127625624Y-67607258D01*
X127832000Y-67503019D01*
X127832000Y-66383000D01*
X126711753Y-66383000D01*
X126607736Y-66589376D01*
X126017000Y-66589376D01*
X126017000Y-66030624D01*
X126607736Y-66030624D01*
X126711753Y-66237000D01*
X127832000Y-66237000D01*
X127832000Y-65116981D01*
X127625624Y-65012742D01*
X127185244Y-65195147D01*
X126813397Y-65555449D01*
X126607736Y-66030624D01*
X126017000Y-66030624D01*
X126017000Y-64405000D01*
X125967369Y-64155490D01*
X125826034Y-63943966D01*
X125826031Y-63943964D01*
X125017068Y-63135000D01*
X125775782Y-62376285D01*
X125954358Y-62340764D01*
X126449752Y-62009752D01*
X126536625Y-61879737D01*
X127063501Y-61879737D01*
X127144938Y-62107213D01*
X127653675Y-62310380D01*
X128201435Y-62303397D01*
X128675062Y-62107213D01*
X128756499Y-61879737D01*
X127910000Y-61033238D01*
X127063501Y-61879737D01*
X126536625Y-61879737D01*
X126704941Y-61627835D01*
X126732787Y-61695062D01*
X126960263Y-61776499D01*
X127806762Y-60930000D01*
X126960263Y-60083501D01*
X126897000Y-60106149D01*
X126897000Y-59339737D01*
X127063501Y-59339737D01*
X127144938Y-59567213D01*
X127373036Y-59658305D01*
X127144938Y-59752787D01*
X127063501Y-59980263D01*
X127910000Y-60826762D01*
X128756499Y-59980263D01*
X128675062Y-59752787D01*
X128446964Y-59661695D01*
X128675062Y-59567213D01*
X128756499Y-59339737D01*
X127910000Y-58493238D01*
X127063501Y-59339737D01*
X126897000Y-59339737D01*
X126897000Y-59213851D01*
X126960263Y-59236499D01*
X127806762Y-58390000D01*
X126960263Y-57543501D01*
X126732787Y-57624938D01*
X126705566Y-57693100D01*
X126536626Y-57440263D01*
X127063501Y-57440263D01*
X127910000Y-58286762D01*
X128756499Y-57440263D01*
X128675062Y-57212787D01*
X128166325Y-57009620D01*
X127618565Y-57016603D01*
X127144938Y-57212787D01*
X127063501Y-57440263D01*
X126536626Y-57440263D01*
X126449752Y-57310248D01*
X126037367Y-57034701D01*
X126270067Y-56802000D01*
X146049932Y-56802000D01*
X147128964Y-57881031D01*
X147128966Y-57881034D01*
X147340490Y-58022369D01*
X147590000Y-58072000D01*
X149427676Y-58072000D01*
X149427676Y-58220000D01*
X149464423Y-58415294D01*
X149579842Y-58594660D01*
X149755951Y-58714990D01*
X149965000Y-58757324D01*
X150094561Y-58757324D01*
X150029945Y-58784089D01*
X149954611Y-59006373D01*
X150765000Y-59816762D01*
X151575389Y-59006373D01*
X151500055Y-58784089D01*
X151432651Y-58757324D01*
X151565000Y-58757324D01*
X151760294Y-58720577D01*
X151939660Y-58605158D01*
X152059990Y-58429049D01*
X152102324Y-58220000D01*
X152102324Y-56620000D01*
X152065577Y-56424706D01*
X151950158Y-56245340D01*
X151774049Y-56125010D01*
X151565000Y-56082676D01*
X149965000Y-56082676D01*
X149769706Y-56119423D01*
X149590340Y-56234842D01*
X149470010Y-56410951D01*
X149427676Y-56620000D01*
X149427676Y-56768000D01*
X147860067Y-56768000D01*
X146781034Y-55688966D01*
X146663415Y-55610376D01*
X146569510Y-55547631D01*
X146528113Y-55539396D01*
X146320000Y-55497999D01*
X146319995Y-55498000D01*
X146293356Y-55498000D01*
X146309356Y-55482000D01*
X164000707Y-55482000D01*
X165355845Y-55751554D01*
G36*
X102134322Y-55805678D02*
X102329625Y-55936175D01*
X102560000Y-55982000D01*
X125245933Y-55982000D01*
X124908966Y-56318966D01*
X124767631Y-56530490D01*
X124767631Y-56530491D01*
X124717999Y-56780000D01*
X124718000Y-56780005D01*
X124718000Y-57024433D01*
X124290248Y-57310248D01*
X124100000Y-57594974D01*
X123909752Y-57310248D01*
X123414358Y-56979236D01*
X122830000Y-56863000D01*
X122245642Y-56979236D01*
X121750248Y-57310248D01*
X121560000Y-57594974D01*
X121369752Y-57310248D01*
X120874358Y-56979236D01*
X120290000Y-56863000D01*
X119705642Y-56979236D01*
X119210248Y-57310248D01*
X119020000Y-57594974D01*
X118829752Y-57310248D01*
X118334358Y-56979236D01*
X117750000Y-56863000D01*
X117165642Y-56979236D01*
X116670248Y-57310248D01*
X116480000Y-57594974D01*
X116289752Y-57310248D01*
X115794358Y-56979236D01*
X115210000Y-56863000D01*
X114625642Y-56979236D01*
X114130248Y-57310248D01*
X113940000Y-57594974D01*
X113749752Y-57310248D01*
X113254358Y-56979236D01*
X112670000Y-56863000D01*
X112085642Y-56979236D01*
X111590248Y-57310248D01*
X111400000Y-57594974D01*
X111209752Y-57310248D01*
X110714358Y-56979236D01*
X110130000Y-56863000D01*
X109545642Y-56979236D01*
X109050248Y-57310248D01*
X108860000Y-57594974D01*
X108669752Y-57310248D01*
X108174358Y-56979236D01*
X107590000Y-56863000D01*
X107005642Y-56979236D01*
X106510248Y-57310248D01*
X106320000Y-57594974D01*
X106129752Y-57310248D01*
X105634358Y-56979236D01*
X105050000Y-56863000D01*
X104465642Y-56979236D01*
X103970248Y-57310248D01*
X103639236Y-57805642D01*
X103523000Y-58390000D01*
X103523000Y-60930000D01*
X103639236Y-61514358D01*
X103970248Y-62009752D01*
X104465642Y-62340764D01*
X105050000Y-62457000D01*
X105634358Y-62340764D01*
X106129752Y-62009752D01*
X106320000Y-61725026D01*
X106510248Y-62009752D01*
X107005642Y-62340764D01*
X107590000Y-62457000D01*
X108174358Y-62340764D01*
X108669752Y-62009752D01*
X108860000Y-61725026D01*
X109050248Y-62009752D01*
X109545642Y-62340764D01*
X110130000Y-62457000D01*
X110714358Y-62340764D01*
X111209752Y-62009752D01*
X111400000Y-61725026D01*
X111590248Y-62009752D01*
X112085642Y-62340764D01*
X112670000Y-62457000D01*
X113254358Y-62340764D01*
X113749752Y-62009752D01*
X113940000Y-61725026D01*
X114130248Y-62009752D01*
X114625642Y-62340764D01*
X115210000Y-62457000D01*
X115794358Y-62340764D01*
X116289752Y-62009752D01*
X116480000Y-61725026D01*
X116670248Y-62009752D01*
X117165642Y-62340764D01*
X117750000Y-62457000D01*
X118334358Y-62340764D01*
X118829752Y-62009752D01*
X119020000Y-61725026D01*
X119210248Y-62009752D01*
X119705642Y-62340764D01*
X120290000Y-62457000D01*
X120874358Y-62340764D01*
X121369752Y-62009752D01*
X121560000Y-61725026D01*
X121750248Y-62009752D01*
X122245642Y-62340764D01*
X122830000Y-62457000D01*
X123414358Y-62340764D01*
X123909752Y-62009752D01*
X124100000Y-61725026D01*
X124290248Y-62009752D01*
X124295003Y-62012929D01*
X123824932Y-62483000D01*
X112665000Y-62483000D01*
X112415490Y-62532631D01*
X112203966Y-62673966D01*
X112203964Y-62673969D01*
X111300015Y-63577917D01*
X111231221Y-63577857D01*
X110927154Y-63703495D01*
X110694312Y-63935930D01*
X110568144Y-64239778D01*
X110567857Y-64568779D01*
X110693495Y-64872846D01*
X110843387Y-65023000D01*
X105315067Y-65023000D01*
X104236034Y-63943966D01*
X104224007Y-63935930D01*
X104024510Y-63802631D01*
X103983113Y-63794396D01*
X103775000Y-63752999D01*
X103774995Y-63753000D01*
X102178547Y-63753000D01*
X102081722Y-63608091D01*
X101716097Y-63363788D01*
X101284813Y-63278000D01*
X99915187Y-63278000D01*
X99483903Y-63363788D01*
X99118278Y-63608091D01*
X98873975Y-63973716D01*
X98788187Y-64405000D01*
X98873975Y-64836284D01*
X99118278Y-65201909D01*
X99483903Y-65446212D01*
X99915187Y-65532000D01*
X101284813Y-65532000D01*
X101716097Y-65446212D01*
X102081722Y-65201909D01*
X102178547Y-65057000D01*
X103504932Y-65057000D01*
X104583964Y-66136031D01*
X104583966Y-66136034D01*
X104795490Y-66277369D01*
X105045000Y-66327000D01*
X114267851Y-66327000D01*
X114120852Y-66581159D01*
X114090633Y-66696967D01*
X114197431Y-66872000D01*
X115767000Y-66872000D01*
X115767000Y-66852000D01*
X115913000Y-66852000D01*
X115913000Y-66872000D01*
X117482569Y-66872000D01*
X117589367Y-66696967D01*
X117559148Y-66581159D01*
X117376773Y-66265835D01*
X117571034Y-66136034D01*
X117571035Y-66136033D01*
X118015067Y-65692000D01*
X118415025Y-65692000D01*
X118155741Y-65865248D01*
X117824729Y-66360642D01*
X117708493Y-66945000D01*
X117824729Y-67529358D01*
X117847208Y-67563000D01*
X117412149Y-67563000D01*
X117559148Y-67308841D01*
X117589367Y-67193033D01*
X117482569Y-67018000D01*
X115913000Y-67018000D01*
X115913000Y-67038000D01*
X115767000Y-67038000D01*
X115767000Y-67018000D01*
X114197431Y-67018000D01*
X114090633Y-67193033D01*
X114120852Y-67308841D01*
X114267851Y-67563000D01*
X105315067Y-67563000D01*
X104236034Y-66483966D01*
X104220788Y-66473779D01*
X104024510Y-66342631D01*
X103983113Y-66334396D01*
X103775000Y-66292999D01*
X103774995Y-66293000D01*
X102178547Y-66293000D01*
X102081722Y-66148091D01*
X101716097Y-65903788D01*
X101284813Y-65818000D01*
X99915187Y-65818000D01*
X99483903Y-65903788D01*
X99118278Y-66148091D01*
X98873975Y-66513716D01*
X98788187Y-66945000D01*
X98873975Y-67376284D01*
X99118278Y-67741909D01*
X99483903Y-67986212D01*
X99915187Y-68072000D01*
X101284813Y-68072000D01*
X101716097Y-67986212D01*
X102081722Y-67741909D01*
X102178547Y-67597000D01*
X103504932Y-67597000D01*
X104583964Y-68676031D01*
X104583966Y-68676034D01*
X104795490Y-68817369D01*
X105045000Y-68867000D01*
X112748503Y-68867000D01*
X112599312Y-69015930D01*
X112473144Y-69319778D01*
X112472857Y-69648779D01*
X112598495Y-69952846D01*
X112830930Y-70185688D01*
X113134778Y-70311856D01*
X113463779Y-70312143D01*
X113767846Y-70186505D01*
X113817438Y-70137000D01*
X114261453Y-70137000D01*
X114358278Y-70281909D01*
X114723903Y-70526212D01*
X115155187Y-70612000D01*
X116524813Y-70612000D01*
X116956097Y-70526212D01*
X117321722Y-70281909D01*
X117566025Y-69916284D01*
X117651813Y-69485000D01*
X117566025Y-69053716D01*
X117441265Y-68867000D01*
X117847208Y-68867000D01*
X117824729Y-68900642D01*
X117708493Y-69485000D01*
X117824729Y-70069358D01*
X118155741Y-70564752D01*
X118651135Y-70895764D01*
X119235493Y-71012000D01*
X121334507Y-71012000D01*
X121723260Y-70934672D01*
X121460015Y-71197917D01*
X121391221Y-71197857D01*
X121087154Y-71323495D01*
X120854312Y-71555930D01*
X120728144Y-71859778D01*
X120727857Y-72188779D01*
X120853495Y-72492846D01*
X121003387Y-72643000D01*
X117441265Y-72643000D01*
X117566025Y-72456284D01*
X117651813Y-72025000D01*
X117566025Y-71593716D01*
X117321722Y-71228091D01*
X116956097Y-70983788D01*
X116524813Y-70898000D01*
X115155187Y-70898000D01*
X114723903Y-70983788D01*
X114358278Y-71228091D01*
X114261453Y-71373000D01*
X111912673Y-71373000D01*
X111864070Y-71324312D01*
X111560222Y-71198144D01*
X111231221Y-71197857D01*
X110927154Y-71323495D01*
X110694312Y-71555930D01*
X110568144Y-71859778D01*
X110567857Y-72188779D01*
X110693495Y-72492846D01*
X110925930Y-72725688D01*
X111030828Y-72769245D01*
X110933966Y-72833966D01*
X110933964Y-72833969D01*
X106488966Y-77278966D01*
X106347631Y-77490490D01*
X106347631Y-77490491D01*
X106297999Y-77740000D01*
X106298000Y-77740005D01*
X106298000Y-91439932D01*
X103504932Y-94233000D01*
X102178547Y-94233000D01*
X102081722Y-94088091D01*
X101716097Y-93843788D01*
X101284813Y-93758000D01*
X99915187Y-93758000D01*
X99483903Y-93843788D01*
X99118278Y-94088091D01*
X98873975Y-94453716D01*
X98788187Y-94885000D01*
X98873975Y-95316284D01*
X99118278Y-95681909D01*
X99483903Y-95926212D01*
X99915187Y-96012000D01*
X101284813Y-96012000D01*
X101716097Y-95926212D01*
X102081722Y-95681909D01*
X102178547Y-95537000D01*
X103774995Y-95537000D01*
X103775000Y-95537001D01*
X103983113Y-95495604D01*
X104024510Y-95487369D01*
X104236034Y-95346034D01*
X107411034Y-92171034D01*
X107461510Y-92095491D01*
X107552369Y-91959510D01*
X107568000Y-91880928D01*
X107568000Y-92709933D01*
X106488966Y-93788966D01*
X103504932Y-96773000D01*
X102178547Y-96773000D01*
X102081722Y-96628091D01*
X101716097Y-96383788D01*
X101284813Y-96298000D01*
X99915187Y-96298000D01*
X99483903Y-96383788D01*
X99118278Y-96628091D01*
X98873975Y-96993716D01*
X98788187Y-97425000D01*
X98873975Y-97856284D01*
X99118278Y-98221909D01*
X99483903Y-98466212D01*
X99915187Y-98552000D01*
X101284813Y-98552000D01*
X101716097Y-98466212D01*
X102081722Y-98221909D01*
X102178547Y-98077000D01*
X103774995Y-98077000D01*
X103775000Y-98077001D01*
X103983113Y-98035604D01*
X104024510Y-98027369D01*
X104236034Y-97886034D01*
X107411034Y-94711034D01*
X108681031Y-93441036D01*
X108681034Y-93441034D01*
X108822369Y-93229510D01*
X108838000Y-93150928D01*
X108838000Y-93979932D01*
X105853966Y-96963966D01*
X105853964Y-96963969D01*
X103504932Y-99313000D01*
X102178547Y-99313000D01*
X102081722Y-99168091D01*
X101716097Y-98923788D01*
X101284813Y-98838000D01*
X99915187Y-98838000D01*
X99483903Y-98923788D01*
X99118278Y-99168091D01*
X98873975Y-99533716D01*
X98788187Y-99965000D01*
X98873975Y-100396284D01*
X99118278Y-100761909D01*
X99483903Y-101006212D01*
X99915187Y-101092000D01*
X101284813Y-101092000D01*
X101716097Y-101006212D01*
X102081722Y-100761909D01*
X102178547Y-100617000D01*
X103774995Y-100617000D01*
X103775000Y-100617001D01*
X103983113Y-100575604D01*
X104024510Y-100567369D01*
X104236034Y-100426034D01*
X106776031Y-97886036D01*
X106776034Y-97886034D01*
X109951034Y-94711034D01*
X110001510Y-94635491D01*
X110092369Y-94499510D01*
X110142000Y-94250000D01*
X110142000Y-84725000D01*
X114028187Y-84725000D01*
X114113975Y-85156284D01*
X114358278Y-85521909D01*
X114723903Y-85766212D01*
X115155187Y-85852000D01*
X116524813Y-85852000D01*
X116956097Y-85766212D01*
X117321722Y-85521909D01*
X117362105Y-85461471D01*
X117579778Y-85551856D01*
X117908779Y-85552143D01*
X118212846Y-85426505D01*
X118445688Y-85194070D01*
X118571856Y-84890222D01*
X118572143Y-84561221D01*
X118446505Y-84257154D01*
X118214070Y-84024312D01*
X117910222Y-83898144D01*
X117581221Y-83897857D01*
X117362035Y-83988423D01*
X117321722Y-83928091D01*
X116956097Y-83683788D01*
X116524813Y-83598000D01*
X115155187Y-83598000D01*
X114723903Y-83683788D01*
X114358278Y-83928091D01*
X114113975Y-84293716D01*
X114028187Y-84725000D01*
X110142000Y-84725000D01*
X110142000Y-82185000D01*
X114028187Y-82185000D01*
X114113975Y-82616284D01*
X114358278Y-82981909D01*
X114723903Y-83226212D01*
X115155187Y-83312000D01*
X116524813Y-83312000D01*
X116956097Y-83226212D01*
X117321722Y-82981909D01*
X117362105Y-82921471D01*
X117579778Y-83011856D01*
X117908779Y-83012143D01*
X118212846Y-82886505D01*
X118445688Y-82654070D01*
X118571856Y-82350222D01*
X118572143Y-82021221D01*
X118446505Y-81717154D01*
X118214070Y-81484312D01*
X117910222Y-81358144D01*
X117581221Y-81357857D01*
X117362035Y-81448423D01*
X117321722Y-81388091D01*
X116956097Y-81143788D01*
X116524813Y-81058000D01*
X115155187Y-81058000D01*
X114723903Y-81143788D01*
X114358278Y-81388091D01*
X114113975Y-81753716D01*
X114028187Y-82185000D01*
X110142000Y-82185000D01*
X110142000Y-80550068D01*
X111665068Y-79027000D01*
X114238735Y-79027000D01*
X114113975Y-79213716D01*
X114028187Y-79645000D01*
X114113975Y-80076284D01*
X114358278Y-80441909D01*
X114723903Y-80686212D01*
X115155187Y-80772000D01*
X116524813Y-80772000D01*
X116956097Y-80686212D01*
X117321722Y-80441909D01*
X117362105Y-80381471D01*
X117579778Y-80471856D01*
X117908779Y-80472143D01*
X118212846Y-80346505D01*
X118445688Y-80114070D01*
X118571856Y-79810222D01*
X118572143Y-79481221D01*
X118446505Y-79177154D01*
X118214070Y-78944312D01*
X117910222Y-78818144D01*
X117589204Y-78817864D01*
X119476035Y-76931033D01*
X119920067Y-76487000D01*
X122554932Y-76487000D01*
X126173964Y-80106031D01*
X126173966Y-80106034D01*
X126315302Y-80200471D01*
X126385491Y-80247370D01*
X126635000Y-80297001D01*
X126635005Y-80297000D01*
X129505932Y-80297000D01*
X129348966Y-80453966D01*
X129348964Y-80453969D01*
X123633966Y-86168966D01*
X123492631Y-86380490D01*
X123492631Y-86380491D01*
X123442999Y-86630000D01*
X123443000Y-86630005D01*
X123443000Y-90169933D01*
X121093966Y-92518966D01*
X118109932Y-95503000D01*
X117441265Y-95503000D01*
X117566025Y-95316284D01*
X117651813Y-94885000D01*
X117566025Y-94453716D01*
X117321722Y-94088091D01*
X116956097Y-93843788D01*
X116524813Y-93758000D01*
X115155187Y-93758000D01*
X114723903Y-93843788D01*
X114358278Y-94088091D01*
X114113975Y-94453716D01*
X114028187Y-94885000D01*
X114113975Y-95316284D01*
X114238735Y-95503000D01*
X113952000Y-95503000D01*
X113952000Y-92345000D01*
X114028187Y-92345000D01*
X114113975Y-92776284D01*
X114358278Y-93141909D01*
X114723903Y-93386212D01*
X115155187Y-93472000D01*
X116524813Y-93472000D01*
X116956097Y-93386212D01*
X117321722Y-93141909D01*
X117362105Y-93081471D01*
X117579778Y-93171856D01*
X117908779Y-93172143D01*
X118212846Y-93046505D01*
X118445688Y-92814070D01*
X118571856Y-92510222D01*
X118572143Y-92181221D01*
X118446505Y-91877154D01*
X118214070Y-91644312D01*
X117910222Y-91518144D01*
X117581221Y-91517857D01*
X117362035Y-91608423D01*
X117321722Y-91548091D01*
X116956097Y-91303788D01*
X116524813Y-91218000D01*
X115155187Y-91218000D01*
X114723903Y-91303788D01*
X114358278Y-91548091D01*
X114113975Y-91913716D01*
X114028187Y-92345000D01*
X113952000Y-92345000D01*
X113952000Y-90632015D01*
X114098779Y-90632143D01*
X114317965Y-90541577D01*
X114358278Y-90601909D01*
X114723903Y-90846212D01*
X115155187Y-90932000D01*
X116524813Y-90932000D01*
X116956097Y-90846212D01*
X117321722Y-90601909D01*
X117566025Y-90236284D01*
X117651813Y-89805000D01*
X117566025Y-89373716D01*
X117321722Y-89008091D01*
X116956097Y-88763788D01*
X116524813Y-88678000D01*
X115155187Y-88678000D01*
X114723903Y-88763788D01*
X114358278Y-89008091D01*
X114317895Y-89068529D01*
X114100222Y-88978144D01*
X114011485Y-88978067D01*
X114126856Y-88700222D01*
X114127143Y-88371221D01*
X114011799Y-88092067D01*
X114098779Y-88092143D01*
X114317965Y-88001577D01*
X114358278Y-88061909D01*
X114723903Y-88306212D01*
X115155187Y-88392000D01*
X116524813Y-88392000D01*
X116956097Y-88306212D01*
X117321722Y-88061909D01*
X117566025Y-87696284D01*
X117651813Y-87265000D01*
X117708493Y-87265000D01*
X117824729Y-87849358D01*
X118155741Y-88344752D01*
X118440467Y-88535000D01*
X118155741Y-88725248D01*
X117824729Y-89220642D01*
X117708493Y-89805000D01*
X117824729Y-90389358D01*
X118155741Y-90884752D01*
X118651135Y-91215764D01*
X119235493Y-91332000D01*
X121334507Y-91332000D01*
X121918865Y-91215764D01*
X122414259Y-90884752D01*
X122745271Y-90389358D01*
X122861507Y-89805000D01*
X122745271Y-89220642D01*
X122414259Y-88725248D01*
X122129533Y-88535000D01*
X122414259Y-88344752D01*
X122745271Y-87849358D01*
X122861507Y-87265000D01*
X122745271Y-86680642D01*
X122414259Y-86185248D01*
X121918865Y-85854236D01*
X121334507Y-85738000D01*
X120937000Y-85738000D01*
X120937000Y-79915068D01*
X121649984Y-79202083D01*
X121718779Y-79202143D01*
X122022846Y-79076505D01*
X122255688Y-78844070D01*
X122381856Y-78540222D01*
X122382143Y-78211221D01*
X122256505Y-77907154D01*
X122024070Y-77674312D01*
X121720222Y-77548144D01*
X121391221Y-77547857D01*
X121087154Y-77673495D01*
X120854312Y-77905930D01*
X120728144Y-78209778D01*
X120728083Y-78279850D01*
X119823966Y-79183966D01*
X119682631Y-79395490D01*
X119682631Y-79395491D01*
X119632999Y-79645000D01*
X119633000Y-79645005D01*
X119633000Y-85738000D01*
X119235493Y-85738000D01*
X118651135Y-85854236D01*
X118155741Y-86185248D01*
X117824729Y-86680642D01*
X117708493Y-87265000D01*
X117651813Y-87265000D01*
X117566025Y-86833716D01*
X117321722Y-86468091D01*
X116956097Y-86223788D01*
X116524813Y-86138000D01*
X115155187Y-86138000D01*
X114723903Y-86223788D01*
X114358278Y-86468091D01*
X114317895Y-86528529D01*
X114100222Y-86438144D01*
X113771221Y-86437857D01*
X113467154Y-86563495D01*
X113234312Y-86795930D01*
X113108144Y-87099778D01*
X113107857Y-87428779D01*
X113223201Y-87707933D01*
X113136221Y-87707857D01*
X112832154Y-87833495D01*
X112599312Y-88065930D01*
X112473144Y-88369778D01*
X112472857Y-88698779D01*
X112598495Y-89002846D01*
X112648000Y-89052438D01*
X112648000Y-95249933D01*
X107314932Y-100583000D01*
X106950005Y-100583000D01*
X106950000Y-100582999D01*
X106700491Y-100632630D01*
X106488966Y-100773966D01*
X104583966Y-102678966D01*
X104442631Y-102890490D01*
X104442631Y-102890491D01*
X104392999Y-103140000D01*
X104393000Y-103140005D01*
X104393000Y-106949995D01*
X104392999Y-106950000D01*
X104418119Y-107076281D01*
X104442631Y-107199510D01*
X104533490Y-107335491D01*
X104583966Y-107411034D01*
X105851944Y-108679011D01*
X106077655Y-109225274D01*
X106130289Y-109278000D01*
X98662000Y-109278000D01*
X98662000Y-105880000D01*
X99858000Y-105880000D01*
X100025617Y-106722669D01*
X100502951Y-107437049D01*
X101217331Y-107914383D01*
X102060000Y-108082000D01*
X102902669Y-107914383D01*
X103617049Y-107437049D01*
X104094383Y-106722669D01*
X104262000Y-105880000D01*
X104094383Y-105037331D01*
X103617049Y-104322951D01*
X102902669Y-103845617D01*
X102060000Y-103678000D01*
X101217331Y-103845617D01*
X100502951Y-104322951D01*
X100025617Y-105037331D01*
X99858000Y-105880000D01*
X98662000Y-105880000D01*
X98662000Y-92345000D01*
X98788187Y-92345000D01*
X98873975Y-92776284D01*
X99118278Y-93141909D01*
X99483903Y-93386212D01*
X99915187Y-93472000D01*
X101284813Y-93472000D01*
X101716097Y-93386212D01*
X102081722Y-93141909D01*
X102122105Y-93081471D01*
X102339778Y-93171856D01*
X102668779Y-93172143D01*
X102972846Y-93046505D01*
X103205688Y-92814070D01*
X103331856Y-92510222D01*
X103332143Y-92181221D01*
X103206505Y-91877154D01*
X102974070Y-91644312D01*
X102670222Y-91518144D01*
X102341221Y-91517857D01*
X102122035Y-91608423D01*
X102081722Y-91548091D01*
X101716097Y-91303788D01*
X101284813Y-91218000D01*
X99915187Y-91218000D01*
X99483903Y-91303788D01*
X99118278Y-91548091D01*
X98873975Y-91913716D01*
X98788187Y-92345000D01*
X98662000Y-92345000D01*
X98662000Y-89805000D01*
X98788187Y-89805000D01*
X98873975Y-90236284D01*
X99118278Y-90601909D01*
X99483903Y-90846212D01*
X99915187Y-90932000D01*
X101284813Y-90932000D01*
X101716097Y-90846212D01*
X102081722Y-90601909D01*
X102122105Y-90541471D01*
X102339778Y-90631856D01*
X102668779Y-90632143D01*
X102972846Y-90506505D01*
X103205688Y-90274070D01*
X103331856Y-89970222D01*
X103332143Y-89641221D01*
X103206505Y-89337154D01*
X102974070Y-89104312D01*
X102670222Y-88978144D01*
X102341221Y-88977857D01*
X102122035Y-89068423D01*
X102081722Y-89008091D01*
X101716097Y-88763788D01*
X101284813Y-88678000D01*
X99915187Y-88678000D01*
X99483903Y-88763788D01*
X99118278Y-89008091D01*
X98873975Y-89373716D01*
X98788187Y-89805000D01*
X98662000Y-89805000D01*
X98662000Y-87265000D01*
X98788187Y-87265000D01*
X98873975Y-87696284D01*
X99118278Y-88061909D01*
X99483903Y-88306212D01*
X99915187Y-88392000D01*
X101284813Y-88392000D01*
X101716097Y-88306212D01*
X102081722Y-88061909D01*
X102122105Y-88001471D01*
X102339778Y-88091856D01*
X102668779Y-88092143D01*
X102972846Y-87966505D01*
X103205688Y-87734070D01*
X103331856Y-87430222D01*
X103332143Y-87101221D01*
X103206505Y-86797154D01*
X102974070Y-86564312D01*
X102670222Y-86438144D01*
X102341221Y-86437857D01*
X102122035Y-86528423D01*
X102081722Y-86468091D01*
X101716097Y-86223788D01*
X101284813Y-86138000D01*
X99915187Y-86138000D01*
X99483903Y-86223788D01*
X99118278Y-86468091D01*
X98873975Y-86833716D01*
X98788187Y-87265000D01*
X98662000Y-87265000D01*
X98662000Y-84725000D01*
X98788187Y-84725000D01*
X98873975Y-85156284D01*
X99118278Y-85521909D01*
X99483903Y-85766212D01*
X99915187Y-85852000D01*
X101284813Y-85852000D01*
X101716097Y-85766212D01*
X102081722Y-85521909D01*
X102122105Y-85461471D01*
X102339778Y-85551856D01*
X102668779Y-85552143D01*
X102972846Y-85426505D01*
X103205688Y-85194070D01*
X103331856Y-84890222D01*
X103332143Y-84561221D01*
X103206505Y-84257154D01*
X102974070Y-84024312D01*
X102670222Y-83898144D01*
X102341221Y-83897857D01*
X102122035Y-83988423D01*
X102081722Y-83928091D01*
X101716097Y-83683788D01*
X101284813Y-83598000D01*
X99915187Y-83598000D01*
X99483903Y-83683788D01*
X99118278Y-83928091D01*
X98873975Y-84293716D01*
X98788187Y-84725000D01*
X98662000Y-84725000D01*
X98662000Y-82185000D01*
X98788187Y-82185000D01*
X98873975Y-82616284D01*
X99118278Y-82981909D01*
X99483903Y-83226212D01*
X99915187Y-83312000D01*
X101284813Y-83312000D01*
X101716097Y-83226212D01*
X102081722Y-82981909D01*
X102122105Y-82921471D01*
X102339778Y-83011856D01*
X102668779Y-83012143D01*
X102972846Y-82886505D01*
X103205688Y-82654070D01*
X103331856Y-82350222D01*
X103332143Y-82021221D01*
X103206505Y-81717154D01*
X102974070Y-81484312D01*
X102670222Y-81358144D01*
X102341221Y-81357857D01*
X102122035Y-81448423D01*
X102081722Y-81388091D01*
X101716097Y-81143788D01*
X101284813Y-81058000D01*
X99915187Y-81058000D01*
X99483903Y-81143788D01*
X99118278Y-81388091D01*
X98873975Y-81753716D01*
X98788187Y-82185000D01*
X98662000Y-82185000D01*
X98662000Y-79645000D01*
X98788187Y-79645000D01*
X98873975Y-80076284D01*
X99118278Y-80441909D01*
X99483903Y-80686212D01*
X99915187Y-80772000D01*
X101284813Y-80772000D01*
X101716097Y-80686212D01*
X102081722Y-80441909D01*
X102122105Y-80381471D01*
X102339778Y-80471856D01*
X102668779Y-80472143D01*
X102972846Y-80346505D01*
X103205688Y-80114070D01*
X103331856Y-79810222D01*
X103332143Y-79481221D01*
X103206505Y-79177154D01*
X102974070Y-78944312D01*
X102670222Y-78818144D01*
X102341221Y-78817857D01*
X102122035Y-78908423D01*
X102081722Y-78848091D01*
X101716097Y-78603788D01*
X101284813Y-78518000D01*
X99915187Y-78518000D01*
X99483903Y-78603788D01*
X99118278Y-78848091D01*
X98873975Y-79213716D01*
X98788187Y-79645000D01*
X98662000Y-79645000D01*
X98662000Y-77105000D01*
X98788187Y-77105000D01*
X98873975Y-77536284D01*
X99118278Y-77901909D01*
X99483903Y-78146212D01*
X99915187Y-78232000D01*
X101284813Y-78232000D01*
X101716097Y-78146212D01*
X102081722Y-77901909D01*
X102122105Y-77841471D01*
X102339778Y-77931856D01*
X102668779Y-77932143D01*
X102972846Y-77806505D01*
X103205688Y-77574070D01*
X103331856Y-77270222D01*
X103332143Y-76941221D01*
X103206505Y-76637154D01*
X102974070Y-76404312D01*
X102670222Y-76278144D01*
X102341221Y-76277857D01*
X102122035Y-76368423D01*
X102081722Y-76308091D01*
X101716097Y-76063788D01*
X101284813Y-75978000D01*
X99915187Y-75978000D01*
X99483903Y-76063788D01*
X99118278Y-76308091D01*
X98873975Y-76673716D01*
X98788187Y-77105000D01*
X98662000Y-77105000D01*
X98662000Y-74565000D01*
X98788187Y-74565000D01*
X98873975Y-74996284D01*
X99118278Y-75361909D01*
X99483903Y-75606212D01*
X99915187Y-75692000D01*
X101284813Y-75692000D01*
X101716097Y-75606212D01*
X102081722Y-75361909D01*
X102122105Y-75301471D01*
X102339778Y-75391856D01*
X102668779Y-75392143D01*
X102972846Y-75266505D01*
X103205688Y-75034070D01*
X103331856Y-74730222D01*
X103332143Y-74401221D01*
X103206505Y-74097154D01*
X102974070Y-73864312D01*
X102670222Y-73738144D01*
X102341221Y-73737857D01*
X102122035Y-73828423D01*
X102081722Y-73768091D01*
X101716097Y-73523788D01*
X101284813Y-73438000D01*
X99915187Y-73438000D01*
X99483903Y-73523788D01*
X99118278Y-73768091D01*
X98873975Y-74133716D01*
X98788187Y-74565000D01*
X98662000Y-74565000D01*
X98662000Y-72273033D01*
X98850633Y-72273033D01*
X98880852Y-72388841D01*
X99101472Y-72770290D01*
X99451273Y-73038276D01*
X99877000Y-73152000D01*
X100527000Y-73152000D01*
X100527000Y-72098000D01*
X100673000Y-72098000D01*
X100673000Y-73152000D01*
X101323000Y-73152000D01*
X101748727Y-73038276D01*
X102098528Y-72770290D01*
X102319148Y-72388841D01*
X102349367Y-72273033D01*
X102242569Y-72098000D01*
X100673000Y-72098000D01*
X100527000Y-72098000D01*
X98957431Y-72098000D01*
X98850633Y-72273033D01*
X98662000Y-72273033D01*
X98662000Y-71776967D01*
X98850633Y-71776967D01*
X98957431Y-71952000D01*
X100527000Y-71952000D01*
X100527000Y-70898000D01*
X100673000Y-70898000D01*
X100673000Y-71952000D01*
X102242569Y-71952000D01*
X102349367Y-71776967D01*
X102319148Y-71661159D01*
X102098528Y-71279710D01*
X101748727Y-71011724D01*
X101323000Y-70898000D01*
X100673000Y-70898000D01*
X100527000Y-70898000D01*
X99877000Y-70898000D01*
X99451273Y-71011724D01*
X99101472Y-71279710D01*
X98880852Y-71661159D01*
X98850633Y-71776967D01*
X98662000Y-71776967D01*
X98662000Y-69485000D01*
X98788187Y-69485000D01*
X98873975Y-69916284D01*
X99118278Y-70281909D01*
X99483903Y-70526212D01*
X99915187Y-70612000D01*
X101284813Y-70612000D01*
X101716097Y-70526212D01*
X102081722Y-70281909D01*
X102326025Y-69916284D01*
X102411813Y-69485000D01*
X102326025Y-69053716D01*
X102081722Y-68688091D01*
X101716097Y-68443788D01*
X101284813Y-68358000D01*
X99915187Y-68358000D01*
X99483903Y-68443788D01*
X99118278Y-68688091D01*
X98873975Y-69053716D01*
X98788187Y-69485000D01*
X98662000Y-69485000D01*
X98662000Y-58939293D01*
X98931554Y-57584155D01*
X99665592Y-56485590D01*
X100764155Y-55751554D01*
X101861852Y-55533208D01*
X102134322Y-55805678D01*
X102134322Y-55805678D01*
G37*
X102134322Y-55805678D02*
X102329625Y-55936175D01*
X102560000Y-55982000D01*
X125245933Y-55982000D01*
X124908966Y-56318966D01*
X124767631Y-56530490D01*
X124767631Y-56530491D01*
X124717999Y-56780000D01*
X124718000Y-56780005D01*
X124718000Y-57024433D01*
X124290248Y-57310248D01*
X124100000Y-57594974D01*
X123909752Y-57310248D01*
X123414358Y-56979236D01*
X122830000Y-56863000D01*
X122245642Y-56979236D01*
X121750248Y-57310248D01*
X121560000Y-57594974D01*
X121369752Y-57310248D01*
X120874358Y-56979236D01*
X120290000Y-56863000D01*
X119705642Y-56979236D01*
X119210248Y-57310248D01*
X119020000Y-57594974D01*
X118829752Y-57310248D01*
X118334358Y-56979236D01*
X117750000Y-56863000D01*
X117165642Y-56979236D01*
X116670248Y-57310248D01*
X116480000Y-57594974D01*
X116289752Y-57310248D01*
X115794358Y-56979236D01*
X115210000Y-56863000D01*
X114625642Y-56979236D01*
X114130248Y-57310248D01*
X113940000Y-57594974D01*
X113749752Y-57310248D01*
X113254358Y-56979236D01*
X112670000Y-56863000D01*
X112085642Y-56979236D01*
X111590248Y-57310248D01*
X111400000Y-57594974D01*
X111209752Y-57310248D01*
X110714358Y-56979236D01*
X110130000Y-56863000D01*
X109545642Y-56979236D01*
X109050248Y-57310248D01*
X108860000Y-57594974D01*
X108669752Y-57310248D01*
X108174358Y-56979236D01*
X107590000Y-56863000D01*
X107005642Y-56979236D01*
X106510248Y-57310248D01*
X106320000Y-57594974D01*
X106129752Y-57310248D01*
X105634358Y-56979236D01*
X105050000Y-56863000D01*
X104465642Y-56979236D01*
X103970248Y-57310248D01*
X103639236Y-57805642D01*
X103523000Y-58390000D01*
X103523000Y-60930000D01*
X103639236Y-61514358D01*
X103970248Y-62009752D01*
X104465642Y-62340764D01*
X105050000Y-62457000D01*
X105634358Y-62340764D01*
X106129752Y-62009752D01*
X106320000Y-61725026D01*
X106510248Y-62009752D01*
X107005642Y-62340764D01*
X107590000Y-62457000D01*
X108174358Y-62340764D01*
X108669752Y-62009752D01*
X108860000Y-61725026D01*
X109050248Y-62009752D01*
X109545642Y-62340764D01*
X110130000Y-62457000D01*
X110714358Y-62340764D01*
X111209752Y-62009752D01*
X111400000Y-61725026D01*
X111590248Y-62009752D01*
X112085642Y-62340764D01*
X112670000Y-62457000D01*
X113254358Y-62340764D01*
X113749752Y-62009752D01*
X113940000Y-61725026D01*
X114130248Y-62009752D01*
X114625642Y-62340764D01*
X115210000Y-62457000D01*
X115794358Y-62340764D01*
X116289752Y-62009752D01*
X116480000Y-61725026D01*
X116670248Y-62009752D01*
X117165642Y-62340764D01*
X117750000Y-62457000D01*
X118334358Y-62340764D01*
X118829752Y-62009752D01*
X119020000Y-61725026D01*
X119210248Y-62009752D01*
X119705642Y-62340764D01*
X120290000Y-62457000D01*
X120874358Y-62340764D01*
X121369752Y-62009752D01*
X121560000Y-61725026D01*
X121750248Y-62009752D01*
X122245642Y-62340764D01*
X122830000Y-62457000D01*
X123414358Y-62340764D01*
X123909752Y-62009752D01*
X124100000Y-61725026D01*
X124290248Y-62009752D01*
X124295003Y-62012929D01*
X123824932Y-62483000D01*
X112665000Y-62483000D01*
X112415490Y-62532631D01*
X112203966Y-62673966D01*
X112203964Y-62673969D01*
X111300015Y-63577917D01*
X111231221Y-63577857D01*
X110927154Y-63703495D01*
X110694312Y-63935930D01*
X110568144Y-64239778D01*
X110567857Y-64568779D01*
X110693495Y-64872846D01*
X110843387Y-65023000D01*
X105315067Y-65023000D01*
X104236034Y-63943966D01*
X104224007Y-63935930D01*
X104024510Y-63802631D01*
X103983113Y-63794396D01*
X103775000Y-63752999D01*
X103774995Y-63753000D01*
X102178547Y-63753000D01*
X102081722Y-63608091D01*
X101716097Y-63363788D01*
X101284813Y-63278000D01*
X99915187Y-63278000D01*
X99483903Y-63363788D01*
X99118278Y-63608091D01*
X98873975Y-63973716D01*
X98788187Y-64405000D01*
X98873975Y-64836284D01*
X99118278Y-65201909D01*
X99483903Y-65446212D01*
X99915187Y-65532000D01*
X101284813Y-65532000D01*
X101716097Y-65446212D01*
X102081722Y-65201909D01*
X102178547Y-65057000D01*
X103504932Y-65057000D01*
X104583964Y-66136031D01*
X104583966Y-66136034D01*
X104795490Y-66277369D01*
X105045000Y-66327000D01*
X114267851Y-66327000D01*
X114120852Y-66581159D01*
X114090633Y-66696967D01*
X114197431Y-66872000D01*
X115767000Y-66872000D01*
X115767000Y-66852000D01*
X115913000Y-66852000D01*
X115913000Y-66872000D01*
X117482569Y-66872000D01*
X117589367Y-66696967D01*
X117559148Y-66581159D01*
X117376773Y-66265835D01*
X117571034Y-66136034D01*
X117571035Y-66136033D01*
X118015067Y-65692000D01*
X118415025Y-65692000D01*
X118155741Y-65865248D01*
X117824729Y-66360642D01*
X117708493Y-66945000D01*
X117824729Y-67529358D01*
X117847208Y-67563000D01*
X117412149Y-67563000D01*
X117559148Y-67308841D01*
X117589367Y-67193033D01*
X117482569Y-67018000D01*
X115913000Y-67018000D01*
X115913000Y-67038000D01*
X115767000Y-67038000D01*
X115767000Y-67018000D01*
X114197431Y-67018000D01*
X114090633Y-67193033D01*
X114120852Y-67308841D01*
X114267851Y-67563000D01*
X105315067Y-67563000D01*
X104236034Y-66483966D01*
X104220788Y-66473779D01*
X104024510Y-66342631D01*
X103983113Y-66334396D01*
X103775000Y-66292999D01*
X103774995Y-66293000D01*
X102178547Y-66293000D01*
X102081722Y-66148091D01*
X101716097Y-65903788D01*
X101284813Y-65818000D01*
X99915187Y-65818000D01*
X99483903Y-65903788D01*
X99118278Y-66148091D01*
X98873975Y-66513716D01*
X98788187Y-66945000D01*
X98873975Y-67376284D01*
X99118278Y-67741909D01*
X99483903Y-67986212D01*
X99915187Y-68072000D01*
X101284813Y-68072000D01*
X101716097Y-67986212D01*
X102081722Y-67741909D01*
X102178547Y-67597000D01*
X103504932Y-67597000D01*
X104583964Y-68676031D01*
X104583966Y-68676034D01*
X104795490Y-68817369D01*
X105045000Y-68867000D01*
X112748503Y-68867000D01*
X112599312Y-69015930D01*
X112473144Y-69319778D01*
X112472857Y-69648779D01*
X112598495Y-69952846D01*
X112830930Y-70185688D01*
X113134778Y-70311856D01*
X113463779Y-70312143D01*
X113767846Y-70186505D01*
X113817438Y-70137000D01*
X114261453Y-70137000D01*
X114358278Y-70281909D01*
X114723903Y-70526212D01*
X115155187Y-70612000D01*
X116524813Y-70612000D01*
X116956097Y-70526212D01*
X117321722Y-70281909D01*
X117566025Y-69916284D01*
X117651813Y-69485000D01*
X117566025Y-69053716D01*
X117441265Y-68867000D01*
X117847208Y-68867000D01*
X117824729Y-68900642D01*
X117708493Y-69485000D01*
X117824729Y-70069358D01*
X118155741Y-70564752D01*
X118651135Y-70895764D01*
X119235493Y-71012000D01*
X121334507Y-71012000D01*
X121723260Y-70934672D01*
X121460015Y-71197917D01*
X121391221Y-71197857D01*
X121087154Y-71323495D01*
X120854312Y-71555930D01*
X120728144Y-71859778D01*
X120727857Y-72188779D01*
X120853495Y-72492846D01*
X121003387Y-72643000D01*
X117441265Y-72643000D01*
X117566025Y-72456284D01*
X117651813Y-72025000D01*
X117566025Y-71593716D01*
X117321722Y-71228091D01*
X116956097Y-70983788D01*
X116524813Y-70898000D01*
X115155187Y-70898000D01*
X114723903Y-70983788D01*
X114358278Y-71228091D01*
X114261453Y-71373000D01*
X111912673Y-71373000D01*
X111864070Y-71324312D01*
X111560222Y-71198144D01*
X111231221Y-71197857D01*
X110927154Y-71323495D01*
X110694312Y-71555930D01*
X110568144Y-71859778D01*
X110567857Y-72188779D01*
X110693495Y-72492846D01*
X110925930Y-72725688D01*
X111030828Y-72769245D01*
X110933966Y-72833966D01*
X110933964Y-72833969D01*
X106488966Y-77278966D01*
X106347631Y-77490490D01*
X106347631Y-77490491D01*
X106297999Y-77740000D01*
X106298000Y-77740005D01*
X106298000Y-91439932D01*
X103504932Y-94233000D01*
X102178547Y-94233000D01*
X102081722Y-94088091D01*
X101716097Y-93843788D01*
X101284813Y-93758000D01*
X99915187Y-93758000D01*
X99483903Y-93843788D01*
X99118278Y-94088091D01*
X98873975Y-94453716D01*
X98788187Y-94885000D01*
X98873975Y-95316284D01*
X99118278Y-95681909D01*
X99483903Y-95926212D01*
X99915187Y-96012000D01*
X101284813Y-96012000D01*
X101716097Y-95926212D01*
X102081722Y-95681909D01*
X102178547Y-95537000D01*
X103774995Y-95537000D01*
X103775000Y-95537001D01*
X103983113Y-95495604D01*
X104024510Y-95487369D01*
X104236034Y-95346034D01*
X107411034Y-92171034D01*
X107461510Y-92095491D01*
X107552369Y-91959510D01*
X107568000Y-91880928D01*
X107568000Y-92709933D01*
X106488966Y-93788966D01*
X103504932Y-96773000D01*
X102178547Y-96773000D01*
X102081722Y-96628091D01*
X101716097Y-96383788D01*
X101284813Y-96298000D01*
X99915187Y-96298000D01*
X99483903Y-96383788D01*
X99118278Y-96628091D01*
X98873975Y-96993716D01*
X98788187Y-97425000D01*
X98873975Y-97856284D01*
X99118278Y-98221909D01*
X99483903Y-98466212D01*
X99915187Y-98552000D01*
X101284813Y-98552000D01*
X101716097Y-98466212D01*
X102081722Y-98221909D01*
X102178547Y-98077000D01*
X103774995Y-98077000D01*
X103775000Y-98077001D01*
X103983113Y-98035604D01*
X104024510Y-98027369D01*
X104236034Y-97886034D01*
X107411034Y-94711034D01*
X108681031Y-93441036D01*
X108681034Y-93441034D01*
X108822369Y-93229510D01*
X108838000Y-93150928D01*
X108838000Y-93979932D01*
X105853966Y-96963966D01*
X105853964Y-96963969D01*
X103504932Y-99313000D01*
X102178547Y-99313000D01*
X102081722Y-99168091D01*
X101716097Y-98923788D01*
X101284813Y-98838000D01*
X99915187Y-98838000D01*
X99483903Y-98923788D01*
X99118278Y-99168091D01*
X98873975Y-99533716D01*
X98788187Y-99965000D01*
X98873975Y-100396284D01*
X99118278Y-100761909D01*
X99483903Y-101006212D01*
X99915187Y-101092000D01*
X101284813Y-101092000D01*
X101716097Y-101006212D01*
X102081722Y-100761909D01*
X102178547Y-100617000D01*
X103774995Y-100617000D01*
X103775000Y-100617001D01*
X103983113Y-100575604D01*
X104024510Y-100567369D01*
X104236034Y-100426034D01*
X106776031Y-97886036D01*
X106776034Y-97886034D01*
X109951034Y-94711034D01*
X110001510Y-94635491D01*
X110092369Y-94499510D01*
X110142000Y-94250000D01*
X110142000Y-84725000D01*
X114028187Y-84725000D01*
X114113975Y-85156284D01*
X114358278Y-85521909D01*
X114723903Y-85766212D01*
X115155187Y-85852000D01*
X116524813Y-85852000D01*
X116956097Y-85766212D01*
X117321722Y-85521909D01*
X117362105Y-85461471D01*
X117579778Y-85551856D01*
X117908779Y-85552143D01*
X118212846Y-85426505D01*
X118445688Y-85194070D01*
X118571856Y-84890222D01*
X118572143Y-84561221D01*
X118446505Y-84257154D01*
X118214070Y-84024312D01*
X117910222Y-83898144D01*
X117581221Y-83897857D01*
X117362035Y-83988423D01*
X117321722Y-83928091D01*
X116956097Y-83683788D01*
X116524813Y-83598000D01*
X115155187Y-83598000D01*
X114723903Y-83683788D01*
X114358278Y-83928091D01*
X114113975Y-84293716D01*
X114028187Y-84725000D01*
X110142000Y-84725000D01*
X110142000Y-82185000D01*
X114028187Y-82185000D01*
X114113975Y-82616284D01*
X114358278Y-82981909D01*
X114723903Y-83226212D01*
X115155187Y-83312000D01*
X116524813Y-83312000D01*
X116956097Y-83226212D01*
X117321722Y-82981909D01*
X117362105Y-82921471D01*
X117579778Y-83011856D01*
X117908779Y-83012143D01*
X118212846Y-82886505D01*
X118445688Y-82654070D01*
X118571856Y-82350222D01*
X118572143Y-82021221D01*
X118446505Y-81717154D01*
X118214070Y-81484312D01*
X117910222Y-81358144D01*
X117581221Y-81357857D01*
X117362035Y-81448423D01*
X117321722Y-81388091D01*
X116956097Y-81143788D01*
X116524813Y-81058000D01*
X115155187Y-81058000D01*
X114723903Y-81143788D01*
X114358278Y-81388091D01*
X114113975Y-81753716D01*
X114028187Y-82185000D01*
X110142000Y-82185000D01*
X110142000Y-80550068D01*
X111665068Y-79027000D01*
X114238735Y-79027000D01*
X114113975Y-79213716D01*
X114028187Y-79645000D01*
X114113975Y-80076284D01*
X114358278Y-80441909D01*
X114723903Y-80686212D01*
X115155187Y-80772000D01*
X116524813Y-80772000D01*
X116956097Y-80686212D01*
X117321722Y-80441909D01*
X117362105Y-80381471D01*
X117579778Y-80471856D01*
X117908779Y-80472143D01*
X118212846Y-80346505D01*
X118445688Y-80114070D01*
X118571856Y-79810222D01*
X118572143Y-79481221D01*
X118446505Y-79177154D01*
X118214070Y-78944312D01*
X117910222Y-78818144D01*
X117589204Y-78817864D01*
X119476035Y-76931033D01*
X119920067Y-76487000D01*
X122554932Y-76487000D01*
X126173964Y-80106031D01*
X126173966Y-80106034D01*
X126315302Y-80200471D01*
X126385491Y-80247370D01*
X126635000Y-80297001D01*
X126635005Y-80297000D01*
X129505932Y-80297000D01*
X129348966Y-80453966D01*
X129348964Y-80453969D01*
X123633966Y-86168966D01*
X123492631Y-86380490D01*
X123492631Y-86380491D01*
X123442999Y-86630000D01*
X123443000Y-86630005D01*
X123443000Y-90169933D01*
X121093966Y-92518966D01*
X118109932Y-95503000D01*
X117441265Y-95503000D01*
X117566025Y-95316284D01*
X117651813Y-94885000D01*
X117566025Y-94453716D01*
X117321722Y-94088091D01*
X116956097Y-93843788D01*
X116524813Y-93758000D01*
X115155187Y-93758000D01*
X114723903Y-93843788D01*
X114358278Y-94088091D01*
X114113975Y-94453716D01*
X114028187Y-94885000D01*
X114113975Y-95316284D01*
X114238735Y-95503000D01*
X113952000Y-95503000D01*
X113952000Y-92345000D01*
X114028187Y-92345000D01*
X114113975Y-92776284D01*
X114358278Y-93141909D01*
X114723903Y-93386212D01*
X115155187Y-93472000D01*
X116524813Y-93472000D01*
X116956097Y-93386212D01*
X117321722Y-93141909D01*
X117362105Y-93081471D01*
X117579778Y-93171856D01*
X117908779Y-93172143D01*
X118212846Y-93046505D01*
X118445688Y-92814070D01*
X118571856Y-92510222D01*
X118572143Y-92181221D01*
X118446505Y-91877154D01*
X118214070Y-91644312D01*
X117910222Y-91518144D01*
X117581221Y-91517857D01*
X117362035Y-91608423D01*
X117321722Y-91548091D01*
X116956097Y-91303788D01*
X116524813Y-91218000D01*
X115155187Y-91218000D01*
X114723903Y-91303788D01*
X114358278Y-91548091D01*
X114113975Y-91913716D01*
X114028187Y-92345000D01*
X113952000Y-92345000D01*
X113952000Y-90632015D01*
X114098779Y-90632143D01*
X114317965Y-90541577D01*
X114358278Y-90601909D01*
X114723903Y-90846212D01*
X115155187Y-90932000D01*
X116524813Y-90932000D01*
X116956097Y-90846212D01*
X117321722Y-90601909D01*
X117566025Y-90236284D01*
X117651813Y-89805000D01*
X117566025Y-89373716D01*
X117321722Y-89008091D01*
X116956097Y-88763788D01*
X116524813Y-88678000D01*
X115155187Y-88678000D01*
X114723903Y-88763788D01*
X114358278Y-89008091D01*
X114317895Y-89068529D01*
X114100222Y-88978144D01*
X114011485Y-88978067D01*
X114126856Y-88700222D01*
X114127143Y-88371221D01*
X114011799Y-88092067D01*
X114098779Y-88092143D01*
X114317965Y-88001577D01*
X114358278Y-88061909D01*
X114723903Y-88306212D01*
X115155187Y-88392000D01*
X116524813Y-88392000D01*
X116956097Y-88306212D01*
X117321722Y-88061909D01*
X117566025Y-87696284D01*
X117651813Y-87265000D01*
X117708493Y-87265000D01*
X117824729Y-87849358D01*
X118155741Y-88344752D01*
X118440467Y-88535000D01*
X118155741Y-88725248D01*
X117824729Y-89220642D01*
X117708493Y-89805000D01*
X117824729Y-90389358D01*
X118155741Y-90884752D01*
X118651135Y-91215764D01*
X119235493Y-91332000D01*
X121334507Y-91332000D01*
X121918865Y-91215764D01*
X122414259Y-90884752D01*
X122745271Y-90389358D01*
X122861507Y-89805000D01*
X122745271Y-89220642D01*
X122414259Y-88725248D01*
X122129533Y-88535000D01*
X122414259Y-88344752D01*
X122745271Y-87849358D01*
X122861507Y-87265000D01*
X122745271Y-86680642D01*
X122414259Y-86185248D01*
X121918865Y-85854236D01*
X121334507Y-85738000D01*
X120937000Y-85738000D01*
X120937000Y-79915068D01*
X121649984Y-79202083D01*
X121718779Y-79202143D01*
X122022846Y-79076505D01*
X122255688Y-78844070D01*
X122381856Y-78540222D01*
X122382143Y-78211221D01*
X122256505Y-77907154D01*
X122024070Y-77674312D01*
X121720222Y-77548144D01*
X121391221Y-77547857D01*
X121087154Y-77673495D01*
X120854312Y-77905930D01*
X120728144Y-78209778D01*
X120728083Y-78279850D01*
X119823966Y-79183966D01*
X119682631Y-79395490D01*
X119682631Y-79395491D01*
X119632999Y-79645000D01*
X119633000Y-79645005D01*
X119633000Y-85738000D01*
X119235493Y-85738000D01*
X118651135Y-85854236D01*
X118155741Y-86185248D01*
X117824729Y-86680642D01*
X117708493Y-87265000D01*
X117651813Y-87265000D01*
X117566025Y-86833716D01*
X117321722Y-86468091D01*
X116956097Y-86223788D01*
X116524813Y-86138000D01*
X115155187Y-86138000D01*
X114723903Y-86223788D01*
X114358278Y-86468091D01*
X114317895Y-86528529D01*
X114100222Y-86438144D01*
X113771221Y-86437857D01*
X113467154Y-86563495D01*
X113234312Y-86795930D01*
X113108144Y-87099778D01*
X113107857Y-87428779D01*
X113223201Y-87707933D01*
X113136221Y-87707857D01*
X112832154Y-87833495D01*
X112599312Y-88065930D01*
X112473144Y-88369778D01*
X112472857Y-88698779D01*
X112598495Y-89002846D01*
X112648000Y-89052438D01*
X112648000Y-95249933D01*
X107314932Y-100583000D01*
X106950005Y-100583000D01*
X106950000Y-100582999D01*
X106700491Y-100632630D01*
X106488966Y-100773966D01*
X104583966Y-102678966D01*
X104442631Y-102890490D01*
X104442631Y-102890491D01*
X104392999Y-103140000D01*
X104393000Y-103140005D01*
X104393000Y-106949995D01*
X104392999Y-106950000D01*
X104418119Y-107076281D01*
X104442631Y-107199510D01*
X104533490Y-107335491D01*
X104583966Y-107411034D01*
X105851944Y-108679011D01*
X106077655Y-109225274D01*
X106130289Y-109278000D01*
X98662000Y-109278000D01*
X98662000Y-105880000D01*
X99858000Y-105880000D01*
X100025617Y-106722669D01*
X100502951Y-107437049D01*
X101217331Y-107914383D01*
X102060000Y-108082000D01*
X102902669Y-107914383D01*
X103617049Y-107437049D01*
X104094383Y-106722669D01*
X104262000Y-105880000D01*
X104094383Y-105037331D01*
X103617049Y-104322951D01*
X102902669Y-103845617D01*
X102060000Y-103678000D01*
X101217331Y-103845617D01*
X100502951Y-104322951D01*
X100025617Y-105037331D01*
X99858000Y-105880000D01*
X98662000Y-105880000D01*
X98662000Y-92345000D01*
X98788187Y-92345000D01*
X98873975Y-92776284D01*
X99118278Y-93141909D01*
X99483903Y-93386212D01*
X99915187Y-93472000D01*
X101284813Y-93472000D01*
X101716097Y-93386212D01*
X102081722Y-93141909D01*
X102122105Y-93081471D01*
X102339778Y-93171856D01*
X102668779Y-93172143D01*
X102972846Y-93046505D01*
X103205688Y-92814070D01*
X103331856Y-92510222D01*
X103332143Y-92181221D01*
X103206505Y-91877154D01*
X102974070Y-91644312D01*
X102670222Y-91518144D01*
X102341221Y-91517857D01*
X102122035Y-91608423D01*
X102081722Y-91548091D01*
X101716097Y-91303788D01*
X101284813Y-91218000D01*
X99915187Y-91218000D01*
X99483903Y-91303788D01*
X99118278Y-91548091D01*
X98873975Y-91913716D01*
X98788187Y-92345000D01*
X98662000Y-92345000D01*
X98662000Y-89805000D01*
X98788187Y-89805000D01*
X98873975Y-90236284D01*
X99118278Y-90601909D01*
X99483903Y-90846212D01*
X99915187Y-90932000D01*
X101284813Y-90932000D01*
X101716097Y-90846212D01*
X102081722Y-90601909D01*
X102122105Y-90541471D01*
X102339778Y-90631856D01*
X102668779Y-90632143D01*
X102972846Y-90506505D01*
X103205688Y-90274070D01*
X103331856Y-89970222D01*
X103332143Y-89641221D01*
X103206505Y-89337154D01*
X102974070Y-89104312D01*
X102670222Y-88978144D01*
X102341221Y-88977857D01*
X102122035Y-89068423D01*
X102081722Y-89008091D01*
X101716097Y-88763788D01*
X101284813Y-88678000D01*
X99915187Y-88678000D01*
X99483903Y-88763788D01*
X99118278Y-89008091D01*
X98873975Y-89373716D01*
X98788187Y-89805000D01*
X98662000Y-89805000D01*
X98662000Y-87265000D01*
X98788187Y-87265000D01*
X98873975Y-87696284D01*
X99118278Y-88061909D01*
X99483903Y-88306212D01*
X99915187Y-88392000D01*
X101284813Y-88392000D01*
X101716097Y-88306212D01*
X102081722Y-88061909D01*
X102122105Y-88001471D01*
X102339778Y-88091856D01*
X102668779Y-88092143D01*
X102972846Y-87966505D01*
X103205688Y-87734070D01*
X103331856Y-87430222D01*
X103332143Y-87101221D01*
X103206505Y-86797154D01*
X102974070Y-86564312D01*
X102670222Y-86438144D01*
X102341221Y-86437857D01*
X102122035Y-86528423D01*
X102081722Y-86468091D01*
X101716097Y-86223788D01*
X101284813Y-86138000D01*
X99915187Y-86138000D01*
X99483903Y-86223788D01*
X99118278Y-86468091D01*
X98873975Y-86833716D01*
X98788187Y-87265000D01*
X98662000Y-87265000D01*
X98662000Y-84725000D01*
X98788187Y-84725000D01*
X98873975Y-85156284D01*
X99118278Y-85521909D01*
X99483903Y-85766212D01*
X99915187Y-85852000D01*
X101284813Y-85852000D01*
X101716097Y-85766212D01*
X102081722Y-85521909D01*
X102122105Y-85461471D01*
X102339778Y-85551856D01*
X102668779Y-85552143D01*
X102972846Y-85426505D01*
X103205688Y-85194070D01*
X103331856Y-84890222D01*
X103332143Y-84561221D01*
X103206505Y-84257154D01*
X102974070Y-84024312D01*
X102670222Y-83898144D01*
X102341221Y-83897857D01*
X102122035Y-83988423D01*
X102081722Y-83928091D01*
X101716097Y-83683788D01*
X101284813Y-83598000D01*
X99915187Y-83598000D01*
X99483903Y-83683788D01*
X99118278Y-83928091D01*
X98873975Y-84293716D01*
X98788187Y-84725000D01*
X98662000Y-84725000D01*
X98662000Y-82185000D01*
X98788187Y-82185000D01*
X98873975Y-82616284D01*
X99118278Y-82981909D01*
X99483903Y-83226212D01*
X99915187Y-83312000D01*
X101284813Y-83312000D01*
X101716097Y-83226212D01*
X102081722Y-82981909D01*
X102122105Y-82921471D01*
X102339778Y-83011856D01*
X102668779Y-83012143D01*
X102972846Y-82886505D01*
X103205688Y-82654070D01*
X103331856Y-82350222D01*
X103332143Y-82021221D01*
X103206505Y-81717154D01*
X102974070Y-81484312D01*
X102670222Y-81358144D01*
X102341221Y-81357857D01*
X102122035Y-81448423D01*
X102081722Y-81388091D01*
X101716097Y-81143788D01*
X101284813Y-81058000D01*
X99915187Y-81058000D01*
X99483903Y-81143788D01*
X99118278Y-81388091D01*
X98873975Y-81753716D01*
X98788187Y-82185000D01*
X98662000Y-82185000D01*
X98662000Y-79645000D01*
X98788187Y-79645000D01*
X98873975Y-80076284D01*
X99118278Y-80441909D01*
X99483903Y-80686212D01*
X99915187Y-80772000D01*
X101284813Y-80772000D01*
X101716097Y-80686212D01*
X102081722Y-80441909D01*
X102122105Y-80381471D01*
X102339778Y-80471856D01*
X102668779Y-80472143D01*
X102972846Y-80346505D01*
X103205688Y-80114070D01*
X103331856Y-79810222D01*
X103332143Y-79481221D01*
X103206505Y-79177154D01*
X102974070Y-78944312D01*
X102670222Y-78818144D01*
X102341221Y-78817857D01*
X102122035Y-78908423D01*
X102081722Y-78848091D01*
X101716097Y-78603788D01*
X101284813Y-78518000D01*
X99915187Y-78518000D01*
X99483903Y-78603788D01*
X99118278Y-78848091D01*
X98873975Y-79213716D01*
X98788187Y-79645000D01*
X98662000Y-79645000D01*
X98662000Y-77105000D01*
X98788187Y-77105000D01*
X98873975Y-77536284D01*
X99118278Y-77901909D01*
X99483903Y-78146212D01*
X99915187Y-78232000D01*
X101284813Y-78232000D01*
X101716097Y-78146212D01*
X102081722Y-77901909D01*
X102122105Y-77841471D01*
X102339778Y-77931856D01*
X102668779Y-77932143D01*
X102972846Y-77806505D01*
X103205688Y-77574070D01*
X103331856Y-77270222D01*
X103332143Y-76941221D01*
X103206505Y-76637154D01*
X102974070Y-76404312D01*
X102670222Y-76278144D01*
X102341221Y-76277857D01*
X102122035Y-76368423D01*
X102081722Y-76308091D01*
X101716097Y-76063788D01*
X101284813Y-75978000D01*
X99915187Y-75978000D01*
X99483903Y-76063788D01*
X99118278Y-76308091D01*
X98873975Y-76673716D01*
X98788187Y-77105000D01*
X98662000Y-77105000D01*
X98662000Y-74565000D01*
X98788187Y-74565000D01*
X98873975Y-74996284D01*
X99118278Y-75361909D01*
X99483903Y-75606212D01*
X99915187Y-75692000D01*
X101284813Y-75692000D01*
X101716097Y-75606212D01*
X102081722Y-75361909D01*
X102122105Y-75301471D01*
X102339778Y-75391856D01*
X102668779Y-75392143D01*
X102972846Y-75266505D01*
X103205688Y-75034070D01*
X103331856Y-74730222D01*
X103332143Y-74401221D01*
X103206505Y-74097154D01*
X102974070Y-73864312D01*
X102670222Y-73738144D01*
X102341221Y-73737857D01*
X102122035Y-73828423D01*
X102081722Y-73768091D01*
X101716097Y-73523788D01*
X101284813Y-73438000D01*
X99915187Y-73438000D01*
X99483903Y-73523788D01*
X99118278Y-73768091D01*
X98873975Y-74133716D01*
X98788187Y-74565000D01*
X98662000Y-74565000D01*
X98662000Y-72273033D01*
X98850633Y-72273033D01*
X98880852Y-72388841D01*
X99101472Y-72770290D01*
X99451273Y-73038276D01*
X99877000Y-73152000D01*
X100527000Y-73152000D01*
X100527000Y-72098000D01*
X100673000Y-72098000D01*
X100673000Y-73152000D01*
X101323000Y-73152000D01*
X101748727Y-73038276D01*
X102098528Y-72770290D01*
X102319148Y-72388841D01*
X102349367Y-72273033D01*
X102242569Y-72098000D01*
X100673000Y-72098000D01*
X100527000Y-72098000D01*
X98957431Y-72098000D01*
X98850633Y-72273033D01*
X98662000Y-72273033D01*
X98662000Y-71776967D01*
X98850633Y-71776967D01*
X98957431Y-71952000D01*
X100527000Y-71952000D01*
X100527000Y-70898000D01*
X100673000Y-70898000D01*
X100673000Y-71952000D01*
X102242569Y-71952000D01*
X102349367Y-71776967D01*
X102319148Y-71661159D01*
X102098528Y-71279710D01*
X101748727Y-71011724D01*
X101323000Y-70898000D01*
X100673000Y-70898000D01*
X100527000Y-70898000D01*
X99877000Y-70898000D01*
X99451273Y-71011724D01*
X99101472Y-71279710D01*
X98880852Y-71661159D01*
X98850633Y-71776967D01*
X98662000Y-71776967D01*
X98662000Y-69485000D01*
X98788187Y-69485000D01*
X98873975Y-69916284D01*
X99118278Y-70281909D01*
X99483903Y-70526212D01*
X99915187Y-70612000D01*
X101284813Y-70612000D01*
X101716097Y-70526212D01*
X102081722Y-70281909D01*
X102326025Y-69916284D01*
X102411813Y-69485000D01*
X102326025Y-69053716D01*
X102081722Y-68688091D01*
X101716097Y-68443788D01*
X101284813Y-68358000D01*
X99915187Y-68358000D01*
X99483903Y-68443788D01*
X99118278Y-68688091D01*
X98873975Y-69053716D01*
X98788187Y-69485000D01*
X98662000Y-69485000D01*
X98662000Y-58939293D01*
X98931554Y-57584155D01*
X99665592Y-56485590D01*
X100764155Y-55751554D01*
X101861852Y-55533208D01*
X102134322Y-55805678D01*
G36*
X114113975Y-96993716D02*
X114028187Y-97425000D01*
X114113975Y-97856284D01*
X114358278Y-98221909D01*
X114723903Y-98466212D01*
X115155187Y-98552000D01*
X116524813Y-98552000D01*
X116956097Y-98466212D01*
X117119777Y-98356845D01*
X120268000Y-101505067D01*
X120268000Y-105044995D01*
X120267999Y-105045000D01*
X120293721Y-105174307D01*
X120317631Y-105294510D01*
X120408490Y-105430491D01*
X120458966Y-105506034D01*
X121250933Y-106298000D01*
X120555067Y-106298000D01*
X119476034Y-105218966D01*
X119464007Y-105210930D01*
X119264510Y-105077631D01*
X119223113Y-105069396D01*
X119015000Y-105027999D01*
X119014995Y-105028000D01*
X111912673Y-105028000D01*
X111864070Y-104979312D01*
X111560222Y-104853144D01*
X111231221Y-104852857D01*
X110927154Y-104978495D01*
X110694312Y-105210930D01*
X110568144Y-105514778D01*
X110567857Y-105843779D01*
X110693495Y-106147846D01*
X110925930Y-106380688D01*
X111229778Y-106506856D01*
X111558779Y-106507143D01*
X111862846Y-106381505D01*
X111912438Y-106332000D01*
X118744932Y-106332000D01*
X119345933Y-106933000D01*
X117110005Y-106933000D01*
X117110000Y-106932999D01*
X116860491Y-106982630D01*
X116860489Y-106982631D01*
X116860490Y-106982631D01*
X116648966Y-107123966D01*
X116648964Y-107123969D01*
X116635343Y-107137590D01*
X116212904Y-106714412D01*
X115560018Y-106443310D01*
X114853084Y-106442693D01*
X114199726Y-106712655D01*
X113699412Y-107212096D01*
X113551628Y-107568000D01*
X109238315Y-107568000D01*
X109092345Y-107214726D01*
X108592904Y-106714412D01*
X107940018Y-106443310D01*
X107233084Y-106442693D01*
X106579726Y-106712655D01*
X106154353Y-107137286D01*
X105697000Y-106679932D01*
X105697000Y-104378481D01*
X106449757Y-104378481D01*
X106579966Y-104647506D01*
X107233367Y-104917364D01*
X107940301Y-104916634D01*
X108590034Y-104647506D01*
X108720243Y-104378481D01*
X114069757Y-104378481D01*
X114199966Y-104647506D01*
X114853367Y-104917364D01*
X115560301Y-104916634D01*
X116210034Y-104647506D01*
X116340243Y-104378481D01*
X115205000Y-103243238D01*
X114069757Y-104378481D01*
X108720243Y-104378481D01*
X107585000Y-103243238D01*
X106449757Y-104378481D01*
X105697000Y-104378481D01*
X105697000Y-103410068D01*
X105808163Y-103298905D01*
X105808366Y-103495301D01*
X106077494Y-104145034D01*
X106346519Y-104275243D01*
X107481762Y-103140000D01*
X107688238Y-103140000D01*
X108823481Y-104275243D01*
X109092506Y-104145034D01*
X109362364Y-103491633D01*
X109361638Y-102788367D01*
X113427636Y-102788367D01*
X113428366Y-103495301D01*
X113697494Y-104145034D01*
X113966519Y-104275243D01*
X115101762Y-103140000D01*
X115308238Y-103140000D01*
X116443481Y-104275243D01*
X116712506Y-104145034D01*
X116982364Y-103491633D01*
X116981634Y-102784699D01*
X116712506Y-102134966D01*
X116443481Y-102004757D01*
X115308238Y-103140000D01*
X115101762Y-103140000D01*
X113966519Y-102004757D01*
X113697494Y-102134966D01*
X113427636Y-102788367D01*
X109361638Y-102788367D01*
X109361634Y-102784699D01*
X109092506Y-102134966D01*
X108823481Y-102004757D01*
X107688238Y-103140000D01*
X107481762Y-103140000D01*
X107467620Y-103125858D01*
X107570858Y-103022620D01*
X107585000Y-103036762D01*
X108720243Y-101901519D01*
X114069757Y-101901519D01*
X115205000Y-103036762D01*
X116340243Y-101901519D01*
X116210034Y-101632494D01*
X115556633Y-101362636D01*
X114849699Y-101363366D01*
X114199966Y-101632494D01*
X114069757Y-101901519D01*
X108720243Y-101901519D01*
X108590034Y-101632494D01*
X108250007Y-101492061D01*
X112648000Y-97094067D01*
X112648000Y-99329995D01*
X112647999Y-99330000D01*
X112682604Y-99503966D01*
X112697631Y-99579510D01*
X112788490Y-99715491D01*
X112838966Y-99791034D01*
X113473964Y-100426031D01*
X113473966Y-100426034D01*
X113615302Y-100520471D01*
X113685491Y-100567370D01*
X113935000Y-100617001D01*
X113935005Y-100617000D01*
X114261453Y-100617000D01*
X114358278Y-100761909D01*
X114723903Y-101006212D01*
X115155187Y-101092000D01*
X116524813Y-101092000D01*
X116956097Y-101006212D01*
X117321722Y-100761909D01*
X117566025Y-100396284D01*
X117651813Y-99965000D01*
X117566025Y-99533716D01*
X117321722Y-99168091D01*
X116956097Y-98923788D01*
X116524813Y-98838000D01*
X115155187Y-98838000D01*
X114723903Y-98923788D01*
X114358278Y-99168091D01*
X114261453Y-99313000D01*
X114205067Y-99313000D01*
X113952000Y-99059932D01*
X113952000Y-97060068D01*
X114205067Y-96807000D01*
X114238735Y-96807000D01*
X114113975Y-96993716D01*
X114113975Y-96993716D01*
G37*
X114113975Y-96993716D02*
X114028187Y-97425000D01*
X114113975Y-97856284D01*
X114358278Y-98221909D01*
X114723903Y-98466212D01*
X115155187Y-98552000D01*
X116524813Y-98552000D01*
X116956097Y-98466212D01*
X117119777Y-98356845D01*
X120268000Y-101505067D01*
X120268000Y-105044995D01*
X120267999Y-105045000D01*
X120293721Y-105174307D01*
X120317631Y-105294510D01*
X120408490Y-105430491D01*
X120458966Y-105506034D01*
X121250933Y-106298000D01*
X120555067Y-106298000D01*
X119476034Y-105218966D01*
X119464007Y-105210930D01*
X119264510Y-105077631D01*
X119223113Y-105069396D01*
X119015000Y-105027999D01*
X119014995Y-105028000D01*
X111912673Y-105028000D01*
X111864070Y-104979312D01*
X111560222Y-104853144D01*
X111231221Y-104852857D01*
X110927154Y-104978495D01*
X110694312Y-105210930D01*
X110568144Y-105514778D01*
X110567857Y-105843779D01*
X110693495Y-106147846D01*
X110925930Y-106380688D01*
X111229778Y-106506856D01*
X111558779Y-106507143D01*
X111862846Y-106381505D01*
X111912438Y-106332000D01*
X118744932Y-106332000D01*
X119345933Y-106933000D01*
X117110005Y-106933000D01*
X117110000Y-106932999D01*
X116860491Y-106982630D01*
X116860489Y-106982631D01*
X116860490Y-106982631D01*
X116648966Y-107123966D01*
X116648964Y-107123969D01*
X116635343Y-107137590D01*
X116212904Y-106714412D01*
X115560018Y-106443310D01*
X114853084Y-106442693D01*
X114199726Y-106712655D01*
X113699412Y-107212096D01*
X113551628Y-107568000D01*
X109238315Y-107568000D01*
X109092345Y-107214726D01*
X108592904Y-106714412D01*
X107940018Y-106443310D01*
X107233084Y-106442693D01*
X106579726Y-106712655D01*
X106154353Y-107137286D01*
X105697000Y-106679932D01*
X105697000Y-104378481D01*
X106449757Y-104378481D01*
X106579966Y-104647506D01*
X107233367Y-104917364D01*
X107940301Y-104916634D01*
X108590034Y-104647506D01*
X108720243Y-104378481D01*
X114069757Y-104378481D01*
X114199966Y-104647506D01*
X114853367Y-104917364D01*
X115560301Y-104916634D01*
X116210034Y-104647506D01*
X116340243Y-104378481D01*
X115205000Y-103243238D01*
X114069757Y-104378481D01*
X108720243Y-104378481D01*
X107585000Y-103243238D01*
X106449757Y-104378481D01*
X105697000Y-104378481D01*
X105697000Y-103410068D01*
X105808163Y-103298905D01*
X105808366Y-103495301D01*
X106077494Y-104145034D01*
X106346519Y-104275243D01*
X107481762Y-103140000D01*
X107688238Y-103140000D01*
X108823481Y-104275243D01*
X109092506Y-104145034D01*
X109362364Y-103491633D01*
X109361638Y-102788367D01*
X113427636Y-102788367D01*
X113428366Y-103495301D01*
X113697494Y-104145034D01*
X113966519Y-104275243D01*
X115101762Y-103140000D01*
X115308238Y-103140000D01*
X116443481Y-104275243D01*
X116712506Y-104145034D01*
X116982364Y-103491633D01*
X116981634Y-102784699D01*
X116712506Y-102134966D01*
X116443481Y-102004757D01*
X115308238Y-103140000D01*
X115101762Y-103140000D01*
X113966519Y-102004757D01*
X113697494Y-102134966D01*
X113427636Y-102788367D01*
X109361638Y-102788367D01*
X109361634Y-102784699D01*
X109092506Y-102134966D01*
X108823481Y-102004757D01*
X107688238Y-103140000D01*
X107481762Y-103140000D01*
X107467620Y-103125858D01*
X107570858Y-103022620D01*
X107585000Y-103036762D01*
X108720243Y-101901519D01*
X114069757Y-101901519D01*
X115205000Y-103036762D01*
X116340243Y-101901519D01*
X116210034Y-101632494D01*
X115556633Y-101362636D01*
X114849699Y-101363366D01*
X114199966Y-101632494D01*
X114069757Y-101901519D01*
X108720243Y-101901519D01*
X108590034Y-101632494D01*
X108250007Y-101492061D01*
X112648000Y-97094067D01*
X112648000Y-99329995D01*
X112647999Y-99330000D01*
X112682604Y-99503966D01*
X112697631Y-99579510D01*
X112788490Y-99715491D01*
X112838966Y-99791034D01*
X113473964Y-100426031D01*
X113473966Y-100426034D01*
X113615302Y-100520471D01*
X113685491Y-100567370D01*
X113935000Y-100617001D01*
X113935005Y-100617000D01*
X114261453Y-100617000D01*
X114358278Y-100761909D01*
X114723903Y-101006212D01*
X115155187Y-101092000D01*
X116524813Y-101092000D01*
X116956097Y-101006212D01*
X117321722Y-100761909D01*
X117566025Y-100396284D01*
X117651813Y-99965000D01*
X117566025Y-99533716D01*
X117321722Y-99168091D01*
X116956097Y-98923788D01*
X116524813Y-98838000D01*
X115155187Y-98838000D01*
X114723903Y-98923788D01*
X114358278Y-99168091D01*
X114261453Y-99313000D01*
X114205067Y-99313000D01*
X113952000Y-99059932D01*
X113952000Y-97060068D01*
X114205067Y-96807000D01*
X114238735Y-96807000D01*
X114113975Y-96993716D01*
M02*
