G04 #@! TF.FileFunction,Copper,L1,Top,Signal*
%FSLAX46Y46*%
G04 Gerber Fmt 4.6, Leading zero omitted, Abs format (unit mm)*
G04 Created by KiCad (PCBNEW 4.0.6) date 12/04/17 18:38:42*
%MOMM*%
%LPD*%
G01*
G04 APERTURE LIST*
%ADD10C,0.050000*%
%ADD11R,1.250000X1.500000*%
%ADD12C,1.700000*%
%ADD13R,1.300000X1.500000*%
%ADD14C,1.600000*%
%ADD15O,1.600000X1.600000*%
%ADD16O,2.500000X1.200000*%
%ADD17R,1.600000X1.600000*%
%ADD18C,2.500000*%
%ADD19O,2.000000X3.000000*%
%ADD20C,1.500000*%
%ADD21O,2.000000X4.000000*%
%ADD22O,4.000000X2.000000*%
%ADD23C,0.600000*%
%ADD24C,0.250000*%
%ADD25C,0.254000*%
G04 APERTURE END LIST*
D10*
D11*
X158385000Y-75180000D03*
X158385000Y-72680000D03*
X158385000Y-67600000D03*
X158385000Y-70100000D03*
D12*
X105050000Y-58390000D03*
X105050000Y-60930000D03*
X107590000Y-58390000D03*
X107590000Y-60930000D03*
X110130000Y-58390000D03*
X110130000Y-60930000D03*
X112670000Y-58390000D03*
X112670000Y-60930000D03*
X115210000Y-58390000D03*
X115210000Y-60930000D03*
X117750000Y-58390000D03*
X117750000Y-60930000D03*
X120290000Y-58390000D03*
X120290000Y-60930000D03*
X122830000Y-58390000D03*
X122830000Y-60930000D03*
X125370000Y-58390000D03*
X125370000Y-60930000D03*
X127910000Y-58390000D03*
X127910000Y-60930000D03*
X130450000Y-58390000D03*
X130450000Y-60930000D03*
X132990000Y-58390000D03*
X132990000Y-60930000D03*
X135530000Y-58390000D03*
X135530000Y-60930000D03*
X138070000Y-58390000D03*
X138070000Y-60930000D03*
X140610000Y-58390000D03*
X140610000Y-60930000D03*
X143150000Y-58390000D03*
X143150000Y-60930000D03*
D13*
X139970000Y-83375000D03*
X139970000Y-86075000D03*
X136795000Y-84645000D03*
X136795000Y-87345000D03*
X133620000Y-85915000D03*
X133620000Y-88615000D03*
X130445000Y-87185000D03*
X130445000Y-89885000D03*
X127270000Y-88455000D03*
X127270000Y-91155000D03*
X124095000Y-89725000D03*
X124095000Y-92425000D03*
D14*
X127905000Y-76470000D03*
D15*
X127905000Y-66310000D03*
D14*
X131715000Y-63770000D03*
D15*
X141875000Y-63770000D03*
D16*
X100600000Y-64405000D03*
X100600000Y-66945000D03*
X100600000Y-69485000D03*
X100600000Y-72025000D03*
X100600000Y-74565000D03*
X100600000Y-77105000D03*
X100600000Y-79645000D03*
X100600000Y-82185000D03*
X100600000Y-84725000D03*
X100600000Y-87265000D03*
X100600000Y-89805000D03*
X100600000Y-92345000D03*
X100600000Y-94885000D03*
X100600000Y-97425000D03*
X100600000Y-99965000D03*
X115840000Y-99965000D03*
X115840000Y-97425000D03*
X115840000Y-94885000D03*
X115840000Y-92345000D03*
X115840000Y-89805000D03*
X115840000Y-87265000D03*
X115840000Y-84725000D03*
X115840000Y-82185000D03*
X115840000Y-79645000D03*
X115840000Y-77105000D03*
X115840000Y-74565000D03*
X115840000Y-72025000D03*
X115840000Y-69485000D03*
X115840000Y-66945000D03*
X115840000Y-64405000D03*
D17*
X150130000Y-87900000D03*
D15*
X142510000Y-67580000D03*
X150130000Y-85360000D03*
X142510000Y-70120000D03*
X150130000Y-82820000D03*
X142510000Y-72660000D03*
X150130000Y-80280000D03*
X142510000Y-75200000D03*
X150130000Y-77740000D03*
X142510000Y-77740000D03*
X150130000Y-75200000D03*
X142510000Y-80280000D03*
X150130000Y-72660000D03*
X142510000Y-82820000D03*
X150130000Y-70120000D03*
X142510000Y-85360000D03*
X150130000Y-67580000D03*
X142510000Y-87900000D03*
D17*
X138700000Y-75200000D03*
D15*
X131080000Y-67580000D03*
X138700000Y-72660000D03*
X131080000Y-70120000D03*
X138700000Y-70120000D03*
X131080000Y-72660000D03*
X138700000Y-67580000D03*
X131080000Y-75200000D03*
D18*
X107585000Y-108220000D03*
X115205000Y-108220000D03*
X115205000Y-103140000D03*
X107585000Y-103140000D03*
D19*
X124095000Y-103775000D03*
X126635000Y-103775000D03*
X129175000Y-103775000D03*
X131715000Y-103775000D03*
X134255000Y-103775000D03*
X136795000Y-103775000D03*
X139335000Y-103775000D03*
X141875000Y-103775000D03*
X144415000Y-103775000D03*
X146955000Y-103775000D03*
X149495000Y-103775000D03*
X152035000Y-103775000D03*
X152035000Y-96155000D03*
X149495000Y-96155000D03*
X146955000Y-96155000D03*
X144415000Y-96155000D03*
X141875000Y-96155000D03*
X139335000Y-96155000D03*
X136795000Y-96155000D03*
X134255000Y-96155000D03*
X131715000Y-96155000D03*
X129175000Y-96155000D03*
X126635000Y-96155000D03*
X124095000Y-96155000D03*
X157750000Y-103775000D03*
X160290000Y-103775000D03*
X162830000Y-103775000D03*
X162830000Y-96155000D03*
X160290000Y-96155000D03*
X157750000Y-96155000D03*
D20*
X154575000Y-73930000D03*
X154575000Y-68930000D03*
D21*
X163465000Y-70755000D03*
X160925000Y-70755000D03*
X163465000Y-85995000D03*
X160925000Y-85995000D03*
D22*
X120285000Y-69485000D03*
X120285000Y-66945000D03*
X120285000Y-87265000D03*
X120285000Y-89805000D03*
D17*
X150765000Y-57420000D03*
D14*
X150765000Y-59920000D03*
D23*
X158385000Y-76470000D03*
X111395000Y-80915000D03*
X112665000Y-80915000D03*
X112665000Y-79645000D03*
X111395000Y-79645000D03*
X104410000Y-101870000D03*
X109490000Y-106315000D03*
X128540000Y-63135000D03*
X128540000Y-64405000D03*
X127270000Y-64405000D03*
X127270000Y-63135000D03*
X102505000Y-72025000D03*
X108855000Y-66945000D03*
X107585000Y-66945000D03*
X106315000Y-66945000D03*
X110125000Y-66945000D03*
X162195000Y-76470000D03*
X162195000Y-75200000D03*
X160925000Y-76470000D03*
X160925000Y-75200000D03*
X158385000Y-66310000D03*
X134255000Y-73930000D03*
X111395000Y-64405000D03*
X111395000Y-72025000D03*
X134255000Y-70120000D03*
X139970000Y-82185000D03*
X136795000Y-83455000D03*
X133620000Y-84725000D03*
X130445000Y-85995000D03*
X127270000Y-87265000D03*
X162830000Y-94250000D03*
X117745000Y-79645000D03*
X117745000Y-82185000D03*
X160290000Y-94250000D03*
X117745000Y-84725000D03*
X157750000Y-94250000D03*
X113935000Y-87265000D03*
X152035000Y-94250000D03*
X113935000Y-89805000D03*
X149495000Y-94250000D03*
X117745000Y-92345000D03*
X146955000Y-94250000D03*
X121555000Y-72025000D03*
X121555000Y-78375000D03*
X126635000Y-98060000D03*
X102505000Y-74565000D03*
X129175000Y-98060000D03*
X102505000Y-77105000D03*
X131715000Y-98060000D03*
X102505000Y-79645000D03*
X134255000Y-98060000D03*
X102505000Y-82185000D03*
X136795000Y-98060000D03*
X102505000Y-84725000D03*
X139335000Y-98060000D03*
X102505000Y-87265000D03*
X141875000Y-98060000D03*
X102505000Y-89805000D03*
X111395000Y-105680000D03*
X144415000Y-98060000D03*
X102505000Y-92345000D03*
X154575000Y-105680000D03*
X113300000Y-69485000D03*
X113300000Y-88535000D03*
X155210000Y-106315000D03*
X152670000Y-92345000D03*
D24*
X158385000Y-75180000D02*
X158385000Y-76470000D01*
X111395000Y-79645000D02*
X111395000Y-75200000D01*
X111395000Y-75200000D02*
X106315000Y-70120000D01*
X112665000Y-80915000D02*
X111395000Y-80915000D01*
X111395000Y-79645000D02*
X112665000Y-79645000D01*
X104410000Y-104410000D02*
X104410000Y-101870000D01*
X106315000Y-106315000D02*
X104410000Y-104410000D01*
X109490000Y-106315000D02*
X106315000Y-106315000D01*
X127270000Y-63135000D02*
X110125000Y-63135000D01*
X108855000Y-64405000D02*
X108855000Y-66945000D01*
X110125000Y-63135000D02*
X108855000Y-64405000D01*
X128540000Y-64405000D02*
X128540000Y-63135000D01*
X127270000Y-63135000D02*
X127270000Y-64405000D01*
X104410000Y-72025000D02*
X106315000Y-70120000D01*
X102505000Y-72025000D02*
X104410000Y-72025000D01*
X106315000Y-70120000D02*
X106315000Y-66945000D01*
X107585000Y-66945000D02*
X106315000Y-66945000D01*
X110125000Y-66945000D02*
X108855000Y-66945000D01*
X162195000Y-75200000D02*
X162195000Y-76470000D01*
X158385000Y-72680000D02*
X158405000Y-72680000D01*
X158405000Y-72680000D02*
X160925000Y-75200000D01*
X158385000Y-70100000D02*
X158385000Y-72680000D01*
X158385000Y-67600000D02*
X158385000Y-66310000D01*
X111395000Y-69485000D02*
X111395000Y-72025000D01*
X111395000Y-64405000D02*
X111395000Y-69485000D01*
X139970000Y-82185000D02*
X139970000Y-80915000D01*
X139970000Y-80915000D02*
X134255000Y-75200000D01*
X134255000Y-75200000D02*
X134255000Y-73930000D01*
X134255000Y-73930000D02*
X134255000Y-70120000D01*
X139970000Y-82185000D02*
X139970000Y-83375000D01*
X136795000Y-83455000D02*
X136795000Y-84645000D01*
X133620000Y-84725000D02*
X133620000Y-85915000D01*
X130445000Y-87185000D02*
X130445000Y-85995000D01*
X127270000Y-87265000D02*
X127270000Y-88455000D01*
X124095000Y-89725000D02*
X125365000Y-88455000D01*
X125365000Y-88455000D02*
X127270000Y-88455000D01*
X139970000Y-86075000D02*
X139970000Y-87900000D01*
X141875000Y-89805000D02*
X139970000Y-87900000D01*
X162830000Y-94250000D02*
X158385000Y-89805000D01*
X158385000Y-89805000D02*
X141875000Y-89805000D01*
X138700000Y-84725000D02*
X138700000Y-85360000D01*
X119015000Y-80915000D02*
X117745000Y-79645000D01*
X138700000Y-81550000D02*
X138065000Y-80915000D01*
X138700000Y-84725000D02*
X138700000Y-81550000D01*
X138065000Y-80915000D02*
X119015000Y-80915000D01*
X138700000Y-85360000D02*
X139415000Y-86075000D01*
X139415000Y-86075000D02*
X139970000Y-86075000D01*
X139970000Y-85440000D02*
X139415000Y-85440000D01*
X136795000Y-87345000D02*
X136240000Y-87345000D01*
X136240000Y-87345000D02*
X135525000Y-86630000D01*
X134255000Y-82185000D02*
X117745000Y-82185000D01*
X135525000Y-83455000D02*
X134255000Y-82185000D01*
X135525000Y-86630000D02*
X135525000Y-83455000D01*
X139970000Y-90440000D02*
X139890000Y-90440000D01*
X156480000Y-90440000D02*
X139970000Y-90440000D01*
X160290000Y-94250000D02*
X156480000Y-90440000D01*
X139890000Y-90440000D02*
X136795000Y-87345000D01*
X132350000Y-87900000D02*
X132350000Y-85360000D01*
X132350000Y-85360000D02*
X130445000Y-83455000D01*
X132350000Y-87900000D02*
X133065000Y-88615000D01*
X119015000Y-83455000D02*
X130445000Y-83455000D01*
X117745000Y-84725000D02*
X119015000Y-83455000D01*
X133620000Y-88615000D02*
X133065000Y-88615000D01*
X139970000Y-91075000D02*
X136080000Y-91075000D01*
X154575000Y-91075000D02*
X139970000Y-91075000D01*
X157750000Y-94250000D02*
X154575000Y-91075000D01*
X136080000Y-91075000D02*
X133620000Y-88615000D01*
X117745000Y-85995000D02*
X114570000Y-85995000D01*
X119015000Y-84725000D02*
X126635000Y-84725000D01*
X118380000Y-85360000D02*
X117745000Y-85995000D01*
X129175000Y-89170000D02*
X129175000Y-87265000D01*
X129175000Y-87265000D02*
X126635000Y-84725000D01*
X129890000Y-89885000D02*
X129175000Y-89170000D01*
X118380000Y-85360000D02*
X119015000Y-84725000D01*
X113935000Y-86630000D02*
X113935000Y-87265000D01*
X114570000Y-85995000D02*
X113935000Y-86630000D01*
X130445000Y-89885000D02*
X129890000Y-89885000D01*
X139970000Y-91710000D02*
X132270000Y-91710000D01*
X149495000Y-91710000D02*
X139970000Y-91710000D01*
X152035000Y-94250000D02*
X149495000Y-91710000D01*
X132270000Y-91710000D02*
X130445000Y-89885000D01*
X117745000Y-91075000D02*
X114570000Y-91075000D01*
X124175000Y-91155000D02*
X122745000Y-91155000D01*
X122745000Y-91155000D02*
X122190000Y-91710000D01*
X122190000Y-91710000D02*
X118380000Y-91710000D01*
X118380000Y-91710000D02*
X117745000Y-91075000D01*
X127270000Y-91155000D02*
X124175000Y-91155000D01*
X113935000Y-90440000D02*
X113935000Y-89805000D01*
X114570000Y-91075000D02*
X113935000Y-90440000D01*
X139970000Y-92345000D02*
X128460000Y-92345000D01*
X147590000Y-92345000D02*
X139970000Y-92345000D01*
X149495000Y-94250000D02*
X147590000Y-92345000D01*
X128460000Y-92345000D02*
X127270000Y-91155000D01*
X124095000Y-92425000D02*
X117825000Y-92425000D01*
X117825000Y-92425000D02*
X117745000Y-92345000D01*
X124650000Y-92980000D02*
X139970000Y-92980000D01*
X146955000Y-94250000D02*
X145685000Y-92980000D01*
X145685000Y-92980000D02*
X139970000Y-92980000D01*
X124650000Y-92980000D02*
X124095000Y-92425000D01*
X121555000Y-78375000D02*
X121555000Y-72025000D01*
X103775000Y-74565000D02*
X102505000Y-74565000D01*
X112030000Y-82820000D02*
X103775000Y-74565000D01*
X112030000Y-89805000D02*
X112030000Y-92345000D01*
X113300000Y-93615000D02*
X112030000Y-92345000D01*
X123460000Y-98060000D02*
X119015000Y-93615000D01*
X119015000Y-93615000D02*
X113935000Y-93615000D01*
X124730000Y-98060000D02*
X126635000Y-98060000D01*
X124730000Y-98060000D02*
X123460000Y-98060000D01*
X113935000Y-93615000D02*
X113300000Y-93615000D01*
X112030000Y-89805000D02*
X112030000Y-82820000D01*
X103775000Y-77105000D02*
X102505000Y-77105000D01*
X111395000Y-84725000D02*
X103775000Y-77105000D01*
X111395000Y-91075000D02*
X111395000Y-94250000D01*
X121555000Y-98695000D02*
X119015000Y-96155000D01*
X119015000Y-96155000D02*
X113935000Y-96155000D01*
X128540000Y-98695000D02*
X124730000Y-98695000D01*
X129175000Y-98060000D02*
X128540000Y-98695000D01*
X124730000Y-98695000D02*
X121555000Y-98695000D01*
X113300000Y-96155000D02*
X113935000Y-96155000D01*
X111395000Y-94250000D02*
X113300000Y-96155000D01*
X111395000Y-91075000D02*
X111395000Y-84725000D01*
X103775000Y-79645000D02*
X102505000Y-79645000D01*
X110760000Y-86630000D02*
X103775000Y-79645000D01*
X110760000Y-92345000D02*
X110760000Y-96155000D01*
X110760000Y-96155000D02*
X113300000Y-98695000D01*
X113300000Y-98695000D02*
X114570000Y-98695000D01*
X119650000Y-99330000D02*
X119015000Y-98695000D01*
X130445000Y-99330000D02*
X124730000Y-99330000D01*
X131715000Y-98060000D02*
X130445000Y-99330000D01*
X124730000Y-99330000D02*
X119650000Y-99330000D01*
X119015000Y-98695000D02*
X114570000Y-98695000D01*
X110760000Y-92345000D02*
X110760000Y-86630000D01*
X103775000Y-82185000D02*
X102505000Y-82185000D01*
X110125000Y-88535000D02*
X103775000Y-82185000D01*
X110125000Y-93615000D02*
X110125000Y-98060000D01*
X124730000Y-99965000D02*
X121555000Y-99965000D01*
X132350000Y-99965000D02*
X124730000Y-99965000D01*
X134255000Y-98060000D02*
X132350000Y-99965000D01*
X121555000Y-99965000D02*
X120285000Y-101235000D01*
X113300000Y-101235000D02*
X120285000Y-101235000D01*
X110125000Y-98060000D02*
X113300000Y-101235000D01*
X110125000Y-93615000D02*
X110125000Y-88535000D01*
X103775000Y-84725000D02*
X102505000Y-84725000D01*
X109490000Y-90440000D02*
X103775000Y-84725000D01*
X112030000Y-101870000D02*
X113300000Y-103140000D01*
X109490000Y-95520000D02*
X109490000Y-96790000D01*
X110125000Y-99965000D02*
X109490000Y-99330000D01*
X109490000Y-99330000D02*
X109490000Y-96790000D01*
X112030000Y-101870000D02*
X110125000Y-99965000D01*
X109490000Y-94885000D02*
X109490000Y-95520000D01*
X113300000Y-103775000D02*
X114570000Y-105045000D01*
X113300000Y-103140000D02*
X113300000Y-103775000D01*
X115840000Y-105045000D02*
X114570000Y-105045000D01*
X122190000Y-100600000D02*
X117745000Y-105045000D01*
X117745000Y-105045000D02*
X115840000Y-105045000D01*
X136795000Y-98060000D02*
X134255000Y-100600000D01*
X134255000Y-100600000D02*
X124730000Y-100600000D01*
X124730000Y-100600000D02*
X122190000Y-100600000D01*
X109490000Y-94885000D02*
X109490000Y-90440000D01*
X103775000Y-87265000D02*
X102505000Y-87265000D01*
X108855000Y-92345000D02*
X103775000Y-87265000D01*
X113935000Y-105680000D02*
X110760000Y-102505000D01*
X110760000Y-102505000D02*
X108855000Y-100600000D01*
X108855000Y-100600000D02*
X108855000Y-98695000D01*
X108855000Y-98695000D02*
X108855000Y-96155000D01*
X115840000Y-105680000D02*
X113935000Y-105680000D01*
X124730000Y-101235000D02*
X122825000Y-101235000D01*
X136160000Y-101235000D02*
X124730000Y-101235000D01*
X139335000Y-98060000D02*
X136160000Y-101235000D01*
X118380000Y-105680000D02*
X115840000Y-105680000D01*
X122825000Y-101235000D02*
X118380000Y-105680000D01*
X108855000Y-96155000D02*
X108855000Y-92345000D01*
X103775000Y-89805000D02*
X102505000Y-89805000D01*
X108220000Y-94250000D02*
X103775000Y-89805000D01*
X108220000Y-97425000D02*
X108220000Y-98695000D01*
X113300000Y-106315000D02*
X108220000Y-101235000D01*
X108220000Y-101235000D02*
X108220000Y-98695000D01*
X123460000Y-101870000D02*
X119015000Y-106315000D01*
X119015000Y-106315000D02*
X115840000Y-106315000D01*
X141875000Y-98060000D02*
X138065000Y-101870000D01*
X138065000Y-101870000D02*
X124730000Y-101870000D01*
X124730000Y-101870000D02*
X123460000Y-101870000D01*
X115840000Y-106315000D02*
X113300000Y-106315000D01*
X108220000Y-97425000D02*
X108220000Y-94250000D01*
X111395000Y-105680000D02*
X110760000Y-105045000D01*
X145685000Y-101235000D02*
X153940000Y-101235000D01*
X153940000Y-101235000D02*
X154575000Y-101870000D01*
X144415000Y-99965000D02*
X144415000Y-98060000D01*
X145685000Y-101235000D02*
X144415000Y-99965000D01*
X105045000Y-102505000D02*
X107585000Y-99965000D01*
X107585000Y-99965000D02*
X107585000Y-96155000D01*
X107585000Y-96155000D02*
X103775000Y-92345000D01*
X103775000Y-92345000D02*
X102505000Y-92345000D01*
X154575000Y-105680000D02*
X154575000Y-101870000D01*
X105045000Y-103775000D02*
X105045000Y-102505000D01*
X106315000Y-105045000D02*
X105045000Y-103775000D01*
X108855000Y-105045000D02*
X106315000Y-105045000D01*
X110760000Y-105045000D02*
X108855000Y-105045000D01*
X113300000Y-69485000D02*
X113300000Y-88535000D01*
X155210000Y-100600000D02*
X155210000Y-94885000D01*
X155210000Y-106315000D02*
X155210000Y-100600000D01*
X155210000Y-94885000D02*
X152670000Y-92345000D01*
D25*
G36*
X165355845Y-55751554D02*
X166454410Y-56485592D01*
X167188446Y-57584155D01*
X167458000Y-58939294D01*
X167458000Y-105820706D01*
X167188446Y-107175845D01*
X166454410Y-108274408D01*
X165355845Y-109008446D01*
X164000707Y-109278000D01*
X116660404Y-109278000D01*
X116710588Y-109227904D01*
X116981690Y-108575018D01*
X116982307Y-107868084D01*
X116712345Y-107214726D01*
X116465051Y-106967000D01*
X119014995Y-106967000D01*
X119015000Y-106967001D01*
X119223113Y-106925604D01*
X119264510Y-106917369D01*
X119476034Y-106776034D01*
X122568000Y-103684067D01*
X122568000Y-104314711D01*
X122684236Y-104899069D01*
X123015248Y-105394463D01*
X123510642Y-105725475D01*
X124095000Y-105841711D01*
X124679358Y-105725475D01*
X125174752Y-105394463D01*
X125375667Y-105093773D01*
X125606867Y-105406371D01*
X126118086Y-105713700D01*
X126324296Y-105770056D01*
X126562000Y-105668339D01*
X126562000Y-103848000D01*
X126708000Y-103848000D01*
X126708000Y-105668339D01*
X126945704Y-105770056D01*
X127151914Y-105713700D01*
X127663133Y-105406371D01*
X127905000Y-105079352D01*
X128146867Y-105406371D01*
X128658086Y-105713700D01*
X128864296Y-105770056D01*
X129102000Y-105668339D01*
X129102000Y-103848000D01*
X129248000Y-103848000D01*
X129248000Y-105668339D01*
X129485704Y-105770056D01*
X129691914Y-105713700D01*
X130203133Y-105406371D01*
X130445000Y-105079352D01*
X130686867Y-105406371D01*
X131198086Y-105713700D01*
X131404296Y-105770056D01*
X131642000Y-105668339D01*
X131642000Y-103848000D01*
X131788000Y-103848000D01*
X131788000Y-105668339D01*
X132025704Y-105770056D01*
X132231914Y-105713700D01*
X132743133Y-105406371D01*
X132985000Y-105079352D01*
X133226867Y-105406371D01*
X133738086Y-105713700D01*
X133944296Y-105770056D01*
X134182000Y-105668339D01*
X134182000Y-103848000D01*
X134328000Y-103848000D01*
X134328000Y-105668339D01*
X134565704Y-105770056D01*
X134771914Y-105713700D01*
X135283133Y-105406371D01*
X135525000Y-105079352D01*
X135766867Y-105406371D01*
X136278086Y-105713700D01*
X136484296Y-105770056D01*
X136722000Y-105668339D01*
X136722000Y-103848000D01*
X136868000Y-103848000D01*
X136868000Y-105668339D01*
X137105704Y-105770056D01*
X137311914Y-105713700D01*
X137823133Y-105406371D01*
X138065000Y-105079352D01*
X138306867Y-105406371D01*
X138818086Y-105713700D01*
X139024296Y-105770056D01*
X139262000Y-105668339D01*
X139262000Y-103848000D01*
X139408000Y-103848000D01*
X139408000Y-105668339D01*
X139645704Y-105770056D01*
X139851914Y-105713700D01*
X140363133Y-105406371D01*
X140605000Y-105079352D01*
X140846867Y-105406371D01*
X141358086Y-105713700D01*
X141564296Y-105770056D01*
X141802000Y-105668339D01*
X141802000Y-103848000D01*
X141948000Y-103848000D01*
X141948000Y-105668339D01*
X142185704Y-105770056D01*
X142391914Y-105713700D01*
X142903133Y-105406371D01*
X143145000Y-105079352D01*
X143386867Y-105406371D01*
X143898086Y-105713700D01*
X144104296Y-105770056D01*
X144342000Y-105668339D01*
X144342000Y-103848000D01*
X144488000Y-103848000D01*
X144488000Y-105668339D01*
X144725704Y-105770056D01*
X144931914Y-105713700D01*
X145443133Y-105406371D01*
X145685000Y-105079352D01*
X145926867Y-105406371D01*
X146438086Y-105713700D01*
X146644296Y-105770056D01*
X146882000Y-105668339D01*
X146882000Y-103848000D01*
X147028000Y-103848000D01*
X147028000Y-105668339D01*
X147265704Y-105770056D01*
X147471914Y-105713700D01*
X147983133Y-105406371D01*
X148225000Y-105079352D01*
X148466867Y-105406371D01*
X148978086Y-105713700D01*
X149184296Y-105770056D01*
X149422000Y-105668339D01*
X149422000Y-103848000D01*
X149568000Y-103848000D01*
X149568000Y-105668339D01*
X149805704Y-105770056D01*
X150011914Y-105713700D01*
X150523133Y-105406371D01*
X150765000Y-105079352D01*
X151006867Y-105406371D01*
X151518086Y-105713700D01*
X151724296Y-105770056D01*
X151962000Y-105668339D01*
X151962000Y-103848000D01*
X152108000Y-103848000D01*
X152108000Y-105668339D01*
X152345704Y-105770056D01*
X152551914Y-105713700D01*
X153063133Y-105406371D01*
X153417828Y-104926801D01*
X153562000Y-104348000D01*
X153562000Y-103848000D01*
X152108000Y-103848000D01*
X151962000Y-103848000D01*
X149568000Y-103848000D01*
X149422000Y-103848000D01*
X147028000Y-103848000D01*
X146882000Y-103848000D01*
X144488000Y-103848000D01*
X144342000Y-103848000D01*
X141948000Y-103848000D01*
X141802000Y-103848000D01*
X139408000Y-103848000D01*
X139262000Y-103848000D01*
X136868000Y-103848000D01*
X136722000Y-103848000D01*
X134328000Y-103848000D01*
X134182000Y-103848000D01*
X131788000Y-103848000D01*
X131642000Y-103848000D01*
X129248000Y-103848000D01*
X129102000Y-103848000D01*
X126708000Y-103848000D01*
X126562000Y-103848000D01*
X126542000Y-103848000D01*
X126542000Y-103702000D01*
X126562000Y-103702000D01*
X126562000Y-103682000D01*
X126708000Y-103682000D01*
X126708000Y-103702000D01*
X129102000Y-103702000D01*
X129102000Y-103682000D01*
X129248000Y-103682000D01*
X129248000Y-103702000D01*
X131642000Y-103702000D01*
X131642000Y-103682000D01*
X131788000Y-103682000D01*
X131788000Y-103702000D01*
X134182000Y-103702000D01*
X134182000Y-103682000D01*
X134328000Y-103682000D01*
X134328000Y-103702000D01*
X136722000Y-103702000D01*
X136722000Y-103682000D01*
X136868000Y-103682000D01*
X136868000Y-103702000D01*
X139262000Y-103702000D01*
X139262000Y-101881661D01*
X139408000Y-101881661D01*
X139408000Y-103702000D01*
X141802000Y-103702000D01*
X141802000Y-101881661D01*
X141948000Y-101881661D01*
X141948000Y-103702000D01*
X144342000Y-103702000D01*
X144342000Y-101881661D01*
X144104296Y-101779944D01*
X143898086Y-101836300D01*
X143386867Y-102143629D01*
X143145000Y-102470648D01*
X142903133Y-102143629D01*
X142391914Y-101836300D01*
X142185704Y-101779944D01*
X141948000Y-101881661D01*
X141802000Y-101881661D01*
X141564296Y-101779944D01*
X141358086Y-101836300D01*
X140846867Y-102143629D01*
X140605000Y-102470648D01*
X140363133Y-102143629D01*
X139851914Y-101836300D01*
X139645704Y-101779944D01*
X139408000Y-101881661D01*
X139262000Y-101881661D01*
X139061293Y-101795775D01*
X141969984Y-98887083D01*
X142038779Y-98887143D01*
X142342846Y-98761505D01*
X142575688Y-98529070D01*
X142701856Y-98225222D01*
X142702102Y-97943279D01*
X142954752Y-97774463D01*
X143145000Y-97489737D01*
X143335248Y-97774463D01*
X143588102Y-97943415D01*
X143587857Y-98223779D01*
X143713495Y-98527846D01*
X143763000Y-98577438D01*
X143763000Y-99964995D01*
X143762999Y-99965000D01*
X143797604Y-100138966D01*
X143812631Y-100214510D01*
X143903490Y-100350491D01*
X143953966Y-100426034D01*
X145223964Y-101696031D01*
X145223966Y-101696034D01*
X145435490Y-101837369D01*
X145685000Y-101887000D01*
X146353750Y-101887000D01*
X145926867Y-102143629D01*
X145685000Y-102470648D01*
X145443133Y-102143629D01*
X144931914Y-101836300D01*
X144725704Y-101779944D01*
X144488000Y-101881661D01*
X144488000Y-103702000D01*
X146882000Y-103702000D01*
X146882000Y-103682000D01*
X147028000Y-103682000D01*
X147028000Y-103702000D01*
X149422000Y-103702000D01*
X149422000Y-103682000D01*
X149568000Y-103682000D01*
X149568000Y-103702000D01*
X151962000Y-103702000D01*
X151962000Y-103682000D01*
X152108000Y-103682000D01*
X152108000Y-103702000D01*
X153562000Y-103702000D01*
X153562000Y-103202000D01*
X153417828Y-102623199D01*
X153063133Y-102143629D01*
X152636250Y-101887000D01*
X153669932Y-101887000D01*
X153923000Y-102140067D01*
X153923000Y-105162327D01*
X153874312Y-105210930D01*
X153748144Y-105514778D01*
X153747857Y-105843779D01*
X153873495Y-106147846D01*
X154105930Y-106380688D01*
X154391285Y-106499177D01*
X154508495Y-106782846D01*
X154740930Y-107015688D01*
X155044778Y-107141856D01*
X155373779Y-107142143D01*
X155677846Y-107016505D01*
X155910688Y-106784070D01*
X156036856Y-106480222D01*
X156037143Y-106151221D01*
X155911505Y-105847154D01*
X155862000Y-105797562D01*
X155862000Y-103848000D01*
X156223000Y-103848000D01*
X156223000Y-104348000D01*
X156367172Y-104926801D01*
X156721867Y-105406371D01*
X157233086Y-105713700D01*
X157439296Y-105770056D01*
X157677000Y-105668339D01*
X157677000Y-103848000D01*
X157823000Y-103848000D01*
X157823000Y-105668339D01*
X158060704Y-105770056D01*
X158266914Y-105713700D01*
X158778133Y-105406371D01*
X159020000Y-105079352D01*
X159261867Y-105406371D01*
X159773086Y-105713700D01*
X159979296Y-105770056D01*
X160217000Y-105668339D01*
X160217000Y-103848000D01*
X160363000Y-103848000D01*
X160363000Y-105668339D01*
X160600704Y-105770056D01*
X160806914Y-105713700D01*
X161318133Y-105406371D01*
X161560000Y-105079352D01*
X161801867Y-105406371D01*
X162313086Y-105713700D01*
X162519296Y-105770056D01*
X162757000Y-105668339D01*
X162757000Y-103848000D01*
X162903000Y-103848000D01*
X162903000Y-105668339D01*
X163140704Y-105770056D01*
X163346914Y-105713700D01*
X163858133Y-105406371D01*
X164212828Y-104926801D01*
X164357000Y-104348000D01*
X164357000Y-103848000D01*
X162903000Y-103848000D01*
X162757000Y-103848000D01*
X160363000Y-103848000D01*
X160217000Y-103848000D01*
X157823000Y-103848000D01*
X157677000Y-103848000D01*
X156223000Y-103848000D01*
X155862000Y-103848000D01*
X155862000Y-103202000D01*
X156223000Y-103202000D01*
X156223000Y-103702000D01*
X157677000Y-103702000D01*
X157677000Y-101881661D01*
X157823000Y-101881661D01*
X157823000Y-103702000D01*
X160217000Y-103702000D01*
X160217000Y-101881661D01*
X160363000Y-101881661D01*
X160363000Y-103702000D01*
X162757000Y-103702000D01*
X162757000Y-101881661D01*
X162903000Y-101881661D01*
X162903000Y-103702000D01*
X164357000Y-103702000D01*
X164357000Y-103202000D01*
X164212828Y-102623199D01*
X163858133Y-102143629D01*
X163346914Y-101836300D01*
X163140704Y-101779944D01*
X162903000Y-101881661D01*
X162757000Y-101881661D01*
X162519296Y-101779944D01*
X162313086Y-101836300D01*
X161801867Y-102143629D01*
X161560000Y-102470648D01*
X161318133Y-102143629D01*
X160806914Y-101836300D01*
X160600704Y-101779944D01*
X160363000Y-101881661D01*
X160217000Y-101881661D01*
X159979296Y-101779944D01*
X159773086Y-101836300D01*
X159261867Y-102143629D01*
X159020000Y-102470648D01*
X158778133Y-102143629D01*
X158266914Y-101836300D01*
X158060704Y-101779944D01*
X157823000Y-101881661D01*
X157677000Y-101881661D01*
X157439296Y-101779944D01*
X157233086Y-101836300D01*
X156721867Y-102143629D01*
X156367172Y-102623199D01*
X156223000Y-103202000D01*
X155862000Y-103202000D01*
X155862000Y-94885000D01*
X155812369Y-94635490D01*
X155671034Y-94423966D01*
X155671031Y-94423964D01*
X153497083Y-92250015D01*
X153497143Y-92181221D01*
X153371505Y-91877154D01*
X153221613Y-91727000D01*
X154304932Y-91727000D01*
X156922917Y-94344985D01*
X156922898Y-94366721D01*
X156670248Y-94535537D01*
X156339236Y-95030931D01*
X156223000Y-95615289D01*
X156223000Y-96694711D01*
X156339236Y-97279069D01*
X156670248Y-97774463D01*
X157165642Y-98105475D01*
X157750000Y-98221711D01*
X158334358Y-98105475D01*
X158829752Y-97774463D01*
X159020000Y-97489737D01*
X159210248Y-97774463D01*
X159705642Y-98105475D01*
X160290000Y-98221711D01*
X160874358Y-98105475D01*
X161369752Y-97774463D01*
X161560000Y-97489737D01*
X161750248Y-97774463D01*
X162245642Y-98105475D01*
X162830000Y-98221711D01*
X163414358Y-98105475D01*
X163909752Y-97774463D01*
X164240764Y-97279069D01*
X164357000Y-96694711D01*
X164357000Y-95615289D01*
X164240764Y-95030931D01*
X163909752Y-94535537D01*
X163656898Y-94366585D01*
X163657143Y-94086221D01*
X163531505Y-93782154D01*
X163299070Y-93549312D01*
X162995222Y-93423144D01*
X162925150Y-93423083D01*
X158846034Y-89343966D01*
X158730847Y-89267001D01*
X158634510Y-89202631D01*
X158593113Y-89194396D01*
X158385000Y-89152999D01*
X158384995Y-89153000D01*
X151199231Y-89153000D01*
X151304660Y-89085158D01*
X151424990Y-88909049D01*
X151467324Y-88700000D01*
X151467324Y-87100000D01*
X151430577Y-86904706D01*
X151315158Y-86725340D01*
X151139049Y-86605010D01*
X150930000Y-86562676D01*
X150698707Y-86562676D01*
X151094328Y-86298331D01*
X151248229Y-86068000D01*
X159398000Y-86068000D01*
X159398000Y-87068000D01*
X159542172Y-87646801D01*
X159896867Y-88126371D01*
X160408086Y-88433700D01*
X160614296Y-88490056D01*
X160852000Y-88388339D01*
X160852000Y-86068000D01*
X160998000Y-86068000D01*
X160998000Y-88388339D01*
X161235704Y-88490056D01*
X161441914Y-88433700D01*
X161953133Y-88126371D01*
X162195000Y-87799352D01*
X162436867Y-88126371D01*
X162948086Y-88433700D01*
X163154296Y-88490056D01*
X163392000Y-88388339D01*
X163392000Y-86068000D01*
X163538000Y-86068000D01*
X163538000Y-88388339D01*
X163775704Y-88490056D01*
X163981914Y-88433700D01*
X164493133Y-88126371D01*
X164847828Y-87646801D01*
X164992000Y-87068000D01*
X164992000Y-86068000D01*
X163538000Y-86068000D01*
X163392000Y-86068000D01*
X160998000Y-86068000D01*
X160852000Y-86068000D01*
X159398000Y-86068000D01*
X151248229Y-86068000D01*
X151381985Y-85867821D01*
X151482997Y-85360000D01*
X151395874Y-84922000D01*
X159398000Y-84922000D01*
X159398000Y-85922000D01*
X160852000Y-85922000D01*
X160852000Y-83601661D01*
X160998000Y-83601661D01*
X160998000Y-85922000D01*
X163392000Y-85922000D01*
X163392000Y-83601661D01*
X163538000Y-83601661D01*
X163538000Y-85922000D01*
X164992000Y-85922000D01*
X164992000Y-84922000D01*
X164847828Y-84343199D01*
X164493133Y-83863629D01*
X163981914Y-83556300D01*
X163775704Y-83499944D01*
X163538000Y-83601661D01*
X163392000Y-83601661D01*
X163154296Y-83499944D01*
X162948086Y-83556300D01*
X162436867Y-83863629D01*
X162195000Y-84190648D01*
X161953133Y-83863629D01*
X161441914Y-83556300D01*
X161235704Y-83499944D01*
X160998000Y-83601661D01*
X160852000Y-83601661D01*
X160614296Y-83499944D01*
X160408086Y-83556300D01*
X159896867Y-83863629D01*
X159542172Y-84343199D01*
X159398000Y-84922000D01*
X151395874Y-84922000D01*
X151381985Y-84852179D01*
X151094328Y-84421669D01*
X150663818Y-84134012D01*
X150442555Y-84090000D01*
X150663818Y-84045988D01*
X151094328Y-83758331D01*
X151381985Y-83327821D01*
X151482997Y-82820000D01*
X151381985Y-82312179D01*
X151094328Y-81881669D01*
X150663818Y-81594012D01*
X150442555Y-81550000D01*
X150663818Y-81505988D01*
X151094328Y-81218331D01*
X151381985Y-80787821D01*
X151482997Y-80280000D01*
X151381985Y-79772179D01*
X151094328Y-79341669D01*
X150663818Y-79054012D01*
X150442555Y-79010000D01*
X150663818Y-78965988D01*
X151094328Y-78678331D01*
X151381985Y-78247821D01*
X151482997Y-77740000D01*
X151381985Y-77232179D01*
X151094328Y-76801669D01*
X150663818Y-76514012D01*
X150442555Y-76470000D01*
X150663818Y-76425988D01*
X151094328Y-76138331D01*
X151381985Y-75707821D01*
X151482997Y-75200000D01*
X151381985Y-74692179D01*
X151094328Y-74261669D01*
X150976438Y-74182897D01*
X153297779Y-74182897D01*
X153491781Y-74652417D01*
X153850693Y-75011957D01*
X154319875Y-75206778D01*
X154827897Y-75207221D01*
X155297417Y-75013219D01*
X155656957Y-74654307D01*
X155750097Y-74430000D01*
X157222676Y-74430000D01*
X157222676Y-75930000D01*
X157259423Y-76125294D01*
X157374842Y-76304660D01*
X157550951Y-76424990D01*
X157558038Y-76426425D01*
X157557857Y-76633779D01*
X157683495Y-76937846D01*
X157915930Y-77170688D01*
X158219778Y-77296856D01*
X158548779Y-77297143D01*
X158852846Y-77171505D01*
X159085688Y-76939070D01*
X159211856Y-76635222D01*
X159212038Y-76426237D01*
X159384660Y-76315158D01*
X159504990Y-76139049D01*
X159547324Y-75930000D01*
X159547324Y-74430000D01*
X159510577Y-74234706D01*
X159395158Y-74055340D01*
X159219049Y-73935010D01*
X159184706Y-73928055D01*
X159308521Y-73876769D01*
X159456769Y-73728522D01*
X159537000Y-73534827D01*
X159537000Y-72884750D01*
X159405250Y-72753000D01*
X158458000Y-72753000D01*
X158458000Y-72773000D01*
X158312000Y-72773000D01*
X158312000Y-72753000D01*
X157364750Y-72753000D01*
X157233000Y-72884750D01*
X157233000Y-73534827D01*
X157313231Y-73728522D01*
X157461479Y-73876769D01*
X157581134Y-73926332D01*
X157564706Y-73929423D01*
X157385340Y-74044842D01*
X157265010Y-74220951D01*
X157222676Y-74430000D01*
X155750097Y-74430000D01*
X155851778Y-74185125D01*
X155852221Y-73677103D01*
X155658219Y-73207583D01*
X155299307Y-72848043D01*
X154830125Y-72653222D01*
X154322103Y-72652779D01*
X153852583Y-72846781D01*
X153493043Y-73205693D01*
X153298222Y-73674875D01*
X153297779Y-74182897D01*
X150976438Y-74182897D01*
X150663818Y-73974012D01*
X150442555Y-73930000D01*
X150663818Y-73885988D01*
X151094328Y-73598331D01*
X151381985Y-73167821D01*
X151482997Y-72660000D01*
X151381985Y-72152179D01*
X151163488Y-71825173D01*
X157233000Y-71825173D01*
X157233000Y-72475250D01*
X157364750Y-72607000D01*
X158312000Y-72607000D01*
X158312000Y-71534750D01*
X158180250Y-71403000D01*
X157655173Y-71403000D01*
X157461479Y-71483231D01*
X157313231Y-71631478D01*
X157233000Y-71825173D01*
X151163488Y-71825173D01*
X151094328Y-71721669D01*
X150663818Y-71434012D01*
X150442555Y-71390000D01*
X150663818Y-71345988D01*
X151094328Y-71058331D01*
X151381985Y-70627821D01*
X151446247Y-70304750D01*
X157233000Y-70304750D01*
X157233000Y-70954827D01*
X157313231Y-71148522D01*
X157461479Y-71296769D01*
X157655173Y-71377000D01*
X158180250Y-71377000D01*
X158312000Y-71245250D01*
X158312000Y-70173000D01*
X157364750Y-70173000D01*
X157233000Y-70304750D01*
X151446247Y-70304750D01*
X151482997Y-70120000D01*
X151381985Y-69612179D01*
X151095149Y-69182897D01*
X153297779Y-69182897D01*
X153491781Y-69652417D01*
X153850693Y-70011957D01*
X154319875Y-70206778D01*
X154827897Y-70207221D01*
X155297417Y-70013219D01*
X155656957Y-69654307D01*
X155851778Y-69185125D01*
X155852221Y-68677103D01*
X155658219Y-68207583D01*
X155299307Y-67848043D01*
X154830125Y-67653222D01*
X154322103Y-67652779D01*
X153852583Y-67846781D01*
X153493043Y-68205693D01*
X153298222Y-68674875D01*
X153297779Y-69182897D01*
X151095149Y-69182897D01*
X151094328Y-69181669D01*
X150663818Y-68894012D01*
X150462981Y-68854063D01*
X150884551Y-68671603D01*
X151244853Y-68299756D01*
X151427258Y-67859376D01*
X151323019Y-67653000D01*
X150203000Y-67653000D01*
X150203000Y-67673000D01*
X150057000Y-67673000D01*
X150057000Y-67653000D01*
X148936981Y-67653000D01*
X148832742Y-67859376D01*
X149015147Y-68299756D01*
X149375449Y-68671603D01*
X149797019Y-68854063D01*
X149596182Y-68894012D01*
X149165672Y-69181669D01*
X148878015Y-69612179D01*
X148777003Y-70120000D01*
X148878015Y-70627821D01*
X149165672Y-71058331D01*
X149596182Y-71345988D01*
X149817445Y-71390000D01*
X149596182Y-71434012D01*
X149165672Y-71721669D01*
X148878015Y-72152179D01*
X148777003Y-72660000D01*
X148878015Y-73167821D01*
X149165672Y-73598331D01*
X149596182Y-73885988D01*
X149817445Y-73930000D01*
X149596182Y-73974012D01*
X149165672Y-74261669D01*
X148878015Y-74692179D01*
X148777003Y-75200000D01*
X148878015Y-75707821D01*
X149165672Y-76138331D01*
X149596182Y-76425988D01*
X149817445Y-76470000D01*
X149596182Y-76514012D01*
X149165672Y-76801669D01*
X148878015Y-77232179D01*
X148777003Y-77740000D01*
X148878015Y-78247821D01*
X149165672Y-78678331D01*
X149596182Y-78965988D01*
X149817445Y-79010000D01*
X149596182Y-79054012D01*
X149165672Y-79341669D01*
X148878015Y-79772179D01*
X148777003Y-80280000D01*
X148878015Y-80787821D01*
X149165672Y-81218331D01*
X149596182Y-81505988D01*
X149817445Y-81550000D01*
X149596182Y-81594012D01*
X149165672Y-81881669D01*
X148878015Y-82312179D01*
X148777003Y-82820000D01*
X148878015Y-83327821D01*
X149165672Y-83758331D01*
X149596182Y-84045988D01*
X149817445Y-84090000D01*
X149596182Y-84134012D01*
X149165672Y-84421669D01*
X148878015Y-84852179D01*
X148777003Y-85360000D01*
X148878015Y-85867821D01*
X149165672Y-86298331D01*
X149561293Y-86562676D01*
X149330000Y-86562676D01*
X149134706Y-86599423D01*
X148955340Y-86714842D01*
X148835010Y-86890951D01*
X148792676Y-87100000D01*
X148792676Y-88700000D01*
X148829423Y-88895294D01*
X148944842Y-89074660D01*
X149059497Y-89153000D01*
X142908020Y-89153000D01*
X143043818Y-89125988D01*
X143474328Y-88838331D01*
X143761985Y-88407821D01*
X143862997Y-87900000D01*
X143761985Y-87392179D01*
X143474328Y-86961669D01*
X143043818Y-86674012D01*
X142822555Y-86630000D01*
X143043818Y-86585988D01*
X143474328Y-86298331D01*
X143761985Y-85867821D01*
X143862997Y-85360000D01*
X143761985Y-84852179D01*
X143474328Y-84421669D01*
X143043818Y-84134012D01*
X142822555Y-84090000D01*
X143043818Y-84045988D01*
X143474328Y-83758331D01*
X143761985Y-83327821D01*
X143862997Y-82820000D01*
X143761985Y-82312179D01*
X143474328Y-81881669D01*
X143043818Y-81594012D01*
X142822555Y-81550000D01*
X143043818Y-81505988D01*
X143474328Y-81218331D01*
X143761985Y-80787821D01*
X143862997Y-80280000D01*
X143761985Y-79772179D01*
X143474328Y-79341669D01*
X143043818Y-79054012D01*
X142822555Y-79010000D01*
X143043818Y-78965988D01*
X143474328Y-78678331D01*
X143761985Y-78247821D01*
X143862997Y-77740000D01*
X143761985Y-77232179D01*
X143474328Y-76801669D01*
X143043818Y-76514012D01*
X142822555Y-76470000D01*
X143043818Y-76425988D01*
X143474328Y-76138331D01*
X143761985Y-75707821D01*
X143862997Y-75200000D01*
X143761985Y-74692179D01*
X143474328Y-74261669D01*
X143043818Y-73974012D01*
X142822555Y-73930000D01*
X143043818Y-73885988D01*
X143474328Y-73598331D01*
X143761985Y-73167821D01*
X143862997Y-72660000D01*
X143761985Y-72152179D01*
X143474328Y-71721669D01*
X143043818Y-71434012D01*
X142822555Y-71390000D01*
X143043818Y-71345988D01*
X143474328Y-71058331D01*
X143761985Y-70627821D01*
X143862997Y-70120000D01*
X143761985Y-69612179D01*
X143474328Y-69181669D01*
X143043818Y-68894012D01*
X142822555Y-68850000D01*
X143043818Y-68805988D01*
X143474328Y-68518331D01*
X143761985Y-68087821D01*
X143862997Y-67580000D01*
X143807426Y-67300624D01*
X148832742Y-67300624D01*
X148936981Y-67507000D01*
X150057000Y-67507000D01*
X150057000Y-66386753D01*
X150203000Y-66386753D01*
X150203000Y-67507000D01*
X151323019Y-67507000D01*
X151427258Y-67300624D01*
X151244853Y-66860244D01*
X151234928Y-66850000D01*
X157222676Y-66850000D01*
X157222676Y-68350000D01*
X157259423Y-68545294D01*
X157374842Y-68724660D01*
X157550951Y-68844990D01*
X157585294Y-68851945D01*
X157461479Y-68903231D01*
X157313231Y-69051478D01*
X157233000Y-69245173D01*
X157233000Y-69895250D01*
X157364750Y-70027000D01*
X158312000Y-70027000D01*
X158312000Y-70007000D01*
X158458000Y-70007000D01*
X158458000Y-70027000D01*
X158478000Y-70027000D01*
X158478000Y-70173000D01*
X158458000Y-70173000D01*
X158458000Y-71245250D01*
X158589750Y-71377000D01*
X159114827Y-71377000D01*
X159308521Y-71296769D01*
X159398000Y-71207291D01*
X159398000Y-71572709D01*
X159308521Y-71483231D01*
X159114827Y-71403000D01*
X158589750Y-71403000D01*
X158458000Y-71534750D01*
X158458000Y-72607000D01*
X159405250Y-72607000D01*
X159537000Y-72475250D01*
X159537000Y-72422934D01*
X159845248Y-72884259D01*
X160340642Y-73215271D01*
X160925000Y-73331507D01*
X161509358Y-73215271D01*
X162004752Y-72884259D01*
X162195000Y-72599533D01*
X162385248Y-72884259D01*
X162880642Y-73215271D01*
X163465000Y-73331507D01*
X164049358Y-73215271D01*
X164544752Y-72884259D01*
X164875764Y-72388865D01*
X164992000Y-71804507D01*
X164992000Y-69705493D01*
X164875764Y-69121135D01*
X164544752Y-68625741D01*
X164049358Y-68294729D01*
X163465000Y-68178493D01*
X162880642Y-68294729D01*
X162385248Y-68625741D01*
X162195000Y-68910467D01*
X162004752Y-68625741D01*
X161509358Y-68294729D01*
X160925000Y-68178493D01*
X160340642Y-68294729D01*
X159845248Y-68625741D01*
X159514236Y-69121135D01*
X159504953Y-69167804D01*
X159456769Y-69051478D01*
X159308521Y-68903231D01*
X159188866Y-68853668D01*
X159205294Y-68850577D01*
X159384660Y-68735158D01*
X159504990Y-68559049D01*
X159547324Y-68350000D01*
X159547324Y-66850000D01*
X159510577Y-66654706D01*
X159395158Y-66475340D01*
X159219049Y-66355010D01*
X159211962Y-66353575D01*
X159212143Y-66146221D01*
X159086505Y-65842154D01*
X158854070Y-65609312D01*
X158550222Y-65483144D01*
X158221221Y-65482857D01*
X157917154Y-65608495D01*
X157684312Y-65840930D01*
X157558144Y-66144778D01*
X157557962Y-66353763D01*
X157385340Y-66464842D01*
X157265010Y-66640951D01*
X157222676Y-66850000D01*
X151234928Y-66850000D01*
X150884551Y-66488397D01*
X150409376Y-66282736D01*
X150203000Y-66386753D01*
X150057000Y-66386753D01*
X149850624Y-66282736D01*
X149375449Y-66488397D01*
X149015147Y-66860244D01*
X148832742Y-67300624D01*
X143807426Y-67300624D01*
X143761985Y-67072179D01*
X143474328Y-66641669D01*
X143043818Y-66354012D01*
X142535997Y-66253000D01*
X142484003Y-66253000D01*
X141976182Y-66354012D01*
X141545672Y-66641669D01*
X141258015Y-67072179D01*
X141157003Y-67580000D01*
X141258015Y-68087821D01*
X141545672Y-68518331D01*
X141976182Y-68805988D01*
X142197445Y-68850000D01*
X141976182Y-68894012D01*
X141545672Y-69181669D01*
X141258015Y-69612179D01*
X141157003Y-70120000D01*
X141258015Y-70627821D01*
X141545672Y-71058331D01*
X141976182Y-71345988D01*
X142197445Y-71390000D01*
X141976182Y-71434012D01*
X141545672Y-71721669D01*
X141258015Y-72152179D01*
X141157003Y-72660000D01*
X141258015Y-73167821D01*
X141545672Y-73598331D01*
X141976182Y-73885988D01*
X142197445Y-73930000D01*
X141976182Y-73974012D01*
X141545672Y-74261669D01*
X141258015Y-74692179D01*
X141157003Y-75200000D01*
X141258015Y-75707821D01*
X141545672Y-76138331D01*
X141976182Y-76425988D01*
X142197445Y-76470000D01*
X141976182Y-76514012D01*
X141545672Y-76801669D01*
X141258015Y-77232179D01*
X141157003Y-77740000D01*
X141258015Y-78247821D01*
X141545672Y-78678331D01*
X141976182Y-78965988D01*
X142197445Y-79010000D01*
X141976182Y-79054012D01*
X141545672Y-79341669D01*
X141258015Y-79772179D01*
X141157003Y-80280000D01*
X141258015Y-80787821D01*
X141545672Y-81218331D01*
X141976182Y-81505988D01*
X142197445Y-81550000D01*
X141976182Y-81594012D01*
X141545672Y-81881669D01*
X141258015Y-82312179D01*
X141157324Y-82818386D01*
X141157324Y-82625000D01*
X141120577Y-82429706D01*
X141005158Y-82250340D01*
X140829049Y-82130010D01*
X140797054Y-82123531D01*
X140797143Y-82021221D01*
X140671505Y-81717154D01*
X140622000Y-81667562D01*
X140622000Y-80915005D01*
X140622001Y-80915000D01*
X140572370Y-80665491D01*
X140443179Y-80472143D01*
X140431034Y-80453966D01*
X140431031Y-80453964D01*
X134907000Y-74929932D01*
X134907000Y-74447673D01*
X134954756Y-74400000D01*
X137362676Y-74400000D01*
X137362676Y-76000000D01*
X137399423Y-76195294D01*
X137514842Y-76374660D01*
X137690951Y-76494990D01*
X137900000Y-76537324D01*
X139500000Y-76537324D01*
X139695294Y-76500577D01*
X139874660Y-76385158D01*
X139994990Y-76209049D01*
X140037324Y-76000000D01*
X140037324Y-74400000D01*
X140000577Y-74204706D01*
X139885158Y-74025340D01*
X139709049Y-73905010D01*
X139500000Y-73862676D01*
X139197919Y-73862676D01*
X139454551Y-73751603D01*
X139814853Y-73379756D01*
X139997258Y-72939376D01*
X139893019Y-72733000D01*
X138773000Y-72733000D01*
X138773000Y-72753000D01*
X138627000Y-72753000D01*
X138627000Y-72733000D01*
X137506981Y-72733000D01*
X137402742Y-72939376D01*
X137585147Y-73379756D01*
X137945449Y-73751603D01*
X138202081Y-73862676D01*
X137900000Y-73862676D01*
X137704706Y-73899423D01*
X137525340Y-74014842D01*
X137405010Y-74190951D01*
X137362676Y-74400000D01*
X134954756Y-74400000D01*
X134955688Y-74399070D01*
X135081856Y-74095222D01*
X135082143Y-73766221D01*
X134956505Y-73462154D01*
X134907000Y-73412562D01*
X134907000Y-70637673D01*
X134955688Y-70589070D01*
X135081856Y-70285222D01*
X135082143Y-69956221D01*
X134956505Y-69652154D01*
X134724070Y-69419312D01*
X134420222Y-69293144D01*
X134091221Y-69292857D01*
X133787154Y-69418495D01*
X133554312Y-69650930D01*
X133428144Y-69954778D01*
X133427857Y-70283779D01*
X133553495Y-70587846D01*
X133603000Y-70637438D01*
X133603000Y-73412327D01*
X133554312Y-73460930D01*
X133428144Y-73764778D01*
X133427857Y-74093779D01*
X133553495Y-74397846D01*
X133603000Y-74447438D01*
X133603000Y-75199995D01*
X133602999Y-75200000D01*
X133631717Y-75344369D01*
X133652631Y-75449510D01*
X133757335Y-75606212D01*
X133793966Y-75661034D01*
X139318000Y-81185067D01*
X139318000Y-81379067D01*
X139302370Y-81300491D01*
X139247472Y-81218331D01*
X139161034Y-81088966D01*
X139161031Y-81088964D01*
X138526034Y-80453966D01*
X138365206Y-80346505D01*
X138314510Y-80312631D01*
X138273113Y-80304396D01*
X138065000Y-80262999D01*
X138064995Y-80263000D01*
X119285067Y-80263000D01*
X118572083Y-79550015D01*
X118572143Y-79481221D01*
X118446505Y-79177154D01*
X118214070Y-78944312D01*
X117910222Y-78818144D01*
X117581221Y-78817857D01*
X117362035Y-78908423D01*
X117321722Y-78848091D01*
X116956097Y-78603788D01*
X116524813Y-78518000D01*
X115155187Y-78518000D01*
X114723903Y-78603788D01*
X114358278Y-78848091D01*
X114113975Y-79213716D01*
X114028187Y-79645000D01*
X114113975Y-80076284D01*
X114358278Y-80441909D01*
X114723903Y-80686212D01*
X115155187Y-80772000D01*
X116524813Y-80772000D01*
X116956097Y-80686212D01*
X117321722Y-80441909D01*
X117362105Y-80381471D01*
X117579778Y-80471856D01*
X117649849Y-80471917D01*
X118553964Y-81376031D01*
X118553966Y-81376034D01*
X118765490Y-81517369D01*
X118844072Y-81533000D01*
X118262673Y-81533000D01*
X118214070Y-81484312D01*
X117910222Y-81358144D01*
X117581221Y-81357857D01*
X117362035Y-81448423D01*
X117321722Y-81388091D01*
X116956097Y-81143788D01*
X116524813Y-81058000D01*
X115155187Y-81058000D01*
X114723903Y-81143788D01*
X114358278Y-81388091D01*
X114113975Y-81753716D01*
X114028187Y-82185000D01*
X114113975Y-82616284D01*
X114358278Y-82981909D01*
X114723903Y-83226212D01*
X115155187Y-83312000D01*
X116524813Y-83312000D01*
X116956097Y-83226212D01*
X117321722Y-82981909D01*
X117362105Y-82921471D01*
X117579778Y-83011856D01*
X117908779Y-83012143D01*
X118212846Y-82886505D01*
X118262438Y-82837000D01*
X118844072Y-82837000D01*
X118765490Y-82852631D01*
X118553966Y-82993966D01*
X118553964Y-82993969D01*
X117650015Y-83897917D01*
X117581221Y-83897857D01*
X117362035Y-83988423D01*
X117321722Y-83928091D01*
X116956097Y-83683788D01*
X116524813Y-83598000D01*
X115155187Y-83598000D01*
X114723903Y-83683788D01*
X114358278Y-83928091D01*
X114113975Y-84293716D01*
X114028187Y-84725000D01*
X114113975Y-85156284D01*
X114286896Y-85415078D01*
X114275039Y-85423000D01*
X114108966Y-85533966D01*
X114108964Y-85533969D01*
X113952000Y-85690933D01*
X113952000Y-77105000D01*
X114028187Y-77105000D01*
X114113975Y-77536284D01*
X114358278Y-77901909D01*
X114723903Y-78146212D01*
X115155187Y-78232000D01*
X116524813Y-78232000D01*
X116956097Y-78146212D01*
X117321722Y-77901909D01*
X117566025Y-77536284D01*
X117651813Y-77105000D01*
X117566025Y-76673716D01*
X117321722Y-76308091D01*
X116956097Y-76063788D01*
X116524813Y-75978000D01*
X115155187Y-75978000D01*
X114723903Y-76063788D01*
X114358278Y-76308091D01*
X114113975Y-76673716D01*
X114028187Y-77105000D01*
X113952000Y-77105000D01*
X113952000Y-74565000D01*
X114028187Y-74565000D01*
X114113975Y-74996284D01*
X114358278Y-75361909D01*
X114723903Y-75606212D01*
X115155187Y-75692000D01*
X116524813Y-75692000D01*
X116956097Y-75606212D01*
X117321722Y-75361909D01*
X117566025Y-74996284D01*
X117651813Y-74565000D01*
X117566025Y-74133716D01*
X117321722Y-73768091D01*
X116956097Y-73523788D01*
X116524813Y-73438000D01*
X115155187Y-73438000D01*
X114723903Y-73523788D01*
X114358278Y-73768091D01*
X114113975Y-74133716D01*
X114028187Y-74565000D01*
X113952000Y-74565000D01*
X113952000Y-72025000D01*
X114028187Y-72025000D01*
X114113975Y-72456284D01*
X114358278Y-72821909D01*
X114723903Y-73066212D01*
X115155187Y-73152000D01*
X116524813Y-73152000D01*
X116956097Y-73066212D01*
X117321722Y-72821909D01*
X117566025Y-72456284D01*
X117619235Y-72188779D01*
X120727857Y-72188779D01*
X120853495Y-72492846D01*
X120903000Y-72542438D01*
X120903000Y-77857327D01*
X120854312Y-77905930D01*
X120728144Y-78209778D01*
X120727857Y-78538779D01*
X120853495Y-78842846D01*
X121085930Y-79075688D01*
X121389778Y-79201856D01*
X121718779Y-79202143D01*
X122022846Y-79076505D01*
X122255688Y-78844070D01*
X122381856Y-78540222D01*
X122382143Y-78211221D01*
X122256505Y-77907154D01*
X122207000Y-77857562D01*
X122207000Y-76732798D01*
X126577771Y-76732798D01*
X126779369Y-77220703D01*
X127152334Y-77594319D01*
X127639885Y-77796769D01*
X128167798Y-77797229D01*
X128655703Y-77595631D01*
X129029319Y-77222666D01*
X129231769Y-76735115D01*
X129232229Y-76207202D01*
X129030631Y-75719297D01*
X128657666Y-75345681D01*
X128170115Y-75143231D01*
X127642202Y-75142771D01*
X127154297Y-75344369D01*
X126780681Y-75717334D01*
X126578231Y-76204885D01*
X126577771Y-76732798D01*
X122207000Y-76732798D01*
X122207000Y-72542673D01*
X122255688Y-72494070D01*
X122381856Y-72190222D01*
X122382143Y-71861221D01*
X122256505Y-71557154D01*
X122024070Y-71324312D01*
X121720222Y-71198144D01*
X121391221Y-71197857D01*
X121087154Y-71323495D01*
X120854312Y-71555930D01*
X120728144Y-71859778D01*
X120727857Y-72188779D01*
X117619235Y-72188779D01*
X117651813Y-72025000D01*
X117566025Y-71593716D01*
X117321722Y-71228091D01*
X116956097Y-70983788D01*
X116524813Y-70898000D01*
X115155187Y-70898000D01*
X114723903Y-70983788D01*
X114358278Y-71228091D01*
X114113975Y-71593716D01*
X114028187Y-72025000D01*
X113952000Y-72025000D01*
X113952000Y-70002673D01*
X114000688Y-69954070D01*
X114082365Y-69757369D01*
X114113975Y-69916284D01*
X114358278Y-70281909D01*
X114723903Y-70526212D01*
X115155187Y-70612000D01*
X116524813Y-70612000D01*
X116956097Y-70526212D01*
X117321722Y-70281909D01*
X117566025Y-69916284D01*
X117651813Y-69485000D01*
X117566025Y-69053716D01*
X117321722Y-68688091D01*
X116956097Y-68443788D01*
X116524813Y-68358000D01*
X115155187Y-68358000D01*
X114723903Y-68443788D01*
X114358278Y-68688091D01*
X114113975Y-69053716D01*
X114082335Y-69212778D01*
X114001505Y-69017154D01*
X113769070Y-68784312D01*
X113465222Y-68658144D01*
X113136221Y-68657857D01*
X112832154Y-68783495D01*
X112599312Y-69015930D01*
X112473144Y-69319778D01*
X112472857Y-69648779D01*
X112598495Y-69952846D01*
X112648000Y-70002438D01*
X112648000Y-82649071D01*
X112632369Y-82570491D01*
X112632369Y-82570490D01*
X112491034Y-82358966D01*
X104236034Y-74103966D01*
X104220788Y-74093779D01*
X104024510Y-73962631D01*
X103983113Y-73954396D01*
X103775000Y-73912999D01*
X103774995Y-73913000D01*
X103022673Y-73913000D01*
X102974070Y-73864312D01*
X102670222Y-73738144D01*
X102341221Y-73737857D01*
X102122035Y-73828423D01*
X102081722Y-73768091D01*
X101716097Y-73523788D01*
X101284813Y-73438000D01*
X99915187Y-73438000D01*
X99483903Y-73523788D01*
X99118278Y-73768091D01*
X98873975Y-74133716D01*
X98788187Y-74565000D01*
X98873975Y-74996284D01*
X99118278Y-75361909D01*
X99483903Y-75606212D01*
X99915187Y-75692000D01*
X101284813Y-75692000D01*
X101716097Y-75606212D01*
X102081722Y-75361909D01*
X102122105Y-75301471D01*
X102339778Y-75391856D01*
X102668779Y-75392143D01*
X102972846Y-75266505D01*
X103022438Y-75217000D01*
X103504932Y-75217000D01*
X111378000Y-83090068D01*
X111378000Y-83785933D01*
X104236034Y-76643966D01*
X104220788Y-76633779D01*
X104024510Y-76502631D01*
X103983113Y-76494396D01*
X103775000Y-76452999D01*
X103774995Y-76453000D01*
X103022673Y-76453000D01*
X102974070Y-76404312D01*
X102670222Y-76278144D01*
X102341221Y-76277857D01*
X102122035Y-76368423D01*
X102081722Y-76308091D01*
X101716097Y-76063788D01*
X101284813Y-75978000D01*
X99915187Y-75978000D01*
X99483903Y-76063788D01*
X99118278Y-76308091D01*
X98873975Y-76673716D01*
X98788187Y-77105000D01*
X98873975Y-77536284D01*
X99118278Y-77901909D01*
X99483903Y-78146212D01*
X99915187Y-78232000D01*
X101284813Y-78232000D01*
X101716097Y-78146212D01*
X102081722Y-77901909D01*
X102122105Y-77841471D01*
X102339778Y-77931856D01*
X102668779Y-77932143D01*
X102972846Y-77806505D01*
X103022438Y-77757000D01*
X103504932Y-77757000D01*
X110743000Y-84995067D01*
X110743000Y-85690933D01*
X104236034Y-79183966D01*
X104075206Y-79076505D01*
X104024510Y-79042631D01*
X103983113Y-79034396D01*
X103775000Y-78992999D01*
X103774995Y-78993000D01*
X103022673Y-78993000D01*
X102974070Y-78944312D01*
X102670222Y-78818144D01*
X102341221Y-78817857D01*
X102122035Y-78908423D01*
X102081722Y-78848091D01*
X101716097Y-78603788D01*
X101284813Y-78518000D01*
X99915187Y-78518000D01*
X99483903Y-78603788D01*
X99118278Y-78848091D01*
X98873975Y-79213716D01*
X98788187Y-79645000D01*
X98873975Y-80076284D01*
X99118278Y-80441909D01*
X99483903Y-80686212D01*
X99915187Y-80772000D01*
X101284813Y-80772000D01*
X101716097Y-80686212D01*
X102081722Y-80441909D01*
X102122105Y-80381471D01*
X102339778Y-80471856D01*
X102668779Y-80472143D01*
X102972846Y-80346505D01*
X103022438Y-80297000D01*
X103504932Y-80297000D01*
X110108000Y-86900067D01*
X110108000Y-87595932D01*
X104236034Y-81723966D01*
X104224007Y-81715930D01*
X104024510Y-81582631D01*
X103983113Y-81574396D01*
X103775000Y-81532999D01*
X103774995Y-81533000D01*
X103022673Y-81533000D01*
X102974070Y-81484312D01*
X102670222Y-81358144D01*
X102341221Y-81357857D01*
X102122035Y-81448423D01*
X102081722Y-81388091D01*
X101716097Y-81143788D01*
X101284813Y-81058000D01*
X99915187Y-81058000D01*
X99483903Y-81143788D01*
X99118278Y-81388091D01*
X98873975Y-81753716D01*
X98788187Y-82185000D01*
X98873975Y-82616284D01*
X99118278Y-82981909D01*
X99483903Y-83226212D01*
X99915187Y-83312000D01*
X101284813Y-83312000D01*
X101716097Y-83226212D01*
X102081722Y-82981909D01*
X102122105Y-82921471D01*
X102339778Y-83011856D01*
X102668779Y-83012143D01*
X102972846Y-82886505D01*
X103022438Y-82837000D01*
X103504932Y-82837000D01*
X109473000Y-88805068D01*
X109473000Y-89500933D01*
X104236034Y-84263966D01*
X104075206Y-84156505D01*
X104024510Y-84122631D01*
X103983113Y-84114396D01*
X103775000Y-84072999D01*
X103774995Y-84073000D01*
X103022673Y-84073000D01*
X102974070Y-84024312D01*
X102670222Y-83898144D01*
X102341221Y-83897857D01*
X102122035Y-83988423D01*
X102081722Y-83928091D01*
X101716097Y-83683788D01*
X101284813Y-83598000D01*
X99915187Y-83598000D01*
X99483903Y-83683788D01*
X99118278Y-83928091D01*
X98873975Y-84293716D01*
X98788187Y-84725000D01*
X98873975Y-85156284D01*
X99118278Y-85521909D01*
X99483903Y-85766212D01*
X99915187Y-85852000D01*
X101284813Y-85852000D01*
X101716097Y-85766212D01*
X102081722Y-85521909D01*
X102122105Y-85461471D01*
X102339778Y-85551856D01*
X102668779Y-85552143D01*
X102972846Y-85426505D01*
X103022438Y-85377000D01*
X103504932Y-85377000D01*
X108838000Y-90710067D01*
X108838000Y-91405932D01*
X104236034Y-86803966D01*
X104120847Y-86727001D01*
X104024510Y-86662631D01*
X103983113Y-86654396D01*
X103775000Y-86612999D01*
X103774995Y-86613000D01*
X103022673Y-86613000D01*
X102974070Y-86564312D01*
X102670222Y-86438144D01*
X102341221Y-86437857D01*
X102122035Y-86528423D01*
X102081722Y-86468091D01*
X101716097Y-86223788D01*
X101284813Y-86138000D01*
X99915187Y-86138000D01*
X99483903Y-86223788D01*
X99118278Y-86468091D01*
X98873975Y-86833716D01*
X98788187Y-87265000D01*
X98873975Y-87696284D01*
X99118278Y-88061909D01*
X99483903Y-88306212D01*
X99915187Y-88392000D01*
X101284813Y-88392000D01*
X101716097Y-88306212D01*
X102081722Y-88061909D01*
X102122105Y-88001471D01*
X102339778Y-88091856D01*
X102668779Y-88092143D01*
X102972846Y-87966505D01*
X103022438Y-87917000D01*
X103504932Y-87917000D01*
X108203000Y-92615068D01*
X108203000Y-93310933D01*
X104236034Y-89343966D01*
X104120847Y-89267001D01*
X104024510Y-89202631D01*
X103983113Y-89194396D01*
X103775000Y-89152999D01*
X103774995Y-89153000D01*
X103022673Y-89153000D01*
X102974070Y-89104312D01*
X102670222Y-88978144D01*
X102341221Y-88977857D01*
X102122035Y-89068423D01*
X102081722Y-89008091D01*
X101716097Y-88763788D01*
X101284813Y-88678000D01*
X99915187Y-88678000D01*
X99483903Y-88763788D01*
X99118278Y-89008091D01*
X98873975Y-89373716D01*
X98788187Y-89805000D01*
X98873975Y-90236284D01*
X99118278Y-90601909D01*
X99483903Y-90846212D01*
X99915187Y-90932000D01*
X101284813Y-90932000D01*
X101716097Y-90846212D01*
X102081722Y-90601909D01*
X102122105Y-90541471D01*
X102339778Y-90631856D01*
X102668779Y-90632143D01*
X102972846Y-90506505D01*
X103022438Y-90457000D01*
X103504932Y-90457000D01*
X107568000Y-94520067D01*
X107568000Y-95215933D01*
X104236034Y-91883966D01*
X104144239Y-91822631D01*
X104024510Y-91742631D01*
X103983113Y-91734396D01*
X103775000Y-91692999D01*
X103774995Y-91693000D01*
X103022673Y-91693000D01*
X102974070Y-91644312D01*
X102670222Y-91518144D01*
X102341221Y-91517857D01*
X102122035Y-91608423D01*
X102081722Y-91548091D01*
X101716097Y-91303788D01*
X101284813Y-91218000D01*
X99915187Y-91218000D01*
X99483903Y-91303788D01*
X99118278Y-91548091D01*
X98873975Y-91913716D01*
X98788187Y-92345000D01*
X98873975Y-92776284D01*
X99118278Y-93141909D01*
X99483903Y-93386212D01*
X99915187Y-93472000D01*
X101284813Y-93472000D01*
X101716097Y-93386212D01*
X102081722Y-93141909D01*
X102122105Y-93081471D01*
X102339778Y-93171856D01*
X102668779Y-93172143D01*
X102972846Y-93046505D01*
X103022438Y-92997000D01*
X103504932Y-92997000D01*
X106933000Y-96425067D01*
X106933000Y-99694933D01*
X104583966Y-102043966D01*
X104442631Y-102255490D01*
X104442631Y-102255491D01*
X104392999Y-102505000D01*
X104393000Y-102505005D01*
X104393000Y-103774995D01*
X104392999Y-103775000D01*
X104434396Y-103983113D01*
X104442631Y-104024510D01*
X104523162Y-104145034D01*
X104583966Y-104236034D01*
X105853964Y-105506031D01*
X105853966Y-105506034D01*
X106065490Y-105647369D01*
X106315000Y-105697000D01*
X110489932Y-105697000D01*
X110567917Y-105774985D01*
X110567857Y-105843779D01*
X110693495Y-106147846D01*
X110925930Y-106380688D01*
X111229778Y-106506856D01*
X111558779Y-106507143D01*
X111862846Y-106381505D01*
X112095688Y-106149070D01*
X112129815Y-106066883D01*
X112838966Y-106776034D01*
X113050490Y-106917369D01*
X113091887Y-106925604D01*
X113300000Y-106967001D01*
X113300005Y-106967000D01*
X113944936Y-106967000D01*
X113699412Y-107212096D01*
X113428310Y-107864982D01*
X113427693Y-108571916D01*
X113697655Y-109225274D01*
X113750289Y-109278000D01*
X109040404Y-109278000D01*
X109090588Y-109227904D01*
X109361690Y-108575018D01*
X109362307Y-107868084D01*
X109092345Y-107214726D01*
X108592904Y-106714412D01*
X107940018Y-106443310D01*
X107233084Y-106442693D01*
X106579726Y-106712655D01*
X106079412Y-107212096D01*
X105808310Y-107864982D01*
X105807693Y-108571916D01*
X106077655Y-109225274D01*
X106130289Y-109278000D01*
X98662000Y-109278000D01*
X98662000Y-105880000D01*
X99858000Y-105880000D01*
X100025617Y-106722669D01*
X100502951Y-107437049D01*
X101217331Y-107914383D01*
X102060000Y-108082000D01*
X102902669Y-107914383D01*
X103617049Y-107437049D01*
X104094383Y-106722669D01*
X104262000Y-105880000D01*
X104094383Y-105037331D01*
X103617049Y-104322951D01*
X102902669Y-103845617D01*
X102060000Y-103678000D01*
X101217331Y-103845617D01*
X100502951Y-104322951D01*
X100025617Y-105037331D01*
X99858000Y-105880000D01*
X98662000Y-105880000D01*
X98662000Y-99965000D01*
X98788187Y-99965000D01*
X98873975Y-100396284D01*
X99118278Y-100761909D01*
X99483903Y-101006212D01*
X99915187Y-101092000D01*
X101284813Y-101092000D01*
X101716097Y-101006212D01*
X102081722Y-100761909D01*
X102326025Y-100396284D01*
X102411813Y-99965000D01*
X102326025Y-99533716D01*
X102081722Y-99168091D01*
X101716097Y-98923788D01*
X101284813Y-98838000D01*
X99915187Y-98838000D01*
X99483903Y-98923788D01*
X99118278Y-99168091D01*
X98873975Y-99533716D01*
X98788187Y-99965000D01*
X98662000Y-99965000D01*
X98662000Y-97425000D01*
X98788187Y-97425000D01*
X98873975Y-97856284D01*
X99118278Y-98221909D01*
X99483903Y-98466212D01*
X99915187Y-98552000D01*
X101284813Y-98552000D01*
X101716097Y-98466212D01*
X102081722Y-98221909D01*
X102326025Y-97856284D01*
X102411813Y-97425000D01*
X102326025Y-96993716D01*
X102081722Y-96628091D01*
X101716097Y-96383788D01*
X101284813Y-96298000D01*
X99915187Y-96298000D01*
X99483903Y-96383788D01*
X99118278Y-96628091D01*
X98873975Y-96993716D01*
X98788187Y-97425000D01*
X98662000Y-97425000D01*
X98662000Y-94885000D01*
X98788187Y-94885000D01*
X98873975Y-95316284D01*
X99118278Y-95681909D01*
X99483903Y-95926212D01*
X99915187Y-96012000D01*
X101284813Y-96012000D01*
X101716097Y-95926212D01*
X102081722Y-95681909D01*
X102326025Y-95316284D01*
X102411813Y-94885000D01*
X102326025Y-94453716D01*
X102081722Y-94088091D01*
X101716097Y-93843788D01*
X101284813Y-93758000D01*
X99915187Y-93758000D01*
X99483903Y-93843788D01*
X99118278Y-94088091D01*
X98873975Y-94453716D01*
X98788187Y-94885000D01*
X98662000Y-94885000D01*
X98662000Y-72273033D01*
X98850633Y-72273033D01*
X98880852Y-72388841D01*
X99101472Y-72770290D01*
X99451273Y-73038276D01*
X99877000Y-73152000D01*
X100527000Y-73152000D01*
X100527000Y-72098000D01*
X100673000Y-72098000D01*
X100673000Y-73152000D01*
X101323000Y-73152000D01*
X101748727Y-73038276D01*
X102098528Y-72770290D01*
X102319148Y-72388841D01*
X102349367Y-72273033D01*
X102242569Y-72098000D01*
X100673000Y-72098000D01*
X100527000Y-72098000D01*
X98957431Y-72098000D01*
X98850633Y-72273033D01*
X98662000Y-72273033D01*
X98662000Y-71776967D01*
X98850633Y-71776967D01*
X98957431Y-71952000D01*
X100527000Y-71952000D01*
X100527000Y-70898000D01*
X100673000Y-70898000D01*
X100673000Y-71952000D01*
X102242569Y-71952000D01*
X102349367Y-71776967D01*
X102319148Y-71661159D01*
X102098528Y-71279710D01*
X101748727Y-71011724D01*
X101323000Y-70898000D01*
X100673000Y-70898000D01*
X100527000Y-70898000D01*
X99877000Y-70898000D01*
X99451273Y-71011724D01*
X99101472Y-71279710D01*
X98880852Y-71661159D01*
X98850633Y-71776967D01*
X98662000Y-71776967D01*
X98662000Y-69485000D01*
X98788187Y-69485000D01*
X98873975Y-69916284D01*
X99118278Y-70281909D01*
X99483903Y-70526212D01*
X99915187Y-70612000D01*
X101284813Y-70612000D01*
X101716097Y-70526212D01*
X102081722Y-70281909D01*
X102326025Y-69916284D01*
X102411813Y-69485000D01*
X102326025Y-69053716D01*
X102081722Y-68688091D01*
X101716097Y-68443788D01*
X101284813Y-68358000D01*
X99915187Y-68358000D01*
X99483903Y-68443788D01*
X99118278Y-68688091D01*
X98873975Y-69053716D01*
X98788187Y-69485000D01*
X98662000Y-69485000D01*
X98662000Y-66945000D01*
X98788187Y-66945000D01*
X98873975Y-67376284D01*
X99118278Y-67741909D01*
X99483903Y-67986212D01*
X99915187Y-68072000D01*
X101284813Y-68072000D01*
X101716097Y-67986212D01*
X102081722Y-67741909D01*
X102326025Y-67376284D01*
X102411813Y-66945000D01*
X102326025Y-66513716D01*
X102081722Y-66148091D01*
X101716097Y-65903788D01*
X101284813Y-65818000D01*
X99915187Y-65818000D01*
X99483903Y-65903788D01*
X99118278Y-66148091D01*
X98873975Y-66513716D01*
X98788187Y-66945000D01*
X98662000Y-66945000D01*
X98662000Y-64405000D01*
X98788187Y-64405000D01*
X98873975Y-64836284D01*
X99118278Y-65201909D01*
X99483903Y-65446212D01*
X99915187Y-65532000D01*
X101284813Y-65532000D01*
X101716097Y-65446212D01*
X102081722Y-65201909D01*
X102326025Y-64836284D01*
X102379235Y-64568779D01*
X110567857Y-64568779D01*
X110693495Y-64872846D01*
X110743000Y-64922438D01*
X110743000Y-71507327D01*
X110694312Y-71555930D01*
X110568144Y-71859778D01*
X110567857Y-72188779D01*
X110693495Y-72492846D01*
X110925930Y-72725688D01*
X111229778Y-72851856D01*
X111558779Y-72852143D01*
X111862846Y-72726505D01*
X112095688Y-72494070D01*
X112221856Y-72190222D01*
X112222143Y-71861221D01*
X112096505Y-71557154D01*
X112047000Y-71507562D01*
X112047000Y-67193033D01*
X114090633Y-67193033D01*
X114120852Y-67308841D01*
X114341472Y-67690290D01*
X114691273Y-67958276D01*
X115117000Y-68072000D01*
X115767000Y-68072000D01*
X115767000Y-67018000D01*
X115913000Y-67018000D01*
X115913000Y-68072000D01*
X116563000Y-68072000D01*
X116988727Y-67958276D01*
X117338528Y-67690290D01*
X117559148Y-67308841D01*
X117589367Y-67193033D01*
X117482569Y-67018000D01*
X115913000Y-67018000D01*
X115767000Y-67018000D01*
X114197431Y-67018000D01*
X114090633Y-67193033D01*
X112047000Y-67193033D01*
X112047000Y-66945000D01*
X117708493Y-66945000D01*
X117824729Y-67529358D01*
X118155741Y-68024752D01*
X118440467Y-68215000D01*
X118155741Y-68405248D01*
X117824729Y-68900642D01*
X117708493Y-69485000D01*
X117824729Y-70069358D01*
X118155741Y-70564752D01*
X118651135Y-70895764D01*
X119235493Y-71012000D01*
X121334507Y-71012000D01*
X121918865Y-70895764D01*
X122414259Y-70564752D01*
X122745271Y-70069358D01*
X122861507Y-69485000D01*
X122745271Y-68900642D01*
X122414259Y-68405248D01*
X122129533Y-68215000D01*
X122414259Y-68024752D01*
X122745271Y-67529358D01*
X122861507Y-66945000D01*
X122790770Y-66589376D01*
X126607736Y-66589376D01*
X126813397Y-67064551D01*
X127185244Y-67424853D01*
X127625624Y-67607258D01*
X127832000Y-67503019D01*
X127832000Y-66383000D01*
X127978000Y-66383000D01*
X127978000Y-67503019D01*
X128184376Y-67607258D01*
X128250184Y-67580000D01*
X129727003Y-67580000D01*
X129828015Y-68087821D01*
X130115672Y-68518331D01*
X130546182Y-68805988D01*
X130767445Y-68850000D01*
X130546182Y-68894012D01*
X130115672Y-69181669D01*
X129828015Y-69612179D01*
X129727003Y-70120000D01*
X129828015Y-70627821D01*
X130115672Y-71058331D01*
X130546182Y-71345988D01*
X130767445Y-71390000D01*
X130546182Y-71434012D01*
X130115672Y-71721669D01*
X129828015Y-72152179D01*
X129727003Y-72660000D01*
X129828015Y-73167821D01*
X130115672Y-73598331D01*
X130546182Y-73885988D01*
X130767445Y-73930000D01*
X130546182Y-73974012D01*
X130115672Y-74261669D01*
X129828015Y-74692179D01*
X129727003Y-75200000D01*
X129828015Y-75707821D01*
X130115672Y-76138331D01*
X130546182Y-76425988D01*
X131054003Y-76527000D01*
X131105997Y-76527000D01*
X131613818Y-76425988D01*
X132044328Y-76138331D01*
X132331985Y-75707821D01*
X132432997Y-75200000D01*
X132331985Y-74692179D01*
X132044328Y-74261669D01*
X131613818Y-73974012D01*
X131392555Y-73930000D01*
X131613818Y-73885988D01*
X132044328Y-73598331D01*
X132331985Y-73167821D01*
X132432997Y-72660000D01*
X132331985Y-72152179D01*
X132044328Y-71721669D01*
X131613818Y-71434012D01*
X131392555Y-71390000D01*
X131613818Y-71345988D01*
X132044328Y-71058331D01*
X132331985Y-70627821D01*
X132432997Y-70120000D01*
X132331985Y-69612179D01*
X132044328Y-69181669D01*
X131613818Y-68894012D01*
X131392555Y-68850000D01*
X131613818Y-68805988D01*
X132044328Y-68518331D01*
X132331985Y-68087821D01*
X132432997Y-67580000D01*
X137347003Y-67580000D01*
X137448015Y-68087821D01*
X137735672Y-68518331D01*
X138166182Y-68805988D01*
X138387445Y-68850000D01*
X138166182Y-68894012D01*
X137735672Y-69181669D01*
X137448015Y-69612179D01*
X137347003Y-70120000D01*
X137448015Y-70627821D01*
X137735672Y-71058331D01*
X138166182Y-71345988D01*
X138367019Y-71385937D01*
X137945449Y-71568397D01*
X137585147Y-71940244D01*
X137402742Y-72380624D01*
X137506981Y-72587000D01*
X138627000Y-72587000D01*
X138627000Y-72567000D01*
X138773000Y-72567000D01*
X138773000Y-72587000D01*
X139893019Y-72587000D01*
X139997258Y-72380624D01*
X139814853Y-71940244D01*
X139454551Y-71568397D01*
X139032981Y-71385937D01*
X139233818Y-71345988D01*
X139664328Y-71058331D01*
X139951985Y-70627821D01*
X140052997Y-70120000D01*
X139951985Y-69612179D01*
X139664328Y-69181669D01*
X139233818Y-68894012D01*
X139012555Y-68850000D01*
X139233818Y-68805988D01*
X139664328Y-68518331D01*
X139951985Y-68087821D01*
X140052997Y-67580000D01*
X139951985Y-67072179D01*
X139664328Y-66641669D01*
X139233818Y-66354012D01*
X138725997Y-66253000D01*
X138674003Y-66253000D01*
X138166182Y-66354012D01*
X137735672Y-66641669D01*
X137448015Y-67072179D01*
X137347003Y-67580000D01*
X132432997Y-67580000D01*
X132331985Y-67072179D01*
X132044328Y-66641669D01*
X131613818Y-66354012D01*
X131105997Y-66253000D01*
X131054003Y-66253000D01*
X130546182Y-66354012D01*
X130115672Y-66641669D01*
X129828015Y-67072179D01*
X129727003Y-67580000D01*
X128250184Y-67580000D01*
X128624756Y-67424853D01*
X128996603Y-67064551D01*
X129202264Y-66589376D01*
X129098247Y-66383000D01*
X127978000Y-66383000D01*
X127832000Y-66383000D01*
X126711753Y-66383000D01*
X126607736Y-66589376D01*
X122790770Y-66589376D01*
X122745271Y-66360642D01*
X122524760Y-66030624D01*
X126607736Y-66030624D01*
X126711753Y-66237000D01*
X127832000Y-66237000D01*
X127832000Y-65116981D01*
X127978000Y-65116981D01*
X127978000Y-66237000D01*
X129098247Y-66237000D01*
X129202264Y-66030624D01*
X128996603Y-65555449D01*
X128624756Y-65195147D01*
X128184376Y-65012742D01*
X127978000Y-65116981D01*
X127832000Y-65116981D01*
X127625624Y-65012742D01*
X127185244Y-65195147D01*
X126813397Y-65555449D01*
X126607736Y-66030624D01*
X122524760Y-66030624D01*
X122414259Y-65865248D01*
X121918865Y-65534236D01*
X121334507Y-65418000D01*
X119235493Y-65418000D01*
X118651135Y-65534236D01*
X118155741Y-65865248D01*
X117824729Y-66360642D01*
X117708493Y-66945000D01*
X112047000Y-66945000D01*
X112047000Y-66696967D01*
X114090633Y-66696967D01*
X114197431Y-66872000D01*
X115767000Y-66872000D01*
X115767000Y-65818000D01*
X115913000Y-65818000D01*
X115913000Y-66872000D01*
X117482569Y-66872000D01*
X117589367Y-66696967D01*
X117559148Y-66581159D01*
X117338528Y-66199710D01*
X116988727Y-65931724D01*
X116563000Y-65818000D01*
X115913000Y-65818000D01*
X115767000Y-65818000D01*
X115117000Y-65818000D01*
X114691273Y-65931724D01*
X114341472Y-66199710D01*
X114120852Y-66581159D01*
X114090633Y-66696967D01*
X112047000Y-66696967D01*
X112047000Y-64922673D01*
X112095688Y-64874070D01*
X112221856Y-64570222D01*
X112222000Y-64405000D01*
X114028187Y-64405000D01*
X114113975Y-64836284D01*
X114358278Y-65201909D01*
X114723903Y-65446212D01*
X115155187Y-65532000D01*
X116524813Y-65532000D01*
X116956097Y-65446212D01*
X117321722Y-65201909D01*
X117566025Y-64836284D01*
X117651813Y-64405000D01*
X117577778Y-64032798D01*
X130387771Y-64032798D01*
X130589369Y-64520703D01*
X130962334Y-64894319D01*
X131449885Y-65096769D01*
X131977798Y-65097229D01*
X132465703Y-64895631D01*
X132839319Y-64522666D01*
X133041769Y-64035115D01*
X133042000Y-63770000D01*
X140522003Y-63770000D01*
X140623015Y-64277821D01*
X140910672Y-64708331D01*
X141341182Y-64995988D01*
X141849003Y-65097000D01*
X141900997Y-65097000D01*
X142408818Y-64995988D01*
X142839328Y-64708331D01*
X143126985Y-64277821D01*
X143227997Y-63770000D01*
X143126985Y-63262179D01*
X142839328Y-62831669D01*
X142408818Y-62544012D01*
X141900997Y-62443000D01*
X141849003Y-62443000D01*
X141341182Y-62544012D01*
X140910672Y-62831669D01*
X140623015Y-63262179D01*
X140522003Y-63770000D01*
X133042000Y-63770000D01*
X133042229Y-63507202D01*
X132840631Y-63019297D01*
X132467666Y-62645681D01*
X131980115Y-62443231D01*
X131452202Y-62442771D01*
X130964297Y-62644369D01*
X130590681Y-63017334D01*
X130388231Y-63504885D01*
X130387771Y-64032798D01*
X117577778Y-64032798D01*
X117566025Y-63973716D01*
X117321722Y-63608091D01*
X116956097Y-63363788D01*
X116524813Y-63278000D01*
X115155187Y-63278000D01*
X114723903Y-63363788D01*
X114358278Y-63608091D01*
X114113975Y-63973716D01*
X114028187Y-64405000D01*
X112222000Y-64405000D01*
X112222143Y-64241221D01*
X112096505Y-63937154D01*
X111864070Y-63704312D01*
X111560222Y-63578144D01*
X111231221Y-63577857D01*
X110927154Y-63703495D01*
X110694312Y-63935930D01*
X110568144Y-64239778D01*
X110567857Y-64568779D01*
X102379235Y-64568779D01*
X102411813Y-64405000D01*
X102326025Y-63973716D01*
X102081722Y-63608091D01*
X101716097Y-63363788D01*
X101284813Y-63278000D01*
X99915187Y-63278000D01*
X99483903Y-63363788D01*
X99118278Y-63608091D01*
X98873975Y-63973716D01*
X98788187Y-64405000D01*
X98662000Y-64405000D01*
X98662000Y-58939293D01*
X98717017Y-58662701D01*
X103672762Y-58662701D01*
X103881956Y-59168989D01*
X104268974Y-59556683D01*
X104517776Y-59659995D01*
X104271011Y-59761956D01*
X103883317Y-60148974D01*
X103673240Y-60654896D01*
X103672762Y-61202701D01*
X103881956Y-61708989D01*
X104268974Y-62096683D01*
X104774896Y-62306760D01*
X105322701Y-62307238D01*
X105828989Y-62098044D01*
X106216683Y-61711026D01*
X106319995Y-61462224D01*
X106421956Y-61708989D01*
X106808974Y-62096683D01*
X107314896Y-62306760D01*
X107862701Y-62307238D01*
X108368989Y-62098044D01*
X108756683Y-61711026D01*
X108859995Y-61462224D01*
X108961956Y-61708989D01*
X109348974Y-62096683D01*
X109854896Y-62306760D01*
X110402701Y-62307238D01*
X110908989Y-62098044D01*
X111296683Y-61711026D01*
X111399995Y-61462224D01*
X111501956Y-61708989D01*
X111888974Y-62096683D01*
X112394896Y-62306760D01*
X112942701Y-62307238D01*
X113448989Y-62098044D01*
X113836683Y-61711026D01*
X113939995Y-61462224D01*
X114041956Y-61708989D01*
X114428974Y-62096683D01*
X114934896Y-62306760D01*
X115482701Y-62307238D01*
X115988989Y-62098044D01*
X116376683Y-61711026D01*
X116479995Y-61462224D01*
X116581956Y-61708989D01*
X116968974Y-62096683D01*
X117474896Y-62306760D01*
X118022701Y-62307238D01*
X118528989Y-62098044D01*
X118916683Y-61711026D01*
X119019995Y-61462224D01*
X119121956Y-61708989D01*
X119508974Y-62096683D01*
X120014896Y-62306760D01*
X120562701Y-62307238D01*
X121068989Y-62098044D01*
X121456683Y-61711026D01*
X121559995Y-61462224D01*
X121661956Y-61708989D01*
X122048974Y-62096683D01*
X122554896Y-62306760D01*
X123102701Y-62307238D01*
X123608989Y-62098044D01*
X123996683Y-61711026D01*
X124099995Y-61462224D01*
X124201956Y-61708989D01*
X124588974Y-62096683D01*
X125094896Y-62306760D01*
X125642701Y-62307238D01*
X126148989Y-62098044D01*
X126367677Y-61879737D01*
X127063501Y-61879737D01*
X127144938Y-62107213D01*
X127653675Y-62310380D01*
X128201435Y-62303397D01*
X128675062Y-62107213D01*
X128756499Y-61879737D01*
X127910000Y-61033238D01*
X127063501Y-61879737D01*
X126367677Y-61879737D01*
X126536683Y-61711026D01*
X126638166Y-61466628D01*
X126732787Y-61695062D01*
X126960263Y-61776499D01*
X127806762Y-60930000D01*
X126960263Y-60083501D01*
X126732787Y-60164938D01*
X126639902Y-60397526D01*
X126538044Y-60151011D01*
X126151026Y-59763317D01*
X125902224Y-59660005D01*
X126148989Y-59558044D01*
X126367677Y-59339737D01*
X127063501Y-59339737D01*
X127144938Y-59567213D01*
X127373036Y-59658305D01*
X127144938Y-59752787D01*
X127063501Y-59980263D01*
X127910000Y-60826762D01*
X128756499Y-59980263D01*
X128675062Y-59752787D01*
X128446964Y-59661695D01*
X128675062Y-59567213D01*
X128756499Y-59339737D01*
X127910000Y-58493238D01*
X127063501Y-59339737D01*
X126367677Y-59339737D01*
X126536683Y-59171026D01*
X126638166Y-58926628D01*
X126732787Y-59155062D01*
X126960263Y-59236499D01*
X127806762Y-58390000D01*
X128013238Y-58390000D01*
X128859737Y-59236499D01*
X129087213Y-59155062D01*
X129180098Y-58922474D01*
X129281956Y-59168989D01*
X129668974Y-59556683D01*
X129917776Y-59659995D01*
X129671011Y-59761956D01*
X129283317Y-60148974D01*
X129181834Y-60393372D01*
X129087213Y-60164938D01*
X128859737Y-60083501D01*
X128013238Y-60930000D01*
X128859737Y-61776499D01*
X129087213Y-61695062D01*
X129180098Y-61462474D01*
X129281956Y-61708989D01*
X129668974Y-62096683D01*
X130174896Y-62306760D01*
X130722701Y-62307238D01*
X131228989Y-62098044D01*
X131616683Y-61711026D01*
X131719995Y-61462224D01*
X131821956Y-61708989D01*
X132208974Y-62096683D01*
X132714896Y-62306760D01*
X133262701Y-62307238D01*
X133768989Y-62098044D01*
X134156683Y-61711026D01*
X134259995Y-61462224D01*
X134361956Y-61708989D01*
X134748974Y-62096683D01*
X135254896Y-62306760D01*
X135802701Y-62307238D01*
X136308989Y-62098044D01*
X136696683Y-61711026D01*
X136799995Y-61462224D01*
X136901956Y-61708989D01*
X137288974Y-62096683D01*
X137794896Y-62306760D01*
X138342701Y-62307238D01*
X138848989Y-62098044D01*
X139236683Y-61711026D01*
X139339995Y-61462224D01*
X139441956Y-61708989D01*
X139828974Y-62096683D01*
X140334896Y-62306760D01*
X140882701Y-62307238D01*
X141388989Y-62098044D01*
X141776683Y-61711026D01*
X141879995Y-61462224D01*
X141981956Y-61708989D01*
X142368974Y-62096683D01*
X142874896Y-62306760D01*
X143422701Y-62307238D01*
X143928989Y-62098044D01*
X144316683Y-61711026D01*
X144526760Y-61205104D01*
X144527084Y-60833627D01*
X149954611Y-60833627D01*
X150029945Y-61055911D01*
X150520592Y-61250739D01*
X151048449Y-61242973D01*
X151500055Y-61055911D01*
X151575389Y-60833627D01*
X150765000Y-60023238D01*
X149954611Y-60833627D01*
X144527084Y-60833627D01*
X144527238Y-60657299D01*
X144318044Y-60151011D01*
X143931026Y-59763317D01*
X143719762Y-59675592D01*
X149434261Y-59675592D01*
X149442027Y-60203449D01*
X149629089Y-60655055D01*
X149851373Y-60730389D01*
X150661762Y-59920000D01*
X150868238Y-59920000D01*
X151678627Y-60730389D01*
X151900911Y-60655055D01*
X152095739Y-60164408D01*
X152087973Y-59636551D01*
X151900911Y-59184945D01*
X151678627Y-59109611D01*
X150868238Y-59920000D01*
X150661762Y-59920000D01*
X149851373Y-59109611D01*
X149629089Y-59184945D01*
X149434261Y-59675592D01*
X143719762Y-59675592D01*
X143682224Y-59660005D01*
X143928989Y-59558044D01*
X144316683Y-59171026D01*
X144526760Y-58665104D01*
X144527238Y-58117299D01*
X144318044Y-57611011D01*
X143931026Y-57223317D01*
X143425104Y-57013240D01*
X142877299Y-57012762D01*
X142371011Y-57221956D01*
X141983317Y-57608974D01*
X141880005Y-57857776D01*
X141778044Y-57611011D01*
X141391026Y-57223317D01*
X140885104Y-57013240D01*
X140337299Y-57012762D01*
X139831011Y-57221956D01*
X139443317Y-57608974D01*
X139340005Y-57857776D01*
X139238044Y-57611011D01*
X138851026Y-57223317D01*
X138345104Y-57013240D01*
X137797299Y-57012762D01*
X137291011Y-57221956D01*
X136903317Y-57608974D01*
X136800005Y-57857776D01*
X136698044Y-57611011D01*
X136311026Y-57223317D01*
X135805104Y-57013240D01*
X135257299Y-57012762D01*
X134751011Y-57221956D01*
X134363317Y-57608974D01*
X134260005Y-57857776D01*
X134158044Y-57611011D01*
X133771026Y-57223317D01*
X133265104Y-57013240D01*
X132717299Y-57012762D01*
X132211011Y-57221956D01*
X131823317Y-57608974D01*
X131720005Y-57857776D01*
X131618044Y-57611011D01*
X131231026Y-57223317D01*
X130725104Y-57013240D01*
X130177299Y-57012762D01*
X129671011Y-57221956D01*
X129283317Y-57608974D01*
X129181834Y-57853372D01*
X129087213Y-57624938D01*
X128859737Y-57543501D01*
X128013238Y-58390000D01*
X127806762Y-58390000D01*
X126960263Y-57543501D01*
X126732787Y-57624938D01*
X126639902Y-57857526D01*
X126538044Y-57611011D01*
X126367594Y-57440263D01*
X127063501Y-57440263D01*
X127910000Y-58286762D01*
X128756499Y-57440263D01*
X128675062Y-57212787D01*
X128166325Y-57009620D01*
X127618565Y-57016603D01*
X127144938Y-57212787D01*
X127063501Y-57440263D01*
X126367594Y-57440263D01*
X126151026Y-57223317D01*
X125645104Y-57013240D01*
X125097299Y-57012762D01*
X124591011Y-57221956D01*
X124203317Y-57608974D01*
X124100005Y-57857776D01*
X123998044Y-57611011D01*
X123611026Y-57223317D01*
X123105104Y-57013240D01*
X122557299Y-57012762D01*
X122051011Y-57221956D01*
X121663317Y-57608974D01*
X121560005Y-57857776D01*
X121458044Y-57611011D01*
X121071026Y-57223317D01*
X120565104Y-57013240D01*
X120017299Y-57012762D01*
X119511011Y-57221956D01*
X119123317Y-57608974D01*
X119020005Y-57857776D01*
X118918044Y-57611011D01*
X118531026Y-57223317D01*
X118025104Y-57013240D01*
X117477299Y-57012762D01*
X116971011Y-57221956D01*
X116583317Y-57608974D01*
X116480005Y-57857776D01*
X116378044Y-57611011D01*
X115991026Y-57223317D01*
X115485104Y-57013240D01*
X114937299Y-57012762D01*
X114431011Y-57221956D01*
X114043317Y-57608974D01*
X113940005Y-57857776D01*
X113838044Y-57611011D01*
X113451026Y-57223317D01*
X112945104Y-57013240D01*
X112397299Y-57012762D01*
X111891011Y-57221956D01*
X111503317Y-57608974D01*
X111400005Y-57857776D01*
X111298044Y-57611011D01*
X110911026Y-57223317D01*
X110405104Y-57013240D01*
X109857299Y-57012762D01*
X109351011Y-57221956D01*
X108963317Y-57608974D01*
X108860005Y-57857776D01*
X108758044Y-57611011D01*
X108371026Y-57223317D01*
X107865104Y-57013240D01*
X107317299Y-57012762D01*
X106811011Y-57221956D01*
X106423317Y-57608974D01*
X106320005Y-57857776D01*
X106218044Y-57611011D01*
X105831026Y-57223317D01*
X105325104Y-57013240D01*
X104777299Y-57012762D01*
X104271011Y-57221956D01*
X103883317Y-57608974D01*
X103673240Y-58114896D01*
X103672762Y-58662701D01*
X98717017Y-58662701D01*
X98931554Y-57584155D01*
X99575782Y-56620000D01*
X149427676Y-56620000D01*
X149427676Y-58220000D01*
X149464423Y-58415294D01*
X149579842Y-58594660D01*
X149755951Y-58714990D01*
X149965000Y-58757324D01*
X150094561Y-58757324D01*
X150029945Y-58784089D01*
X149954611Y-59006373D01*
X150765000Y-59816762D01*
X151575389Y-59006373D01*
X151500055Y-58784089D01*
X151432651Y-58757324D01*
X151565000Y-58757324D01*
X151760294Y-58720577D01*
X151939660Y-58605158D01*
X152059990Y-58429049D01*
X152102324Y-58220000D01*
X152102324Y-56620000D01*
X152065577Y-56424706D01*
X151950158Y-56245340D01*
X151774049Y-56125010D01*
X151565000Y-56082676D01*
X149965000Y-56082676D01*
X149769706Y-56119423D01*
X149590340Y-56234842D01*
X149470010Y-56410951D01*
X149427676Y-56620000D01*
X99575782Y-56620000D01*
X99665592Y-56485590D01*
X100764155Y-55751554D01*
X101861852Y-55533208D01*
X102134322Y-55805678D01*
X102329625Y-55936175D01*
X102560000Y-55982000D01*
X145560000Y-55982000D01*
X145790375Y-55936175D01*
X145985678Y-55805678D01*
X146309356Y-55482000D01*
X164000707Y-55482000D01*
X165355845Y-55751554D01*
X165355845Y-55751554D01*
G37*
X165355845Y-55751554D02*
X166454410Y-56485592D01*
X167188446Y-57584155D01*
X167458000Y-58939294D01*
X167458000Y-105820706D01*
X167188446Y-107175845D01*
X166454410Y-108274408D01*
X165355845Y-109008446D01*
X164000707Y-109278000D01*
X116660404Y-109278000D01*
X116710588Y-109227904D01*
X116981690Y-108575018D01*
X116982307Y-107868084D01*
X116712345Y-107214726D01*
X116465051Y-106967000D01*
X119014995Y-106967000D01*
X119015000Y-106967001D01*
X119223113Y-106925604D01*
X119264510Y-106917369D01*
X119476034Y-106776034D01*
X122568000Y-103684067D01*
X122568000Y-104314711D01*
X122684236Y-104899069D01*
X123015248Y-105394463D01*
X123510642Y-105725475D01*
X124095000Y-105841711D01*
X124679358Y-105725475D01*
X125174752Y-105394463D01*
X125375667Y-105093773D01*
X125606867Y-105406371D01*
X126118086Y-105713700D01*
X126324296Y-105770056D01*
X126562000Y-105668339D01*
X126562000Y-103848000D01*
X126708000Y-103848000D01*
X126708000Y-105668339D01*
X126945704Y-105770056D01*
X127151914Y-105713700D01*
X127663133Y-105406371D01*
X127905000Y-105079352D01*
X128146867Y-105406371D01*
X128658086Y-105713700D01*
X128864296Y-105770056D01*
X129102000Y-105668339D01*
X129102000Y-103848000D01*
X129248000Y-103848000D01*
X129248000Y-105668339D01*
X129485704Y-105770056D01*
X129691914Y-105713700D01*
X130203133Y-105406371D01*
X130445000Y-105079352D01*
X130686867Y-105406371D01*
X131198086Y-105713700D01*
X131404296Y-105770056D01*
X131642000Y-105668339D01*
X131642000Y-103848000D01*
X131788000Y-103848000D01*
X131788000Y-105668339D01*
X132025704Y-105770056D01*
X132231914Y-105713700D01*
X132743133Y-105406371D01*
X132985000Y-105079352D01*
X133226867Y-105406371D01*
X133738086Y-105713700D01*
X133944296Y-105770056D01*
X134182000Y-105668339D01*
X134182000Y-103848000D01*
X134328000Y-103848000D01*
X134328000Y-105668339D01*
X134565704Y-105770056D01*
X134771914Y-105713700D01*
X135283133Y-105406371D01*
X135525000Y-105079352D01*
X135766867Y-105406371D01*
X136278086Y-105713700D01*
X136484296Y-105770056D01*
X136722000Y-105668339D01*
X136722000Y-103848000D01*
X136868000Y-103848000D01*
X136868000Y-105668339D01*
X137105704Y-105770056D01*
X137311914Y-105713700D01*
X137823133Y-105406371D01*
X138065000Y-105079352D01*
X138306867Y-105406371D01*
X138818086Y-105713700D01*
X139024296Y-105770056D01*
X139262000Y-105668339D01*
X139262000Y-103848000D01*
X139408000Y-103848000D01*
X139408000Y-105668339D01*
X139645704Y-105770056D01*
X139851914Y-105713700D01*
X140363133Y-105406371D01*
X140605000Y-105079352D01*
X140846867Y-105406371D01*
X141358086Y-105713700D01*
X141564296Y-105770056D01*
X141802000Y-105668339D01*
X141802000Y-103848000D01*
X141948000Y-103848000D01*
X141948000Y-105668339D01*
X142185704Y-105770056D01*
X142391914Y-105713700D01*
X142903133Y-105406371D01*
X143145000Y-105079352D01*
X143386867Y-105406371D01*
X143898086Y-105713700D01*
X144104296Y-105770056D01*
X144342000Y-105668339D01*
X144342000Y-103848000D01*
X144488000Y-103848000D01*
X144488000Y-105668339D01*
X144725704Y-105770056D01*
X144931914Y-105713700D01*
X145443133Y-105406371D01*
X145685000Y-105079352D01*
X145926867Y-105406371D01*
X146438086Y-105713700D01*
X146644296Y-105770056D01*
X146882000Y-105668339D01*
X146882000Y-103848000D01*
X147028000Y-103848000D01*
X147028000Y-105668339D01*
X147265704Y-105770056D01*
X147471914Y-105713700D01*
X147983133Y-105406371D01*
X148225000Y-105079352D01*
X148466867Y-105406371D01*
X148978086Y-105713700D01*
X149184296Y-105770056D01*
X149422000Y-105668339D01*
X149422000Y-103848000D01*
X149568000Y-103848000D01*
X149568000Y-105668339D01*
X149805704Y-105770056D01*
X150011914Y-105713700D01*
X150523133Y-105406371D01*
X150765000Y-105079352D01*
X151006867Y-105406371D01*
X151518086Y-105713700D01*
X151724296Y-105770056D01*
X151962000Y-105668339D01*
X151962000Y-103848000D01*
X152108000Y-103848000D01*
X152108000Y-105668339D01*
X152345704Y-105770056D01*
X152551914Y-105713700D01*
X153063133Y-105406371D01*
X153417828Y-104926801D01*
X153562000Y-104348000D01*
X153562000Y-103848000D01*
X152108000Y-103848000D01*
X151962000Y-103848000D01*
X149568000Y-103848000D01*
X149422000Y-103848000D01*
X147028000Y-103848000D01*
X146882000Y-103848000D01*
X144488000Y-103848000D01*
X144342000Y-103848000D01*
X141948000Y-103848000D01*
X141802000Y-103848000D01*
X139408000Y-103848000D01*
X139262000Y-103848000D01*
X136868000Y-103848000D01*
X136722000Y-103848000D01*
X134328000Y-103848000D01*
X134182000Y-103848000D01*
X131788000Y-103848000D01*
X131642000Y-103848000D01*
X129248000Y-103848000D01*
X129102000Y-103848000D01*
X126708000Y-103848000D01*
X126562000Y-103848000D01*
X126542000Y-103848000D01*
X126542000Y-103702000D01*
X126562000Y-103702000D01*
X126562000Y-103682000D01*
X126708000Y-103682000D01*
X126708000Y-103702000D01*
X129102000Y-103702000D01*
X129102000Y-103682000D01*
X129248000Y-103682000D01*
X129248000Y-103702000D01*
X131642000Y-103702000D01*
X131642000Y-103682000D01*
X131788000Y-103682000D01*
X131788000Y-103702000D01*
X134182000Y-103702000D01*
X134182000Y-103682000D01*
X134328000Y-103682000D01*
X134328000Y-103702000D01*
X136722000Y-103702000D01*
X136722000Y-103682000D01*
X136868000Y-103682000D01*
X136868000Y-103702000D01*
X139262000Y-103702000D01*
X139262000Y-101881661D01*
X139408000Y-101881661D01*
X139408000Y-103702000D01*
X141802000Y-103702000D01*
X141802000Y-101881661D01*
X141948000Y-101881661D01*
X141948000Y-103702000D01*
X144342000Y-103702000D01*
X144342000Y-101881661D01*
X144104296Y-101779944D01*
X143898086Y-101836300D01*
X143386867Y-102143629D01*
X143145000Y-102470648D01*
X142903133Y-102143629D01*
X142391914Y-101836300D01*
X142185704Y-101779944D01*
X141948000Y-101881661D01*
X141802000Y-101881661D01*
X141564296Y-101779944D01*
X141358086Y-101836300D01*
X140846867Y-102143629D01*
X140605000Y-102470648D01*
X140363133Y-102143629D01*
X139851914Y-101836300D01*
X139645704Y-101779944D01*
X139408000Y-101881661D01*
X139262000Y-101881661D01*
X139061293Y-101795775D01*
X141969984Y-98887083D01*
X142038779Y-98887143D01*
X142342846Y-98761505D01*
X142575688Y-98529070D01*
X142701856Y-98225222D01*
X142702102Y-97943279D01*
X142954752Y-97774463D01*
X143145000Y-97489737D01*
X143335248Y-97774463D01*
X143588102Y-97943415D01*
X143587857Y-98223779D01*
X143713495Y-98527846D01*
X143763000Y-98577438D01*
X143763000Y-99964995D01*
X143762999Y-99965000D01*
X143797604Y-100138966D01*
X143812631Y-100214510D01*
X143903490Y-100350491D01*
X143953966Y-100426034D01*
X145223964Y-101696031D01*
X145223966Y-101696034D01*
X145435490Y-101837369D01*
X145685000Y-101887000D01*
X146353750Y-101887000D01*
X145926867Y-102143629D01*
X145685000Y-102470648D01*
X145443133Y-102143629D01*
X144931914Y-101836300D01*
X144725704Y-101779944D01*
X144488000Y-101881661D01*
X144488000Y-103702000D01*
X146882000Y-103702000D01*
X146882000Y-103682000D01*
X147028000Y-103682000D01*
X147028000Y-103702000D01*
X149422000Y-103702000D01*
X149422000Y-103682000D01*
X149568000Y-103682000D01*
X149568000Y-103702000D01*
X151962000Y-103702000D01*
X151962000Y-103682000D01*
X152108000Y-103682000D01*
X152108000Y-103702000D01*
X153562000Y-103702000D01*
X153562000Y-103202000D01*
X153417828Y-102623199D01*
X153063133Y-102143629D01*
X152636250Y-101887000D01*
X153669932Y-101887000D01*
X153923000Y-102140067D01*
X153923000Y-105162327D01*
X153874312Y-105210930D01*
X153748144Y-105514778D01*
X153747857Y-105843779D01*
X153873495Y-106147846D01*
X154105930Y-106380688D01*
X154391285Y-106499177D01*
X154508495Y-106782846D01*
X154740930Y-107015688D01*
X155044778Y-107141856D01*
X155373779Y-107142143D01*
X155677846Y-107016505D01*
X155910688Y-106784070D01*
X156036856Y-106480222D01*
X156037143Y-106151221D01*
X155911505Y-105847154D01*
X155862000Y-105797562D01*
X155862000Y-103848000D01*
X156223000Y-103848000D01*
X156223000Y-104348000D01*
X156367172Y-104926801D01*
X156721867Y-105406371D01*
X157233086Y-105713700D01*
X157439296Y-105770056D01*
X157677000Y-105668339D01*
X157677000Y-103848000D01*
X157823000Y-103848000D01*
X157823000Y-105668339D01*
X158060704Y-105770056D01*
X158266914Y-105713700D01*
X158778133Y-105406371D01*
X159020000Y-105079352D01*
X159261867Y-105406371D01*
X159773086Y-105713700D01*
X159979296Y-105770056D01*
X160217000Y-105668339D01*
X160217000Y-103848000D01*
X160363000Y-103848000D01*
X160363000Y-105668339D01*
X160600704Y-105770056D01*
X160806914Y-105713700D01*
X161318133Y-105406371D01*
X161560000Y-105079352D01*
X161801867Y-105406371D01*
X162313086Y-105713700D01*
X162519296Y-105770056D01*
X162757000Y-105668339D01*
X162757000Y-103848000D01*
X162903000Y-103848000D01*
X162903000Y-105668339D01*
X163140704Y-105770056D01*
X163346914Y-105713700D01*
X163858133Y-105406371D01*
X164212828Y-104926801D01*
X164357000Y-104348000D01*
X164357000Y-103848000D01*
X162903000Y-103848000D01*
X162757000Y-103848000D01*
X160363000Y-103848000D01*
X160217000Y-103848000D01*
X157823000Y-103848000D01*
X157677000Y-103848000D01*
X156223000Y-103848000D01*
X155862000Y-103848000D01*
X155862000Y-103202000D01*
X156223000Y-103202000D01*
X156223000Y-103702000D01*
X157677000Y-103702000D01*
X157677000Y-101881661D01*
X157823000Y-101881661D01*
X157823000Y-103702000D01*
X160217000Y-103702000D01*
X160217000Y-101881661D01*
X160363000Y-101881661D01*
X160363000Y-103702000D01*
X162757000Y-103702000D01*
X162757000Y-101881661D01*
X162903000Y-101881661D01*
X162903000Y-103702000D01*
X164357000Y-103702000D01*
X164357000Y-103202000D01*
X164212828Y-102623199D01*
X163858133Y-102143629D01*
X163346914Y-101836300D01*
X163140704Y-101779944D01*
X162903000Y-101881661D01*
X162757000Y-101881661D01*
X162519296Y-101779944D01*
X162313086Y-101836300D01*
X161801867Y-102143629D01*
X161560000Y-102470648D01*
X161318133Y-102143629D01*
X160806914Y-101836300D01*
X160600704Y-101779944D01*
X160363000Y-101881661D01*
X160217000Y-101881661D01*
X159979296Y-101779944D01*
X159773086Y-101836300D01*
X159261867Y-102143629D01*
X159020000Y-102470648D01*
X158778133Y-102143629D01*
X158266914Y-101836300D01*
X158060704Y-101779944D01*
X157823000Y-101881661D01*
X157677000Y-101881661D01*
X157439296Y-101779944D01*
X157233086Y-101836300D01*
X156721867Y-102143629D01*
X156367172Y-102623199D01*
X156223000Y-103202000D01*
X155862000Y-103202000D01*
X155862000Y-94885000D01*
X155812369Y-94635490D01*
X155671034Y-94423966D01*
X155671031Y-94423964D01*
X153497083Y-92250015D01*
X153497143Y-92181221D01*
X153371505Y-91877154D01*
X153221613Y-91727000D01*
X154304932Y-91727000D01*
X156922917Y-94344985D01*
X156922898Y-94366721D01*
X156670248Y-94535537D01*
X156339236Y-95030931D01*
X156223000Y-95615289D01*
X156223000Y-96694711D01*
X156339236Y-97279069D01*
X156670248Y-97774463D01*
X157165642Y-98105475D01*
X157750000Y-98221711D01*
X158334358Y-98105475D01*
X158829752Y-97774463D01*
X159020000Y-97489737D01*
X159210248Y-97774463D01*
X159705642Y-98105475D01*
X160290000Y-98221711D01*
X160874358Y-98105475D01*
X161369752Y-97774463D01*
X161560000Y-97489737D01*
X161750248Y-97774463D01*
X162245642Y-98105475D01*
X162830000Y-98221711D01*
X163414358Y-98105475D01*
X163909752Y-97774463D01*
X164240764Y-97279069D01*
X164357000Y-96694711D01*
X164357000Y-95615289D01*
X164240764Y-95030931D01*
X163909752Y-94535537D01*
X163656898Y-94366585D01*
X163657143Y-94086221D01*
X163531505Y-93782154D01*
X163299070Y-93549312D01*
X162995222Y-93423144D01*
X162925150Y-93423083D01*
X158846034Y-89343966D01*
X158730847Y-89267001D01*
X158634510Y-89202631D01*
X158593113Y-89194396D01*
X158385000Y-89152999D01*
X158384995Y-89153000D01*
X151199231Y-89153000D01*
X151304660Y-89085158D01*
X151424990Y-88909049D01*
X151467324Y-88700000D01*
X151467324Y-87100000D01*
X151430577Y-86904706D01*
X151315158Y-86725340D01*
X151139049Y-86605010D01*
X150930000Y-86562676D01*
X150698707Y-86562676D01*
X151094328Y-86298331D01*
X151248229Y-86068000D01*
X159398000Y-86068000D01*
X159398000Y-87068000D01*
X159542172Y-87646801D01*
X159896867Y-88126371D01*
X160408086Y-88433700D01*
X160614296Y-88490056D01*
X160852000Y-88388339D01*
X160852000Y-86068000D01*
X160998000Y-86068000D01*
X160998000Y-88388339D01*
X161235704Y-88490056D01*
X161441914Y-88433700D01*
X161953133Y-88126371D01*
X162195000Y-87799352D01*
X162436867Y-88126371D01*
X162948086Y-88433700D01*
X163154296Y-88490056D01*
X163392000Y-88388339D01*
X163392000Y-86068000D01*
X163538000Y-86068000D01*
X163538000Y-88388339D01*
X163775704Y-88490056D01*
X163981914Y-88433700D01*
X164493133Y-88126371D01*
X164847828Y-87646801D01*
X164992000Y-87068000D01*
X164992000Y-86068000D01*
X163538000Y-86068000D01*
X163392000Y-86068000D01*
X160998000Y-86068000D01*
X160852000Y-86068000D01*
X159398000Y-86068000D01*
X151248229Y-86068000D01*
X151381985Y-85867821D01*
X151482997Y-85360000D01*
X151395874Y-84922000D01*
X159398000Y-84922000D01*
X159398000Y-85922000D01*
X160852000Y-85922000D01*
X160852000Y-83601661D01*
X160998000Y-83601661D01*
X160998000Y-85922000D01*
X163392000Y-85922000D01*
X163392000Y-83601661D01*
X163538000Y-83601661D01*
X163538000Y-85922000D01*
X164992000Y-85922000D01*
X164992000Y-84922000D01*
X164847828Y-84343199D01*
X164493133Y-83863629D01*
X163981914Y-83556300D01*
X163775704Y-83499944D01*
X163538000Y-83601661D01*
X163392000Y-83601661D01*
X163154296Y-83499944D01*
X162948086Y-83556300D01*
X162436867Y-83863629D01*
X162195000Y-84190648D01*
X161953133Y-83863629D01*
X161441914Y-83556300D01*
X161235704Y-83499944D01*
X160998000Y-83601661D01*
X160852000Y-83601661D01*
X160614296Y-83499944D01*
X160408086Y-83556300D01*
X159896867Y-83863629D01*
X159542172Y-84343199D01*
X159398000Y-84922000D01*
X151395874Y-84922000D01*
X151381985Y-84852179D01*
X151094328Y-84421669D01*
X150663818Y-84134012D01*
X150442555Y-84090000D01*
X150663818Y-84045988D01*
X151094328Y-83758331D01*
X151381985Y-83327821D01*
X151482997Y-82820000D01*
X151381985Y-82312179D01*
X151094328Y-81881669D01*
X150663818Y-81594012D01*
X150442555Y-81550000D01*
X150663818Y-81505988D01*
X151094328Y-81218331D01*
X151381985Y-80787821D01*
X151482997Y-80280000D01*
X151381985Y-79772179D01*
X151094328Y-79341669D01*
X150663818Y-79054012D01*
X150442555Y-79010000D01*
X150663818Y-78965988D01*
X151094328Y-78678331D01*
X151381985Y-78247821D01*
X151482997Y-77740000D01*
X151381985Y-77232179D01*
X151094328Y-76801669D01*
X150663818Y-76514012D01*
X150442555Y-76470000D01*
X150663818Y-76425988D01*
X151094328Y-76138331D01*
X151381985Y-75707821D01*
X151482997Y-75200000D01*
X151381985Y-74692179D01*
X151094328Y-74261669D01*
X150976438Y-74182897D01*
X153297779Y-74182897D01*
X153491781Y-74652417D01*
X153850693Y-75011957D01*
X154319875Y-75206778D01*
X154827897Y-75207221D01*
X155297417Y-75013219D01*
X155656957Y-74654307D01*
X155750097Y-74430000D01*
X157222676Y-74430000D01*
X157222676Y-75930000D01*
X157259423Y-76125294D01*
X157374842Y-76304660D01*
X157550951Y-76424990D01*
X157558038Y-76426425D01*
X157557857Y-76633779D01*
X157683495Y-76937846D01*
X157915930Y-77170688D01*
X158219778Y-77296856D01*
X158548779Y-77297143D01*
X158852846Y-77171505D01*
X159085688Y-76939070D01*
X159211856Y-76635222D01*
X159212038Y-76426237D01*
X159384660Y-76315158D01*
X159504990Y-76139049D01*
X159547324Y-75930000D01*
X159547324Y-74430000D01*
X159510577Y-74234706D01*
X159395158Y-74055340D01*
X159219049Y-73935010D01*
X159184706Y-73928055D01*
X159308521Y-73876769D01*
X159456769Y-73728522D01*
X159537000Y-73534827D01*
X159537000Y-72884750D01*
X159405250Y-72753000D01*
X158458000Y-72753000D01*
X158458000Y-72773000D01*
X158312000Y-72773000D01*
X158312000Y-72753000D01*
X157364750Y-72753000D01*
X157233000Y-72884750D01*
X157233000Y-73534827D01*
X157313231Y-73728522D01*
X157461479Y-73876769D01*
X157581134Y-73926332D01*
X157564706Y-73929423D01*
X157385340Y-74044842D01*
X157265010Y-74220951D01*
X157222676Y-74430000D01*
X155750097Y-74430000D01*
X155851778Y-74185125D01*
X155852221Y-73677103D01*
X155658219Y-73207583D01*
X155299307Y-72848043D01*
X154830125Y-72653222D01*
X154322103Y-72652779D01*
X153852583Y-72846781D01*
X153493043Y-73205693D01*
X153298222Y-73674875D01*
X153297779Y-74182897D01*
X150976438Y-74182897D01*
X150663818Y-73974012D01*
X150442555Y-73930000D01*
X150663818Y-73885988D01*
X151094328Y-73598331D01*
X151381985Y-73167821D01*
X151482997Y-72660000D01*
X151381985Y-72152179D01*
X151163488Y-71825173D01*
X157233000Y-71825173D01*
X157233000Y-72475250D01*
X157364750Y-72607000D01*
X158312000Y-72607000D01*
X158312000Y-71534750D01*
X158180250Y-71403000D01*
X157655173Y-71403000D01*
X157461479Y-71483231D01*
X157313231Y-71631478D01*
X157233000Y-71825173D01*
X151163488Y-71825173D01*
X151094328Y-71721669D01*
X150663818Y-71434012D01*
X150442555Y-71390000D01*
X150663818Y-71345988D01*
X151094328Y-71058331D01*
X151381985Y-70627821D01*
X151446247Y-70304750D01*
X157233000Y-70304750D01*
X157233000Y-70954827D01*
X157313231Y-71148522D01*
X157461479Y-71296769D01*
X157655173Y-71377000D01*
X158180250Y-71377000D01*
X158312000Y-71245250D01*
X158312000Y-70173000D01*
X157364750Y-70173000D01*
X157233000Y-70304750D01*
X151446247Y-70304750D01*
X151482997Y-70120000D01*
X151381985Y-69612179D01*
X151095149Y-69182897D01*
X153297779Y-69182897D01*
X153491781Y-69652417D01*
X153850693Y-70011957D01*
X154319875Y-70206778D01*
X154827897Y-70207221D01*
X155297417Y-70013219D01*
X155656957Y-69654307D01*
X155851778Y-69185125D01*
X155852221Y-68677103D01*
X155658219Y-68207583D01*
X155299307Y-67848043D01*
X154830125Y-67653222D01*
X154322103Y-67652779D01*
X153852583Y-67846781D01*
X153493043Y-68205693D01*
X153298222Y-68674875D01*
X153297779Y-69182897D01*
X151095149Y-69182897D01*
X151094328Y-69181669D01*
X150663818Y-68894012D01*
X150462981Y-68854063D01*
X150884551Y-68671603D01*
X151244853Y-68299756D01*
X151427258Y-67859376D01*
X151323019Y-67653000D01*
X150203000Y-67653000D01*
X150203000Y-67673000D01*
X150057000Y-67673000D01*
X150057000Y-67653000D01*
X148936981Y-67653000D01*
X148832742Y-67859376D01*
X149015147Y-68299756D01*
X149375449Y-68671603D01*
X149797019Y-68854063D01*
X149596182Y-68894012D01*
X149165672Y-69181669D01*
X148878015Y-69612179D01*
X148777003Y-70120000D01*
X148878015Y-70627821D01*
X149165672Y-71058331D01*
X149596182Y-71345988D01*
X149817445Y-71390000D01*
X149596182Y-71434012D01*
X149165672Y-71721669D01*
X148878015Y-72152179D01*
X148777003Y-72660000D01*
X148878015Y-73167821D01*
X149165672Y-73598331D01*
X149596182Y-73885988D01*
X149817445Y-73930000D01*
X149596182Y-73974012D01*
X149165672Y-74261669D01*
X148878015Y-74692179D01*
X148777003Y-75200000D01*
X148878015Y-75707821D01*
X149165672Y-76138331D01*
X149596182Y-76425988D01*
X149817445Y-76470000D01*
X149596182Y-76514012D01*
X149165672Y-76801669D01*
X148878015Y-77232179D01*
X148777003Y-77740000D01*
X148878015Y-78247821D01*
X149165672Y-78678331D01*
X149596182Y-78965988D01*
X149817445Y-79010000D01*
X149596182Y-79054012D01*
X149165672Y-79341669D01*
X148878015Y-79772179D01*
X148777003Y-80280000D01*
X148878015Y-80787821D01*
X149165672Y-81218331D01*
X149596182Y-81505988D01*
X149817445Y-81550000D01*
X149596182Y-81594012D01*
X149165672Y-81881669D01*
X148878015Y-82312179D01*
X148777003Y-82820000D01*
X148878015Y-83327821D01*
X149165672Y-83758331D01*
X149596182Y-84045988D01*
X149817445Y-84090000D01*
X149596182Y-84134012D01*
X149165672Y-84421669D01*
X148878015Y-84852179D01*
X148777003Y-85360000D01*
X148878015Y-85867821D01*
X149165672Y-86298331D01*
X149561293Y-86562676D01*
X149330000Y-86562676D01*
X149134706Y-86599423D01*
X148955340Y-86714842D01*
X148835010Y-86890951D01*
X148792676Y-87100000D01*
X148792676Y-88700000D01*
X148829423Y-88895294D01*
X148944842Y-89074660D01*
X149059497Y-89153000D01*
X142908020Y-89153000D01*
X143043818Y-89125988D01*
X143474328Y-88838331D01*
X143761985Y-88407821D01*
X143862997Y-87900000D01*
X143761985Y-87392179D01*
X143474328Y-86961669D01*
X143043818Y-86674012D01*
X142822555Y-86630000D01*
X143043818Y-86585988D01*
X143474328Y-86298331D01*
X143761985Y-85867821D01*
X143862997Y-85360000D01*
X143761985Y-84852179D01*
X143474328Y-84421669D01*
X143043818Y-84134012D01*
X142822555Y-84090000D01*
X143043818Y-84045988D01*
X143474328Y-83758331D01*
X143761985Y-83327821D01*
X143862997Y-82820000D01*
X143761985Y-82312179D01*
X143474328Y-81881669D01*
X143043818Y-81594012D01*
X142822555Y-81550000D01*
X143043818Y-81505988D01*
X143474328Y-81218331D01*
X143761985Y-80787821D01*
X143862997Y-80280000D01*
X143761985Y-79772179D01*
X143474328Y-79341669D01*
X143043818Y-79054012D01*
X142822555Y-79010000D01*
X143043818Y-78965988D01*
X143474328Y-78678331D01*
X143761985Y-78247821D01*
X143862997Y-77740000D01*
X143761985Y-77232179D01*
X143474328Y-76801669D01*
X143043818Y-76514012D01*
X142822555Y-76470000D01*
X143043818Y-76425988D01*
X143474328Y-76138331D01*
X143761985Y-75707821D01*
X143862997Y-75200000D01*
X143761985Y-74692179D01*
X143474328Y-74261669D01*
X143043818Y-73974012D01*
X142822555Y-73930000D01*
X143043818Y-73885988D01*
X143474328Y-73598331D01*
X143761985Y-73167821D01*
X143862997Y-72660000D01*
X143761985Y-72152179D01*
X143474328Y-71721669D01*
X143043818Y-71434012D01*
X142822555Y-71390000D01*
X143043818Y-71345988D01*
X143474328Y-71058331D01*
X143761985Y-70627821D01*
X143862997Y-70120000D01*
X143761985Y-69612179D01*
X143474328Y-69181669D01*
X143043818Y-68894012D01*
X142822555Y-68850000D01*
X143043818Y-68805988D01*
X143474328Y-68518331D01*
X143761985Y-68087821D01*
X143862997Y-67580000D01*
X143807426Y-67300624D01*
X148832742Y-67300624D01*
X148936981Y-67507000D01*
X150057000Y-67507000D01*
X150057000Y-66386753D01*
X150203000Y-66386753D01*
X150203000Y-67507000D01*
X151323019Y-67507000D01*
X151427258Y-67300624D01*
X151244853Y-66860244D01*
X151234928Y-66850000D01*
X157222676Y-66850000D01*
X157222676Y-68350000D01*
X157259423Y-68545294D01*
X157374842Y-68724660D01*
X157550951Y-68844990D01*
X157585294Y-68851945D01*
X157461479Y-68903231D01*
X157313231Y-69051478D01*
X157233000Y-69245173D01*
X157233000Y-69895250D01*
X157364750Y-70027000D01*
X158312000Y-70027000D01*
X158312000Y-70007000D01*
X158458000Y-70007000D01*
X158458000Y-70027000D01*
X158478000Y-70027000D01*
X158478000Y-70173000D01*
X158458000Y-70173000D01*
X158458000Y-71245250D01*
X158589750Y-71377000D01*
X159114827Y-71377000D01*
X159308521Y-71296769D01*
X159398000Y-71207291D01*
X159398000Y-71572709D01*
X159308521Y-71483231D01*
X159114827Y-71403000D01*
X158589750Y-71403000D01*
X158458000Y-71534750D01*
X158458000Y-72607000D01*
X159405250Y-72607000D01*
X159537000Y-72475250D01*
X159537000Y-72422934D01*
X159845248Y-72884259D01*
X160340642Y-73215271D01*
X160925000Y-73331507D01*
X161509358Y-73215271D01*
X162004752Y-72884259D01*
X162195000Y-72599533D01*
X162385248Y-72884259D01*
X162880642Y-73215271D01*
X163465000Y-73331507D01*
X164049358Y-73215271D01*
X164544752Y-72884259D01*
X164875764Y-72388865D01*
X164992000Y-71804507D01*
X164992000Y-69705493D01*
X164875764Y-69121135D01*
X164544752Y-68625741D01*
X164049358Y-68294729D01*
X163465000Y-68178493D01*
X162880642Y-68294729D01*
X162385248Y-68625741D01*
X162195000Y-68910467D01*
X162004752Y-68625741D01*
X161509358Y-68294729D01*
X160925000Y-68178493D01*
X160340642Y-68294729D01*
X159845248Y-68625741D01*
X159514236Y-69121135D01*
X159504953Y-69167804D01*
X159456769Y-69051478D01*
X159308521Y-68903231D01*
X159188866Y-68853668D01*
X159205294Y-68850577D01*
X159384660Y-68735158D01*
X159504990Y-68559049D01*
X159547324Y-68350000D01*
X159547324Y-66850000D01*
X159510577Y-66654706D01*
X159395158Y-66475340D01*
X159219049Y-66355010D01*
X159211962Y-66353575D01*
X159212143Y-66146221D01*
X159086505Y-65842154D01*
X158854070Y-65609312D01*
X158550222Y-65483144D01*
X158221221Y-65482857D01*
X157917154Y-65608495D01*
X157684312Y-65840930D01*
X157558144Y-66144778D01*
X157557962Y-66353763D01*
X157385340Y-66464842D01*
X157265010Y-66640951D01*
X157222676Y-66850000D01*
X151234928Y-66850000D01*
X150884551Y-66488397D01*
X150409376Y-66282736D01*
X150203000Y-66386753D01*
X150057000Y-66386753D01*
X149850624Y-66282736D01*
X149375449Y-66488397D01*
X149015147Y-66860244D01*
X148832742Y-67300624D01*
X143807426Y-67300624D01*
X143761985Y-67072179D01*
X143474328Y-66641669D01*
X143043818Y-66354012D01*
X142535997Y-66253000D01*
X142484003Y-66253000D01*
X141976182Y-66354012D01*
X141545672Y-66641669D01*
X141258015Y-67072179D01*
X141157003Y-67580000D01*
X141258015Y-68087821D01*
X141545672Y-68518331D01*
X141976182Y-68805988D01*
X142197445Y-68850000D01*
X141976182Y-68894012D01*
X141545672Y-69181669D01*
X141258015Y-69612179D01*
X141157003Y-70120000D01*
X141258015Y-70627821D01*
X141545672Y-71058331D01*
X141976182Y-71345988D01*
X142197445Y-71390000D01*
X141976182Y-71434012D01*
X141545672Y-71721669D01*
X141258015Y-72152179D01*
X141157003Y-72660000D01*
X141258015Y-73167821D01*
X141545672Y-73598331D01*
X141976182Y-73885988D01*
X142197445Y-73930000D01*
X141976182Y-73974012D01*
X141545672Y-74261669D01*
X141258015Y-74692179D01*
X141157003Y-75200000D01*
X141258015Y-75707821D01*
X141545672Y-76138331D01*
X141976182Y-76425988D01*
X142197445Y-76470000D01*
X141976182Y-76514012D01*
X141545672Y-76801669D01*
X141258015Y-77232179D01*
X141157003Y-77740000D01*
X141258015Y-78247821D01*
X141545672Y-78678331D01*
X141976182Y-78965988D01*
X142197445Y-79010000D01*
X141976182Y-79054012D01*
X141545672Y-79341669D01*
X141258015Y-79772179D01*
X141157003Y-80280000D01*
X141258015Y-80787821D01*
X141545672Y-81218331D01*
X141976182Y-81505988D01*
X142197445Y-81550000D01*
X141976182Y-81594012D01*
X141545672Y-81881669D01*
X141258015Y-82312179D01*
X141157324Y-82818386D01*
X141157324Y-82625000D01*
X141120577Y-82429706D01*
X141005158Y-82250340D01*
X140829049Y-82130010D01*
X140797054Y-82123531D01*
X140797143Y-82021221D01*
X140671505Y-81717154D01*
X140622000Y-81667562D01*
X140622000Y-80915005D01*
X140622001Y-80915000D01*
X140572370Y-80665491D01*
X140443179Y-80472143D01*
X140431034Y-80453966D01*
X140431031Y-80453964D01*
X134907000Y-74929932D01*
X134907000Y-74447673D01*
X134954756Y-74400000D01*
X137362676Y-74400000D01*
X137362676Y-76000000D01*
X137399423Y-76195294D01*
X137514842Y-76374660D01*
X137690951Y-76494990D01*
X137900000Y-76537324D01*
X139500000Y-76537324D01*
X139695294Y-76500577D01*
X139874660Y-76385158D01*
X139994990Y-76209049D01*
X140037324Y-76000000D01*
X140037324Y-74400000D01*
X140000577Y-74204706D01*
X139885158Y-74025340D01*
X139709049Y-73905010D01*
X139500000Y-73862676D01*
X139197919Y-73862676D01*
X139454551Y-73751603D01*
X139814853Y-73379756D01*
X139997258Y-72939376D01*
X139893019Y-72733000D01*
X138773000Y-72733000D01*
X138773000Y-72753000D01*
X138627000Y-72753000D01*
X138627000Y-72733000D01*
X137506981Y-72733000D01*
X137402742Y-72939376D01*
X137585147Y-73379756D01*
X137945449Y-73751603D01*
X138202081Y-73862676D01*
X137900000Y-73862676D01*
X137704706Y-73899423D01*
X137525340Y-74014842D01*
X137405010Y-74190951D01*
X137362676Y-74400000D01*
X134954756Y-74400000D01*
X134955688Y-74399070D01*
X135081856Y-74095222D01*
X135082143Y-73766221D01*
X134956505Y-73462154D01*
X134907000Y-73412562D01*
X134907000Y-70637673D01*
X134955688Y-70589070D01*
X135081856Y-70285222D01*
X135082143Y-69956221D01*
X134956505Y-69652154D01*
X134724070Y-69419312D01*
X134420222Y-69293144D01*
X134091221Y-69292857D01*
X133787154Y-69418495D01*
X133554312Y-69650930D01*
X133428144Y-69954778D01*
X133427857Y-70283779D01*
X133553495Y-70587846D01*
X133603000Y-70637438D01*
X133603000Y-73412327D01*
X133554312Y-73460930D01*
X133428144Y-73764778D01*
X133427857Y-74093779D01*
X133553495Y-74397846D01*
X133603000Y-74447438D01*
X133603000Y-75199995D01*
X133602999Y-75200000D01*
X133631717Y-75344369D01*
X133652631Y-75449510D01*
X133757335Y-75606212D01*
X133793966Y-75661034D01*
X139318000Y-81185067D01*
X139318000Y-81379067D01*
X139302370Y-81300491D01*
X139247472Y-81218331D01*
X139161034Y-81088966D01*
X139161031Y-81088964D01*
X138526034Y-80453966D01*
X138365206Y-80346505D01*
X138314510Y-80312631D01*
X138273113Y-80304396D01*
X138065000Y-80262999D01*
X138064995Y-80263000D01*
X119285067Y-80263000D01*
X118572083Y-79550015D01*
X118572143Y-79481221D01*
X118446505Y-79177154D01*
X118214070Y-78944312D01*
X117910222Y-78818144D01*
X117581221Y-78817857D01*
X117362035Y-78908423D01*
X117321722Y-78848091D01*
X116956097Y-78603788D01*
X116524813Y-78518000D01*
X115155187Y-78518000D01*
X114723903Y-78603788D01*
X114358278Y-78848091D01*
X114113975Y-79213716D01*
X114028187Y-79645000D01*
X114113975Y-80076284D01*
X114358278Y-80441909D01*
X114723903Y-80686212D01*
X115155187Y-80772000D01*
X116524813Y-80772000D01*
X116956097Y-80686212D01*
X117321722Y-80441909D01*
X117362105Y-80381471D01*
X117579778Y-80471856D01*
X117649849Y-80471917D01*
X118553964Y-81376031D01*
X118553966Y-81376034D01*
X118765490Y-81517369D01*
X118844072Y-81533000D01*
X118262673Y-81533000D01*
X118214070Y-81484312D01*
X117910222Y-81358144D01*
X117581221Y-81357857D01*
X117362035Y-81448423D01*
X117321722Y-81388091D01*
X116956097Y-81143788D01*
X116524813Y-81058000D01*
X115155187Y-81058000D01*
X114723903Y-81143788D01*
X114358278Y-81388091D01*
X114113975Y-81753716D01*
X114028187Y-82185000D01*
X114113975Y-82616284D01*
X114358278Y-82981909D01*
X114723903Y-83226212D01*
X115155187Y-83312000D01*
X116524813Y-83312000D01*
X116956097Y-83226212D01*
X117321722Y-82981909D01*
X117362105Y-82921471D01*
X117579778Y-83011856D01*
X117908779Y-83012143D01*
X118212846Y-82886505D01*
X118262438Y-82837000D01*
X118844072Y-82837000D01*
X118765490Y-82852631D01*
X118553966Y-82993966D01*
X118553964Y-82993969D01*
X117650015Y-83897917D01*
X117581221Y-83897857D01*
X117362035Y-83988423D01*
X117321722Y-83928091D01*
X116956097Y-83683788D01*
X116524813Y-83598000D01*
X115155187Y-83598000D01*
X114723903Y-83683788D01*
X114358278Y-83928091D01*
X114113975Y-84293716D01*
X114028187Y-84725000D01*
X114113975Y-85156284D01*
X114286896Y-85415078D01*
X114275039Y-85423000D01*
X114108966Y-85533966D01*
X114108964Y-85533969D01*
X113952000Y-85690933D01*
X113952000Y-77105000D01*
X114028187Y-77105000D01*
X114113975Y-77536284D01*
X114358278Y-77901909D01*
X114723903Y-78146212D01*
X115155187Y-78232000D01*
X116524813Y-78232000D01*
X116956097Y-78146212D01*
X117321722Y-77901909D01*
X117566025Y-77536284D01*
X117651813Y-77105000D01*
X117566025Y-76673716D01*
X117321722Y-76308091D01*
X116956097Y-76063788D01*
X116524813Y-75978000D01*
X115155187Y-75978000D01*
X114723903Y-76063788D01*
X114358278Y-76308091D01*
X114113975Y-76673716D01*
X114028187Y-77105000D01*
X113952000Y-77105000D01*
X113952000Y-74565000D01*
X114028187Y-74565000D01*
X114113975Y-74996284D01*
X114358278Y-75361909D01*
X114723903Y-75606212D01*
X115155187Y-75692000D01*
X116524813Y-75692000D01*
X116956097Y-75606212D01*
X117321722Y-75361909D01*
X117566025Y-74996284D01*
X117651813Y-74565000D01*
X117566025Y-74133716D01*
X117321722Y-73768091D01*
X116956097Y-73523788D01*
X116524813Y-73438000D01*
X115155187Y-73438000D01*
X114723903Y-73523788D01*
X114358278Y-73768091D01*
X114113975Y-74133716D01*
X114028187Y-74565000D01*
X113952000Y-74565000D01*
X113952000Y-72025000D01*
X114028187Y-72025000D01*
X114113975Y-72456284D01*
X114358278Y-72821909D01*
X114723903Y-73066212D01*
X115155187Y-73152000D01*
X116524813Y-73152000D01*
X116956097Y-73066212D01*
X117321722Y-72821909D01*
X117566025Y-72456284D01*
X117619235Y-72188779D01*
X120727857Y-72188779D01*
X120853495Y-72492846D01*
X120903000Y-72542438D01*
X120903000Y-77857327D01*
X120854312Y-77905930D01*
X120728144Y-78209778D01*
X120727857Y-78538779D01*
X120853495Y-78842846D01*
X121085930Y-79075688D01*
X121389778Y-79201856D01*
X121718779Y-79202143D01*
X122022846Y-79076505D01*
X122255688Y-78844070D01*
X122381856Y-78540222D01*
X122382143Y-78211221D01*
X122256505Y-77907154D01*
X122207000Y-77857562D01*
X122207000Y-76732798D01*
X126577771Y-76732798D01*
X126779369Y-77220703D01*
X127152334Y-77594319D01*
X127639885Y-77796769D01*
X128167798Y-77797229D01*
X128655703Y-77595631D01*
X129029319Y-77222666D01*
X129231769Y-76735115D01*
X129232229Y-76207202D01*
X129030631Y-75719297D01*
X128657666Y-75345681D01*
X128170115Y-75143231D01*
X127642202Y-75142771D01*
X127154297Y-75344369D01*
X126780681Y-75717334D01*
X126578231Y-76204885D01*
X126577771Y-76732798D01*
X122207000Y-76732798D01*
X122207000Y-72542673D01*
X122255688Y-72494070D01*
X122381856Y-72190222D01*
X122382143Y-71861221D01*
X122256505Y-71557154D01*
X122024070Y-71324312D01*
X121720222Y-71198144D01*
X121391221Y-71197857D01*
X121087154Y-71323495D01*
X120854312Y-71555930D01*
X120728144Y-71859778D01*
X120727857Y-72188779D01*
X117619235Y-72188779D01*
X117651813Y-72025000D01*
X117566025Y-71593716D01*
X117321722Y-71228091D01*
X116956097Y-70983788D01*
X116524813Y-70898000D01*
X115155187Y-70898000D01*
X114723903Y-70983788D01*
X114358278Y-71228091D01*
X114113975Y-71593716D01*
X114028187Y-72025000D01*
X113952000Y-72025000D01*
X113952000Y-70002673D01*
X114000688Y-69954070D01*
X114082365Y-69757369D01*
X114113975Y-69916284D01*
X114358278Y-70281909D01*
X114723903Y-70526212D01*
X115155187Y-70612000D01*
X116524813Y-70612000D01*
X116956097Y-70526212D01*
X117321722Y-70281909D01*
X117566025Y-69916284D01*
X117651813Y-69485000D01*
X117566025Y-69053716D01*
X117321722Y-68688091D01*
X116956097Y-68443788D01*
X116524813Y-68358000D01*
X115155187Y-68358000D01*
X114723903Y-68443788D01*
X114358278Y-68688091D01*
X114113975Y-69053716D01*
X114082335Y-69212778D01*
X114001505Y-69017154D01*
X113769070Y-68784312D01*
X113465222Y-68658144D01*
X113136221Y-68657857D01*
X112832154Y-68783495D01*
X112599312Y-69015930D01*
X112473144Y-69319778D01*
X112472857Y-69648779D01*
X112598495Y-69952846D01*
X112648000Y-70002438D01*
X112648000Y-82649071D01*
X112632369Y-82570491D01*
X112632369Y-82570490D01*
X112491034Y-82358966D01*
X104236034Y-74103966D01*
X104220788Y-74093779D01*
X104024510Y-73962631D01*
X103983113Y-73954396D01*
X103775000Y-73912999D01*
X103774995Y-73913000D01*
X103022673Y-73913000D01*
X102974070Y-73864312D01*
X102670222Y-73738144D01*
X102341221Y-73737857D01*
X102122035Y-73828423D01*
X102081722Y-73768091D01*
X101716097Y-73523788D01*
X101284813Y-73438000D01*
X99915187Y-73438000D01*
X99483903Y-73523788D01*
X99118278Y-73768091D01*
X98873975Y-74133716D01*
X98788187Y-74565000D01*
X98873975Y-74996284D01*
X99118278Y-75361909D01*
X99483903Y-75606212D01*
X99915187Y-75692000D01*
X101284813Y-75692000D01*
X101716097Y-75606212D01*
X102081722Y-75361909D01*
X102122105Y-75301471D01*
X102339778Y-75391856D01*
X102668779Y-75392143D01*
X102972846Y-75266505D01*
X103022438Y-75217000D01*
X103504932Y-75217000D01*
X111378000Y-83090068D01*
X111378000Y-83785933D01*
X104236034Y-76643966D01*
X104220788Y-76633779D01*
X104024510Y-76502631D01*
X103983113Y-76494396D01*
X103775000Y-76452999D01*
X103774995Y-76453000D01*
X103022673Y-76453000D01*
X102974070Y-76404312D01*
X102670222Y-76278144D01*
X102341221Y-76277857D01*
X102122035Y-76368423D01*
X102081722Y-76308091D01*
X101716097Y-76063788D01*
X101284813Y-75978000D01*
X99915187Y-75978000D01*
X99483903Y-76063788D01*
X99118278Y-76308091D01*
X98873975Y-76673716D01*
X98788187Y-77105000D01*
X98873975Y-77536284D01*
X99118278Y-77901909D01*
X99483903Y-78146212D01*
X99915187Y-78232000D01*
X101284813Y-78232000D01*
X101716097Y-78146212D01*
X102081722Y-77901909D01*
X102122105Y-77841471D01*
X102339778Y-77931856D01*
X102668779Y-77932143D01*
X102972846Y-77806505D01*
X103022438Y-77757000D01*
X103504932Y-77757000D01*
X110743000Y-84995067D01*
X110743000Y-85690933D01*
X104236034Y-79183966D01*
X104075206Y-79076505D01*
X104024510Y-79042631D01*
X103983113Y-79034396D01*
X103775000Y-78992999D01*
X103774995Y-78993000D01*
X103022673Y-78993000D01*
X102974070Y-78944312D01*
X102670222Y-78818144D01*
X102341221Y-78817857D01*
X102122035Y-78908423D01*
X102081722Y-78848091D01*
X101716097Y-78603788D01*
X101284813Y-78518000D01*
X99915187Y-78518000D01*
X99483903Y-78603788D01*
X99118278Y-78848091D01*
X98873975Y-79213716D01*
X98788187Y-79645000D01*
X98873975Y-80076284D01*
X99118278Y-80441909D01*
X99483903Y-80686212D01*
X99915187Y-80772000D01*
X101284813Y-80772000D01*
X101716097Y-80686212D01*
X102081722Y-80441909D01*
X102122105Y-80381471D01*
X102339778Y-80471856D01*
X102668779Y-80472143D01*
X102972846Y-80346505D01*
X103022438Y-80297000D01*
X103504932Y-80297000D01*
X110108000Y-86900067D01*
X110108000Y-87595932D01*
X104236034Y-81723966D01*
X104224007Y-81715930D01*
X104024510Y-81582631D01*
X103983113Y-81574396D01*
X103775000Y-81532999D01*
X103774995Y-81533000D01*
X103022673Y-81533000D01*
X102974070Y-81484312D01*
X102670222Y-81358144D01*
X102341221Y-81357857D01*
X102122035Y-81448423D01*
X102081722Y-81388091D01*
X101716097Y-81143788D01*
X101284813Y-81058000D01*
X99915187Y-81058000D01*
X99483903Y-81143788D01*
X99118278Y-81388091D01*
X98873975Y-81753716D01*
X98788187Y-82185000D01*
X98873975Y-82616284D01*
X99118278Y-82981909D01*
X99483903Y-83226212D01*
X99915187Y-83312000D01*
X101284813Y-83312000D01*
X101716097Y-83226212D01*
X102081722Y-82981909D01*
X102122105Y-82921471D01*
X102339778Y-83011856D01*
X102668779Y-83012143D01*
X102972846Y-82886505D01*
X103022438Y-82837000D01*
X103504932Y-82837000D01*
X109473000Y-88805068D01*
X109473000Y-89500933D01*
X104236034Y-84263966D01*
X104075206Y-84156505D01*
X104024510Y-84122631D01*
X103983113Y-84114396D01*
X103775000Y-84072999D01*
X103774995Y-84073000D01*
X103022673Y-84073000D01*
X102974070Y-84024312D01*
X102670222Y-83898144D01*
X102341221Y-83897857D01*
X102122035Y-83988423D01*
X102081722Y-83928091D01*
X101716097Y-83683788D01*
X101284813Y-83598000D01*
X99915187Y-83598000D01*
X99483903Y-83683788D01*
X99118278Y-83928091D01*
X98873975Y-84293716D01*
X98788187Y-84725000D01*
X98873975Y-85156284D01*
X99118278Y-85521909D01*
X99483903Y-85766212D01*
X99915187Y-85852000D01*
X101284813Y-85852000D01*
X101716097Y-85766212D01*
X102081722Y-85521909D01*
X102122105Y-85461471D01*
X102339778Y-85551856D01*
X102668779Y-85552143D01*
X102972846Y-85426505D01*
X103022438Y-85377000D01*
X103504932Y-85377000D01*
X108838000Y-90710067D01*
X108838000Y-91405932D01*
X104236034Y-86803966D01*
X104120847Y-86727001D01*
X104024510Y-86662631D01*
X103983113Y-86654396D01*
X103775000Y-86612999D01*
X103774995Y-86613000D01*
X103022673Y-86613000D01*
X102974070Y-86564312D01*
X102670222Y-86438144D01*
X102341221Y-86437857D01*
X102122035Y-86528423D01*
X102081722Y-86468091D01*
X101716097Y-86223788D01*
X101284813Y-86138000D01*
X99915187Y-86138000D01*
X99483903Y-86223788D01*
X99118278Y-86468091D01*
X98873975Y-86833716D01*
X98788187Y-87265000D01*
X98873975Y-87696284D01*
X99118278Y-88061909D01*
X99483903Y-88306212D01*
X99915187Y-88392000D01*
X101284813Y-88392000D01*
X101716097Y-88306212D01*
X102081722Y-88061909D01*
X102122105Y-88001471D01*
X102339778Y-88091856D01*
X102668779Y-88092143D01*
X102972846Y-87966505D01*
X103022438Y-87917000D01*
X103504932Y-87917000D01*
X108203000Y-92615068D01*
X108203000Y-93310933D01*
X104236034Y-89343966D01*
X104120847Y-89267001D01*
X104024510Y-89202631D01*
X103983113Y-89194396D01*
X103775000Y-89152999D01*
X103774995Y-89153000D01*
X103022673Y-89153000D01*
X102974070Y-89104312D01*
X102670222Y-88978144D01*
X102341221Y-88977857D01*
X102122035Y-89068423D01*
X102081722Y-89008091D01*
X101716097Y-88763788D01*
X101284813Y-88678000D01*
X99915187Y-88678000D01*
X99483903Y-88763788D01*
X99118278Y-89008091D01*
X98873975Y-89373716D01*
X98788187Y-89805000D01*
X98873975Y-90236284D01*
X99118278Y-90601909D01*
X99483903Y-90846212D01*
X99915187Y-90932000D01*
X101284813Y-90932000D01*
X101716097Y-90846212D01*
X102081722Y-90601909D01*
X102122105Y-90541471D01*
X102339778Y-90631856D01*
X102668779Y-90632143D01*
X102972846Y-90506505D01*
X103022438Y-90457000D01*
X103504932Y-90457000D01*
X107568000Y-94520067D01*
X107568000Y-95215933D01*
X104236034Y-91883966D01*
X104144239Y-91822631D01*
X104024510Y-91742631D01*
X103983113Y-91734396D01*
X103775000Y-91692999D01*
X103774995Y-91693000D01*
X103022673Y-91693000D01*
X102974070Y-91644312D01*
X102670222Y-91518144D01*
X102341221Y-91517857D01*
X102122035Y-91608423D01*
X102081722Y-91548091D01*
X101716097Y-91303788D01*
X101284813Y-91218000D01*
X99915187Y-91218000D01*
X99483903Y-91303788D01*
X99118278Y-91548091D01*
X98873975Y-91913716D01*
X98788187Y-92345000D01*
X98873975Y-92776284D01*
X99118278Y-93141909D01*
X99483903Y-93386212D01*
X99915187Y-93472000D01*
X101284813Y-93472000D01*
X101716097Y-93386212D01*
X102081722Y-93141909D01*
X102122105Y-93081471D01*
X102339778Y-93171856D01*
X102668779Y-93172143D01*
X102972846Y-93046505D01*
X103022438Y-92997000D01*
X103504932Y-92997000D01*
X106933000Y-96425067D01*
X106933000Y-99694933D01*
X104583966Y-102043966D01*
X104442631Y-102255490D01*
X104442631Y-102255491D01*
X104392999Y-102505000D01*
X104393000Y-102505005D01*
X104393000Y-103774995D01*
X104392999Y-103775000D01*
X104434396Y-103983113D01*
X104442631Y-104024510D01*
X104523162Y-104145034D01*
X104583966Y-104236034D01*
X105853964Y-105506031D01*
X105853966Y-105506034D01*
X106065490Y-105647369D01*
X106315000Y-105697000D01*
X110489932Y-105697000D01*
X110567917Y-105774985D01*
X110567857Y-105843779D01*
X110693495Y-106147846D01*
X110925930Y-106380688D01*
X111229778Y-106506856D01*
X111558779Y-106507143D01*
X111862846Y-106381505D01*
X112095688Y-106149070D01*
X112129815Y-106066883D01*
X112838966Y-106776034D01*
X113050490Y-106917369D01*
X113091887Y-106925604D01*
X113300000Y-106967001D01*
X113300005Y-106967000D01*
X113944936Y-106967000D01*
X113699412Y-107212096D01*
X113428310Y-107864982D01*
X113427693Y-108571916D01*
X113697655Y-109225274D01*
X113750289Y-109278000D01*
X109040404Y-109278000D01*
X109090588Y-109227904D01*
X109361690Y-108575018D01*
X109362307Y-107868084D01*
X109092345Y-107214726D01*
X108592904Y-106714412D01*
X107940018Y-106443310D01*
X107233084Y-106442693D01*
X106579726Y-106712655D01*
X106079412Y-107212096D01*
X105808310Y-107864982D01*
X105807693Y-108571916D01*
X106077655Y-109225274D01*
X106130289Y-109278000D01*
X98662000Y-109278000D01*
X98662000Y-105880000D01*
X99858000Y-105880000D01*
X100025617Y-106722669D01*
X100502951Y-107437049D01*
X101217331Y-107914383D01*
X102060000Y-108082000D01*
X102902669Y-107914383D01*
X103617049Y-107437049D01*
X104094383Y-106722669D01*
X104262000Y-105880000D01*
X104094383Y-105037331D01*
X103617049Y-104322951D01*
X102902669Y-103845617D01*
X102060000Y-103678000D01*
X101217331Y-103845617D01*
X100502951Y-104322951D01*
X100025617Y-105037331D01*
X99858000Y-105880000D01*
X98662000Y-105880000D01*
X98662000Y-99965000D01*
X98788187Y-99965000D01*
X98873975Y-100396284D01*
X99118278Y-100761909D01*
X99483903Y-101006212D01*
X99915187Y-101092000D01*
X101284813Y-101092000D01*
X101716097Y-101006212D01*
X102081722Y-100761909D01*
X102326025Y-100396284D01*
X102411813Y-99965000D01*
X102326025Y-99533716D01*
X102081722Y-99168091D01*
X101716097Y-98923788D01*
X101284813Y-98838000D01*
X99915187Y-98838000D01*
X99483903Y-98923788D01*
X99118278Y-99168091D01*
X98873975Y-99533716D01*
X98788187Y-99965000D01*
X98662000Y-99965000D01*
X98662000Y-97425000D01*
X98788187Y-97425000D01*
X98873975Y-97856284D01*
X99118278Y-98221909D01*
X99483903Y-98466212D01*
X99915187Y-98552000D01*
X101284813Y-98552000D01*
X101716097Y-98466212D01*
X102081722Y-98221909D01*
X102326025Y-97856284D01*
X102411813Y-97425000D01*
X102326025Y-96993716D01*
X102081722Y-96628091D01*
X101716097Y-96383788D01*
X101284813Y-96298000D01*
X99915187Y-96298000D01*
X99483903Y-96383788D01*
X99118278Y-96628091D01*
X98873975Y-96993716D01*
X98788187Y-97425000D01*
X98662000Y-97425000D01*
X98662000Y-94885000D01*
X98788187Y-94885000D01*
X98873975Y-95316284D01*
X99118278Y-95681909D01*
X99483903Y-95926212D01*
X99915187Y-96012000D01*
X101284813Y-96012000D01*
X101716097Y-95926212D01*
X102081722Y-95681909D01*
X102326025Y-95316284D01*
X102411813Y-94885000D01*
X102326025Y-94453716D01*
X102081722Y-94088091D01*
X101716097Y-93843788D01*
X101284813Y-93758000D01*
X99915187Y-93758000D01*
X99483903Y-93843788D01*
X99118278Y-94088091D01*
X98873975Y-94453716D01*
X98788187Y-94885000D01*
X98662000Y-94885000D01*
X98662000Y-72273033D01*
X98850633Y-72273033D01*
X98880852Y-72388841D01*
X99101472Y-72770290D01*
X99451273Y-73038276D01*
X99877000Y-73152000D01*
X100527000Y-73152000D01*
X100527000Y-72098000D01*
X100673000Y-72098000D01*
X100673000Y-73152000D01*
X101323000Y-73152000D01*
X101748727Y-73038276D01*
X102098528Y-72770290D01*
X102319148Y-72388841D01*
X102349367Y-72273033D01*
X102242569Y-72098000D01*
X100673000Y-72098000D01*
X100527000Y-72098000D01*
X98957431Y-72098000D01*
X98850633Y-72273033D01*
X98662000Y-72273033D01*
X98662000Y-71776967D01*
X98850633Y-71776967D01*
X98957431Y-71952000D01*
X100527000Y-71952000D01*
X100527000Y-70898000D01*
X100673000Y-70898000D01*
X100673000Y-71952000D01*
X102242569Y-71952000D01*
X102349367Y-71776967D01*
X102319148Y-71661159D01*
X102098528Y-71279710D01*
X101748727Y-71011724D01*
X101323000Y-70898000D01*
X100673000Y-70898000D01*
X100527000Y-70898000D01*
X99877000Y-70898000D01*
X99451273Y-71011724D01*
X99101472Y-71279710D01*
X98880852Y-71661159D01*
X98850633Y-71776967D01*
X98662000Y-71776967D01*
X98662000Y-69485000D01*
X98788187Y-69485000D01*
X98873975Y-69916284D01*
X99118278Y-70281909D01*
X99483903Y-70526212D01*
X99915187Y-70612000D01*
X101284813Y-70612000D01*
X101716097Y-70526212D01*
X102081722Y-70281909D01*
X102326025Y-69916284D01*
X102411813Y-69485000D01*
X102326025Y-69053716D01*
X102081722Y-68688091D01*
X101716097Y-68443788D01*
X101284813Y-68358000D01*
X99915187Y-68358000D01*
X99483903Y-68443788D01*
X99118278Y-68688091D01*
X98873975Y-69053716D01*
X98788187Y-69485000D01*
X98662000Y-69485000D01*
X98662000Y-66945000D01*
X98788187Y-66945000D01*
X98873975Y-67376284D01*
X99118278Y-67741909D01*
X99483903Y-67986212D01*
X99915187Y-68072000D01*
X101284813Y-68072000D01*
X101716097Y-67986212D01*
X102081722Y-67741909D01*
X102326025Y-67376284D01*
X102411813Y-66945000D01*
X102326025Y-66513716D01*
X102081722Y-66148091D01*
X101716097Y-65903788D01*
X101284813Y-65818000D01*
X99915187Y-65818000D01*
X99483903Y-65903788D01*
X99118278Y-66148091D01*
X98873975Y-66513716D01*
X98788187Y-66945000D01*
X98662000Y-66945000D01*
X98662000Y-64405000D01*
X98788187Y-64405000D01*
X98873975Y-64836284D01*
X99118278Y-65201909D01*
X99483903Y-65446212D01*
X99915187Y-65532000D01*
X101284813Y-65532000D01*
X101716097Y-65446212D01*
X102081722Y-65201909D01*
X102326025Y-64836284D01*
X102379235Y-64568779D01*
X110567857Y-64568779D01*
X110693495Y-64872846D01*
X110743000Y-64922438D01*
X110743000Y-71507327D01*
X110694312Y-71555930D01*
X110568144Y-71859778D01*
X110567857Y-72188779D01*
X110693495Y-72492846D01*
X110925930Y-72725688D01*
X111229778Y-72851856D01*
X111558779Y-72852143D01*
X111862846Y-72726505D01*
X112095688Y-72494070D01*
X112221856Y-72190222D01*
X112222143Y-71861221D01*
X112096505Y-71557154D01*
X112047000Y-71507562D01*
X112047000Y-67193033D01*
X114090633Y-67193033D01*
X114120852Y-67308841D01*
X114341472Y-67690290D01*
X114691273Y-67958276D01*
X115117000Y-68072000D01*
X115767000Y-68072000D01*
X115767000Y-67018000D01*
X115913000Y-67018000D01*
X115913000Y-68072000D01*
X116563000Y-68072000D01*
X116988727Y-67958276D01*
X117338528Y-67690290D01*
X117559148Y-67308841D01*
X117589367Y-67193033D01*
X117482569Y-67018000D01*
X115913000Y-67018000D01*
X115767000Y-67018000D01*
X114197431Y-67018000D01*
X114090633Y-67193033D01*
X112047000Y-67193033D01*
X112047000Y-66945000D01*
X117708493Y-66945000D01*
X117824729Y-67529358D01*
X118155741Y-68024752D01*
X118440467Y-68215000D01*
X118155741Y-68405248D01*
X117824729Y-68900642D01*
X117708493Y-69485000D01*
X117824729Y-70069358D01*
X118155741Y-70564752D01*
X118651135Y-70895764D01*
X119235493Y-71012000D01*
X121334507Y-71012000D01*
X121918865Y-70895764D01*
X122414259Y-70564752D01*
X122745271Y-70069358D01*
X122861507Y-69485000D01*
X122745271Y-68900642D01*
X122414259Y-68405248D01*
X122129533Y-68215000D01*
X122414259Y-68024752D01*
X122745271Y-67529358D01*
X122861507Y-66945000D01*
X122790770Y-66589376D01*
X126607736Y-66589376D01*
X126813397Y-67064551D01*
X127185244Y-67424853D01*
X127625624Y-67607258D01*
X127832000Y-67503019D01*
X127832000Y-66383000D01*
X127978000Y-66383000D01*
X127978000Y-67503019D01*
X128184376Y-67607258D01*
X128250184Y-67580000D01*
X129727003Y-67580000D01*
X129828015Y-68087821D01*
X130115672Y-68518331D01*
X130546182Y-68805988D01*
X130767445Y-68850000D01*
X130546182Y-68894012D01*
X130115672Y-69181669D01*
X129828015Y-69612179D01*
X129727003Y-70120000D01*
X129828015Y-70627821D01*
X130115672Y-71058331D01*
X130546182Y-71345988D01*
X130767445Y-71390000D01*
X130546182Y-71434012D01*
X130115672Y-71721669D01*
X129828015Y-72152179D01*
X129727003Y-72660000D01*
X129828015Y-73167821D01*
X130115672Y-73598331D01*
X130546182Y-73885988D01*
X130767445Y-73930000D01*
X130546182Y-73974012D01*
X130115672Y-74261669D01*
X129828015Y-74692179D01*
X129727003Y-75200000D01*
X129828015Y-75707821D01*
X130115672Y-76138331D01*
X130546182Y-76425988D01*
X131054003Y-76527000D01*
X131105997Y-76527000D01*
X131613818Y-76425988D01*
X132044328Y-76138331D01*
X132331985Y-75707821D01*
X132432997Y-75200000D01*
X132331985Y-74692179D01*
X132044328Y-74261669D01*
X131613818Y-73974012D01*
X131392555Y-73930000D01*
X131613818Y-73885988D01*
X132044328Y-73598331D01*
X132331985Y-73167821D01*
X132432997Y-72660000D01*
X132331985Y-72152179D01*
X132044328Y-71721669D01*
X131613818Y-71434012D01*
X131392555Y-71390000D01*
X131613818Y-71345988D01*
X132044328Y-71058331D01*
X132331985Y-70627821D01*
X132432997Y-70120000D01*
X132331985Y-69612179D01*
X132044328Y-69181669D01*
X131613818Y-68894012D01*
X131392555Y-68850000D01*
X131613818Y-68805988D01*
X132044328Y-68518331D01*
X132331985Y-68087821D01*
X132432997Y-67580000D01*
X137347003Y-67580000D01*
X137448015Y-68087821D01*
X137735672Y-68518331D01*
X138166182Y-68805988D01*
X138387445Y-68850000D01*
X138166182Y-68894012D01*
X137735672Y-69181669D01*
X137448015Y-69612179D01*
X137347003Y-70120000D01*
X137448015Y-70627821D01*
X137735672Y-71058331D01*
X138166182Y-71345988D01*
X138367019Y-71385937D01*
X137945449Y-71568397D01*
X137585147Y-71940244D01*
X137402742Y-72380624D01*
X137506981Y-72587000D01*
X138627000Y-72587000D01*
X138627000Y-72567000D01*
X138773000Y-72567000D01*
X138773000Y-72587000D01*
X139893019Y-72587000D01*
X139997258Y-72380624D01*
X139814853Y-71940244D01*
X139454551Y-71568397D01*
X139032981Y-71385937D01*
X139233818Y-71345988D01*
X139664328Y-71058331D01*
X139951985Y-70627821D01*
X140052997Y-70120000D01*
X139951985Y-69612179D01*
X139664328Y-69181669D01*
X139233818Y-68894012D01*
X139012555Y-68850000D01*
X139233818Y-68805988D01*
X139664328Y-68518331D01*
X139951985Y-68087821D01*
X140052997Y-67580000D01*
X139951985Y-67072179D01*
X139664328Y-66641669D01*
X139233818Y-66354012D01*
X138725997Y-66253000D01*
X138674003Y-66253000D01*
X138166182Y-66354012D01*
X137735672Y-66641669D01*
X137448015Y-67072179D01*
X137347003Y-67580000D01*
X132432997Y-67580000D01*
X132331985Y-67072179D01*
X132044328Y-66641669D01*
X131613818Y-66354012D01*
X131105997Y-66253000D01*
X131054003Y-66253000D01*
X130546182Y-66354012D01*
X130115672Y-66641669D01*
X129828015Y-67072179D01*
X129727003Y-67580000D01*
X128250184Y-67580000D01*
X128624756Y-67424853D01*
X128996603Y-67064551D01*
X129202264Y-66589376D01*
X129098247Y-66383000D01*
X127978000Y-66383000D01*
X127832000Y-66383000D01*
X126711753Y-66383000D01*
X126607736Y-66589376D01*
X122790770Y-66589376D01*
X122745271Y-66360642D01*
X122524760Y-66030624D01*
X126607736Y-66030624D01*
X126711753Y-66237000D01*
X127832000Y-66237000D01*
X127832000Y-65116981D01*
X127978000Y-65116981D01*
X127978000Y-66237000D01*
X129098247Y-66237000D01*
X129202264Y-66030624D01*
X128996603Y-65555449D01*
X128624756Y-65195147D01*
X128184376Y-65012742D01*
X127978000Y-65116981D01*
X127832000Y-65116981D01*
X127625624Y-65012742D01*
X127185244Y-65195147D01*
X126813397Y-65555449D01*
X126607736Y-66030624D01*
X122524760Y-66030624D01*
X122414259Y-65865248D01*
X121918865Y-65534236D01*
X121334507Y-65418000D01*
X119235493Y-65418000D01*
X118651135Y-65534236D01*
X118155741Y-65865248D01*
X117824729Y-66360642D01*
X117708493Y-66945000D01*
X112047000Y-66945000D01*
X112047000Y-66696967D01*
X114090633Y-66696967D01*
X114197431Y-66872000D01*
X115767000Y-66872000D01*
X115767000Y-65818000D01*
X115913000Y-65818000D01*
X115913000Y-66872000D01*
X117482569Y-66872000D01*
X117589367Y-66696967D01*
X117559148Y-66581159D01*
X117338528Y-66199710D01*
X116988727Y-65931724D01*
X116563000Y-65818000D01*
X115913000Y-65818000D01*
X115767000Y-65818000D01*
X115117000Y-65818000D01*
X114691273Y-65931724D01*
X114341472Y-66199710D01*
X114120852Y-66581159D01*
X114090633Y-66696967D01*
X112047000Y-66696967D01*
X112047000Y-64922673D01*
X112095688Y-64874070D01*
X112221856Y-64570222D01*
X112222000Y-64405000D01*
X114028187Y-64405000D01*
X114113975Y-64836284D01*
X114358278Y-65201909D01*
X114723903Y-65446212D01*
X115155187Y-65532000D01*
X116524813Y-65532000D01*
X116956097Y-65446212D01*
X117321722Y-65201909D01*
X117566025Y-64836284D01*
X117651813Y-64405000D01*
X117577778Y-64032798D01*
X130387771Y-64032798D01*
X130589369Y-64520703D01*
X130962334Y-64894319D01*
X131449885Y-65096769D01*
X131977798Y-65097229D01*
X132465703Y-64895631D01*
X132839319Y-64522666D01*
X133041769Y-64035115D01*
X133042000Y-63770000D01*
X140522003Y-63770000D01*
X140623015Y-64277821D01*
X140910672Y-64708331D01*
X141341182Y-64995988D01*
X141849003Y-65097000D01*
X141900997Y-65097000D01*
X142408818Y-64995988D01*
X142839328Y-64708331D01*
X143126985Y-64277821D01*
X143227997Y-63770000D01*
X143126985Y-63262179D01*
X142839328Y-62831669D01*
X142408818Y-62544012D01*
X141900997Y-62443000D01*
X141849003Y-62443000D01*
X141341182Y-62544012D01*
X140910672Y-62831669D01*
X140623015Y-63262179D01*
X140522003Y-63770000D01*
X133042000Y-63770000D01*
X133042229Y-63507202D01*
X132840631Y-63019297D01*
X132467666Y-62645681D01*
X131980115Y-62443231D01*
X131452202Y-62442771D01*
X130964297Y-62644369D01*
X130590681Y-63017334D01*
X130388231Y-63504885D01*
X130387771Y-64032798D01*
X117577778Y-64032798D01*
X117566025Y-63973716D01*
X117321722Y-63608091D01*
X116956097Y-63363788D01*
X116524813Y-63278000D01*
X115155187Y-63278000D01*
X114723903Y-63363788D01*
X114358278Y-63608091D01*
X114113975Y-63973716D01*
X114028187Y-64405000D01*
X112222000Y-64405000D01*
X112222143Y-64241221D01*
X112096505Y-63937154D01*
X111864070Y-63704312D01*
X111560222Y-63578144D01*
X111231221Y-63577857D01*
X110927154Y-63703495D01*
X110694312Y-63935930D01*
X110568144Y-64239778D01*
X110567857Y-64568779D01*
X102379235Y-64568779D01*
X102411813Y-64405000D01*
X102326025Y-63973716D01*
X102081722Y-63608091D01*
X101716097Y-63363788D01*
X101284813Y-63278000D01*
X99915187Y-63278000D01*
X99483903Y-63363788D01*
X99118278Y-63608091D01*
X98873975Y-63973716D01*
X98788187Y-64405000D01*
X98662000Y-64405000D01*
X98662000Y-58939293D01*
X98717017Y-58662701D01*
X103672762Y-58662701D01*
X103881956Y-59168989D01*
X104268974Y-59556683D01*
X104517776Y-59659995D01*
X104271011Y-59761956D01*
X103883317Y-60148974D01*
X103673240Y-60654896D01*
X103672762Y-61202701D01*
X103881956Y-61708989D01*
X104268974Y-62096683D01*
X104774896Y-62306760D01*
X105322701Y-62307238D01*
X105828989Y-62098044D01*
X106216683Y-61711026D01*
X106319995Y-61462224D01*
X106421956Y-61708989D01*
X106808974Y-62096683D01*
X107314896Y-62306760D01*
X107862701Y-62307238D01*
X108368989Y-62098044D01*
X108756683Y-61711026D01*
X108859995Y-61462224D01*
X108961956Y-61708989D01*
X109348974Y-62096683D01*
X109854896Y-62306760D01*
X110402701Y-62307238D01*
X110908989Y-62098044D01*
X111296683Y-61711026D01*
X111399995Y-61462224D01*
X111501956Y-61708989D01*
X111888974Y-62096683D01*
X112394896Y-62306760D01*
X112942701Y-62307238D01*
X113448989Y-62098044D01*
X113836683Y-61711026D01*
X113939995Y-61462224D01*
X114041956Y-61708989D01*
X114428974Y-62096683D01*
X114934896Y-62306760D01*
X115482701Y-62307238D01*
X115988989Y-62098044D01*
X116376683Y-61711026D01*
X116479995Y-61462224D01*
X116581956Y-61708989D01*
X116968974Y-62096683D01*
X117474896Y-62306760D01*
X118022701Y-62307238D01*
X118528989Y-62098044D01*
X118916683Y-61711026D01*
X119019995Y-61462224D01*
X119121956Y-61708989D01*
X119508974Y-62096683D01*
X120014896Y-62306760D01*
X120562701Y-62307238D01*
X121068989Y-62098044D01*
X121456683Y-61711026D01*
X121559995Y-61462224D01*
X121661956Y-61708989D01*
X122048974Y-62096683D01*
X122554896Y-62306760D01*
X123102701Y-62307238D01*
X123608989Y-62098044D01*
X123996683Y-61711026D01*
X124099995Y-61462224D01*
X124201956Y-61708989D01*
X124588974Y-62096683D01*
X125094896Y-62306760D01*
X125642701Y-62307238D01*
X126148989Y-62098044D01*
X126367677Y-61879737D01*
X127063501Y-61879737D01*
X127144938Y-62107213D01*
X127653675Y-62310380D01*
X128201435Y-62303397D01*
X128675062Y-62107213D01*
X128756499Y-61879737D01*
X127910000Y-61033238D01*
X127063501Y-61879737D01*
X126367677Y-61879737D01*
X126536683Y-61711026D01*
X126638166Y-61466628D01*
X126732787Y-61695062D01*
X126960263Y-61776499D01*
X127806762Y-60930000D01*
X126960263Y-60083501D01*
X126732787Y-60164938D01*
X126639902Y-60397526D01*
X126538044Y-60151011D01*
X126151026Y-59763317D01*
X125902224Y-59660005D01*
X126148989Y-59558044D01*
X126367677Y-59339737D01*
X127063501Y-59339737D01*
X127144938Y-59567213D01*
X127373036Y-59658305D01*
X127144938Y-59752787D01*
X127063501Y-59980263D01*
X127910000Y-60826762D01*
X128756499Y-59980263D01*
X128675062Y-59752787D01*
X128446964Y-59661695D01*
X128675062Y-59567213D01*
X128756499Y-59339737D01*
X127910000Y-58493238D01*
X127063501Y-59339737D01*
X126367677Y-59339737D01*
X126536683Y-59171026D01*
X126638166Y-58926628D01*
X126732787Y-59155062D01*
X126960263Y-59236499D01*
X127806762Y-58390000D01*
X128013238Y-58390000D01*
X128859737Y-59236499D01*
X129087213Y-59155062D01*
X129180098Y-58922474D01*
X129281956Y-59168989D01*
X129668974Y-59556683D01*
X129917776Y-59659995D01*
X129671011Y-59761956D01*
X129283317Y-60148974D01*
X129181834Y-60393372D01*
X129087213Y-60164938D01*
X128859737Y-60083501D01*
X128013238Y-60930000D01*
X128859737Y-61776499D01*
X129087213Y-61695062D01*
X129180098Y-61462474D01*
X129281956Y-61708989D01*
X129668974Y-62096683D01*
X130174896Y-62306760D01*
X130722701Y-62307238D01*
X131228989Y-62098044D01*
X131616683Y-61711026D01*
X131719995Y-61462224D01*
X131821956Y-61708989D01*
X132208974Y-62096683D01*
X132714896Y-62306760D01*
X133262701Y-62307238D01*
X133768989Y-62098044D01*
X134156683Y-61711026D01*
X134259995Y-61462224D01*
X134361956Y-61708989D01*
X134748974Y-62096683D01*
X135254896Y-62306760D01*
X135802701Y-62307238D01*
X136308989Y-62098044D01*
X136696683Y-61711026D01*
X136799995Y-61462224D01*
X136901956Y-61708989D01*
X137288974Y-62096683D01*
X137794896Y-62306760D01*
X138342701Y-62307238D01*
X138848989Y-62098044D01*
X139236683Y-61711026D01*
X139339995Y-61462224D01*
X139441956Y-61708989D01*
X139828974Y-62096683D01*
X140334896Y-62306760D01*
X140882701Y-62307238D01*
X141388989Y-62098044D01*
X141776683Y-61711026D01*
X141879995Y-61462224D01*
X141981956Y-61708989D01*
X142368974Y-62096683D01*
X142874896Y-62306760D01*
X143422701Y-62307238D01*
X143928989Y-62098044D01*
X144316683Y-61711026D01*
X144526760Y-61205104D01*
X144527084Y-60833627D01*
X149954611Y-60833627D01*
X150029945Y-61055911D01*
X150520592Y-61250739D01*
X151048449Y-61242973D01*
X151500055Y-61055911D01*
X151575389Y-60833627D01*
X150765000Y-60023238D01*
X149954611Y-60833627D01*
X144527084Y-60833627D01*
X144527238Y-60657299D01*
X144318044Y-60151011D01*
X143931026Y-59763317D01*
X143719762Y-59675592D01*
X149434261Y-59675592D01*
X149442027Y-60203449D01*
X149629089Y-60655055D01*
X149851373Y-60730389D01*
X150661762Y-59920000D01*
X150868238Y-59920000D01*
X151678627Y-60730389D01*
X151900911Y-60655055D01*
X152095739Y-60164408D01*
X152087973Y-59636551D01*
X151900911Y-59184945D01*
X151678627Y-59109611D01*
X150868238Y-59920000D01*
X150661762Y-59920000D01*
X149851373Y-59109611D01*
X149629089Y-59184945D01*
X149434261Y-59675592D01*
X143719762Y-59675592D01*
X143682224Y-59660005D01*
X143928989Y-59558044D01*
X144316683Y-59171026D01*
X144526760Y-58665104D01*
X144527238Y-58117299D01*
X144318044Y-57611011D01*
X143931026Y-57223317D01*
X143425104Y-57013240D01*
X142877299Y-57012762D01*
X142371011Y-57221956D01*
X141983317Y-57608974D01*
X141880005Y-57857776D01*
X141778044Y-57611011D01*
X141391026Y-57223317D01*
X140885104Y-57013240D01*
X140337299Y-57012762D01*
X139831011Y-57221956D01*
X139443317Y-57608974D01*
X139340005Y-57857776D01*
X139238044Y-57611011D01*
X138851026Y-57223317D01*
X138345104Y-57013240D01*
X137797299Y-57012762D01*
X137291011Y-57221956D01*
X136903317Y-57608974D01*
X136800005Y-57857776D01*
X136698044Y-57611011D01*
X136311026Y-57223317D01*
X135805104Y-57013240D01*
X135257299Y-57012762D01*
X134751011Y-57221956D01*
X134363317Y-57608974D01*
X134260005Y-57857776D01*
X134158044Y-57611011D01*
X133771026Y-57223317D01*
X133265104Y-57013240D01*
X132717299Y-57012762D01*
X132211011Y-57221956D01*
X131823317Y-57608974D01*
X131720005Y-57857776D01*
X131618044Y-57611011D01*
X131231026Y-57223317D01*
X130725104Y-57013240D01*
X130177299Y-57012762D01*
X129671011Y-57221956D01*
X129283317Y-57608974D01*
X129181834Y-57853372D01*
X129087213Y-57624938D01*
X128859737Y-57543501D01*
X128013238Y-58390000D01*
X127806762Y-58390000D01*
X126960263Y-57543501D01*
X126732787Y-57624938D01*
X126639902Y-57857526D01*
X126538044Y-57611011D01*
X126367594Y-57440263D01*
X127063501Y-57440263D01*
X127910000Y-58286762D01*
X128756499Y-57440263D01*
X128675062Y-57212787D01*
X128166325Y-57009620D01*
X127618565Y-57016603D01*
X127144938Y-57212787D01*
X127063501Y-57440263D01*
X126367594Y-57440263D01*
X126151026Y-57223317D01*
X125645104Y-57013240D01*
X125097299Y-57012762D01*
X124591011Y-57221956D01*
X124203317Y-57608974D01*
X124100005Y-57857776D01*
X123998044Y-57611011D01*
X123611026Y-57223317D01*
X123105104Y-57013240D01*
X122557299Y-57012762D01*
X122051011Y-57221956D01*
X121663317Y-57608974D01*
X121560005Y-57857776D01*
X121458044Y-57611011D01*
X121071026Y-57223317D01*
X120565104Y-57013240D01*
X120017299Y-57012762D01*
X119511011Y-57221956D01*
X119123317Y-57608974D01*
X119020005Y-57857776D01*
X118918044Y-57611011D01*
X118531026Y-57223317D01*
X118025104Y-57013240D01*
X117477299Y-57012762D01*
X116971011Y-57221956D01*
X116583317Y-57608974D01*
X116480005Y-57857776D01*
X116378044Y-57611011D01*
X115991026Y-57223317D01*
X115485104Y-57013240D01*
X114937299Y-57012762D01*
X114431011Y-57221956D01*
X114043317Y-57608974D01*
X113940005Y-57857776D01*
X113838044Y-57611011D01*
X113451026Y-57223317D01*
X112945104Y-57013240D01*
X112397299Y-57012762D01*
X111891011Y-57221956D01*
X111503317Y-57608974D01*
X111400005Y-57857776D01*
X111298044Y-57611011D01*
X110911026Y-57223317D01*
X110405104Y-57013240D01*
X109857299Y-57012762D01*
X109351011Y-57221956D01*
X108963317Y-57608974D01*
X108860005Y-57857776D01*
X108758044Y-57611011D01*
X108371026Y-57223317D01*
X107865104Y-57013240D01*
X107317299Y-57012762D01*
X106811011Y-57221956D01*
X106423317Y-57608974D01*
X106320005Y-57857776D01*
X106218044Y-57611011D01*
X105831026Y-57223317D01*
X105325104Y-57013240D01*
X104777299Y-57012762D01*
X104271011Y-57221956D01*
X103883317Y-57608974D01*
X103673240Y-58114896D01*
X103672762Y-58662701D01*
X98717017Y-58662701D01*
X98931554Y-57584155D01*
X99575782Y-56620000D01*
X149427676Y-56620000D01*
X149427676Y-58220000D01*
X149464423Y-58415294D01*
X149579842Y-58594660D01*
X149755951Y-58714990D01*
X149965000Y-58757324D01*
X150094561Y-58757324D01*
X150029945Y-58784089D01*
X149954611Y-59006373D01*
X150765000Y-59816762D01*
X151575389Y-59006373D01*
X151500055Y-58784089D01*
X151432651Y-58757324D01*
X151565000Y-58757324D01*
X151760294Y-58720577D01*
X151939660Y-58605158D01*
X152059990Y-58429049D01*
X152102324Y-58220000D01*
X152102324Y-56620000D01*
X152065577Y-56424706D01*
X151950158Y-56245340D01*
X151774049Y-56125010D01*
X151565000Y-56082676D01*
X149965000Y-56082676D01*
X149769706Y-56119423D01*
X149590340Y-56234842D01*
X149470010Y-56410951D01*
X149427676Y-56620000D01*
X99575782Y-56620000D01*
X99665592Y-56485590D01*
X100764155Y-55751554D01*
X101861852Y-55533208D01*
X102134322Y-55805678D01*
X102329625Y-55936175D01*
X102560000Y-55982000D01*
X145560000Y-55982000D01*
X145790375Y-55936175D01*
X145985678Y-55805678D01*
X146309356Y-55482000D01*
X164000707Y-55482000D01*
X165355845Y-55751554D01*
G36*
X115322380Y-103125858D02*
X115308238Y-103140000D01*
X115322380Y-103154142D01*
X115219142Y-103257380D01*
X115205000Y-103243238D01*
X115190858Y-103257380D01*
X115087620Y-103154142D01*
X115101762Y-103140000D01*
X115087620Y-103125858D01*
X115190858Y-103022620D01*
X115205000Y-103036762D01*
X115219142Y-103022620D01*
X115322380Y-103125858D01*
X115322380Y-103125858D01*
G37*
X115322380Y-103125858D02*
X115308238Y-103140000D01*
X115322380Y-103154142D01*
X115219142Y-103257380D01*
X115205000Y-103243238D01*
X115190858Y-103257380D01*
X115087620Y-103154142D01*
X115101762Y-103140000D01*
X115087620Y-103125858D01*
X115190858Y-103022620D01*
X115205000Y-103036762D01*
X115219142Y-103022620D01*
X115322380Y-103125858D01*
G36*
X107702380Y-103125858D02*
X107688238Y-103140000D01*
X107702380Y-103154142D01*
X107599142Y-103257380D01*
X107585000Y-103243238D01*
X107570858Y-103257380D01*
X107467620Y-103154142D01*
X107481762Y-103140000D01*
X107467620Y-103125858D01*
X107570858Y-103022620D01*
X107585000Y-103036762D01*
X107599142Y-103022620D01*
X107702380Y-103125858D01*
X107702380Y-103125858D01*
G37*
X107702380Y-103125858D02*
X107688238Y-103140000D01*
X107702380Y-103154142D01*
X107599142Y-103257380D01*
X107585000Y-103243238D01*
X107570858Y-103257380D01*
X107467620Y-103154142D01*
X107481762Y-103140000D01*
X107467620Y-103125858D01*
X107570858Y-103022620D01*
X107585000Y-103036762D01*
X107599142Y-103022620D01*
X107702380Y-103125858D01*
M02*
